<?xml version="1.0" encoding="UTF-8"?>
<!-- Generator: Adobe Illustrator 16.0.0, SVG Export Plug-In . SVG Version: 6.00 Build 0)  -->
<!DOCTYPE svg PUBLIC "-//W3C//DTD SVG 1.1//EN" "http://www.w3.org/Graphics/SVG/1.1/DTD/svg11.dtd">
<svg version="1.1" id="Слой_1" xmlns="http://www.w3.org/2000/svg" xmlns:xlink="http://www.w3.org/1999/xlink" x="0px" y="0px" width="599.261px" height="97.16px" viewBox="0 0 599.261 97.16" enable-background="new 0 0 599.261 97.16" xml:space="preserve">
<circle fill="#EC2227" cx="60.999" cy="22" r="16.999"/>
<path fill="#FFFFFF" d="M61,16.976c2.74,0,4.962,2.221,4.962,4.961c0,2.737-2.222,4.962-4.962,4.962s-4.961-2.226-4.961-4.962  C56.038,19.197,58.26,16.976,61,16.976 M68.272,20.422c0-4.015-3.256-7.271-7.272-7.271s-7.273,3.261-7.273,7.271  c0,4.019,3.257,7.271,7.273,7.271S68.272,24.438,68.272,20.422z M69.002,20.422c0-4.419-3.583-8.002-8.002-8.002  c-4.418,0-8.002,3.583-8.002,8.002c0,4.418,3.584,8.002,8.002,8.002C65.419,28.425,69.002,24.841,69.002,20.422z M61,11.524  c5.785,0,10.477,4.688,10.477,10.478S66.785,32.477,61,32.477c-5.784,0-10.478-4.69-10.478-10.479S55.215,11.524,61,11.524z"/>
<circle display="none" fill="#EC2227" cx="100.186" cy="22" r="17"/>
<circle fill="#EC2227" cx="139.581" cy="22" r="16.999"/>
<path display="none" fill="#FFFFFF" d="M93.365,21.341c1.423,0.359,2.438,1.146,2.266,1.749c-0.173,0.604-1.466,0.809-2.89,0.446  c-1.423-0.359-2.438-1.145-2.266-1.749C90.648,21.181,91.942,20.981,93.365,21.341L93.365,21.341z M107.006,21.341  c-1.423,0.359-2.438,1.146-2.265,1.749c0.171,0.604,1.465,0.809,2.888,0.446c1.424-0.359,2.438-1.145,2.266-1.749  C109.723,21.181,108.429,20.981,107.006,21.341L107.006,21.341z M89.194,23.977c-0.275-2.035-0.463-3.115,0.921-3.84  c3.097-3.949,6.92-4.697,10.071-4.697s6.976,0.748,10.071,4.697c1.383,0.726,1.196,1.805,0.92,3.839v3.771  c0,0.444-0.364,0.813-0.811,0.813h-2.938c-0.445,0-0.811-0.364-0.811-0.813v-1.104H93.751v1.104c0,0.444-0.364,0.813-0.811,0.813  h-2.938c-0.445,0-0.812-0.364-0.812-0.813v-3.771L89.194,23.977L89.194,23.977z M100.186,20.767c-2.641,0-8.14-0.245-7.199-1.605  c1.24-1.8,3.884-2.951,7.199-2.951s5.958,1.151,7.198,2.951C108.324,20.522,102.826,20.767,100.186,20.767L100.186,20.767z"/>
<g>
	<path fill="#FFFFFF" d="M146.623,15.867c0,0.874-0.166,1.703-0.451,2.472c-0.925,2.742-7.034,16.834-7.034,16.834   s-5.755-15.366-6.252-17.129c-0.222-0.685-0.346-1.413-0.346-2.177c0-3.886,3.154-7.04,7.044-7.04   C143.473,8.827,146.623,11.983,146.623,15.867L146.623,15.867z M144.076,15.896c0-2.479-2.013-4.494-4.492-4.494   c-2.481,0-4.492,2.015-4.492,4.494s2.01,4.492,4.492,4.492C142.064,20.388,144.076,18.377,144.076,15.896L144.076,15.896z"/>
</g>
<circle fill="#EB272A" cx="22" cy="22" r="17"/>
<path display="none" fill="#FFFFFF" d="M31.283,15.815c0.646,1.81,0.023,4.126-1.7,5.854c-1.25,1.251-2.965,1.258-4.577,0.406  c-0.05,0.063-0.105,0.122-0.162,0.183l-8.637,8.639c-0.855,0.854-2.244,0.854-3.101,0c-0.855-0.854-0.855-2.242,0-3.103l8.637-8.636  c0.059-0.06,0.118-0.112,0.182-0.163c-0.852-1.612-0.843-3.327,0.407-4.578c1.724-1.726,4.043-2.348,5.852-1.7l-2.089,2.091  c-0.854,0.854-0.854,2.241,0,3.1c0.857,0.854,2.245,0.854,3.101,0L31.283,15.815z"/>
<path fill="#221F1F" d="M175.176,5.009c0,0-7.394-0.474-5.327,5.326c0,0-6.26,6.284-7.169,7.191  c-0.909,0.909-1.11,2.078-0.378,2.813c0.732,0.731,1.63,1.039,2.788-0.115c1.157-1.157,7.381-7.385,7.381-7.385  s5.641,2.563,5.377-5.144c0,0-1.342,1.344-2.113,2.112c-0.771,0.771-1.86,0.188-2.379-0.332c-0.518-0.521-1.114-1.518-0.266-2.364  C173.941,6.263,175.176,5.009,175.176,5.009z"/>
<path fill="#EA2629" d="M196.879,16.042c0.029,0.229-0.039,0.425-0.207,0.593l-1.973,1.956c-0.089,0.102-0.205,0.186-0.349,0.252  c-0.143,0.069-0.285,0.113-0.422,0.136c-0.01,0-0.039,0.002-0.09,0.007c-0.049,0.005-0.113,0.01-0.193,0.01  c-0.188,0-0.49-0.033-0.91-0.099c-0.42-0.063-0.934-0.226-1.541-0.477c-0.606-0.252-1.297-0.63-2.067-1.134s-1.59-1.195-2.46-2.075  c-0.691-0.684-1.266-1.334-1.721-1.957c-0.453-0.623-0.818-1.195-1.096-1.729c-0.276-0.527-0.483-1.008-0.623-1.438  c-0.139-0.429-0.231-0.8-0.281-1.108c-0.05-0.313-0.068-0.559-0.06-0.731c0.009-0.179,0.015-0.277,0.015-0.296  c0.021-0.14,0.064-0.279,0.135-0.425c0.068-0.146,0.152-0.259,0.252-0.351l1.972-1.971C185.398,5.07,185.556,5,185.734,5  c0.128,0,0.242,0.037,0.342,0.109c0.1,0.074,0.184,0.166,0.252,0.271l1.586,3.012c0.088,0.155,0.112,0.331,0.073,0.521  c-0.038,0.188-0.123,0.346-0.252,0.477l-0.727,0.726c-0.021,0.021-0.037,0.054-0.052,0.099c-0.016,0.044-0.022,0.082-0.022,0.109  c0.039,0.208,0.129,0.445,0.269,0.713c0.116,0.235,0.301,0.524,0.549,0.865c0.246,0.343,0.596,0.73,1.051,1.18  c0.445,0.455,0.84,0.811,1.186,1.063c0.347,0.252,0.636,0.438,0.867,0.556c0.232,0.118,0.41,0.188,0.533,0.216l0.187,0.036  c0.02,0,0.053-0.008,0.096-0.021c0.045-0.016,0.078-0.03,0.098-0.053l0.844-0.856c0.181-0.158,0.388-0.237,0.623-0.237  c0.168,0,0.304,0.03,0.4,0.09h0.014l2.861,1.689C196.715,15.681,196.84,15.844,196.879,16.042L196.879,16.042z"/>
<g>
	<path fill="#EA2629" d="M208.297,11.314c1.742,0,3.158-1.417,3.158-3.155c0-1.741-1.416-3.157-3.158-3.157   c-1.74,0-3.156,1.416-3.156,3.157C205.141,9.898,206.557,11.314,208.297,11.314L208.297,11.314z"/>
	<path fill="#EA2629" d="M212.534,12.844c-0.002,0-0.005-0.002-0.005-0.002c-0.411-0.101-1.67-0.273-1.67-0.273   c-0.143-0.044-0.295,0.031-0.346,0.171l-1.895,5.2c-0.109,0.3-0.533,0.3-0.644,0l-1.895-5.2c-0.041-0.111-0.148-0.184-0.265-0.184   c-0.026,0-1.321,0.181-1.752,0.286c-1.178,0.292-1.921,1.451-1.921,2.657v4.326c0,0.646,0.526,1.174,1.175,1.174h9.953   c0.648,0,1.174-0.523,1.174-1.174v-4.342C214.448,14.284,213.676,13.218,212.534,12.844L212.534,12.844z"/>
	<path fill="#EA2629" d="M209.012,12.467c-0.076-0.083-0.186-0.124-0.297-0.124h-0.834c-0.113,0-0.226,0.042-0.299,0.124   c-0.117,0.127-0.136,0.313-0.051,0.456l0.444,0.672l-0.209,1.764l0.41,1.095c0.041,0.108,0.197,0.108,0.236,0l0.412-1.095   l-0.209-1.764l0.444-0.672C209.147,12.779,209.129,12.594,209.012,12.467L209.012,12.467z"/>
</g>
<path fill="#EA2629" d="M228.243,18.615c0,0.762-0.621,1.385-1.386,1.385c-0.764,0-1.385-0.623-1.385-1.385  c0-0.771,0.621-1.386,1.385-1.386C227.622,17.231,228.243,17.847,228.243,18.615L228.243,18.615z"/>
<path fill="#EA2629" d="M233.856,18.615c0,0.762-0.621,1.385-1.385,1.385c-0.768,0-1.389-0.623-1.389-1.385  c0-0.771,0.621-1.386,1.389-1.386C233.235,17.231,233.856,17.847,233.856,18.615L233.856,18.615z"/>
<path fill="#EA2629" d="M236.004,9.405h-10.546c0,0-0.016,0-0.028,0.008V9.405c0,0-0.152-1.284-0.24-1.813  c-0.084-0.531-1.415-1.196-4.276-2.549c-0.67-0.276-1.232,0.95,0,1.599l2.256,1.051c0,0,0.522,0.306,0.572,0.715  c0.045,0.411,0.959,7.198,0.959,7.198s0.034,0.941,0.896,0.941h8.607c0.719,0,0.86-0.754,0.86-0.754l1.709-5.067  C236.774,10.727,237.276,9.405,236.004,9.405L236.004,9.405z M233.899,14.911h-7.789l-0.172-1.365h8.369L233.899,14.911z   M234.688,12.254h-8.911l-0.181-1.458h9.523L234.688,12.254z"/>
<path fill="#FFFFFF" d="M250.243,18.615c0,0.762-0.621,1.385-1.386,1.385c-0.764,0-1.385-0.623-1.385-1.385  c0-0.771,0.621-1.386,1.385-1.386C249.622,17.231,250.243,17.847,250.243,18.615L250.243,18.615z"/>
<path fill="#FFFFFF" d="M255.856,18.615c0,0.762-0.621,1.385-1.385,1.385c-0.768,0-1.389-0.623-1.389-1.385  c0-0.771,0.621-1.386,1.389-1.386C255.235,17.231,255.856,17.847,255.856,18.615L255.856,18.615z"/>
<path fill="#FFFFFF" d="M258.004,9.405h-10.546c0,0-0.016,0-0.028,0.008V9.405c0,0-0.152-1.284-0.24-1.813  c-0.084-0.531-1.415-1.196-4.276-2.549c-0.67-0.276-1.232,0.95,0,1.599l2.256,1.051c0,0,0.522,0.306,0.572,0.715  c0.045,0.411,0.959,7.198,0.959,7.198s0.034,0.941,0.896,0.941h8.607c0.719,0,0.86-0.754,0.86-0.754l1.709-5.067  C258.774,10.727,259.276,9.405,258.004,9.405L258.004,9.405z M255.899,14.911h-7.789l-0.172-1.365h8.369L255.899,14.911z   M256.688,12.254h-8.911l-0.181-1.458h9.523L256.688,12.254z"/>
<path fill="#EC2227" d="M117.186,22c0,9.391-7.609,17-17,17s-17-7.609-17-17c0-9.385,7.609-17,17-17S117.186,12.615,117.186,22z"/>
<path fill="#FFFFFF" d="M93.365,21.339c1.422,0.362,2.438,1.147,2.266,1.754c-0.174,0.604-1.469,0.806-2.889,0.442  c-1.425-0.354-2.438-1.141-2.266-1.745C90.645,21.177,91.94,20.979,93.365,21.339L93.365,21.339z M107.006,21.339  c-1.422,0.362-2.438,1.147-2.266,1.754c0.174,0.604,1.467,0.806,2.889,0.442c1.425-0.354,2.438-1.141,2.266-1.745  C109.725,21.177,108.431,20.979,107.006,21.339L107.006,21.339z M89.193,23.979c-0.275-2.037-0.462-3.114,0.92-3.841  c3.098-3.951,6.92-4.698,10.073-4.698c3.151,0,6.976,0.747,10.073,4.698c1.382,0.727,1.195,1.804,0.917,3.841v3.77  c0,0.451-0.362,0.815-0.811,0.815h-2.936c-0.447,0-0.808-0.364-0.808-0.815v-1.103H93.75v1.103c0,0.451-0.361,0.815-0.808,0.815  h-2.937c-0.447,0-0.813-0.364-0.813-0.815L89.193,23.979L89.193,23.979z M100.186,20.769c-2.64,0-8.138-0.249-7.2-1.609  c1.24-1.795,3.882-2.949,7.2-2.949s5.958,1.154,7.2,2.949C108.323,20.52,102.825,20.769,100.186,20.769L100.186,20.769z"/>
<circle fill="#0054A6" cx="256.861" cy="44.139" r="12"/>
<path fill="#FFFFFF" d="M255.457,37.248c-2.936,0-5.321,2.386-5.321,5.319c0,2.935,2.386,5.313,5.321,5.313  c1.27,0,2.43-0.438,3.344-1.18c0.038,0.072,0.074,0.146,0.138,0.21l3.318,3.31c0.174,0.186,0.421,0.273,0.658,0.273  c0.237,0,0.476-0.093,0.658-0.273c0.366-0.362,0.366-0.961,0-1.323l-3.31-3.312c-0.091-0.092-0.191-0.153-0.31-0.201  c0.52-0.819,0.813-1.779,0.813-2.813C260.767,39.634,258.391,37.248,255.457,37.248z M255.457,38.884  c2.028,0,3.673,1.655,3.673,3.688c0,0.687-0.191,1.354-0.557,1.946l-0.339,0.528l-0.465,0.374c-0.668,0.539-1.464,0.823-2.313,0.823  c-2.03,0-3.685-1.646-3.685-3.676C251.771,40.539,253.427,38.884,255.457,38.884z"/>
<g>
	<path fill="#2B54A3" d="M300.552,4.139c4.418,0,8.418,1.79,11.313,4.688c2.896,2.896,4.688,6.896,4.688,11.313   c0,4.419-1.791,8.418-4.688,11.313c-2.896,2.896-6.896,4.688-11.313,4.688c-4.417,0-8.419-1.792-11.314-4.688   s-4.686-6.896-4.686-11.313s1.791-8.418,4.686-11.313C292.133,5.929,296.134,4.139,300.552,4.139L300.552,4.139z"/>
	<path fill="#FEFEFE" d="M295.382,16.913h2.047v-1.896c0-4.856,3.273-4.627,3.273-4.627h3.871v3.259h-2.354   c-1.529,0-1.678,1.104-1.678,1.753v1.511h3.789l-0.563,3.228h-3.227v9.825h-3.125V20.14h-2.047L295.382,16.913L295.382,16.913z"/>
</g>
<g>
	<path fill="#00B5F0" d="M438.314,4.139c4.42,0,8.42,1.79,11.314,4.688c2.895,2.896,4.688,6.896,4.688,11.313   c0,4.419-1.793,8.418-4.688,11.313c-2.895,2.896-6.896,4.688-11.314,4.688c-4.416,0-8.418-1.792-11.313-4.688   c-2.896-2.896-4.689-6.896-4.689-11.313s1.791-8.418,4.689-11.313C429.896,5.929,433.898,4.139,438.314,4.139L438.314,4.139z"/>
	<path fill="#FEFEFE" d="M430.322,12.598c1.895,2.527,4.619,4.201,8.506,4.685c0,0-0.498-5.263,3.824-5.272   c1.508-0.003,2.605,0.531,3.334,1.41c0.801-0.188,1.584-0.516,2.344-1.003c-0.211,0.938-0.756,1.663-1.539,2.244   c0.697-0.116,1.393-0.34,2.084-0.681c-0.322,0.927-0.967,1.598-1.84,2.089c0.342,2.777-0.861,6.438-3.262,9.165   c-3.117,3.536-8.75,5.703-14.65,1.934c2.164,0.198,4.17-0.342,5.973-1.833c-2.02-0.146-3.266-1.188-3.846-2.963   c0.645,0.094,1.24,0.07,1.764-0.137c-2.191-0.711-3.104-2.261-3.258-4.299c0.564,0.339,1.154,0.564,1.834,0.543   C429.763,16.737,429.429,14.763,430.322,12.598L430.322,12.598z"/>
</g>
<g>
	<path fill="#ED3237" d="M392.394,4.139c4.418,0,8.418,1.79,11.314,4.688c2.895,2.896,4.686,6.896,4.686,11.313   c0,4.419-1.791,8.418-4.686,11.313c-2.896,2.896-6.896,4.688-11.314,4.688s-8.418-1.791-11.314-4.688   c-2.895-2.896-4.686-6.896-4.686-11.313s1.791-8.418,4.686-11.313C383.976,5.929,387.974,4.139,392.394,4.139L392.394,4.139z"/>
	<path fill="#FEFEFE" d="M390.388,19.906c-1.693,0.179-3.373-0.374-4.121-2.023c-0.463-1.021-0.424-2.215,0.041-3.229   c0.553-1.205,1.613-2.005,2.875-2.364c0.563-0.162,1.145-0.253,1.729-0.244V12.03h5.568l-1.68,0.91h-1.299   c0.877,0.708,1.406,1.776,1.406,2.913c0.002,1.723-0.73,2.306-1.908,3.335c-0.498,0.436-0.832,0.85-0.482,1.501   c0.127,0.233,0.463,0.499,0.67,0.664c0.363,0.288,0.73,0.563,1.076,0.872c0.813,0.729,1.439,1.593,1.439,2.731   c0,0.378-0.064,0.752-0.172,1.109c-0.314,0.98-1.02,1.776-1.877,2.323c-1.021,0.643-2.236,0.924-3.439,0.924   c-1.309,0-2.828-0.188-3.969-0.876c-0.754-0.457-1.338-1.146-1.438-2.047c-0.123-1.185,0.621-2.238,1.531-2.91   c1.313-0.962,3.021-1.282,4.615-1.226C390.292,21.581,389.82,20.799,390.388,19.906L390.388,19.906z M391.748,22.966   c-1.244-0.105-2.67,0.019-3.734,0.729c-0.699,0.471-1.219,1.206-1.188,2.078c0.023,0.725,0.428,1.338,1,1.761   c0.813,0.604,1.904,0.796,2.896,0.796c0.902,0,1.9-0.181,2.609-0.781c0.496-0.42,0.793-1.008,0.793-1.658   c0-0.062-0.002-0.118-0.01-0.179c-0.119-0.933-1.254-1.817-1.939-2.382C392.039,23.206,391.892,23.087,391.748,22.966   L391.748,22.966z M391.775,18.94c0.359-0.174,0.652-0.436,0.859-0.773c0.541-0.896,0.373-2.119-0.008-3.04   c-0.398-0.964-1.24-2.079-2.346-2.232c-0.449-0.063-0.869,0.047-1.256,0.278C386.656,14.624,388.765,20.399,391.775,18.94   L391.775,18.94z"/>
	<polygon fill="#FEFEFE" points="399.328,19.344 401.814,19.344 401.814,20.697 399.328,20.697 399.328,23.181 397.978,23.181    397.978,20.697 395.492,20.697 395.492,19.344 397.978,19.344 397.978,16.859 399.328,16.859  "/>
</g>
<g>
	<path fill="#0077BD" d="M346.472,4.138c4.418,0,8.42,1.791,11.314,4.687s4.686,6.896,4.686,11.313s-1.789,8.418-4.686,11.313   c-2.898,2.896-6.896,4.688-11.314,4.688s-8.418-1.791-11.313-4.688c-2.896-2.896-4.689-6.896-4.689-11.313   c0-4.421,1.791-8.421,4.689-11.313C338.054,5.929,342.054,4.138,346.472,4.138L346.472,4.138z"/>
	<path fill="#FEFEFE" d="M335.968,15.255c0.857,0,1.713,0,2.572,0c0.955,0,0.938,0.154,1.229,0.659   c1.055,1.822,2.518,4.51,3.637,4.337c0-1.19,0-2.389,0-3.58c0-1.396-0.928-0.771-0.979-1.272c-0.025-0.264,0.441-0.686,1.307-0.686   c0.988,0,1.979,0,2.969,0c0.762,0,0.84,0.419,0.836,0.852c-0.01,1.603-0.02,3.089-0.027,4.688c1.512-0.133,2.621-2.395,3.547-4.146   c0.518-0.972,0.6-0.852,1.355-0.852c0.949,0,1.895,0,2.854,0c0.646,0,0.777,0.26,0.369,0.909c-0.912,1.453-1.895,3.03-2.854,4.497   c-0.314,0.479-0.514,0.55,0.059,1.215c1.078,1.28,2.217,2.39,3.285,3.673c0.242,0.291,0.16,0.722-0.523,0.724   c-1.215,0.001-2.428,0.003-3.643,0.003c-0.486,0-0.674-0.017-1.26-0.635c-0.916-0.973-1.771-1.937-3.061-2.063   c0,0.729,0,1.351,0,2.027c0,0.384-0.162,0.662-0.748,0.662c-0.801,0-1.6,0-2.395,0c-3.408,0-7.256-6.85-8.959-10.204   C335.203,15.402,335.509,15.255,335.968,15.255L335.968,15.255z"/>
</g>
<path fill="#FFFFFF" d="M31.835,15.824c0.646,1.808,0.023,4.127-1.701,5.852c-1.25,1.251-2.965,1.262-4.577,0.406  c-0.049,0.063-0.104,0.124-0.161,0.186l-8.637,8.637c-0.856,0.854-2.244,0.854-3.101,0c-0.854-0.856-0.854-2.242,0-3.104  l8.637-8.636c0.059-0.06,0.119-0.112,0.182-0.162c-0.852-1.609-0.843-3.327,0.407-4.578c1.725-1.724,4.044-2.346,5.853-1.697  l-2.09,2.088c-0.854,0.854-0.855,2.244,0,3.101c0.857,0.854,2.245,0.854,3.101,0L31.835,15.824z"/>
<circle fill="#EC2227" cx="488.054" cy="20.384" r="16"/>
<path fill="#FFFFFF" d="M497.132,25.635c0.039,0.298-0.051,0.555-0.27,0.771l-2.564,2.538c-0.113,0.129-0.266,0.237-0.451,0.327  c-0.184,0.09-0.363,0.146-0.547,0.173c-0.014,0-0.053,0.004-0.115,0.011c-0.061,0.007-0.145,0.01-0.25,0.01  c-0.24,0-0.639-0.042-1.186-0.125c-0.545-0.084-1.211-0.289-2-0.612c-0.789-0.327-1.682-0.817-2.684-1.475  c-1-0.651-2.064-1.552-3.191-2.69c-0.896-0.888-1.643-1.73-2.23-2.539c-0.592-0.812-1.063-1.558-1.426-2.241  c-0.354-0.688-0.627-1.308-0.807-1.864c-0.18-0.558-0.301-1.039-0.365-1.439c-0.063-0.404-0.09-0.725-0.078-0.952  c0.018-0.23,0.021-0.358,0.021-0.385c0.02-0.183,0.082-0.363,0.174-0.552c0.088-0.188,0.197-0.337,0.326-0.449l2.559-2.561  c0.18-0.181,0.385-0.271,0.615-0.271c0.166,0,0.313,0.048,0.438,0.146c0.133,0.096,0.236,0.215,0.326,0.354l2.063,3.902  c0.111,0.204,0.145,0.433,0.098,0.672c-0.053,0.245-0.162,0.45-0.328,0.617l-0.938,0.941c-0.025,0.022-0.055,0.064-0.066,0.124  c-0.02,0.06-0.029,0.104-0.029,0.146c0.053,0.271,0.166,0.577,0.346,0.927c0.154,0.308,0.393,0.683,0.713,1.125  c0.32,0.439,0.775,0.948,1.365,1.525c0.576,0.592,1.09,1.05,1.539,1.376c0.449,0.327,0.824,0.566,1.125,0.725  c0.303,0.151,0.531,0.243,0.691,0.275l0.24,0.048c0.02,0,0.063-0.009,0.125-0.025c0.059-0.021,0.1-0.042,0.125-0.066l1.098-1.115  c0.23-0.205,0.5-0.31,0.809-0.31c0.219,0,0.393,0.039,0.52,0.116h0.021l3.715,2.189C496.919,25.168,497.082,25.379,497.132,25.635  L497.132,25.635z"/>
<g>
	
		<image overflow="visible" opacity="0.8" enable-background="new    " width="59" height="59" xlink:href="79484546.png" transform="matrix(0.983 0 0 0.983 525.5112 -0.6836)">
	</image>
	<g>
		<g>
			<g>
				
					<line fill="none" stroke="#FFFFFF" stroke-width="2.6225" stroke-linecap="round" stroke-linejoin="round" stroke-miterlimit="10" x1="561.906" y1="28.027" x2="548.554" y2="14.039"/>
				
					<line fill="none" stroke="#FFFFFF" stroke-width="2.6225" stroke-linecap="round" stroke-linejoin="round" stroke-miterlimit="10" x1="561.906" y1="28.253" x2="548.554" y2="42.24"/>
			</g>
			<circle fill="none" stroke="#FFFFFF" stroke-width="2" stroke-miterlimit="10" cx="554.011" cy="28.139" r="23"/>
		</g>
	</g>
</g>
<g>
	
		<line fill="none" stroke="#333333" stroke-linecap="round" stroke-linejoin="round" stroke-miterlimit="10" x1="173.898" y1="42.894" x2="178.459" y2="38.538"/>
	
		<line fill="none" stroke="#333333" stroke-linecap="round" stroke-linejoin="round" stroke-miterlimit="10" x1="173.825" y1="42.894" x2="169.264" y2="38.538"/>
</g>
<circle fill="none" stroke="#939598" stroke-miterlimit="10" cx="173.862" cy="40.32" r="7.5"/>
<g>
	
		<line fill="none" stroke="#333333" stroke-linecap="round" stroke-linejoin="round" stroke-miterlimit="10" x1="213.294" y1="43.271" x2="207.487" y2="37.191"/>
	
		<line fill="none" stroke="#333333" stroke-linecap="round" stroke-linejoin="round" stroke-miterlimit="10" x1="213.294" y1="43.368" x2="207.487" y2="49.449"/>
</g>
<circle fill="none" stroke="#939598" stroke-miterlimit="10" cx="209.862" cy="43.32" r="10"/>
<circle fill="#EC2227" cx="100.186" cy="22.318" r="17"/>
<path fill="#FFFFFF" d="M93.365,21.659c1.423,0.36,2.438,1.143,2.266,1.749c-0.172,0.605-1.466,0.806-2.889,0.446  c-1.422-0.359-2.438-1.146-2.265-1.749C90.648,21.5,91.942,21.3,93.365,21.659L93.365,21.659z M107.007,21.659  c-1.423,0.36-2.438,1.143-2.265,1.749c0.171,0.605,1.465,0.806,2.889,0.446c1.423-0.359,2.438-1.146,2.265-1.749  C109.723,21.5,108.43,21.3,107.007,21.659L107.007,21.659z M89.194,24.295c-0.276-2.034-0.463-3.112,0.92-3.84  c3.097-3.949,6.92-4.696,10.072-4.696s6.976,0.747,10.072,4.696c1.382,0.728,1.196,1.805,0.92,3.84v3.772  c0,0.446-0.364,0.811-0.811,0.811h-2.938c-0.445,0-0.811-0.362-0.811-0.811v-1.104H93.752v1.104c0,0.446-0.364,0.811-0.81,0.811  h-2.938c-0.446,0-0.811-0.362-0.811-0.811L89.194,24.295L89.194,24.295z M100.186,21.086c-2.64,0-8.139-0.245-7.199-1.605  c1.24-1.799,3.883-2.951,7.199-2.951c3.315,0,5.959,1.152,7.199,2.951C108.325,20.841,102.826,21.086,100.186,21.086L100.186,21.086  z"/>
<circle fill="#EC2227" cx="100.186" cy="22" r="17"/>
<path fill="#FFFFFF" d="M93.365,21.341c1.423,0.359,2.438,1.144,2.265,1.749c-0.172,0.606-1.466,0.807-2.889,0.446  c-1.422-0.359-2.438-1.143-2.265-1.749C90.648,21.181,91.942,20.981,93.365,21.341L93.365,21.341z M107.007,21.341  c-1.423,0.359-2.438,1.144-2.265,1.749c0.171,0.606,1.465,0.807,2.888,0.446c1.423-0.359,2.438-1.143,2.265-1.749  C109.724,21.181,108.43,20.981,107.007,21.341L107.007,21.341z M89.194,23.977c-0.276-2.035-0.463-3.115,0.92-3.842  c3.096-3.948,6.919-4.695,10.072-4.695s6.975,0.748,10.072,4.695c1.382,0.727,1.196,1.806,0.919,3.841v3.772  c0,0.446-0.364,0.812-0.811,0.812h-2.937c-0.446,0-0.811-0.364-0.811-0.812v-1.104H93.752v1.104c0,0.446-0.364,0.812-0.81,0.812  h-2.938c-0.446,0-0.811-0.364-0.811-0.812L89.194,23.977L89.194,23.977z M100.186,20.767c-2.64,0-8.139-0.245-7.199-1.607  c1.24-1.798,3.883-2.951,7.199-2.951c3.315,0,5.958,1.153,7.199,2.951C108.324,20.522,102.826,20.767,100.186,20.767L100.186,20.767  z"/>
<circle fill="none" stroke="#0054A6" stroke-width="3.0168" stroke-miterlimit="10" cx="23.304" cy="70.526" r="18"/>
<g>
	
		<line fill="none" stroke="#0054A6" stroke-width="2.8026" stroke-linecap="round" stroke-miterlimit="10" x1="17.696" y1="60.074" x2="30.85" y2="70.526"/>
	
		<line fill="none" stroke="#0054A6" stroke-width="2.8026" stroke-linecap="round" stroke-miterlimit="10" x1="30.85" y1="70.526" x2="17.696" y2="80.977"/>
</g>
<circle fill="#EC2227" cx="100.186" cy="21.936" r="17"/>
<radialGradient id="SVGID_1_" cx="290.3657" cy="72.1294" r="31.6831" gradientUnits="userSpaceOnUse">
	<stop offset="0" style="stop-color:#FEC053"/>
	<stop offset="0.3273" style="stop-color:#F2203E"/>
	<stop offset="0.6485" style="stop-color:#B729A8"/>
	<stop offset="1" style="stop-color:#5342D6"/>
</radialGradient>
<circle fill="url(#SVGID_1_)" cx="300.201" cy="61.151" r="16"/>
<g>
	<path fill="#F1F2F2" d="M306.633,72.399h-12.866c-2.654,0-4.815-2.16-4.815-4.813V54.717c0-2.653,2.161-4.814,4.815-4.814h12.866   c2.655,0,4.814,2.161,4.814,4.814v12.868C311.448,70.239,309.289,72.399,306.633,72.399z M293.767,52.53   c-1.206,0-2.188,0.981-2.188,2.188v12.868c0,1.206,0.982,2.187,2.188,2.187h12.866c1.207,0,2.189-0.98,2.189-2.187V54.717   c0-1.206-0.982-2.188-2.189-2.188H293.767z"/>
</g>
<g>
	<path fill="#F1F2F2" d="M300.201,67.365c-3.428,0-6.215-2.787-6.215-6.214c0-3.426,2.787-6.213,6.215-6.213   c3.426,0,6.213,2.787,6.213,6.213C306.414,64.578,303.626,67.365,300.201,67.365z M300.201,57.563   c-1.979,0-3.589,1.609-3.589,3.588c0,1.979,1.609,3.589,3.589,3.589c1.978,0,3.588-1.609,3.588-3.589   C303.789,59.172,302.178,57.563,300.201,57.563z"/>
</g>
<circle fill="#F1F2F2" cx="306.56" cy="55.131" r="1.119"/>
<path fill-rule="evenodd" clip-rule="evenodd" fill="#FFFFFF" d="M93.483,21.268c1.443,0.365,2.471,1.159,2.297,1.773  c-0.175,0.614-1.487,0.817-2.929,0.453c-1.442-0.365-2.471-1.159-2.296-1.773C90.728,21.106,92.04,20.903,93.483,21.268  L93.483,21.268z M107.313,21.268c-1.443,0.365-2.471,1.159-2.295,1.773c0.173,0.614,1.485,0.817,2.928,0.453  c1.443-0.365,2.471-1.159,2.296-1.773C110.068,21.106,108.756,20.903,107.313,21.268L107.313,21.268z M89.254,23.94  c-0.28-2.063-0.469-3.158,0.933-3.894c3.139-4.004,7.016-4.762,10.212-4.762c3.196,0,7.071,0.758,10.211,4.762  c1.401,0.735,1.212,1.83,0.932,3.894v3.825c0,0.452-0.369,0.821-0.822,0.821h-2.978c-0.452,0-0.822-0.369-0.822-0.821v-1.12H93.875  v1.12c0,0.452-0.37,0.821-0.821,0.821h-2.979c-0.452,0-0.822-0.369-0.822-0.821V23.94L89.254,23.94z M100.398,20.687  c-2.677,0-8.252-0.249-7.299-1.63c1.258-1.823,3.937-2.991,7.299-2.991c3.361,0,6.042,1.168,7.298,2.991  C108.649,20.438,103.074,20.687,100.398,20.687L100.398,20.687z"/>
</svg>