<?xml version="1.0" encoding="utf-8"?>
<!-- Generator: Adobe Illustrator 16.0.0, SVG Export Plug-In . SVG Version: 6.00 Build 0)  -->
<!DOCTYPE svg PUBLIC "-//W3C//DTD SVG 1.1//EN" "http://www.w3.org/Graphics/SVG/1.1/DTD/svg11.dtd">
<svg version="1.1" id="Слой_1" xmlns="http://www.w3.org/2000/svg" xmlns:xlink="http://www.w3.org/1999/xlink" x="0px" y="0px"
	 width="500px" height="500px" viewBox="0 0 500 500" enable-background="new 0 0 500 500" xml:space="preserve">
<g>

	<path fill="#687b92" d="M65.504395,120.607422h369.803223c1.595703,0,3.191406,1.596191,3.191406,3.206055v225.227539
		c0,1.595703-1.595703,3.192383-3.191406,3.192383H65.504395c-1.595703,0-3.205566-1.59668-3.205566-3.192383V123.813477
		C62.298828,122.203613,63.908691,120.607422,65.504395,120.607422L65.504395,120.607422z M432.115234,127.803223H68.696289
		v218.04541h363.418945V127.803223z"/>
	<path fill="#687b92" d="M115.819824,199.691895h268.36084c1.623047,0,3.219727,0.797852,3.219727,3.191895v130.995117
		c0,2.394531-1.59668,3.192383-3.219727,3.192383h-268.36084c-1.596191,0-3.192383-0.797852-3.192383-3.192383V202.883789
		C112.627441,200.489746,114.223633,199.691895,115.819824,199.691895L115.819824,199.691895z M380.988281,206.075684H119.80957
		V330.6875h261.178711V206.075684z"/>
	<path fill="#687b92" d="M206.075684,133.38916h87.848145c1.624023,0,3.219727,1.596191,3.219727,3.191895v27.95752
		c0,1.596191-1.595703,3.191895-3.219727,3.191895h-87.848145c-1.595703,0-3.191895-1.595703-3.191895-3.191895v-27.95752
		C202.883789,134.985352,204.47998,133.38916,206.075684,133.38916L206.075684,133.38916z M290.732422,140.584961h-81.464844
		v20.761719h81.464844V140.584961z"/>
	<path fill="#687b92" d="M117.415527,175.724609h266.765137c1.623047,0,2.420898,1.595703,2.420898,3.191895v14.377441
		c0,1.596191-0.797852,3.191895-2.420898,3.191895H117.415527c-1.595703,0-2.394043-1.595703-2.394043-3.191895v-14.377441
		C115.021484,177.320313,115.819824,175.724609,117.415527,175.724609L117.415527,175.724609z M381.786133,182.919922H119.80957
		v7.182129h261.976563V182.919922z"/>
	<path fill="#687b92" d="M68.696289,373.008789h362.621094v-7.182617H68.696289V373.008789z M435.307617,379.392578H65.504395
		c-1.595703,0-3.205566-0.797852-3.205566-3.192383v-13.56543c0-1.59668,1.609863-3.192383,3.205566-3.192383h369.803223
		c1.595703,0,3.191406,1.595703,3.191406,3.192383v13.56543C438.499023,378.594727,436.90332,379.392578,435.307617,379.392578
		L435.307617,379.392578z"/>
	<path fill="#687b92" d="M168.54248,132.591309c4.788086,0,9.575684,1.596191,12.768066,4.788086
		c3.205566,4.003418,5.599609,7.993652,5.599609,13.57959c0,4.801758-2.394043,9.589844-5.599609,12.781738
		c-3.192383,3.191895-7.97998,4.801758-12.768066,4.801758c-4.801758,0-9.589844-1.609863-12.781738-4.801758
		c-3.205566-3.191895-5.599609-7.97998-5.599609-12.781738c0-5.585938,2.394043-9.576172,5.599609-13.57959
		C158.952637,134.1875,163.740723,132.591309,168.54248,132.591309L168.54248,132.591309z M176.522461,142.979004
		c-1.596191-2.394043-4.788086-3.989746-7.97998-3.989746c-3.205566,0-6.397949,1.595703-7.993652,3.989746
		c-2.394043,1.596191-3.191895,4.788086-3.191895,7.97998c0,3.205566,0.797852,5.599609,3.191895,7.993652
		c1.595703,1.596191,4.788086,3.191895,7.993652,3.191895c3.191895,0,6.383789-1.595703,7.97998-3.191895
		c2.394043-2.394043,3.989746-4.788086,3.989746-7.993652C180.512207,147.76709,178.916504,144.575195,176.522461,142.979004
		L176.522461,142.979004z"/>
	<path fill="#687b92" d="M331.485352,132.591309c5.585938,0,9.576172,1.596191,12.767578,4.788086
		c3.990234,4.003418,5.585938,7.993652,5.585938,13.57959c0,4.801758-1.595703,9.589844-5.585938,12.781738
		c-3.191406,3.191895-7.181641,4.801758-12.767578,4.801758c-4.788086,0-8.805664-1.609863-11.998047-4.801758
		c-3.989258-3.191895-5.585938-7.97998-5.585938-12.781738c0-5.585938,1.59668-9.576172,5.585938-13.57959
		C322.679688,134.1875,326.697266,132.591309,331.485352,132.591309L331.485352,132.591309z M340.262695,142.979004
		c-2.393555-2.394043-4.788086-3.989746-8.777344-3.989746c-3.192383,0-5.585938,1.595703-8.007813,3.989746
		c-1.595703,1.596191-3.192383,4.788086-3.192383,7.97998c0,3.205566,1.59668,5.599609,3.192383,7.993652
		c2.421875,1.596191,4.81543,3.191895,8.007813,3.191895c3.989258,0,6.383789-1.595703,8.777344-3.191895
		c1.59668-2.394043,3.192383-4.788086,3.192383-7.993652C343.455078,147.76709,341.859375,144.575195,340.262695,142.979004
		L340.262695,142.979004z"/>
	<path fill="#687b92" d="M164.538574,133.38916c2.394043-0.797852,5.599609,0.79834,7.993652,3.990234
		c2.394043,2.407715,3.990234,6.397461,4.788086,11.185547c1.596191,3.990234,1.596191,7.993652,1.596191,11.983887
		c-0.79834,3.989746-2.394043,7.181641-5.585938,7.993652c-3.192383,0.797852-6.397949-0.812012-8.791992-4.801758
		c-1.595703-2.394043-3.989746-6.383789-4.788086-10.374023c-1.595703-4.801758-1.595703-8.791504-1.595703-11.983887
		c0.797852-4.801758,3.191895-7.195313,5.585938-7.993652H164.538574z M167.730469,141.382813
		c-0.797852-0.797852-1.595703-1.595703-2.393555-1.595703c0,0,0,0.797852-0.79834,2.394043
		c0,2.394043,0,5.585938,1.596191,8.777832c0.797852,4.003906,1.595703,7.195801,3.205566,8.791504
		c1.596191,1.596191,2.394043,2.394043,2.394043,1.596191c0,0,0-0.797852,0.797852-2.394043
		c0-2.394043,0-5.585938-0.797852-8.791504C170.138184,146.170898,169.340332,143.776855,167.730469,141.382813
		L167.730469,141.382813z"/>
	<path fill="#687b92" d="M327.495117,133.38916c2.393555-0.797852,5.585938,0.79834,7.979492,3.990234
		c2.394531,2.407715,3.990234,6.397461,5.586914,11.185547c0.797852,3.990234,1.595703,7.993652,0.797852,11.185547
		c-0.797852,4.788086-2.394531,7.97998-5.585938,8.791992l0,0c-3.192383,0.797852-5.585938-1.609863-7.980469-4.801758
		c-2.393555-2.394043-3.990234-6.383789-5.613281-10.374023l0,0c-0.797852-4.801758-1.595703-8.791504-0.797852-11.983887
		C322.679688,136.581055,324.302734,134.1875,327.495117,133.38916L327.495117,133.38916z M330.6875,141.382813
		c-0.798828-0.797852-1.59668-1.595703-1.59668-1.595703c-0.797852,0-0.797852,0.797852-0.797852,2.394043
		c-0.797852,2.394043,0,5.585938,0.797852,8.777832v0.797852c0.797852,3.206055,2.394531,6.397949,3.990234,7.993652
		c0.797852,1.596191,1.595703,2.394043,1.595703,1.596191c0.797852,0,0.797852-0.797852,0.797852-2.394043
		c0.798828-2.394043,0-5.585938-0.797852-8.791504C333.878906,146.170898,332.283203,143.776855,330.6875,141.382813
		L330.6875,141.382813z"/>
</g>
</svg>
