<?xml version="1.0" encoding="utf-8"?>
<!-- Generator: Adobe Illustrator 16.0.0, SVG Export Plug-In . SVG Version: 6.00 Build 0)  -->
<!DOCTYPE svg PUBLIC "-//W3C//DTD SVG 1.1//EN" "http://www.w3.org/Graphics/SVG/1.1/DTD/svg11.dtd">
<svg version="1.1" id="Слой_1" xmlns="http://www.w3.org/2000/svg" xmlns:xlink="http://www.w3.org/1999/xlink" x="0px" y="0px"
	 width="500px" height="500px" viewBox="0 0 500 500" enable-background="new 0 0 500 500" xml:space="preserve">
<g>
	<rect fill="#2284AB" width="500" height="500"/>
	<path fill="#FFFFFF" d="M195.687988,311.507813c17.583496,0,32.759277,7.181641,44.729004,18.380859l0,0
		c11.185547,11.172852,17.570313,27.160156,17.570313,43.917969c0,17.583008-6.384766,33.542969-17.570313,44.742188h-0.797852
		c-11.171875,11.172852-26.347656,18.354492-43.931152,18.354492c-16.771484,0-32.745117-7.181641-43.931152-18.354492
		c-11.171875-11.99707-18.367676-27.15918-18.367676-44.742188c0-16.757813,7.195801-32.745117,18.367676-43.917969
		C162.942871,318.689453,178.916504,311.507813,195.687988,311.507813L195.687988,311.507813z M234.033203,335.474609
		c-9.589844-9.575195-23.169434-15.987305-38.345215-15.987305s-28.755371,6.412109-38.331055,15.987305
		c-9.589844,10.374023-15.974121,23.967773-15.974121,38.332031c0,15.189453,6.384277,28.754883,15.974121,38.331055
		c9.575684,10.401367,23.155273,15.987305,38.331055,15.987305s28.755371-5.585938,38.345215-15.987305
		c10.387695-9.576172,15.973633-23.141602,15.973633-38.331055C250.006836,359.442383,244.420898,345.848633,234.033203,335.474609
		L234.033203,335.474609z"/>
	<path fill="#FFFFFF" d="M284.348633,419.347656l-43.931641-3.192383v-8.007813l44.729492,2.394531L284.348633,419.347656z
		 M309.113281,309.912109c-1.595703-1.59668-2.393555-3.990234-0.797852-6.384766c1.59668-1.595703,3.990234-1.595703,6.383789,0
		c6.384766,5.585938,12.795898,11.970703,18.381836,17.556641c5.585938,6.411133,11.171875,12.794922,15.162109,19.178711
		c28.754883,39.129883,43.146484,62.298828,43.146484,62.298828c0.797852,1.59668,0.797852,3.990234-0.797852,4.788086
		l-10.401367,11.199219c-1.595703,1.59668-3.990234,1.59668-5.585938,0c-1.595703-1.595703-1.595703-4.81543,0-6.411133
		l7.979492-7.979492c-4.787109-7.182617-18.353516-27.958008-40.724609-59.107422
		c-3.990234-6.383789-9.576172-11.969727-15.162109-18.353516C321.083984,321.083984,315.498047,315.498047,309.113281,309.912109
		L309.113281,309.912109z M121.405762,314.699219c-0.79834,1.59668-3.192383,2.394531-5.585938,1.59668
		c-1.596191-0.797852-3.192383-3.192383-1.596191-5.585938c0,0,19.963867-46.338867,83.060547-51.924805
		c15.987305-1.59668,31.163086,0.797852,46.338867,4.788086c15.959961,4.81543,31.947266,11.99707,46.311523,21.573242
		c1.595703,1.595703,2.393555,3.990234,0.797852,5.585938c-0.797852,1.595703-3.192383,2.393555-5.585938,1.595703
		c-13.566406-8.77832-28.755859-15.959961-43.931152-20.748047c-14.37793-3.990234-28.741699-5.585938-43.119629-4.788086
		C139.787109,272.37793,121.405762,313.901367,121.405762,314.699219L121.405762,314.699219z"/>
	<path fill="#FFFFFF" d="M121.405762,335.474609c0,2.394531-1.596191,3.990234-3.990234,3.990234
		s-3.989746-1.595703-3.989746-3.990234v-23.168945c0-1.595703,1.595703-3.990234,3.989746-3.990234
		s3.990234,2.394531,3.990234,3.990234V335.474609z"/>
	<path fill="#FFFFFF" d="M140.584961,385.005859c2.394043,0.797852,3.191895,3.192383,3.191895,5.585938
		c-0.797852,2.394531-3.191895,3.192383-5.599609,2.394531l-21.55957-7.182617c-1.596191,0-3.191895-1.623047-3.191895-4.017578
		v-46.311523c0-2.393555,1.595703-3.989258,3.989746-3.989258s3.990234,1.595703,3.990234,3.989258v43.917969L140.584961,385.005859
		z"/>
	<path fill="#FFFFFF" d="M195.687988,354.626953c5.599609,0,10.387695,1.624023,14.37793,5.613281l0,0
		c3.205566,3.990234,5.599609,8.77832,5.599609,13.566406c0,5.585938-2.394043,10.374023-5.599609,14.391602
		c-3.990234,3.191406-8.77832,5.585938-14.37793,5.585938c-5.585938,0-10.374023-2.394531-13.57959-5.585938l0,0
		c-3.990234-4.017578-5.585938-8.805664-5.585938-14.391602c0-4.788086,1.595703-10.374023,5.585938-13.566406
		C185.313965,356.250977,190.102051,354.626953,195.687988,354.626953L195.687988,354.626953z M203.681641,365.826172
		c-1.595703-1.595703-4.787598-3.191406-7.993652-3.191406c-3.191895,0-5.585938,1.595703-7.97998,3.191406
		c-2.394043,2.394531-3.191895,4.788086-3.191895,7.980469c0,3.191406,0.797852,6.383789,3.191895,8.777344
		c2.394043,1.59668,4.788086,3.219727,7.97998,3.219727c3.206055,0,6.397949-1.623047,7.993652-3.219727
		c2.394043-2.393555,3.990234-5.585938,3.990234-8.777344c0-3.192383-1.596191-5.585938-3.191895-7.980469H203.681641z"/>
	<path fill="#FFFFFF" d="M372.210938,396.975586c5.585938,0,10.373047,2.394531,13.592773,5.585938
		c3.990234,3.990234,5.585938,8.77832,5.585938,14.391602v2.394531c0,1.595703-2.393555,3.989258-3.989258,3.191406
		l-30.351563-8.805664c-2.394531-0.797852-3.219727-3.191406-3.219727-5.585938l0.825195-0.797852
		c1.59668-3.191406,3.990234-5.585938,7.182617-7.181641C365.02832,397.773438,368.220703,396.975586,372.210938,396.975586
		L372.210938,396.975586z M380.19043,408.147461c-2.393555-1.595703-4.788086-3.191406-7.979492-3.191406
		c-2.394531,0-4.788086,0.797852-6.384766,1.595703l-0.797852,0.797852l17.555664,5.585938
		C382.583984,411.339844,381.786133,409.744141,380.19043,408.147461L380.19043,408.147461z"/>
	<path fill="#FFFFFF" d="M121.405762,312.305664c0.797852,1.595703-0.79834,3.990234-3.192383,4.788086
		c-2.393555,0-3.989746-1.595703-4.787598-3.990234c0,0-29.553711-170.922363,23.953613-215.651367
		c27.15918-23.169434,48.73291-24.765625,66.302246-14.37793c15.973633,9.576172,27.95752,30.351563,35.9375,51.113281
		c15.175781,39.940918,73.484375,219.641602,74.282227,219.641602c0,1.623047,0,2.421875-0.797852,3.219727l-6.383789,12.767578
		l7.979492,22.371094c0,3.990234,0,9.576172,0,13.566406c0,2.393555-1.595703,3.990234-3.191406,3.990234l-44.71582,15.987305
		l-0.797852,2.393555h134.173828l-0.797852-1.595703l-55.117188-16.785156c-1.595703-0.798828-2.393555-1.59668-2.393555-2.394531
		l-5.585938-15.959961l-0.798828-0.797852l-2.393555-23.168945l-8.77832-12.795898l-0.825195-1.595703l-76.662598-219.64209
		c-0.797852-1.595703-22.371582-65.490723-69.494629-61.500488c-20.761719,2.394043-36.735352,11.983398-48.719238,25.563477
		c-15.973633,18.367676-24.765137,43.132813-28.755371,64.692383c-3.989746,18.367676-3.989746,41.537109-3.191895,62.298828
		c1.596191,21.57373,3.990234,42.348633,5.585938,57.510742c0.79834,6.383789,1.596191,13.59375,2.394043,19.977539
		c1.596191,17.555664,2.394043,29.553711,4.801758,29.553711h7.97998c2.394043,0,3.990234,1.595703,3.990234,3.989258
		c0,2.394531-1.596191,3.990234-3.990234,3.990234h-7.97998c-9.589844,0-11.185547-15.189453-12.781738-36.735352
		c-0.797852-5.585938-1.595703-12.794922-2.394043-19.977539c-1.609375-15.162109-4.003418-35.13916-5.599609-57.510742
		c-0.797852-22.357422-0.797852-45.526855,3.191895-64.692383c4.003906-23.169434,13.57959-48.719238,30.351563-68.696777
		c12.781738-15.175781,31.163086-25.549316,54.318848-27.943359c53.520508-4.801758,76.676758,63.894531,77.474609,67.086426
		l77.488281,218.84375l9.576172,13.59375c0,0.797852,0,1.595703,0.797852,1.595703l1.595703,24.765625l4.788086,12.767578
		l55.116211,16.786133c0.798828,0,1.59668,0.797852,1.59668,1.595703l6.383789,8.77832
		c0.797852,0.797852,0.797852,1.595703,0.797852,2.393555c0,2.393555-1.595703,3.990234-3.990234,3.990234l-147.766602,0.797852
		c-0.797852,0-0.797852,0-1.595703-0.797852c-2.394531,0-3.192383-2.394531-2.394531-4.788086l3.192383-10.374023
		c0.797852-0.797852,1.595703-2.394531,3.191406-2.394531l43.147461-15.189453v-9.575195l-7.182617-22.37207
		c-0.797852-1.595703-0.797852-2.393555,0-3.191406l6.384766-13.59375
		c-5.585938-17.555664-59.106934-179.700684-73.484863-217.247559c-7.195801-19.963867-17.569824-38.331543-32.745117-47.123047
		c-13.580078-8.77832-31.961426-7.182129-56.712891,12.781738C92.650391,145.373047,121.405762,311.507813,121.405762,312.305664
		L121.405762,312.305664z"/>
</g>
</svg>
