<?xml version="1.0" encoding="utf-8"?>
<!-- Generator: Adobe Illustrator 16.0.0, SVG Export Plug-In . SVG Version: 6.00 Build 0)  -->
<!DOCTYPE svg PUBLIC "-//W3C//DTD SVG 1.1//EN" "http://www.w3.org/Graphics/SVG/1.1/DTD/svg11.dtd">
<svg version="1.1" id="Слой_1" xmlns="http://www.w3.org/2000/svg" xmlns:xlink="http://www.w3.org/1999/xlink" x="0px" y="0px"
	 width="500px" height="500px" viewBox="0 0 500 500" enable-background="new 0 0 500 500" xml:space="preserve">
<g>
	<rect fill="#2284AB" width="500" height="500"/>
	<path fill="#FFFFFF" d="M67.898438,105.431641h365.014648c2.394531,0,3.990234,1.596191,3.990234,4.003906v281.15625
		c0,2.394531-1.595703,4.788086-3.990234,4.788086H67.898438c-2.394043,0-4.801758-2.393555-4.801758-4.788086v-281.15625
		C63.09668,107.027832,65.504395,105.431641,67.898438,105.431641L67.898438,105.431641z M428.125,114.223633H71.888672v272.37793
		H428.125V114.223633z"/>
	<path fill="#FFFFFF" d="M93.461914,127.803223H197.28418c2.407715,0,4.801758,2.394043,4.801758,4.788086v103.835938
		c0,2.394043-2.394043,4.788086-4.801758,4.788086H93.461914c-2.407715,0-4.801758-2.394043-4.801758-4.788086V132.591309
		C88.660156,130.197266,91.054199,127.803223,93.461914,127.803223L93.461914,127.803223z M193.293945,136.581055H97.452148
		v95.855957h95.841797V136.581055z"/>
	<path fill="#FFFFFF" d="M145.373047,145.373047c10.387695,0,20.761719,4.788086,27.15918,11.983887
		c7.182129,6.383789,11.983887,16.771484,11.983887,27.15918c0,10.374023-4.801758,19.963867-11.983887,27.145508
		c-6.397461,7.195801-16.771484,11.186035-27.15918,11.186035s-19.963867-3.990234-27.159668-11.186035l0,0
		c-7.181641-7.181641-11.185547-16.771484-11.185547-27.145508c0-10.387695,4.003906-20.775391,11.185547-27.15918l0,0
		C125.40918,150.161133,134.985352,145.373047,145.373047,145.373047L145.373047,145.373047z M166.932617,162.942871
		c-5.585938-4.788086-13.565918-8.77832-21.55957-8.77832s-15.973633,3.192383-20.761719,8.77832h-0.797852
		c-4.801758,5.599609-8.791992,13.57959-8.791992,21.573242c0,7.97998,3.990234,15.973633,8.791992,20.761719v0.797852
		c5.585938,4.788086,13.565918,8.791992,21.55957,8.791992s15.973633-4.003906,21.55957-8.791992
		c4.801758-5.585938,8.791992-13.57959,8.791992-21.55957C175.724609,176.522461,171.734375,168.54248,166.932617,162.942871
		L166.932617,162.942871z"/>
	<path fill="#FFFFFF" d="M87.862305,188.505859c-2.394043,0-4.788086-1.595703-4.788086-3.989746
		c0-2.407715,2.394043-4.801758,4.788086-4.801758h40.73877c2.394043,0,3.990234,2.394043,3.990234,4.801758
		c0,2.394043-1.596191,3.989746-3.990234,3.989746H87.862305z"/>
	<path fill="#FFFFFF" d="M141.382813,126.20752c0-2.394043,1.596191-4.003906,3.990234-4.003906
		s4.788086,1.609863,4.788086,4.003906v41.522949c0,2.407715-2.394043,4.003906-4.788086,4.003906
		s-3.990234-1.596191-3.990234-4.003906V126.20752z"/>
	<path fill="#FFFFFF" d="M203.681641,179.714355c2.394043,0,3.990234,2.394043,3.990234,4.801758
		c0,2.394043-1.596191,3.989746-3.990234,3.989746h-41.537109c-2.394043,0-3.989746-1.595703-3.989746-3.989746
		c0-2.407715,1.595703-4.801758,3.989746-4.801758H203.681641z"/>
	<path fill="#FFFFFF" d="M150.161133,242.013184c0,2.407715-2.394043,4.801758-4.788086,4.801758
		s-3.990234-2.394043-3.990234-4.801758v-40.725586c0-2.393555,1.596191-4.003418,3.990234-4.003418
		s4.788086,1.609863,4.788086,4.003418V242.013184z"/>
	<path fill="#FFFFFF" d="M145.373047,154.164551c7.993652,0,15.973633,3.990234,21.55957,8.77832
		c4.801758,5.599609,8.791992,13.57959,8.791992,21.573242c0,7.97998-3.990234,15.973633-8.791992,20.761719
		c-5.585938,5.585938-13.565918,8.791504-21.55957,8.791504s-15.973633-3.205566-20.761719-8.791504
		c-5.599609-4.788086-8.791504-12.781738-8.791504-20.761719c0-7.993652,3.191895-15.973633,8.791504-21.573242l0,0
		C130.197266,158.154785,137.379395,154.164551,145.373047,154.164551L145.373047,154.164551z M160.548828,169.340332
		c-3.990234-4.003418-9.589844-6.397461-15.175781-6.397461s-11.185547,2.394043-15.175781,6.397461l0,0
		c-3.989746,3.990234-6.383789,9.576172-6.383789,15.175781c0,5.585938,2.394043,11.171875,6.383789,15.175781
		c3.990234,3.989746,9.589844,6.383789,15.175781,6.383789s11.185547-2.394043,15.175781-6.383789
		c3.989746-4.003906,6.383789-9.589844,6.383789-15.175781C166.932617,178.916504,164.538574,173.330566,160.548828,169.340332
		L160.548828,169.340332z"/>
	<path fill="#FFFFFF" d="M93.461914,261.178711H197.28418c2.407715,0,4.801758,1.595703,4.801758,4.017578v104.620117
		c0,2.394531-2.394043,4.788086-4.801758,4.788086H93.461914c-2.407715,0-4.801758-2.393555-4.801758-4.788086V265.196289
		C88.660156,262.774414,91.054199,261.178711,93.461914,261.178711L93.461914,261.178711z M193.293945,269.984375H97.452148
		v95.841797h95.841797V269.984375z"/>
	<path fill="#FFFFFF" d="M145.373047,278.762695c10.387695,0,20.761719,4.787109,27.15918,11.171875
		c7.182129,7.208984,11.983887,16.785156,11.983887,27.957031c0,10.401367-4.801758,19.977539-11.983887,27.15918
		c-6.397461,7.182617-16.771484,11.200195-27.15918,11.200195s-19.963867-4.017578-27.159668-11.200195
		c-7.181641-7.181641-11.185547-16.757813-11.185547-27.15918c0-11.171875,4.003906-20.748047,11.185547-27.957031
		C125.40918,283.549805,134.985352,278.762695,145.373047,278.762695L145.373047,278.762695z M166.932617,296.345703
		c-5.585938-5.613281-13.565918-8.805664-21.55957-8.805664s-15.973633,3.192383-21.55957,8.805664
		c-4.801758,5.585938-8.791992,12.767578-8.791992,21.545898c0,8.007813,3.990234,15.987305,8.791992,20.775391
		c5.585938,5.585938,13.565918,8.77832,21.55957,8.77832s15.973633-3.192383,21.55957-8.77832
		c4.801758-4.788086,8.791992-12.767578,8.791992-20.775391C175.724609,309.113281,171.734375,301.931641,166.932617,296.345703
		L166.932617,296.345703z"/>
	<path fill="#FFFFFF" d="M87.862305,321.881836c-2.394043,0-4.788086-1.59668-4.788086-3.990234
		s2.394043-4.788086,4.788086-4.788086h40.73877c2.394043,0,3.990234,2.394531,3.990234,4.788086
		s-1.596191,3.990234-3.990234,3.990234H87.862305z"/>
	<path fill="#FFFFFF" d="M141.382813,259.583008c0-2.394531,1.596191-3.990234,3.990234-3.990234
		s4.788086,1.595703,4.788086,3.990234v41.550781c0,2.393555-2.394043,3.990234-4.788086,3.990234
		s-3.990234-1.59668-3.990234-3.990234V259.583008z"/>
	<path fill="#FFFFFF" d="M203.681641,313.103516c2.394043,0,3.990234,2.394531,3.990234,4.788086
		s-1.596191,3.990234-3.990234,3.990234h-41.537109c-2.394043,0-3.989746-1.59668-3.989746-3.990234
		s1.595703-4.788086,3.989746-4.788086H203.681641z"/>
	<path fill="#FFFFFF" d="M150.161133,375.402344c0,2.394531-2.394043,4.788086-4.788086,4.788086
		s-3.990234-2.393555-3.990234-4.788086v-40.725586c0-2.393555,1.596191-3.989258,3.990234-3.989258
		s4.788086,1.595703,4.788086,3.989258V375.402344z"/>
	<path fill="#FFFFFF" d="M145.373047,287.540039c7.993652,0,15.973633,3.990234,21.55957,8.805664v0.797852
		c4.801758,4.788086,8.791992,12.768555,8.791992,20.748047c0,8.007813-3.990234,15.987305-8.791992,20.775391h-0.797852
		c-4.788086,5.585938-12.768066,8.77832-20.761719,8.77832s-15.973633-3.192383-20.761719-8.77832h-0.797852
		c-4.801758-5.585938-7.993652-12.767578-7.993652-20.775391c0-8.77832,3.191895-15.959961,8.791504-21.545898
		C129.399414,291.530273,137.379395,287.540039,145.373047,287.540039L145.373047,287.540039z M160.548828,302.729492
		c-3.990234-3.990234-9.589844-6.383789-15.175781-6.383789s-11.185547,2.393555-15.175781,6.383789
		c-3.989746,3.990234-6.383789,8.77832-6.383789,15.162109c0,5.585938,2.394043,11.199219,6.383789,14.391602v0.797852
		c3.990234,3.192383,9.589844,5.585938,15.175781,5.585938s11.185547-2.393555,15.175781-5.585938
		c3.989746-3.990234,6.383789-9.603516,6.383789-15.189453S164.538574,306.719727,160.548828,302.729492L160.548828,302.729492z"/>
	<path fill="#FFFFFF" d="M273.176758,127.803223h103.821289c2.394531,0,4.788086,2.394043,4.788086,4.788086v103.835938
		c0,2.394043-2.393555,4.788086-4.788086,4.788086H273.176758c-2.394531,0-4.788086-2.394043-4.788086-4.788086V132.591309
		C268.388672,130.197266,270.782227,127.803223,273.176758,127.803223L273.176758,127.803223z M373.008789,136.581055h-95.842773
		v95.855957h95.842773V136.581055z"/>
	<path fill="#FFFFFF" d="M325.101563,145.373047c10.373047,0,20.74707,4.788086,27.131836,11.983887
		c7.208984,6.383789,11.99707,16.771484,11.99707,27.15918c0,10.374023-4.788086,19.963867-11.99707,27.145508
		c-6.384766,7.195801-16.758789,11.186035-27.131836,11.186035c-10.402344,0-19.977539-3.990234-27.160156-11.186035l0,0
		c-7.208984-7.181641-11.199219-16.771484-11.199219-27.145508c0-10.387695,3.990234-20.775391,11.199219-27.15918
		C305.124023,150.161133,314.699219,145.373047,325.101563,145.373047L325.101563,145.373047z M346.647461,162.942871
		c-5.585938-4.788086-13.566406-8.77832-21.545898-8.77832c-8.007813,0-15.988281,3.990234-21.574219,8.77832
		c-4.788086,5.599609-8.777344,13.57959-8.777344,21.573242c0,7.97998,3.989258,15.973633,8.777344,20.761719v0.797852
		c5.585938,4.788086,13.566406,8.791992,21.574219,8.791992c7.979492,0,15.959961-4.003906,21.545898-8.791992
		c5.585938-5.585938,8.804688-13.57959,8.804688-21.55957C355.452148,176.522461,352.233398,168.54248,346.647461,162.942871
		L346.647461,162.942871z"/>
	<path fill="#FFFFFF" d="M267.589844,188.505859c-2.393555,0-4.81543-1.595703-4.81543-3.989746
		c0-2.407715,2.421875-4.801758,4.81543-4.801758h40.725586c2.394531,0,3.990234,2.394043,3.990234,4.801758
		c0,2.394043-1.595703,3.989746-3.990234,3.989746H267.589844z"/>
	<path fill="#FFFFFF" d="M321.083984,126.20752c0-2.394043,1.595703-4.003906,4.017578-4.003906
		c2.393555,0,4.787109,1.609863,4.787109,4.003906v41.522949c0,2.407715-2.393555,4.003906-4.787109,4.003906
		c-2.421875,0-4.017578-1.596191-4.017578-4.003906V126.20752z"/>
	<path fill="#FFFFFF" d="M383.382813,179.714355c2.420898,0,4.017578,2.394043,4.017578,4.801758
		c0,2.394043-1.59668,3.989746-4.017578,3.989746h-41.523438c-2.394531,0-3.990234-1.595703-3.990234-3.989746
		c0-2.407715,1.595703-4.801758,3.990234-4.801758H383.382813z"/>
	<path fill="#FFFFFF" d="M329.888672,242.013184c0,2.407715-2.393555,4.801758-4.787109,4.801758
		c-2.421875,0-4.017578-2.394043-4.017578-4.801758v-40.725586c0-2.393555,1.595703-4.003418,4.017578-4.003418
		c2.393555,0,4.787109,1.609863,4.787109,4.003418V242.013184z"/>
	<path fill="#FFFFFF" d="M325.101563,154.164551c7.979492,0,15.959961,3.990234,21.545898,8.77832
		c4.787109,5.599609,8.804688,13.57959,8.804688,21.573242c0,7.97998-4.017578,15.973633-8.804688,20.761719
		c-5.585938,5.585938-13.566406,8.791504-21.545898,8.791504c-8.007813,0-15.988281-3.205566-20.775391-8.791504
		c-5.586914-4.788086-8.77832-12.781738-8.77832-20.761719c0-7.993652,3.191406-15.973633,8.77832-21.573242
		C309.113281,158.154785,317.09375,154.164551,325.101563,154.164551L325.101563,154.164551z M340.262695,169.340332
		c-3.989258-4.003418-9.575195-6.397461-15.161133-6.397461c-5.614258,0-11.200195,2.394043-15.189453,6.397461
		c-3.990234,3.990234-6.384766,9.576172-6.384766,15.175781c0,5.585938,2.394531,11.171875,6.384766,15.175781
		c3.989258,3.989746,9.575195,6.383789,15.189453,6.383789c5.585938,0,11.171875-2.394043,15.161133-6.383789
		c3.990234-4.003906,6.384766-9.589844,6.384766-15.175781C346.647461,178.916504,344.25293,173.330566,340.262695,169.340332
		L340.262695,169.340332z"/>
	<path fill="#FFFFFF" d="M273.176758,261.178711h103.821289c2.394531,0,4.788086,1.595703,4.788086,4.017578v104.620117
		c0,2.394531-2.393555,4.788086-4.788086,4.788086H273.176758c-2.394531,0-4.788086-2.393555-4.788086-4.788086V265.196289
		C268.388672,262.774414,270.782227,261.178711,273.176758,261.178711L273.176758,261.178711z M373.008789,269.984375h-95.842773
		v95.841797h95.842773V269.984375z"/>
	<path fill="#FFFFFF" d="M325.101563,278.762695c10.373047,0,20.74707,4.787109,27.131836,11.171875
		c7.208984,7.208984,11.99707,16.785156,11.99707,27.957031c0,10.401367-4.788086,19.977539-11.99707,27.15918
		c-6.384766,7.182617-16.758789,11.200195-27.131836,11.200195c-10.402344,0-19.977539-4.017578-27.160156-11.200195
		c-7.208984-7.181641-11.199219-16.757813-11.199219-27.15918c0-11.171875,3.990234-20.748047,11.199219-27.957031l0,0
		C305.124023,283.549805,314.699219,278.762695,325.101563,278.762695L325.101563,278.762695z M346.647461,296.345703
		c-5.585938-5.613281-13.566406-8.805664-21.545898-8.805664c-8.007813,0-15.988281,3.192383-20.775391,8.805664h-0.798828
		c-4.788086,5.585938-8.777344,12.767578-8.777344,21.545898c0,8.007813,3.989258,15.987305,8.777344,20.775391
		c5.585938,5.585938,13.566406,8.77832,21.574219,8.77832c7.979492,0,15.959961-3.192383,21.545898-8.77832
		c5.585938-4.788086,8.804688-12.767578,8.804688-20.775391C355.452148,309.113281,352.233398,301.931641,346.647461,296.345703
		L346.647461,296.345703z"/>
	<path fill="#FFFFFF" d="M267.589844,321.881836c-2.393555,0-4.81543-1.59668-4.81543-3.990234s2.421875-4.788086,4.81543-4.788086
		h40.725586c2.394531,0,3.990234,2.394531,3.990234,4.788086s-1.595703,3.990234-3.990234,3.990234H267.589844z"/>
	<path fill="#FFFFFF" d="M321.083984,259.583008c0-2.394531,1.595703-3.990234,4.017578-3.990234
		c2.393555,0,4.787109,1.595703,4.787109,3.990234v41.550781c0,2.393555-2.393555,3.990234-4.787109,3.990234
		c-2.421875,0-4.017578-1.59668-4.017578-3.990234V259.583008z"/>
	<path fill="#FFFFFF" d="M383.382813,313.103516c2.420898,0,4.017578,2.394531,4.017578,4.788086
		s-1.59668,3.990234-4.017578,3.990234h-41.523438c-2.394531,0-3.990234-1.59668-3.990234-3.990234
		s1.595703-4.788086,3.990234-4.788086H383.382813z"/>
	<path fill="#FFFFFF" d="M329.888672,375.402344c0,2.394531-2.393555,4.788086-4.787109,4.788086
		c-2.421875,0-4.017578-2.393555-4.017578-4.788086v-40.725586c0-2.393555,1.595703-3.989258,4.017578-3.989258
		c2.393555,0,4.787109,1.595703,4.787109,3.989258V375.402344z"/>
	<path fill="#FFFFFF" d="M325.101563,287.540039c7.979492,0,15.959961,3.990234,21.545898,8.805664v0.797852
		c5.585938,4.788086,8.804688,12.768555,8.804688,20.748047c0,8.007813-4.017578,15.987305-8.804688,20.775391l0,0
		c-5.585938,5.585938-13.566406,8.77832-21.545898,8.77832c-8.007813,0-15.988281-3.192383-20.775391-8.77832
		c-5.586914-4.788086-8.77832-12.767578-8.77832-20.775391c0-8.77832,3.191406-15.959961,8.77832-21.545898l0,0
		C309.912109,290.732422,317.09375,287.540039,325.101563,287.540039L325.101563,287.540039z M340.262695,302.729492
		c-3.989258-3.990234-9.575195-6.383789-15.161133-6.383789c-5.614258,0-11.200195,2.393555-15.189453,6.383789l0,0
		c-3.990234,3.990234-6.384766,8.77832-6.384766,15.162109c0,5.585938,2.394531,11.199219,6.384766,15.189453
		c3.989258,3.192383,9.575195,5.585938,15.189453,5.585938c5.585938,0,11.171875-2.393555,15.161133-5.585938
		c3.990234-3.990234,6.384766-9.603516,6.384766-15.189453S344.25293,306.719727,340.262695,302.729492L340.262695,302.729492z"/>
	<path fill="#FFFFFF" d="M405.753906,331.485352c6.383789,0,11.199219,2.393555,15.189453,6.383789l0,0
		c3.990234,3.990234,6.383789,9.576172,6.383789,15.162109c0,6.411133-2.393555,11.99707-6.383789,15.987305
		s-8.805664,6.383789-15.189453,6.383789c-5.585938,0-11.171875-2.393555-15.162109-6.383789s-6.411133-9.576172-6.411133-15.987305
		c0-5.585938,2.420898-11.171875,6.411133-15.162109l0,0C394.582031,333.878906,400.167969,331.485352,405.753906,331.485352
		L405.753906,331.485352z M415.357422,344.25293c-2.421875-2.393555-5.613281-3.990234-9.603516-3.990234
		c-3.192383,0-6.383789,1.59668-8.77832,3.990234l0,0c-2.393555,2.394531-3.989258,5.585938-3.989258,8.77832
		c0,4.017578,1.595703,7.208984,3.989258,9.603516c2.394531,2.393555,5.585938,3.989258,8.77832,3.989258
		c3.990234,0,7.181641-1.595703,9.603516-3.989258c2.393555-2.394531,3.191406-5.585938,3.191406-9.603516
		C418.548828,349.838867,417.750977,346.647461,415.357422,344.25293L415.357422,344.25293z"/>
	<path fill="#FFFFFF" d="M405.753906,287.540039c6.383789,0,11.199219,2.394531,15.189453,6.383789l0,0
		c3.990234,4.017578,6.383789,9.603516,6.383789,15.189453c0,6.384766-2.393555,11.171875-6.383789,15.162109v0.826172
		c-3.990234,3.191406-9.603516,5.585938-15.189453,5.585938s-11.171875-2.394531-15.162109-6.412109
		c-3.990234-3.990234-6.411133-8.777344-6.411133-15.162109c0-5.585938,2.420898-11.171875,6.411133-15.189453
		C394.582031,289.93457,400.167969,287.540039,405.753906,287.540039L405.753906,287.540039z M415.357422,300.335938
		c-2.421875-2.394531-5.613281-3.990234-9.603516-3.990234c-3.192383,0-6.383789,1.595703-8.77832,3.990234
		c-2.393555,2.393555-3.989258,5.585938-3.989258,8.777344c0,3.990234,1.595703,7.182617,3.989258,9.576172
		c2.394531,2.394531,5.585938,3.192383,8.77832,3.192383c3.990234,0,6.383789-0.797852,8.805664-3.192383h0.797852
		c2.393555-2.393555,3.191406-5.585938,3.191406-9.576172C418.548828,305.921875,417.750977,302.729492,415.357422,300.335938
		L415.357422,300.335938z"/>
	<path fill="#FFFFFF" d="M235.629395,331.485352c6.383789,0,11.983398,2.393555,15.973145,6.383789l0,0
		c3.990234,3.990234,6.384766,9.576172,6.384766,15.162109c0,6.411133-2.394531,11.99707-6.384766,15.987305
		c-3.989746,3.990234-9.589355,6.383789-15.973145,6.383789c-5.586426,0-11.186035-2.393555-15.175781-6.383789v-0.797852
		c-3.990234-3.990234-6.384277-8.77832-6.384277-15.189453c0-5.585938,2.394043-11.171875,6.384277-15.162109l0,0
		C224.443359,333.878906,230.042969,331.485352,235.629395,331.485352L235.629395,331.485352z M245.21875,344.25293
		c-2.394043-2.393555-5.599609-3.990234-9.589355-3.990234c-3.192383,0-6.384277,1.59668-8.791992,3.990234l0,0
		c-2.394043,2.394531-3.989746,5.585938-3.989746,8.77832c0,4.017578,1.595703,7.208984,3.989746,9.603516l0,0
		c2.407715,2.393555,5.599609,3.989258,8.791992,3.989258c3.989746,0,7.195313-1.595703,9.589355-3.989258
		c2.394043-2.394531,3.990234-5.585938,3.990234-9.603516C249.208984,349.838867,247.612793,346.647461,245.21875,344.25293
		L245.21875,344.25293z"/>
	<path fill="#FFFFFF" d="M235.629395,287.540039c6.383789,0,11.983398,2.394531,15.973145,6.383789l0,0
		c3.990234,4.017578,6.384766,9.603516,6.384766,15.189453c0,6.384766-2.394531,11.171875-6.384766,15.162109
		c-3.989746,4.017578-9.589355,6.412109-15.973145,6.412109c-5.586426,0-11.186035-2.394531-15.175781-6.412109
		c-3.990234-3.990234-6.384277-8.777344-6.384277-15.162109c0-5.585938,2.394043-11.171875,6.384277-15.189453l0,0
		C224.443359,289.93457,230.042969,287.540039,235.629395,287.540039L235.629395,287.540039z M245.21875,300.335938
		c-2.394043-2.394531-5.599609-3.990234-9.589355-3.990234c-3.192383,0-6.384277,1.595703-8.791992,3.990234l0,0
		c-2.394043,2.393555-3.989746,5.585938-3.989746,8.777344c0,3.990234,1.595703,7.182617,3.989746,9.576172
		c2.407715,2.394531,5.599609,3.192383,8.791992,3.192383c3.989746,0,7.195313-0.797852,9.589355-3.192383
		c2.394043-2.393555,3.990234-5.585938,3.990234-9.576172C249.208984,305.921875,247.612793,302.729492,245.21875,300.335938
		L245.21875,300.335938z"/>
</g>
</svg>
