<svg id="Слой_7" data-name="Слой 7" xmlns="http://www.w3.org/2000/svg" viewBox="0 0 300 300"><defs><style>.cls-1,.cls-2{fill:#687b92;stroke:#4b4847;stroke-width:2px;}.cls-1{stroke-linecap:round;stroke-linejoin:round;}.cls-2{stroke-miterlimit:22.93;}</style></defs><title>Монтажная область 1</title><rect class="cls-1" x="219" y="180" width="9" height="56"/><rect class="cls-1" x="133" y="180" width="9" height="56"/><rect class="cls-1" x="77" y="180" width="9" height="56"/><rect class="cls-1" x="174" y="180" width="9" height="56"/><rect class="cls-1" x="176" y="212" width="50" height="8"/><path class="cls-2" d="M147.61,90H74.39c-3,0-5.39,1.7-5.39,3.77v20.46c0,2.07,2.42,3.77,5.39,3.77h73.23c3,0,5.39-1.7,5.39-3.77V93.77C153,91.7,150.58,90,147.61,90Z"/><path class="cls-2" d="M225.9,159H175.71c-3.24,0-10.74,2.12-10.74,6.84,0,1.72-.49,5.16,4.34,5.16h63c4.83,0,4.34-3.44,4.34-5.16C236.64,161.11,228.57,159,225.9,159Z"/><rect class="cls-1" x="223" y="178" width="9" height="66"/><rect class="cls-1" x="170" y="178" width="9" height="66"/><rect class="cls-1" x="137" y="118" width="9" height="126"/><rect class="cls-1" x="73" y="118" width="9" height="126"/><rect class="cls-1" x="170" y="171" width="62" height="9"/><rect class="cls-1" x="73" y="171" width="73" height="9"/><path class="cls-2" d="M143.07,158H74.56c-3.24,0-10.73,2.29-10.73,7.41,0,1.86-.49,5.59,4.33,5.59h81.31c4.82,0,4.33-3.73,4.33-5.59C153.8,160.28,145.75,158,143.07,158Z"/></svg>