<svg width="153" height="75" viewBox="0 0 153 75" fill="none" xmlns="http://www.w3.org/2000/svg">
<path d="M122.622 16.1178C121.674 14.3796 119.462 13.7475 117.724 14.8536C113.141 17.54 112.035 18.014 110.139 17.856C107.611 17.54 97.0234 2.37018 89.4385 2.21216C82.4857 2.05414 50.566 27.4951 63.9976 27.9692C68.106 28.1272 78.5352 23.8607 83.4338 21.6484C85.014 21.0164 86.1202 21.9645 87.2263 23.2286C91.9668 29.0753 104.292 44.5611 106.505 46.4574C111.719 51.0399 112.667 52.3041 115.828 51.988C118.356 51.83 127.047 46.2993 134 42.0328C135.738 40.9267 136.212 38.7145 135.264 36.9763L122.622 16.1178Z" fill="#1B4A8A"/>
<path d="M18.0141 42.665C18.1721 42.823 18.1721 42.9811 18.0141 43.1391C17.224 43.9292 15.0117 45.9834 10.5872 43.6132C5.84666 40.9268 1.26416 37.7665 0.158028 36.9764C9.64234e-06 36.8184 0 36.6603 0 36.5023L21.9646 0.158028C22.1226 9.64234e-06 22.2806 0 22.4386 0L36.6603 8.69102C36.6603 8.69102 36.6603 8.69102 36.8183 8.69102C37.1344 9.00706 38.5566 9.9552 38.0825 11.5354C37.7665 12.4835 36.0283 12.0094 34.9221 11.2193C33.974 10.5873 31.4457 11.5354 30.8136 12.6415L15.3278 37.1344C14.6957 38.2405 14.5377 39.6627 15.3278 40.6108C15.4858 40.7688 15.6439 40.9268 15.9599 41.0848C16.75 41.8749 17.5401 42.349 18.0141 42.665Z" fill="#1B4A8A"/>
<path d="M116.618 13.7475C116.46 13.9056 116.144 13.7475 116.144 13.5895C115.669 12.6414 115.037 10.1131 119.146 7.26876C123.57 4.26641 128.469 1.58009 129.733 0.94802C129.891 0.790001 130.049 0.948029 130.207 1.10605L152.804 37.1343C152.962 37.2923 152.804 37.4503 152.646 37.6084L138.424 46.4574C138.424 46.4574 138.424 46.4574 138.266 46.4574C137.95 46.6154 135.896 46.9315 134.79 45.6673C134.158 44.8772 135.422 43.7711 136.528 42.981C137.95 41.8749 138.74 39.6626 138.108 38.5565L123.254 13.7475C122.622 12.6414 120.884 12.0093 119.778 12.3254C119.304 12.1674 117.092 13.4315 116.618 13.7475Z" fill="#1B4A8A"/>
<path d="M46.7733 55.4646C48.5115 53.4104 49.6176 50.408 48.5115 49.1439C46.2992 46.2995 42.0327 48.9858 39.9785 50.566C38.3983 51.8302 33.1837 56.5708 37.4502 59.0991C42.3488 61.7854 45.5092 56.8868 46.7733 55.4646Z" fill="#1B4A8A"/>
<path d="M57.8348 56.2545C57.5187 55.3064 56.0966 54.6743 54.8324 54.6743C52.9362 54.6743 50.4079 55.4644 48.1957 56.7286C47.0895 57.3607 42.9811 61.3111 45.1933 63.5234C48.9858 67.3158 54.6744 63.2073 55.1485 62.8913C58.6249 59.889 58.7829 58.4668 57.8348 56.2545Z" fill="#1B4A8A"/>
<path d="M66.3676 63.2074C65.2615 61.3111 61.469 62.1013 58.3087 63.8395C57.5186 64.3135 52.62 67.1579 56.7285 70.0022C60.0469 72.3725 64.1554 69.3701 64.3134 69.2121C67.9478 66.3678 67.4738 65.1036 66.3676 63.2074Z" fill="#1B4A8A"/>
<path d="M73.4781 68.4217C73.3201 68.1056 72.688 67.6316 72.214 67.6316C71.2659 67.6316 69.8437 67.6316 67.6314 68.8957C67.3154 69.2118 61.6267 72.2141 64.6291 73.7943C68.2635 76.0066 71.7399 73.0042 71.898 72.8462C73.6362 71.108 74.4262 69.8439 73.4781 68.4217Z" fill="#1B4A8A"/>
<path d="M112.351 55.1484C112.351 54.6743 112.035 54.2002 111.561 53.8842C103.186 47.7215 97.3391 40.4526 90.2283 31.9196C89.1222 30.4974 86.4358 27.3371 85.4877 25.5989C85.0137 24.8088 83.9076 24.4927 82.9594 24.8088C78.6929 26.2309 63.5232 33.0258 60.0467 29.0753C55.4642 23.8607 61.943 18.172 67.7897 12.9574C69.2118 11.6932 67.6316 8.84888 65.7354 8.84888C62.8911 8.84888 59.7307 10.271 57.0444 11.2192C49.9335 13.5894 44.2449 15.9597 41.7166 16.1177C39.6623 16.2758 39.5043 16.2758 35.5539 13.7475C34.6057 13.1154 33.3416 13.4314 32.8675 14.3795L17.6977 37.6083C17.0657 38.5564 17.3817 39.8205 18.3298 40.2946C22.2803 42.9809 23.2284 43.771 29.7072 47.5634C29.8652 47.5634 35.7119 51.83 35.8699 51.83C37.292 50.2498 39.0303 48.5116 39.9784 47.7215C43.6128 44.8771 48.6694 44.087 50.4076 46.9314C51.6718 48.9856 51.6718 50.4078 49.9336 53.2521C54.0421 51.1979 57.6765 51.6719 59.4147 54.6743C60.9948 57.3606 61.3109 59.2568 58.4666 62.1012C62.101 60.2049 66.3675 59.5729 67.9477 62.1012C69.0538 63.8394 69.3698 65.2616 68.4217 66.9998C70.1599 66.3677 71.7401 66.0516 72.8462 66.3676C73.6363 66.5257 74.2684 66.9998 74.5845 67.6318C75.8486 69.6861 75.8486 71.1082 72.5302 73.6365C79.483 75.5327 86.9099 75.3747 89.7542 73.6365C93.0726 71.4243 80.4311 66.8417 79.641 65.8936C83.9075 67.9479 93.8627 71.7403 97.6552 70.0021C99.3934 69.212 99.8674 68.4219 99.8674 67.6318C99.8674 65.7356 86.5939 60.679 88.016 60.837C88.1741 60.837 99.8674 66.0516 102.554 65.5776C105.556 65.1035 106.662 63.2073 106.346 61.3111C106.188 60.2049 95.2849 54.0422 94.0208 53.5682C95.6009 53.8842 105.714 59.4148 107.294 59.2568C111.087 59.4148 112.509 57.2026 112.351 55.1484Z" fill="#1B4A8A"/>
</svg>
