<svg width="112" height="85" viewBox="0 0 112 85" fill="none" xmlns="http://www.w3.org/2000/svg">
<path d="M14.4575 62.611L14.6529 62.3509C15.3697 61.4138 16.2545 60.5925 17.2836 59.8894L19.1329 58.6648C19.9791 57.948 20.8913 57.337 21.8545 56.8156C19.1329 56.008 16.1761 56.0079 13.4943 56.8542C10.4466 57.8174 7.77728 59.8097 5.9803 62.4928C4.40483 64.8249 3.57104 67.5589 3.57104 70.4112C3.57104 78.2375 9.93889 84.6054 17.7652 84.6054C25.2531 84.6054 31.387 78.7839 31.9084 71.4267C31.5438 71.4142 31.1791 71.3881 30.8792 71.3483L29.0561 71.1143C28.9914 71.1143 28.913 71.1143 28.8483 71.1019L26.673 71.1404C25.7359 71.1529 24.7976 71.3881 23.9775 71.7913L21.4115 73.0805C21.1377 73.2237 20.8253 73.3406 20.5005 73.419L18.716 73.8484C18.3128 73.9529 17.9083 73.979 17.6482 73.979H16.5544C15.7343 73.979 14.4973 73.6667 13.7544 73.093C13.2989 72.7545 12.9081 72.3115 12.5958 71.7515L12.205 71.0222C12.0881 70.8144 12.0358 70.5668 12.0619 70.3316L12.1665 68.7163C12.322 66.4651 13.1172 64.3557 14.4575 62.611Z" fill="#1B4A8A"/>
<path d="M4.76958 59.7712C6.50185 57.6618 8.72817 55.9943 11.2158 54.9265L11.0341 54.588C10.7218 54.0156 10.5525 53.3511 10.5787 52.7263L10.8126 46.2278C10.8512 45.0431 11.4896 43.9356 12.4665 43.3233L20.6575 38.1016C21.2299 37.737 21.882 37.503 22.559 37.3985L28.2237 36.5522C30.1775 36.2523 32.1823 36.8385 33.7192 38.18L39.8531 43.663C40.5176 44.2355 40.8947 45.0829 40.9084 45.9553C40.9345 46.8277 40.5699 47.6739 39.9452 48.2737L36.2467 51.7893C35.2436 52.7662 34.0851 53.6124 32.7958 54.3155L28.6282 56.6078C28.1329 56.8554 27.6513 57.0894 27.1697 57.2848L24.3696 58.4695C23.068 59.0295 21.8434 59.7712 20.762 60.6958C20.7234 60.7344 20.6836 60.7605 20.6313 60.7866L18.7435 62.0497C17.9495 62.5973 17.2726 63.222 16.7374 63.9114L16.5421 64.1852C15.5005 65.5392 14.8882 67.1669 14.7575 68.8867L14.6791 70.1237L14.8869 70.5008C14.9915 70.7086 15.1346 70.8654 15.33 71.0085C15.5254 71.1653 16.1638 71.3732 16.5545 71.3732H17.6484C17.779 71.3732 17.9222 71.3607 18.0653 71.3209L19.9145 70.8716C20.0278 70.8306 20.1398 70.7895 20.253 70.7484L22.8054 69.4716C23.9901 68.8731 25.3192 68.5607 26.6345 68.5346L28.887 68.496C28.9654 68.496 29.0687 68.496 29.1471 68.5084C29.1994 68.5084 29.2516 68.5209 29.3039 68.5209L31.244 68.7685C31.804 68.8594 32.481 68.8469 33.0932 68.781C33.9395 68.6764 34.7347 68.4425 35.398 68.1301L44.6442 62.8425L61.56 54.0915L70.0372 48.8038C71.2356 48.0621 72.3158 47.2545 73.228 46.473L80.7295 39.3498C80.778 39.3099 80.8552 39.244 80.9037 39.2029L81.8632 38.4898C81.4202 37.7482 81.0954 36.9268 80.9522 36.0283L76.6029 9.5141C76.4859 8.82344 76.512 8.13401 76.6029 7.45703L28.2411 14.5566C26.5711 14.8018 25.0043 15.5148 23.7225 16.6124L2.491 34.8075C0.720145 36.4353 -0.178346 38.7537 0.0294767 41.1231L1.55268 54.771C1.70948 56.0341 2.26948 57.2064 3.12815 58.0912L4.76958 59.7712Z" fill="#1B4A8A"/>
<path d="M88.5434 39.2091L108.325 35.9661C110.708 35.5753 112.324 33.3229 111.945 30.9398L107.582 4.42555C107.244 2.30252 105.421 0.765625 103.271 0.765625C103.037 0.765625 102.802 0.778072 102.568 0.817894L82.7741 4.07337C81.628 4.25506 80.6125 4.88102 79.9355 5.83178C79.2585 6.78254 78.9848 7.94112 79.1677 9.10094L83.517 35.6015C83.9078 37.9585 86.1217 39.6123 88.5434 39.2091Z" fill="#1B4A8A"/>
</svg>
