<svg width="106" height="126" viewBox="0 0 106 126" fill="none" xmlns="http://www.w3.org/2000/svg">
<path d="M81.2334 117.962H44.7476V125.89H81.2334V117.962Z" fill="#1B4A8A"/>
<path d="M63.2532 17.9298L59.5059 21.6799L69.6122 31.7862L73.3568 28.0636C74.7065 26.7139 75.4526 24.9143 75.4526 22.9967C75.4526 21.0819 74.7092 19.2823 73.3568 17.9326C70.5723 15.1481 66.0431 15.1399 63.2532 17.9298Z" fill="#1B4A8A"/>
<path d="M71.9662 93.2117C71.4066 93.2117 70.8744 93.4339 70.4684 93.8399C69.6399 94.6848 69.6344 96.0043 70.4684 96.8383C71.2694 97.6393 72.674 97.6476 73.4558 96.8493C74.309 95.9961 74.309 94.6821 73.4668 93.8399C73.0635 93.4339 72.5286 93.2117 71.9662 93.2117Z" fill="#1B4A8A"/>
<path d="M9.83634 31.0764C9.27122 31.0764 8.74177 31.2986 8.33576 31.7046C7.9325 32.1024 7.71029 32.6209 7.70754 33.1833C7.7048 33.7566 7.92701 34.297 8.33576 34.703C9.1368 35.5041 10.5249 35.4931 11.3452 34.6948C11.7429 34.297 11.9651 33.7566 11.9624 33.1833C11.9597 32.6236 11.7402 32.1024 11.3452 31.7156C10.9282 31.2986 10.3987 31.0764 9.83634 31.0764Z" fill="#1B4A8A"/>
<path d="M87.3395 42.049L83.6196 45.7908L93.7259 55.8971L97.4733 52.147C98.8202 50.7781 99.5691 48.9867 99.5691 47.1103C99.5691 45.2175 98.823 43.4151 97.465 42.038C94.6778 39.2782 90.1322 39.2755 87.3395 42.049Z" fill="#1B4A8A"/>
<path d="M80.3527 27.8911C78.4434 27.8911 76.6493 28.6373 75.3023 29.9952C75.2996 29.9952 75.2996 29.998 75.2968 30.0007C75.2968 30.0007 75.2941 30.0007 75.2914 30.0035L71.5522 33.7234L81.6778 43.8489L85.3977 40.1043C85.4004 40.1015 85.4031 40.1015 85.4059 40.0988C85.4059 40.0988 85.4059 40.096 85.4086 40.096C86.772 38.7546 87.5237 36.9577 87.5237 35.0374C87.5237 33.1582 86.772 31.3696 85.4031 30.0007C84.0507 28.64 82.2593 27.8911 80.3527 27.8911Z" fill="#1B4A8A"/>
<path d="M94.5268 85.7494L73.0496 107.224C72.7807 107.493 72.4296 107.624 72.0784 107.624C71.7273 107.624 71.3762 107.49 71.1073 107.224L28.3147 64.4285L18.8174 67.4159C43.9158 87.1622 43.8335 91.1098 43.5345 103.422C43.4604 106.502 43.3891 110.321 43.732 115.059H80.6238C81.9543 110.148 84.522 106.661 87.0239 103.304C90.3625 98.8266 93.7834 94.1987 94.5268 85.7494Z" fill="#1B4A8A"/>
<path d="M57.5667 19.7408L61.314 15.9908C62.6445 14.6603 63.4099 12.825 63.4099 10.9541C63.4099 9.0557 62.6582 7.2561 61.2893 5.8872C58.5899 3.16859 53.8852 3.16859 51.1885 5.88445L47.4631 9.63454L57.5667 19.7408Z" fill="#1B4A8A"/>
<path d="M36.3532 53.0058C36.8333 54.5996 36.8196 56.2621 36.3807 57.8065L66.1207 87.5466C69.4099 85.1243 73.9556 85.1243 77.2475 87.5466L88.1768 76.6146C86.978 75.018 86.3333 73.0894 86.3333 71.0594C86.3333 68.9169 87.0548 66.8869 88.3798 65.2409L40.2981 17.1838C36.9979 19.8119 32.2986 19.8421 28.9134 17.3292L17.6494 27.9568C20.0471 31.2432 20.0389 35.7724 17.6248 39.0506L25.9863 47.4095C26.7215 47.201 27.4869 47.0775 28.2633 47.0775C31.9804 47.0803 35.234 49.4614 36.3532 53.0058ZM46.4266 45.5577C49.9271 42.0244 56.0912 42.0161 59.6136 45.566C61.3748 47.3107 62.3514 49.648 62.3569 52.1389C62.3624 54.6435 61.3858 57 59.6081 58.7749C57.8524 60.5306 55.5151 61.499 53.0297 61.499C50.5278 61.499 48.1796 60.5197 46.4211 58.7448C44.6517 56.9945 43.6778 54.6518 43.6778 52.1554C43.6751 49.6617 44.649 47.3189 46.4266 45.5577Z" fill="#1B4A8A"/>
<path d="M32.3831 7.62624C31.5656 8.441 31.5711 9.80167 32.4023 10.6521C33.1704 11.4065 34.6079 11.4284 35.3925 10.6439C36.2265 9.8099 36.2265 8.45197 35.3925 7.61801C35.0002 7.22846 34.4708 7.01174 33.9029 7.01174C33.3268 7.009 32.7891 7.22846 32.3831 7.62624Z" fill="#1B4A8A"/>
<path d="M0.854736 33.0896L17.7562 49.9911L23.0206 48.3259L14.7879 40.096C14.2557 39.5611 14.253 38.6969 14.7852 38.1592C17.3392 35.5833 17.3392 31.3915 14.7852 28.8156C14.5218 28.5522 14.3819 28.1956 14.3847 27.828C14.3929 27.4576 14.5493 27.1065 14.8154 26.8541L27.8158 14.5888C27.835 14.5696 27.8405 14.5422 27.8597 14.5257C28.3919 13.9881 29.2506 13.9743 29.7855 14.512L29.8075 14.534C32.3944 17.1017 36.5889 17.1017 39.1456 14.5367C39.3733 14.1966 39.7574 13.9551 40.1634 13.914C40.5722 13.8783 40.9891 13.999 41.2772 14.2898L91.26 64.2452C91.5179 64.5031 91.6605 64.8515 91.6605 65.2163C91.6605 65.5812 91.5151 65.9296 91.26 66.1875C91.2298 66.2176 91.0789 66.3548 91.046 66.3795C89.7594 67.6496 89.0709 69.3011 89.0709 71.0596C89.0709 72.818 89.7594 74.4695 91.0076 75.7067C91.2682 75.9646 91.4136 76.3157 91.4136 76.6778C91.4136 77.0399 91.2682 77.3938 91.0131 77.649L78.2842 90.3806C78.0154 90.6494 77.6642 90.7811 77.3131 90.7811C76.9647 90.7811 76.6136 90.6494 76.3475 90.3833C73.7715 87.8293 69.577 87.8238 67.0011 90.3833C66.4716 90.9155 65.602 90.9128 65.067 90.3778L35.1541 60.4622C34.1995 61.8339 32.8306 62.8681 31.2257 63.4661L72.0789 104.314L105.171 71.2214L44.6103 10.6604C44.5829 10.6385 44.5527 10.6303 44.528 10.6028L33.9471 0L0.854736 33.0896ZM14.7029 33.1637C14.7111 34.475 14.2009 35.7095 13.2736 36.6394C12.3354 37.5584 11.1147 38.0605 9.82257 38.0605C8.52773 38.0605 7.31245 37.5557 6.39619 36.6394C5.46621 35.7095 4.9587 34.475 4.96693 33.1637C4.97242 31.8661 5.48267 30.6536 6.40442 29.751C8.23145 27.9295 11.4274 27.9158 13.2736 29.762C14.1871 30.6563 14.6974 31.8689 14.7029 33.1637ZM75.4065 98.7751C74.5094 99.6941 73.2887 100.204 71.9801 100.204C70.6771 100.204 69.4508 99.6941 68.5291 98.7751C66.6499 96.8959 66.6472 93.8152 68.5181 91.9086C70.3863 90.0404 73.5658 90.0569 75.4065 91.8976C77.3021 93.7933 77.3021 96.8767 75.4065 98.7751ZM99.4789 67.8472C101.355 69.7236 101.369 72.8043 99.5064 74.7054C98.5736 75.6381 97.3501 76.1456 96.0471 76.1456C94.7385 76.1456 93.5177 75.6326 92.607 74.7054C90.7196 72.818 90.7196 69.7318 92.6179 67.8362C94.4203 66.0009 97.6574 65.9927 99.4789 67.8472ZM37.3323 12.5808C36.4216 13.4915 35.2063 13.9908 33.9032 13.9908C32.6056 13.9908 31.3849 13.4943 30.4631 12.589C28.5648 10.6522 28.5702 7.56052 30.4521 5.67314C32.3176 3.84336 35.5163 3.85707 37.3323 5.67314C39.2362 7.57973 39.2362 10.6769 37.3323 12.5808Z" fill="#1B4A8A"/>
<path d="M15.5144 65.5788L28.15 61.6065C28.1582 61.6037 28.1664 61.6037 28.1747 61.5982L29.9853 61.0276C31.634 60.5146 32.9261 59.3021 33.546 57.6973C34.0563 56.4655 34.1166 55.0966 33.7298 53.81C32.9782 51.4316 30.7781 49.8213 28.2597 49.8213C27.6781 49.8213 27.0993 49.9118 26.5424 50.0874L25.6975 50.3398L17.9038 52.8115C17.8873 52.817 17.8709 52.8197 17.8544 52.8252L12.0523 54.6659C9.69584 55.4176 8.04712 57.6534 8.04712 60.1059C8.04712 60.6792 8.13491 61.2636 8.31597 61.8397C9.24869 64.7942 12.5187 66.5334 15.5144 65.5788Z" fill="#1B4A8A"/>
<path d="M97.5533 72.7768C98.3762 71.9374 98.368 70.6179 97.5258 69.7757C97.1253 69.3697 96.6013 69.1475 96.039 69.1475C95.4793 69.1475 94.9526 69.3669 94.5658 69.7647C93.7126 70.6179 93.7127 71.9346 94.5548 72.7768C95.3586 73.5943 96.7467 73.5861 97.5533 72.7768Z" fill="#1B4A8A"/>
<path d="M57.6655 56.8382C58.9246 55.5818 59.6132 53.9166 59.6105 52.1472C59.6077 50.3915 58.9164 48.7455 57.671 47.5083C56.4228 46.2491 54.7686 45.5605 53.0128 45.5605C51.2571 45.5605 49.6057 46.2491 48.3657 47.5001C47.1065 48.7483 46.418 50.3997 46.418 52.1582C46.418 53.9166 47.1065 55.5681 48.3575 56.8081C50.8484 59.3209 55.1828 59.3209 57.6655 56.8382Z" fill="#1B4A8A"/>
</svg>
