<?xml version="1.0" encoding="UTF-8"?>
<!DOCTYPE svg PUBLIC "-//W3C//DTD SVG 1.1//EN" "http://www.w3.org/Graphics/SVG/1.1/DTD/svg11.dtd">
<!-- Creator: CorelDRAW 2018 (64-Bit) -->
<svg xmlns="http://www.w3.org/2000/svg" xml:space="preserve" width="26.7417mm" height="6.17135mm" version="1.1" shape-rendering="geometricPrecision" text-rendering="geometricPrecision" image-rendering="optimizeQuality" fill-rule="evenodd" clip-rule="evenodd"
viewBox="0 0 26741.7 6171.35"
 xmlns:xlink="http://www.w3.org/1999/xlink">
 <g id="Brend">
  <metadata id="CorelCorpID_0Corel-Layer"/>
  <g id="_983416848">
   <path fill="black" d="M3927.32 326.75c432.53,-297.04 984.8,-369.76 1496.42,-304.76 -1083.25,1685.02 -2168.72,3368.96 -3251.99,5054.28 -223.18,352.6 -456.29,735.35 -844.03,926.72 -412.89,196.09 -883.86,156.26 -1327.72,164.83 1126.94,-1777.69 2319.72,-3512.51 3439.21,-5295.15 121.97,-213.51 283.46,-406.82 488.11,-545.92zm9416.36 2141.9c350.39,-0.3 700.79,0 1051.19,0 0.54,267.43 -1.38,535.12 0.82,802.83 905.43,-2.21 1810.86,-0.27 2716.3,-0.84 -1.94,262.46 -5.53,525.19 -3.59,787.9 -903.49,0.27 -1806.73,0 -2710.22,0 -0.27,424.23 0,848.19 0,1272.15 1006.37,2.22 2012.74,9.41 3019.14,7.2 -1.67,225.94 -26.56,484.24 -202.72,647.13 -160.13,143.24 -388.57,145.45 -590.99,141.05 -1094.33,-0.27 -2188.64,-0.27 -3282.97,0 -2.49,-1219.34 2.48,-2438.37 3.04,-3657.42zm-5170.43 -13.84c218.47,-0.55 437.21,0 655.71,-0.28 -2.5,652.67 5.8,1304.79 3.58,1957.45 -250.01,-5.53 -500.01,-4.14 -749.74,-4.14 -8.3,-271.57 -1.65,-543.7 -4.13,-815.28 -303.4,363.67 -606.76,727.59 -909.6,1091.82 719.05,0 1438.35,0 2157.67,0 0.29,196.92 0,394.09 0.29,591.01 -166.21,0.27 -331.87,0 -497.8,0 -11.07,193.58 37.07,416.2 -95.13,579.37 -159.31,190.82 -422.84,240.89 -658.47,256.36 -0.28,-278.48 -0.28,-556.98 0,-835.73 -602.89,0 -1205.51,0.27 -1808.11,0 0,-191.66 0.28,-383.3 0,-574.97 634.41,-749.17 1271.3,-1496.14 1905.73,-2245.61zm14386.85 -858.71c270.45,3.07 556.15,66.94 758.58,257.76 246.42,229.28 333.81,581.05 325.78,907.65 -359.81,1.67 -719.32,0.55 -1078.84,0.85 -6.65,-388.86 -6.38,-777.4 -5.52,-1166.26zm3107.62 -188.87c357.3,0 714.35,0 1071.64,0 0,1228.18 0,2456.36 0,3684.51 7.75,215.46 3.59,450.25 -132.2,630.27 -214.31,291.49 -595.97,386.07 -939.44,405.15 6.63,-702.15 2.77,-1404.32 11.06,-2106.51 -676.45,0 -1353.18,0.28 -2029.63,0 -7.73,441.13 0.27,882.77 -9.39,1324.14 -12.19,200.78 -128.32,384.42 -287.9,502.77 -228.16,170.92 -512.44,247.25 -791.49,281.55 3.59,-966.57 3.31,-1933.38 10.51,-2900.22 1034.57,0.55 2069.17,5.8 3103.74,3.58 -5.53,-608.39 -1.64,-1216.82 -6.9,-1825.24zm-12324.04 784.59c0.27,-261.64 0,-522.97 0.27,-784.59 1287.37,0 2574.98,0 3862.35,0 -0.55,262.74 -3.04,525.45 -4.71,788.18 -1285.97,1.94 -2571.95,-2.21 -3857.91,-3.59zm-4441.99 -791.49c1366.44,3.86 2733.17,5.53 4099.9,6.9 0,262.74 0,525.45 0,788.18 -496.69,0 -993.39,0 -1489.81,0 -0.27,1030.17 0.3,2060.33 -0.27,3090.76 1.39,216.8 -88.21,436.39 -257.46,575.5 -224.84,186.95 -524.07,254.71 -810.3,266.89 -3.61,-1311.16 -4.71,-2622.29 -7.2,-3933.15 -510.53,0 -1021.02,0 -1531.54,0 2.22,-264.93 -6.08,-529.88 -3.32,-795.08zm9690.43 245.84c467.08,-262.45 1020.74,-330.46 1547.58,-274.88 440.56,44.81 873.36,207.13 1216.28,490.89 311.68,249.98 533.74,600.37 651.01,980.91 -328.84,30.41 -657.91,58.91 -987.03,88.24 -91.52,-225.4 -224.01,-446.38 -430.86,-583.27 -252.77,-167.29 -571.36,-200.78 -865.88,-163.98 -363.67,45.9 -709.91,259.12 -885.26,585.45 -181.69,336.02 -245.3,727.05 -230.65,1105.67 19.63,340.43 102.06,691.1 311.69,967.11 168.97,217.35 407.91,383.85 675.88,451.89 348.48,86.56 741.99,12.43 1015.24,-227.07 200.76,-170.07 306.7,-423.68 355.66,-676.72 360.88,48.12 721.51,95.67 1082.42,143.81 -94.03,428.39 -303.39,844.33 -648.8,1123.63 -360.06,299.25 -829.39,439.18 -1292.05,457.98 -383.58,17.41 -774.91,-27.1 -1133.6,-169.24 -395.46,-155.15 -743.93,-431.44 -976.5,-787.63 -250.28,-381.09 -374.74,-831.88 -423.68,-1281.55 -56.71,-522.13 26.82,-1069.17 290.65,-1527.95 169.25,-297.87 427.54,-540.12 727.9,-703.29zm-13107.25 -1032.38c177.82,1612.58 357.87,3225.16 524.62,4838.86 17.69,171.74 24.89,375.29 -108.95,506.1 -128.32,118.09 -302.85,175.62 -473.76,195.25 -352.59,35.39 -707.42,3.31 -1060.85,17.13 89.05,-33.45 182.25,-73.83 240.33,-152.92 99.85,-128.32 102.59,-300.63 91.82,-455.5 -120.86,-1031.26 -212.95,-2065.83 -316.38,-3099.03 -1.1,-38.17 -15.22,-81.86 11.05,-115.34 363.68,-578.26 727.9,-1156.54 1092.12,-1734.55z"/>
   <path fill="#0081A1" d="M2726.24 5219.79c438.09,-697.18 851.5,-1409.58 1263.86,-2121.98 80.48,672.83 162.06,1345.98 216.55,2021.58 15.77,194.16 28.2,399.65 -56.97,581.05 -109.24,239.22 -349.04,409.04 -604,457.99 -588.24,4.68 -1177.01,4.68 -1765.22,10.22 232.84,-107.58 447.44,-260.22 612.55,-457.97 122.24,-155.69 226.22,-324.69 333.23,-490.89z"/>
  </g>
 </g>
</svg>
