<?xml version="1.0" encoding="UTF-8"?>
<!DOCTYPE svg PUBLIC "-//W3C//DTD SVG 1.1//EN" "http://www.w3.org/Graphics/SVG/1.1/DTD/svg11.dtd">
<!-- Creator: CorelDRAW 2018 (64-Bit) -->
<svg xmlns="http://www.w3.org/2000/svg" xml:space="preserve" width="16.9347mm" height="10.4719mm" version="1.1" shape-rendering="geometricPrecision" text-rendering="geometricPrecision" image-rendering="optimizeQuality" fill-rule="evenodd" clip-rule="evenodd"
viewBox="0 0 16934.76 10471.91"
 xmlns:xlink="http://www.w3.org/1999/xlink">
 <g id="Brend">
  <metadata id="CorelCorpID_0Corel-Layer"/>
  <g id="_1085181504">
   <path fill="#01A6EA" d="M13060.93 0c619.93,616.93 1239.86,1236.84 1859.8,1856.78 -190.51,211.69 -405.23,402.2 -604.81,610.88 -417.33,420.35 -840.71,834.63 -1254.99,1258.01 3.02,-1242.91 3.02,-2485.78 0,-3725.67zm2618.83 1711.63c90.72,-78.63 160.28,-181.45 260.08,-250.99 -3.02,876.97 0,1753.97 0,2630.94 -876.97,-6.05 -1756.99,-3.04 -2633.97,-3.04 93.76,-117.93 208.66,-217.73 317.53,-323.56 686.47,-683.44 1369.91,-1369.91 2056.36,-2053.35zm-2443.44 2773.06c1233.81,9.1 2467.65,0 3698.44,3.03l0 27.22c-616.91,610.86 -1233.82,1221.72 -1841.67,1841.67 -586.67,-574.59 -1161.23,-1155.21 -1741.85,-1732.8 -42.34,-45.36 -102.83,-78.63 -114.92,-139.12zm-483.84 157.27c795.32,780.19 1575.53,1572.51 2364.82,2358.77 90.71,90.73 184.46,178.42 269.14,278.22 -876.99,-3.03 -1756.99,0 -2633.96,-3.03 3.02,-876.97 0,-1753.97 0,-2633.96z"/>
   <path fill="#FF000B" d="M10058.02 982.83c873.96,3.02 1750.94,3.02 2624.9,0 0,876.98 0,1750.94 3.02,2627.92 -873.95,-876.98 -1756.98,-1747.91 -2627.92,-2627.92z"/>
   <path fill="black" d="M10121.51 7920.03c278.27,-226.82 665.33,-299.31 1013,-217.71 193.59,45.41 369.09,154.33 486.87,314.45 114.95,145.22 169.35,329.7 190.64,511.11 -105.96,9.11 -214.76,18.09 -320.48,33.23 -33.35,-178.33 -99.93,-362.94 -251.06,-474.68 -157.29,-120.98 -375,-139.2 -565.52,-93.79 -232.85,51.33 -429.39,211.69 -556.52,408.23 -229.66,335.74 -293.28,765.14 -238.76,1164.26 33.23,217.71 157.16,426.44 356.78,532.28 238.88,120.98 544.22,93.66 756.03,-72.49 184.36,-130.21 296.35,-338.81 362.94,-553.57 111.87,15.14 226.69,36.43 338.56,48.36 -108.79,332.67 -314.44,653.27 -634.92,819.54 -220.79,130.08 -489.95,151.13 -740.89,114.95 -281.34,-42.34 -535.36,-229.78 -659.29,-483.8 -145.23,-293.4 -154.21,-631.97 -121.1,-949.62 48.49,-420.29 251.06,-831.59 583.72,-1100.75zm6259.78 -205.65c105.84,0 211.8,0 317.52,0 -181.41,904.21 -356.78,1811.36 -538.19,2715.69 -105.84,-3.07 -211.68,-3.07 -317.52,-3.07 184.48,-904.21 356.78,-1808.41 538.19,-2712.62zm-3628.88 722.8c226.82,-45.29 486.87,-24.25 674.43,133.04 178.45,142.15 266.08,371.92 275.19,595.79 15.13,305.34 -54.4,616.83 -217.84,874.05 -247.87,405.03 -846.61,577.45 -1242.77,287.13 -184.49,-133.04 -278.27,-359.86 -287.25,-583.61 -18.22,-365.89 78.52,-749.87 326.5,-1028.26 120.98,-139.07 287.25,-241.96 471.74,-278.14zm1995.97 -3.08c214.63,-36.18 453.51,-21.17 635.04,111.87 181.41,127.14 281.22,341.77 302.39,556.53 27.2,302.39 -30.27,610.81 -178.45,877.01 -163.32,296.36 -492.9,507.91 -837.75,489.82 -265.96,3.08 -535.11,-145.1 -646.98,-390.01 -120.98,-257.22 -96.86,-553.58 -33.36,-822.61 90.83,-375 359.86,-750 759.11,-822.61zm-1971.73 269.16c145.23,-51.32 323.56,-33.23 441.58,75.56 139.07,114.95 178.33,308.54 175.26,480.84 -11.94,232.98 -78.65,468.78 -208.61,665.33 -105.84,160.24 -281.22,290.32 -480.84,287.25 -166.27,6.15 -326.63,-105.72 -387.06,-263.01 -78.64,-193.59 -57.35,-414.38 -12.06,-613.88 54.4,-263.12 211.68,-532.28 471.73,-632.09zm1995.85 -3.08c145.22,-48.24 323.68,-27.07 438.5,81.72 157.29,139.07 181.53,368.97 160.36,565.51 -36.3,302.51 -154.33,629.02 -423.36,795.29 -172.42,105.97 -420.41,96.74 -559.48,-60.43 -163.44,-178.45 -151.26,-447.48 -114.95,-671.35 48.36,-290.33 205.65,-601.82 498.93,-710.74zm-14772.5 -1445.35c719.72,-1318.58 1427.38,-2640.13 2144.02,-3958.59 377.96,0 752.95,0 1131.03,0 114.82,1318.46 229.9,2640.01 347.67,3958.59 -347.67,0 -692.39,-3.07 -1040.19,2.96 -8.99,-217.72 -12.19,-438.51 -18.1,-656.34 -371.92,6.15 -743.96,6.15 -1112.81,0 -105.96,217.83 -202.69,435.55 -305.46,653.38 -381.03,-3.07 -762.06,0 -1146.16,0zm1835.61 -1487.93c223.74,-480.84 444.41,-964.63 668.27,-1445.47 24.25,480.84 21.17,961.68 36.31,1445.47 -235.93,0 -468.78,-3.08 -704.58,0zm3392.95 -1348.74c387.18,-124.06 813.5,-126.89 1200.68,-6.03 359.74,108.79 586.68,462.75 638,822.49 51.45,290.32 -27.2,580.77 -78.64,867.89 -631.97,0 -1264.06,0 -1899.11,0 12.18,190.64 39.26,432.48 226.82,532.29 232.85,114.82 520.1,-3.08 647.11,-217.72 308.54,33.36 613.88,69.54 919.34,99.82 -175.38,338.69 -471.73,625.94 -846.73,728.82 -396.17,102.77 -831.72,111.75 -1221.73,-24.24 -314.45,-108.8 -520.22,-408.23 -601.82,-719.72 -208.6,-813.38 229.9,-1760.05 1016.08,-2083.6zm3898.03 -36.31c184.49,-90.58 408.23,-66.46 583.61,33.36 -139.07,278.14 -263,562.43 -396.17,843.53 -220.79,-72.49 -474.81,-11.94 -625.94,166.39 -220.79,260.17 -290.32,604.77 -368.97,928.45 -69.53,299.43 -139.07,601.82 -211.68,901.25 -317.4,0 -635.05,-3.07 -952.45,2.96 220.67,-955.53 447.49,-1911.3 674.31,-2869.91 296.36,3.08 595.79,6.03 892.14,0 -45.41,196.67 -105.84,390.14 -139.19,586.69 151.26,-217.72 293.4,-471.61 544.34,-592.72zm1856.78 -45.29c281.22,-27.32 580.65,-9.1 837.75,111.75 287.25,136.24 459.54,429.64 538.19,726 111.99,441.46 2.95,909.99 -199.5,1306.28 -208.73,411.3 -604.9,731.78 -1064.57,807.35 -326.51,57.47 -677.38,51.56 -985.92,-90.71 -311.37,-142.14 -495.86,-468.65 -556.28,-795.28 -75.57,-450.57 33.23,-919.22 259.92,-1312.44 239.01,-420.41 686.49,-713.69 1170.41,-752.95zm-5416.12 692.53c154.21,-102.89 390.14,-81.6 508.04,66.45 105.84,133.17 90.7,320.48 57.47,477.89 -308.41,-3.08 -616.83,0 -925.37,-3.08 66.46,-205.65 166.39,-423.36 359.86,-541.26zm5431.26 48.36c117.9,-30.27 250.94,-12.18 344.72,72.49 111.87,81.72 130.09,229.9 133.16,359.99 -9.1,305.46 -87.75,613.88 -266.2,861.86 -96.73,139.08 -269.16,238.76 -441.46,199.5 -187.56,-48.36 -287.37,-247.99 -302.5,-426.32 -18.1,-239 45.41,-480.96 148.3,-698.67 72.49,-166.27 196.42,-326.63 383.98,-368.85z"/>
  </g>
 </g>
</svg>
