<?xml version="1.0" encoding="UTF-8"?>
<!DOCTYPE svg PUBLIC "-//W3C//DTD SVG 1.1//EN" "http://www.w3.org/Graphics/SVG/1.1/DTD/svg11.dtd">
<!-- Creator: CorelDRAW 2018 (64-Bit) -->
<svg xmlns="http://www.w3.org/2000/svg" xml:space="preserve" width="23.8277mm" height="4.11751mm" version="1.1" shape-rendering="geometricPrecision" text-rendering="geometricPrecision" image-rendering="optimizeQuality" fill-rule="evenodd" clip-rule="evenodd"
viewBox="0 0 23827.74 4117.51"
 xmlns:xlink="http://www.w3.org/1999/xlink">
 <g id="Brend">
  <metadata id="CorelCorpID_0Corel-Layer"/>
  <path fill="#89B939" d="M20019.09 1038.41l0 732.92 -503.9 0c-243.93,0 -446.32,17.2 -610.22,53.5 -161.27,35.61 -307.87,93.43 -436.74,175.25 -244.45,153.05 -368.58,342.04 -368.58,567.24 0,210.87 118.02,393.16 353.48,545.7 138.72,89.03 292.7,151.27 462.1,188.06 169.41,36.29 388.5,54.69 658.64,54.69l445.22 0 0 732.82 -671.62 0c-603.77,0 -1099.78,-69.52 -1485.31,-211.46 -486.95,-179.92 -828.99,-439.63 -1028.82,-778.78 -101.34,-170.26 -153.05,-345.85 -153.05,-524.58 0,-234.27 85.04,-460.92 254.45,-681.79 130.82,-168.22 299.38,-316.01 510.85,-442.51 308.46,-183.14 676.87,-302.02 1102.17,-359.59 250.88,-34.42 534.5,-51.47 850.85,-51.47l620.48 0zm1393.92 -1038.41l0 1761.74 9.92 35.61c457.1,58.69 949.63,-53.76 1177.72,-465.31 118.36,-172.38 146.34,-293.63 147.53,-293.63l1008.64 0c177.89,523.49 -272.84,982.36 -724.09,1163.21 726.46,479.06 820.5,1001.02 790.14,1886.97l-1197.63 0 -0.93 0c18.73,-709.76 -93.2,-1536.44 -1212.83,-1468.7l1.53 1468.7 -1257.49 0 0 -4088.59 1257.49 0zm-16370.12 4117.51l2301.49 0 183.49 -4.92c764.11,-23.07 1276.74,-623.36 1283.19,-1279.71 6.44,-730.53 -664.24,-1181.87 -1434.8,-1181.87l-1302.51 0 -63.34 0c-208.84,0 -348.82,-177.3 -360.78,-354.67 -13.14,-203.58 151.94,-419.45 391.98,-419.45l2554.5 0 0 -870.78 -2598.34 0c-992.79,0 -1416.39,553.85 -1435.38,1220.19 -18.99,650.5 512.37,1289.64 1277.09,1289.64l1416.14 0 158.63 11.11c189,12.21 310.76,161.18 321.86,321.85 14.33,204.77 -189.5,392.57 -429.71,392.57l-2823.46 11.44 19.33 -3251.96 -1736.04 -0.61c-543.84,-8.21 -827.2,322.45 -1029.92,782.87l-1736.31 3323.19 98.78 6.19 1285.22 -11.7c454.22,-941.15 907.92,-1882.3 1361.2,-2824.39 173.22,-300.57 271.15,-344.92 585.12,-310.75l-0.93 3151.76 1713.5 0zm5880.68 -4117.51c335.08,10.26 598.26,-19.57 814.98,44.69 463.28,128.88 713.32,334.15 834.57,585.38 68.59,138.46 91.41,285.73 91.41,440.22 0,282.43 -83.52,524.33 -272.52,704.85 -87.08,82.93 -173.81,147.19 -277.26,192.21 -104.28,44.43 -265.8,100.14 -451.83,135.84 754.44,420.88 952.51,887.99 952.51,1975.48l-1309.81 0c-2.03,-1104.7 -440.13,-1537.38 -1367.63,-1526.52l0 1536.78 -981.43 0 0 -4088.93 1967.01 0zm-985.58 1586.4l0 0 924.27 0c219.6,0 351.37,-41.71 417.08,-109.2 54.08,-54.95 80.38,-130.83 80.38,-203.93 0,-99.29 -37.4,-172.87 -110.15,-220.18 -73.94,-47.92 -198.06,-82.68 -356.62,-82.68l-954.96 0.59 0 615.4zm4664.04 333.9c381.46,0 692.81,288.62 692.81,643.55 0,354.33 -311.35,642.86 -692.81,642.86 -380.62,0 -692.3,-288.53 -692.3,-642.86 0,-354.93 311.68,-643.55 692.3,-643.55zm0 -881.89c1108.18,0 2012.79,685.35 2012.79,1525.69 0,839.24 -904.61,1524.49 -2012.79,1524.49 -1108.52,0 -2012.29,-685.25 -2012.29,-1524.49 0,-840.34 903.77,-1525.69 2012.29,-1525.69zm0 666.02l0 0c509.4,0 925.04,386.22 925.04,859.67 0,472.35 -415.64,858.82 -925.04,858.82 -509.16,0 -924.2,-386.47 -924.2,-858.82 0,-473.45 415.04,-859.67 924.2,-859.67z"/>
 </g>
</svg>
