<?xml version="1.0" encoding="UTF-8"?>
<!DOCTYPE svg PUBLIC "-//W3C//DTD SVG 1.1//EN" "http://www.w3.org/Graphics/SVG/1.1/DTD/svg11.dtd">
<!-- Creator: CorelDRAW 2018 (64-Bit) -->
<svg xmlns="http://www.w3.org/2000/svg" xml:space="preserve" width="23.6705mm" height="4.98433mm" version="1.1" shape-rendering="geometricPrecision" text-rendering="geometricPrecision" image-rendering="optimizeQuality" fill-rule="evenodd" clip-rule="evenodd"
viewBox="0 0 23670.5 4984.33"
 xmlns:xlink="http://www.w3.org/1999/xlink">
 <g id="Brend">
  <metadata id="CorelCorpID_0Corel-Layer"/>
  <path fill="#00539B" d="M3202.85 77.88c88.04,-50.29 189.79,-67.92 290.28,-67.92 778.11,0 1556.21,0 2334.31,0 0,401.12 0,802.06 0,1204.23 65.34,-224.94 145.82,-451.32 290.38,-637.27 129.53,-147.06 270.16,-287.79 439.92,-387.14 206.17,-121.95 444.91,-178.48 682.59,-189.78 1466.83,0 2933.75,0 4400.77,0 0,441.17 0,882.33 0,1323.5 -3103.61,0 -6207.11,0 -9309.38,0 193.52,-317.96 387.14,-635.93 590.81,-948.92 75.4,-113.14 155.87,-231.26 280.32,-296.7zm8667.02 -72.81c442.32,0 883.59,0 1324.85,0 0,439.93 0,878.61 0,1318.43 -441.26,0 -882.53,0 -1324.85,0 0,-439.82 0,-878.5 0,-1318.43zm4344.15 0c439.92,0 879.94,0 1319.86,0 0,439.93 0,878.61 0,1318.43 -439.92,0 -879.94,0 -1319.86,0 0,-439.82 0,-878.5 0,-1318.43zm2227.3 104.33c167.18,-67.92 345.75,-101.83 525.47,-109.4 1567.52,0 3136.18,0 4703.7,0 0,441.17 0,882.33 0,1323.5 -2041.36,0 -4081.46,0 -6122.81,0 -12.65,-109.31 30.18,-212.39 65.34,-312.98 46.46,-126.84 100.49,-252.54 175.98,-365.68 54.04,-85.55 128.19,-154.72 199.85,-226.28 129.43,-129.43 281.56,-238.84 452.47,-309.16zm-18441.33 4865.69c757.98,-1191.58 1515.97,-2380.68 2275.2,-3571.02 488.97,51.54 979.19,103.09 1468.17,158.36 -729.06,1137.56 -1459.36,2273.87 -2188.41,3411.52 -517.91,1.14 -1035.81,1.14 -1554.96,1.14zm11884.92 -3552.14c436.19,28.83 873.62,60.26 1309.81,92.92 0,582 0,1162.75 0,1744.75 0,113.14 37.65,230.02 120.61,308 85.46,80.38 204.93,128.19 321.8,120.62 721.59,0 1441.73,0 2163.31,0 100.59,1.24 207.32,-27.69 284.05,-96.76 123.21,-110.65 158.46,-286.54 148.4,-446.15 0,-475.28 0,-950.45 0,-1425.44 433.6,25.1 867.3,52.69 1300.99,80.38 2.4,560.63 4.99,1122.51 8.72,1684.39 0,109.31 3.83,218.72 -8.72,328.03 -27.68,277.73 -144.66,549.33 -345.65,745.43 -248.99,245.06 -592.15,382.06 -936.56,424.88 -991.65,1.15 -1984.73,-1.24 -2977.72,0 -324.39,0 -642.35,-125.78 -892.59,-329.46 -269.01,-222.45 -437.43,-551.63 -496.45,-893.54 -2.49,-75.5 0,-150.99 1.25,-226.39 -11.31,115.64 -23.95,232.52 -50.3,345.66 -60.26,240.08 -177.23,467.61 -345.65,649.92 -201.09,221.3 -477.67,367.02 -769.29,432.35 -56.62,17.63 -116.98,11.41 -174.65,12.55 -2022.48,0 -4045.14,0 -6066.28,0 0,-1118.58 -1.34,-2237.36 3.74,-3357.38 429.86,30.18 858.57,61.6 1287.19,94.27 0,654.9 0,1308.56 0,1963.46 1542.32,0 3083.3,0 4624.46,0 72.81,1.25 150.89,-21.36 202.43,-75.49 86.7,-91.68 96.67,-242.57 32.58,-349.39 -47.71,-74.15 -137,-105.67 -221.21,-110.55 -1089.85,-91.78 -2179.59,-183.66 -3270.68,-272.85 -103.18,-3.73 -202.34,-38.99 -300.44,-70.32 -253.97,-82.96 -492.71,-225.04 -661.22,-436.18 -150.8,-182.41 -238.74,-408.6 -284.06,-638.62 1274.65,99.25 2549.2,203.67 3823.75,306.76 319.31,25.1 637.37,52.78 955.34,81.72 204.82,18.77 402.27,96.76 570.69,214.88 184.8,132.02 335.6,306.66 453.82,501.52 84.21,143.32 162.09,295.46 191.03,461.39 -6.23,-622.24 -1.25,-1244.47 -2.5,-1865.36zm5743.24 378.32c634.79,33.91 1269.57,76.64 1905.6,111.89 607.2,37.75 1214.2,74.16 1822.64,113.15 351.97,21.36 703.85,43.97 1054.59,72.9 250.13,20.03 490.31,120.62 685.08,276.49 230.02,183.55 404.66,433.69 507.84,708.93 57.87,147.06 56.53,307.91 54.04,463.88 -6.33,119.37 -13.8,240.08 -47.81,355.71 -66.58,233.76 -180.97,455.06 -345.65,634.78 -214.98,240.08 -521.65,388.39 -839.61,429.87 -125.79,21.46 -251.48,13.89 -377.18,15.13 -1500.83,0 -3003.01,0 -4503.75,0 3.74,-441.16 8.72,-882.43 13.7,-1323.6 1521.05,0 3043.25,0 4565.55,0 86.6,4.89 174.64,-20.21 251.38,-61.6 99.25,-94.27 113.05,-270.26 23.76,-375.83 -72.81,-79.23 -188.54,-81.81 -287.79,-88.14 -1005.54,-85.36 -2012.42,-169.57 -3018.05,-253.78 -133.17,-13.89 -270.26,-11.3 -399.78,-47.8 -213.55,-56.62 -422.3,-147.06 -590.72,-292.87 -98.1,-85.45 -196.11,-173.5 -270.26,-281.56 -96.76,-138.24 -158.45,-296.7 -203.58,-457.55z"/>
 </g>
</svg>
