<svg xmlns="http://www.w3.org/2000/svg" xml:space="preserve" width="10.9998mm" height="5.94716mm" version="1.1" shape-rendering="geometricPrecision" text-rendering="geometricPrecision" image-rendering="optimizeQuality" fill-rule="evenodd" clip-rule="evenodd" viewBox="0 0 10999.76 5947.17" xmlns:xlink="http://www.w3.org/1999/xlink">
  <path fill="#EE3124" d="M2.01 149.52c-9.75,-64.17 14.89,-162.9 98.91,-148.01 775.16,-4.96 1550.49,4.79 2320.86,0 177.8,-9.93 350.62,44.32 518.67,83.84 49.27,14.89 98.73,29.61 152.97,44.5 64.17,29.6 128.34,54.24 197.47,79.05 49.45,34.57 98.91,69.14 148.19,103.7 182.75,108.66 321.02,271.56 429.68,454.32 34.56,64.17 69.13,133.3 103.69,202.43 14.89,44.49 34.57,93.77 49.46,143.23 59.2,256.67 14.71,523.44 24.64,785.08 -19.86,54.42 -39.53,108.66 -54.42,163.08 -44.32,103.7 -98.73,197.47 -148.01,296.2 -158.12,158.12 -311.09,325.98 -503.78,444.57 64.17,14.71 128.34,24.64 187.72,39.53 241.96,148.01 464.07,340.69 612.26,582.65 9.93,24.64 34.56,79.06 44.49,103.7 19.68,49.45 34.57,93.77 54.24,143.22 98.91,355.59 88.99,745.74 -19.67,1096.36 -24.64,69.13 -54.25,138.26 -79.06,202.43 -138.26,217.32 -281.49,444.39 -508.56,577.69 -84.02,54.42 -163.08,103.69 -246.92,153.15 -163.08,69.13 -330.95,118.59 -493.85,167.86 -444.39,98.74 -903.67,74.1 -1357.99,74.1 0,-365.51 0,-735.81 0,-1101.32 404.86,-4.78 824.62,44.5 1209.8,-128.33 118.59,-74.1 217.32,-182.76 301.34,-296.2 29.61,-177.8 14.72,-360.55 19.68,-538.34 -64.17,-128.34 -128.34,-261.82 -266.6,-311.09 -29.78,-9.93 -79.06,-34.57 -108.66,-49.46 -24.82,-4.96 -74.09,-14.71 -98.73,-24.64 -335.91,-69.13 -691.49,-69.13 -1042.11,-49.45 -34.57,-370.3 -4.97,-745.56 -14.72,-1121 291.24,4.97 582.66,14.89 869.11,-59.2 177.79,-59.21 321.02,-187.72 409.82,-350.62 59.21,-167.87 54.42,-340.69 -4.96,-508.74 -49.28,-88.8 -118.41,-157.94 -202.43,-212.18 -84.02,-24.81 -167.87,-49.45 -251.89,-74.09 -385.18,-64.35 -780.3,-9.93 -1165.3,-29.6 0,1619.62 0,3239.42 0,4859.22 -395.12,-14.89 -790.23,14.72 -1185.34,-19.85 0,-1925.93 0,-3851.86 0,-5777.8zm6691.39 29.6c651.97,-202.43 1372.88,-202.43 2024.84,0 69.13,24.82 138.27,54.42 202.43,79.06 98.74,54.42 197.47,103.7 301.17,148.19 325.98,192.51 612.43,444.39 839.5,745.73 34.57,54.25 64.17,103.7 98.91,152.98 98.74,153.15 182.58,316.05 251.71,488.88 251.89,661.71 291.42,1412.41 79.06,2089.01 -19.68,44.49 -34.57,93.77 -54.24,143.23 -29.78,78.88 -64.35,162.9 -98.91,241.96 -54.24,93.77 -98.74,197.46 -182.58,271.56 -484.1,0 -963.05,0 -1446.97,0 153.15,-187.72 340.69,-345.66 449.35,-567.94 39.53,-98.74 79.06,-197.47 118.59,-296.2 54.24,-182.76 69.13,-370.48 103.69,-558.02 24.64,-276.52 -49.45,-548.26 -108.66,-814.86 -29.6,-84.02 -64.16,-172.83 -93.77,-256.85 -113.62,-241.96 -311.26,-419.75 -498.81,-597.54 -74.09,-39.53 -143.22,-88.81 -212.35,-128.34 -222.29,-108.66 -464.25,-153.15 -706.21,-182.76 -162.9,-9.92 -316.05,49.46 -474.17,59.21 -49.28,19.85 -98.73,39.53 -148.01,54.42 -316.05,123.37 -597.54,321.02 -785.26,607.47 -59.21,93.77 -113.62,192.5 -167.87,291.24 -177.79,454.31 -207.39,953.12 -93.77,1427.29 14.72,49.28 34.57,103.7 49.28,152.98 29.6,84.02 59.21,167.86 93.77,251.88 39.53,59.21 79.06,123.38 123.55,187.72 98.74,157.94 232.04,291.24 390.15,394.94 59.21,39.53 123.37,79.06 187.72,118.58 83.84,29.61 167.87,64.17 251.71,93.78 123.55,24.81 241.96,69.13 370.47,64.16 1116.03,0 2237.02,0 3353.05,0 29.6,39.53 59.21,79.06 88.99,118.59 -24.82,325.98 29.6,651.78 -34.75,972.8 -394.93,24.82 -790.04,4.97 -1185.16,14.89 -874.07,-9.92 -1748.13,14.72 -2622.2,-24.64 -157.94,-29.78 -311.09,-69.13 -469.03,-103.69 -49.46,-19.86 -98.91,-34.57 -148.19,-54.42 -84.02,-29.6 -167.87,-59.21 -251.89,-93.77 -24.64,-14.89 -69.13,-39.53 -93.77,-49.46 -138.26,-74.09 -266.78,-167.86 -400.07,-246.92 -266.6,-256.67 -533.38,-513.52 -696.28,-849.43 -9.93,-24.64 -34.57,-69.13 -49.46,-93.77 -54.24,-133.3 -98.73,-266.6 -148.01,-399.9 -29.78,-108.66 -59.38,-217.32 -74.09,-325.98 -54.42,-187.72 -29.78,-380.22 -69.14,-572.9 -39.52,-167.87 14.72,-340.7 29.61,-508.56 4.96,-232.21 64.17,-459.28 133.3,-676.6 19.67,-49.46 34.56,-93.78 54.24,-138.27 64.34,-158.11 143.22,-306.13 227.25,-454.31 34.56,-49.46 69.13,-98.74 98.73,-148.19 217.32,-325.98 518.48,-577.69 849.43,-775.34 113.62,-59.2 222.28,-118.41 335.73,-172.83 69.13,-24.64 138.26,-54.24 207.39,-79.06z"/>
</svg>
