<?xml version="1.0" encoding="UTF-8"?>
<!DOCTYPE svg PUBLIC "-//W3C//DTD SVG 1.1//EN" "http://www.w3.org/Graphics/SVG/1.1/DTD/svg11.dtd">
<!-- Creator: CorelDRAW 2018 (64-Bit) -->
<svg xmlns="http://www.w3.org/2000/svg" xml:space="preserve" width="29.8325mm" height="5.87427mm" version="1.1" shape-rendering="geometricPrecision" text-rendering="geometricPrecision" image-rendering="optimizeQuality" fill-rule="evenodd" clip-rule="evenodd"
viewBox="0 0 5064.03 997.15"
 xmlns:xlink="http://www.w3.org/1999/xlink">
 <g id="Brend-new">
  <metadata id="CorelCorpID_0Corel-Layer"/>
  <g id="_2090166000">
   <path fill="#E53138" fill-rule="nonzero" d="M3537.52 1.53l0.74 -1.53c86.63,147.17 173.3,294.34 259.97,441.5 106.94,-122.52 213.84,-245.1 320.8,-367.62 -48.38,222.18 -97.06,444.31 -145.26,666.53 -290.42,-0.04 -580.84,0.02 -871.25,-0.02 -48.43,-222.16 -96.96,-444.33 -145.39,-666.49 106.99,122.51 213.91,245.08 320.88,367.63 86.7,-147.17 172.71,-292.89 259.52,-439.99z"/>
   <path fill="black" fill-rule="nonzero" d="M72.5 204.02c38.88,-35.5 91.08,-56.05 143.77,-56.04 218.2,-0.04 436.38,-0.02 654.57,-0.02 0,49.37 0.02,98.72 0,148.09 -212.83,0.02 -425.65,0.02 -638.48,0 -40.6,-0.29 -72.97,32.93 -73.08,73.28 -0.09,49.32 -0.05,98.63 -0.02,147.95 -0.21,40.94 32.04,74.7 73.17,74.49 212.81,0.04 425.61,-0.04 638.42,0.04 -0.02,49.32 -0.02,98.61 0,147.93 -84.67,0.02 -643.29,3.34 -681.97,-1.89 -104.15,-14.1 -185.44,-105.5 -188.88,-203.64l0 -181.77c4.27,-56.29 30.43,-110.67 72.5,-148.41zm957.9 -55.95c242.71,-0.23 485.43,-0.05 728.15,-0.09 68.07,-0.01 125.85,48.3 141.12,114.81 5.41,23.15 4.8,124.12 3.12,149.81 -2.85,34.59 -18.36,67.96 -43.01,92.41 27.35,27.28 43.37,65.44 43.55,104.09 -0.14,43.37 -0.07,86.76 -0.45,130.13 -17.39,1.71 -136.99,0.53 -159.62,0.52 -0.02,-26.14 3.35,-122.14 -4.38,-143.55 -9.48,-27.93 -37.13,-48.74 -66.81,-48.87 -160.54,-0.07 -321.09,-0.02 -481.63,-0.02 -0.02,64.14 0.02,128.29 -0.02,192.45 -53.26,0.05 -106.54,-0.16 -159.81,0.09 -0.49,-197.25 -0.05,-394.53 -0.22,-591.79zm160.04 148.02c0.05,34.5 -0.09,69.01 0.07,103.5 55.97,-0.03 513.57,3.15 528.37,-2.13 28.31,-10.09 25.41,-40.11 24.2,-67.62 -1.01,-17.91 -16.81,-33.75 -34.92,-33.86 -172.58,-0.16 -345.16,0.09 -517.72,0.11zm1067.44 -147.95c61.2,-0.19 445.01,-3.75 482.69,3.1 100.97,18.35 177.22,108.41 179.61,205.45 0.04,53.46 0,106.94 0.02,160.41 1.69,121.92 -96.19,222.81 -217.33,222.65 -145.98,0 -291.99,0.05 -437.97,-0.04 -119.33,-0.18 -217.16,-101.78 -215.21,-224.47 -0.02,-52.23 0.02,-104.45 0,-156.69 1.93,-108.04 94.08,-205.89 208.2,-210.42zm20.11 148.04c-29.32,1.13 -56.25,22.18 -65.12,50.04 -7.08,20.92 -3.58,141.88 -3.75,169.14 -0.51,43.13 32.21,76.4 71.88,76.38 128.54,0.11 257.1,0.02 385.65,0.05 15.6,-0.23 31.84,1.46 46.68,-4.54 29.1,-10.58 48.74,-41.1 47.53,-71.87 -0.04,-46.88 -0.04,-93.77 -0.02,-140.63 2.27,-32.7 -19.08,-65.71 -50.7,-75.31 -23.44,-7.56 -381.07,-3.35 -432.15,-3.24zm1914.4 -148.22c214.58,0 429.16,0 643.74,0 133.76,-1.39 229.3,99.59 227.55,226.77 -0.58,42.33 1.45,354.57 -0.56,365.12 -52.98,-0.25 -105.95,0.04 -158.92,-0.14 0.13,-123.46 -0.15,-246.9 -0.09,-370.35 0.12,-39.84 -32.48,-73.54 -73.46,-73.32 -159.43,0.04 -318.83,-0.04 -478.24,0.04 0.02,147.89 0.02,295.77 0,443.66 -53.33,0 -106.69,0.04 -160.02,-0.02 0,-197.25 -0.02,-394.51 0,-591.77z"/>
   <path fill="#B3B3B3" fill-rule="nonzero" d="M3102.07 867.69c62.04,0.05 124.09,-0.13 186.13,0.11 24.68,0.47 46.04,22.88 45.69,47.51 0.11,27.1 0.02,54.22 0.04,81.33 -11.64,0.58 -23.28,0.42 -34.9,0.02 -0.04,-26.56 0.04,-53.12 -0.04,-79.68 0.52,-8.87 -7.17,-17.15 -16.14,-16.79 -16.56,-0.18 -33.12,0 -49.68,-0.07 2.27,5.98 3.13,12.36 3.08,18.76 0.09,25.96 0.02,51.93 0.04,77.91 -11.71,0.25 -23.44,0.56 -35.12,-0.11 -0.09,-27.04 0.11,-54.11 -0.09,-81.15 -0.2,-8.18 -7.46,-15.34 -15.66,-15.28 -16.18,-0.29 -32.38,-0.04 -48.54,-0.11 -0.04,32.18 -0.02,64.36 -0.02,96.54 -11.6,0.5 -23.23,0.63 -34.79,-0.04 -0.02,-42.99 -0.02,-85.96 0,-128.96zm253.93 0c11.78,0 23.57,0 35.35,0.02 0.02,42.99 0.02,86 0.02,128.99 -11.78,0.58 -23.6,0.54 -35.37,-0.05 0,-42.97 0,-85.96 0,-128.96zm89.08 2.74c8.65,-3.3 18.04,-2.74 27.12,-2.74 37.55,0 75.08,0 112.61,0 0.04,10.85 0,21.7 0.02,32.54 -40.56,0.07 -81.13,-0.07 -121.69,0.07 -8.67,0.02 -15.3,8.45 -14.87,16.77 -0.02,10.79 -0.22,21.58 0.11,32.38 0.18,8.47 7.96,15.75 16.5,15.06 39.98,0.05 79.97,-0.02 119.95,0.02 0.04,10.61 -0.11,21.21 0.09,31.8 -35.73,1.57 -71.64,0.25 -107.44,0.68 -12.04,-0.04 -24.74,1.12 -35.95,-4.2 -16.68,-7.37 -28.32,-24.85 -28.43,-43.1 -0.02,-11.51 -0.02,-23.01 0,-34.52 0.02,-19.64 13.4,-38.4 31.98,-44.77zm161.84 -2.72c46.92,-0.02 93.86,-0.04 140.78,0 12.27,-0.31 24.16,7.23 29.33,18.34 5.03,10.23 2.6,21.97 3.23,32.94 0.63,9.73 -2.88,19.42 -9.26,26.74 12.84,15.4 8.78,28.52 9.12,50.83 -11.44,0.79 -22.97,0.76 -34.4,0.13 -1.78,-9.28 0.29,-19.42 -0.99,-28.97 -1.24,-6.99 -7.78,-12.54 -14.86,-12.56 -29.26,-0.14 -58.54,-0.04 -87.82,-0.05 0,13.87 0,27.77 0,41.66 -11.71,0.5 -23.44,0.41 -35.12,0.05 -0.02,-43.04 -0.02,-86.07 0,-129.1zm35.12 54.9c31.64,0.04 63.3,0.07 94.94,0 11.3,0.31 10.66,-21.33 1.78,-22.22 -32.22,-0.38 -64.47,-0.02 -96.68,-0.16 -0.07,7.46 -0.04,14.92 -0.04,22.38zm194.85 -53.08c12.93,-3.33 74.52,-1.87 90.98,-1.79 17.62,0.04 34.47,10.97 42.07,26.81 5.82,10.81 4.94,23.33 4.89,35.19 -0.45,12.16 1.62,24.9 -3.15,36.49 -6.65,17.82 -24.67,30.65 -43.75,30.74 -22.23,0.07 -44.47,0.02 -66.7,0.12 -9.73,0.02 -19.82,0.36 -28.94,-3.53 -17.62,-6.95 -30.13,-25.14 -30.11,-44.09 0,-11.39 0,-22.76 0,-34.13 -0.07,-20.67 14.77,-40.33 34.72,-45.82zm10.32 31.78c-6.52,2.29 -10.59,9.17 -10.2,15.95 -0.02,10.74 -0.2,21.48 0.09,32.2 0.03,8.79 8.45,15.76 17.06,15.06 23.33,-0.02 46.68,0.11 70.04,-0.06 8.13,0.13 15.33,-6.94 15.58,-15.03 0.22,-11.19 0.14,-22.4 0.04,-33.59 -0.11,-8.2 -7.23,-15.68 -15.51,-15.55 -10.16,0.04 -71.52,-1.29 -77.1,1.01z"/>
   <polygon fill="#C1002B" points="3538.13,740.4 3798.22,441.5 3973.76,740.41 3538.13,740.4 3278.04,441.5 3102.5,740.41 "/>
  </g>
 </g>
</svg>
