<?xml version="1.0" encoding="UTF-8"?>
<!DOCTYPE svg PUBLIC "-//W3C//DTD SVG 1.1//EN" "http://www.w3.org/Graphics/SVG/1.1/DTD/svg11.dtd">
<!-- Creator: CorelDRAW 2018 (64-Bit) -->
<svg xmlns="http://www.w3.org/2000/svg" xml:space="preserve" width="13.5514mm" height="13.5107mm" version="1.1" shape-rendering="geometricPrecision" text-rendering="geometricPrecision" image-rendering="optimizeQuality" fill-rule="evenodd" clip-rule="evenodd"
viewBox="0 0 13551.36 13510.71"
 xmlns:xlink="http://www.w3.org/1999/xlink">
 <g id="Brend">
  <metadata id="CorelCorpID_0Corel-Layer"/>
  <g>
   <path fill="#0083CA" d="M6671.88 0l207.19 0c621.74,11.12 1242.12,104.21 1838.11,281.87 995.6,295.69 1919.67,825.82 2679.63,1533.6 718.79,668.38 1291.3,1494.06 1660.05,2404.03 315.75,772.57 480.79,1604.6 494.5,2438.54l0 194.75c-11.82,674.59 -120.35,1347.95 -330.41,1989.47 -336.05,1036.96 -931.5,1987.32 -1712.72,2746.86 -782.45,762.53 -1751.4,1332.51 -2799.46,1642.02 -593.13,176.17 -1210.54,267.76 -1828.89,279.57l-207.19 0c-892.23,-15.31 -1781.73,-203.01 -2600.24,-559.55 -865.37,-375.89 -1650.96,-934.48 -2289.23,-1629.67 -728.25,-788.7 -1264.48,-1753.82 -1545.79,-2789.96 -151.38,-550.85 -228.36,-1121.09 -237.43,-1692.03l0 -169.12c2.59,-109.09 6.09,-218.31 13,-327.26 65.06,-1113.78 415.63,-2209.01 1007.82,-3154.49 631.5,-1012.69 1535.78,-1853.28 2592.38,-2408.34 938.81,-497.47 1996.94,-763.34 3058.68,-780.29l0 0zm-162.75 777.85c-292.3,12.48 -583.66,45.94 -870.97,101.77 -1051.43,198.41 -2045.15,688.96 -2845.36,1398.91 -792.34,698.71 -1395.94,1610.29 -1724.28,2614.85 -275.92,838.84 -360.19,1739.34 -249.07,2615.03 81.16,649.5 271.29,1285.35 560.34,1872.66 448.15,915.92 1136.29,1712.21 1975.12,2291.67 761.45,528.64 1647.57,876.36 2565.68,1005.51 889.1,126.57 1806.53,54.07 2663.38,-215.87 606.82,-190.69 1183.03,-479.17 1699.21,-851.04 869.72,-622.96 1567.6,-1482.93 1996.78,-2463.09 330.52,-754.01 501.81,-1577.1 499.09,-2400.35 0.81,-960.52 -235.38,-1920.49 -684.62,-2769.48 -494.73,-942.78 -1247.25,-1747.47 -2152.36,-2307.39 -1019.31,-635.56 -2233.37,-948.88 -3432.94,-893.18zm-2111.58 5350.08c586.77,-374.82 1171.52,-752.93 1757.47,-1128.97 212.9,142.7 424.96,286.48 638.26,428.63 -455.18,294.75 -911.2,588.26 -1367.31,881.52 73.42,49.19 147.03,98.38 220.87,147.3 446.39,-284.17 893.44,-567.4 1339.97,-851.56 13.27,-8.41 26.97,-15.98 40.92,-23.46 195.43,133.5 394.07,262.1 589.88,395.18 -453.02,300.03 -908.07,596.92 -1359.86,898.57 77.1,46.36 153.66,93.78 230.77,140.27 461.17,-293.54 922.03,-587.59 1383.6,-880.45 1.49,-322.25 -0.94,-644.5 1.22,-966.75 338.51,0.56 677.16,0.15 1015.67,0.28 0.95,642.06 -0.82,1284.12 0.95,1926.33 300.97,-0.68 602.08,0.14 903.05,-0.41 0,301.37 0.95,602.89 -0.4,904.42 -640.02,-0.83 -1280.06,-0.14 -1920.09,-0.43 -0.13,-308.67 0.15,-617.37 0,-926.22 -570.11,366.96 -1140.74,733.01 -1710.19,1101.04 -583.65,-391.49 -1164.72,-787.18 -1747.31,-1180.31 -41.18,144.6 -103.11,282.27 -183.61,409.26 -74.26,100.27 -149.33,203.54 -250.83,278.33 -46.62,35.1 -88.49,76.98 -140.41,104.64 -113.02,63.41 -230.23,122.21 -356.41,155.15 -269.66,75.35 -551.79,55.82 -828.39,58.11 -287.14,0.29 -574.16,-0.25 -861.18,0.29 -1.35,-943.32 -0.4,-1886.76 -0.52,-2830.2 404.9,0 809.68,0 1214.6,0 140.94,2.57 283.2,8 419.55,46.88 113.28,19.12 216.94,70.21 320.49,117.63 221.56,119.25 416.7,297.74 531.34,523.75 52.71,84.04 86.07,177.81 117.9,271.18l0 0zm-1632.13 -72.79c0,346.53 -0.54,693.03 0.13,1039.68 135.24,-5.17 273.75,13.27 406.28,-20.62 157.6,-39.3 277.81,-173.31 326.31,-324.68 41.74,-153.4 32.27,-327.4 -52.44,-465.07 -61.64,-113.56 -179.42,-188.92 -303.28,-218.06 -124.93,-18.27 -251.38,-8.93 -377,-11.25zm7282.11 -886.65c340.8,-0.13 681.63,0 1022.44,0 1.35,642.2 -1.36,1284.41 1.49,1926.47 299.07,-0.97 598.16,-0.14 897.22,-0.42 -0.12,301.39 0,602.63 0,903.86 -640.28,0.15 -1280.59,0 -1921.03,0.15 -0.27,-943.43 0,-1886.74 -0.12,-2830.06z"/>
  </g>
 </g>
</svg>
