<?xml version="1.0" encoding="UTF-8"?>
<!DOCTYPE svg PUBLIC "-//W3C//DTD SVG 1.1//EN" "http://www.w3.org/Graphics/SVG/1.1/DTD/svg11.dtd">
<!-- Creator: CorelDRAW 2018 (64-Bit) -->
<svg xmlns="http://www.w3.org/2000/svg" xml:space="preserve" width="26.4446mm" height="3.68151mm" version="1.1" shape-rendering="geometricPrecision" text-rendering="geometricPrecision" image-rendering="optimizeQuality" fill-rule="evenodd" clip-rule="evenodd"
viewBox="0 0 26444.56 3681.51"
 xmlns:xlink="http://www.w3.org/1999/xlink">
 <g id="Brend">
  <metadata id="CorelCorpID_0Corel-Layer"/>
  <g>
   <path fill="#0054A5" d="M1420.63 40.02c218.67,-51.15 444.51,-39.3 667.22,-37.74 419.73,0 839.23,2.45 1258.95,3.34 0.67,260.47 -0.22,520.69 0.45,780.94 -434.69,-0.91 -869.38,-0.44 -1304.07,-0.22 -282.58,13.84 -571.41,119.26 -764.63,332.15 -197.9,214.89 -276.09,522.7 -240.78,809.3 64.77,430.65 438.92,795.89 871.38,849.05 119.95,8.04 240.81,3.8 360.98,3.11 61.86,2.25 123.96,-46.67 118.82,-112.35 0.46,-378.85 0.68,-757.69 -0.22,-1136.54 332.62,-0.66 665.01,-0.66 997.38,0 -4.7,696.26 -6.02,1392.75 -6.47,2089.25 -520.69,-1.35 -1041.16,0.88 -1561.86,-1.13 -305.36,-1.78 -610.47,-80.18 -877.19,-229.85 -393.59,-219.14 -700.07,-588.59 -844.81,-1015.02 -138.49,-395.16 -124.87,-838.99 28.38,-1227.9 214.21,-552.85 714.78,-985.09 1296.47,-1106.39zm4587.91 715.04c324.34,-460.61 875.2,-753.68 1439.89,-754.12 523.6,1.12 1047.19,3.57 1571,4.68 -0.22,260.24 -1.33,520.69 -0.67,781.16 -433.78,-1.57 -867.59,-0.44 -1301.39,-0.44 -273.18,13.39 -551.28,110.79 -746.07,308.25 -222.03,226.94 -308.94,566.27 -255.31,875.4 73.47,371.26 374.15,682.86 737.36,782.27 151.22,43.34 310.04,25.02 465.3,28.82 67.9,6.93 146.96,-37.52 140.49,-114.37 1.35,-378.63 0,-757.24 0.44,-1135.87 331.05,-0.22 661.88,-0.22 992.69,-0.22 1.34,696.26 -1.11,1392.74 -0.67,2089 -512.2,0.25 -1024.39,0.69 -1536.61,0 -204.83,-0.66 -410.33,-30.59 -604.45,-97.15 -699.62,-231.64 -1218.06,-922.56 -1236.6,-1660.14 -15.65,-392.91 106.53,-787.85 334.6,-1107.27zm-1836.37 2905.22c-0.66,-1206.23 -0.66,-2412.46 0,-3618.69 322.78,0.46 645.55,0.9 968.34,-0.22 0,1206.45 0.67,2412.68 -0.44,3618.91 -322.57,0 -645.12,0 -967.9,0zm6658.62 -3603.95c257.11,-13.84 515.55,-1.78 773.11,-5.8 140.05,3.35 280.57,-7.15 420.16,6.02 368.59,969.47 743.85,1936.46 1115.1,2905.02 89.81,240.36 188.99,477.35 272.08,719.94 -352.72,-2.01 -705.42,-0.91 -1058.14,-0.66 -91.15,-258.24 -178.7,-517.79 -271.17,-775.36 -451.22,0.9 -902.44,0.46 -1353.66,0.24 -95.82,257.78 -193.44,515.09 -286.82,773.77 -329.7,1.79 -659.4,1.1 -989.1,0.44 460.37,-1207.57 922.08,-2414.69 1378.44,-3623.61l0 0zm589.04 739.39c-159.25,471.54 -310.7,945.76 -469.31,1417.54 301.78,1.57 603.56,1.11 905.35,0.23 -147.21,-472.01 -289.27,-945.56 -436.04,-1417.77zm2389.91 -745.63c523.38,0.88 1046.51,0.44 1569.89,0.44 232.75,-2.89 470.2,13.62 690.02,96.27 186.29,68.13 361.19,186.97 464.17,359.87 117.26,190.53 142.06,425.53 108.32,643.53 -23.44,164.18 -96.49,323.02 -216.44,439.17 -115.27,112.8 -264.02,182.94 -415.03,234.32 218.23,50.03 445.64,133.12 587.92,315.4 165.53,211.54 175.35,502.15 123.97,755.47 -46.46,239 -200.81,451.66 -411.01,573.84 -267.15,157.05 -583.46,204.39 -888.82,211.76 -537.88,0.69 -1075.77,0.22 -1613.66,0.22 1.57,-1210.02 0.22,-2420.27 0.67,-3630.29l0 0zm969.9 689.55c0.22,249.3 -0.66,498.36 0.44,747.64 190.77,-3.12 384.88,12.73 572.3,-32.16 95.6,-23.9 192.55,-63.89 258.9,-140.05 87.11,-101.19 93.13,-253.76 41.75,-372.83 -53.83,-113.46 -181.59,-163.27 -298.2,-182.5 -190.53,-27.25 -383.54,-18.09 -575.19,-20.1l0 0zm-0.22 1402.36c0.66,283.25 -0.22,566.47 0.44,849.96 226.06,-5.61 456.58,14.72 678.63,-40.44 106.31,-28.38 216.44,-80.86 273.4,-180.04 56.74,-92.03 53.39,-206.4 37.54,-309.38 -25.03,-130.45 -134.25,-229.63 -258.46,-267.15 -235.88,-76.63 -487.63,-46.7 -731.55,-52.95zm1964.37 -2091.03c371.7,-2.01 743.38,1.35 1115.08,-1.35 239.68,483.84 472.23,971.25 713.92,1454.19 202.82,-428.2 411.01,-853.97 615.62,-1281.29 29.26,-58.51 52.72,-120.61 90.26,-174.88 368.79,6.68 737.8,0.88 1106.61,2.89 -431.36,744.73 -871.85,1484.33 -1307.66,2226.39 -16.53,22.55 -23.91,47.8 -22.12,75.5 0.22,442.74 0.68,885.24 -0.22,1327.96 -322.11,0.22 -644.44,0 -966.55,0.22 -0.44,-427.75 -0.66,-855.51 0.22,-1283.05 -2.45,-35.97 6.27,-76.19 -15.62,-107.68 -442.75,-746.51 -889.95,-1490.58 -1329.54,-2238.9zm3912.44 0.9c918.97,-2.25 1838.15,-2.25 2757.34,0.23 0.67,240.12 -0.44,480.48 0.67,720.82 -298.65,1.35 -597.3,-2.45 -895.73,1.79 2.23,968.56 0.44,1937.36 0.9,2905.89 -322.79,0 -645.56,-0.66 -968.58,0.25 -0.22,-969.25 0,-1938.47 0,-2907.69 -298.43,-0.46 -596.63,0 -895.06,0 0.46,-240.36 -0.45,-480.72 0.46,-721.29zm3171.26 -2c852.85,1.32 1705.94,1.1 2558.78,0 2.23,230.05 0.45,459.91 1.11,689.99 -530.52,-0.22 -1061.03,0.24 -1591.33,-0.22 -0.44,249.08 0,498.36 -0.44,747.42 500.59,0 1001.4,0 1501.99,0 -0.47,230.08 1.54,460.15 -0.91,690.01 -500.59,-2.01 -1000.95,-0.44 -1501.3,-0.9 0.88,271.63 0.44,543.03 0.22,814.66 549.72,1.13 1099.23,0 1648.95,0.44 -1.1,229.86 -0.88,459.5 -0.22,689.11 -872.51,0.22 -1745.24,0 -2617.75,0.22 0.46,-1210.24 -1.33,-2420.71 0.9,-3630.73z"/>
  </g>
 </g>
</svg>
