<?xml version="1.0" encoding="UTF-8"?>
<!DOCTYPE svg PUBLIC "-//W3C//DTD SVG 1.1//EN" "http://www.w3.org/Graphics/SVG/1.1/DTD/svg11.dtd">
<!-- Creator: CorelDRAW 2018 (64-Bit) -->
<svg xmlns="http://www.w3.org/2000/svg" xml:space="preserve" width="10.9582mm" height="10.958mm" version="1.1" shape-rendering="geometricPrecision" text-rendering="geometricPrecision" image-rendering="optimizeQuality" fill-rule="evenodd" clip-rule="evenodd"
viewBox="0 0 10958.2 10958"
 xmlns:xlink="http://www.w3.org/1999/xlink">
 <g id="Brend">
  <metadata id="CorelCorpID_0Corel-Layer"/>
  <path fill="#0096D6" d="M5233.44 5.92c958.67,-44.98 1929.08,167.3 2779.46,613.34 698.12,364.66 1314.62,881.46 1797.17,1503.39 418.24,538.4 734.64,1154.9 926.58,1809.04 309.82,1052.05 294.91,2198.36 -46.12,3241.68 -258.4,799.97 -706.72,1536.62 -1294.27,2136.06 -583.39,598.43 -1306.15,1060.51 -2094.36,1338.24 -634.82,225.3 -1312.47,328.15 -1985.95,307.81 373.26,-1025.13 746.39,-2051.4 1120.66,-3077.54 499.61,0 999.35,0 1499.09,0 246.65,10.74 485.71,-124.46 627.36,-322.84 58.88,-79.36 86.81,-175.89 121.18,-268.01 365.55,-1004.78 731.22,-2010.71 1098.04,-3015.5 46.12,-135.07 107.15,-266.99 122.18,-410.66 22.49,-165.14 -9.6,-342.04 -106.14,-480.4 -99.69,-145.82 -263.83,-239.07 -434.29,-273.44 -121.17,-27.92 -244.5,-19.33 -366.68,-20.34 -659.58,0 -1319.04,0 -1978.49,0 -937.19,2574.64 -1875.51,5148.27 -2811.69,7722.91 -574.8,-137.22 -1126.98,-367.82 -1627.73,-682.07 -736.78,-458.93 -1360.86,-1094.75 -1805.89,-1838.99 -495.31,-824.61 -764.58,-1783.28 -773.04,-2745.1 -11.88,-869.71 186.5,-1741.57 578.96,-2518.92 407.5,-815 1024.12,-1524.87 1772.53,-2044.96 499.74,-349.62 1059.5,-612.32 1647.19,-777.47 -930.75,2558.6 -1862.63,5117.19 -2793.5,7675.79 387.16,0 774.32,0 1161.35,0 494.43,-1356.57 988.74,-2714.14 1483.05,-4071.72 291.75,0 582.25,0 872.87,0 -494.31,1357.58 -988.62,2715.15 -1483.05,4071.72 387.16,0 774.31,0 1160.33,0 445.03,-1222.5 890.06,-2443.87 1335.09,-3666.37 35.38,-100.83 77.2,-201.54 94.26,-307.67 26.91,-152.39 12.89,-314.25 -57.87,-453.63 -63.31,-124.46 -171.6,-224.15 -298.08,-284.17 -118.02,-55.72 -250.94,-79.35 -380.71,-79.35 -327.01,0 -654.15,0 -981.16,0 374.27,-1027.28 747.4,-2054.56 1121.67,-3080.83zm1466.87 7149.26c407.5,-1117.37 813.99,-2234.75 1221.49,-3352.12 290.49,0 582.25,0 872.87,0 -407.5,1117.37 -815,2234.75 -1222.5,3352.12 -290.62,0 -581.24,0 -871.86,0z"/>
 </g>
</svg>
