<?xml version="1.0" encoding="UTF-8"?>
<!DOCTYPE svg PUBLIC "-//W3C//DTD SVG 1.1//EN" "http://www.w3.org/Graphics/SVG/1.1/DTD/svg11.dtd">
<!-- Creator: CorelDRAW 2018 (64-Bit) -->
<svg xmlns="http://www.w3.org/2000/svg" xml:space="preserve" width="34.0254mm" height="7.75012mm" version="1.1" shape-rendering="geometricPrecision" text-rendering="geometricPrecision" image-rendering="optimizeQuality" fill-rule="evenodd" clip-rule="evenodd"
viewBox="0 0 34025.4 7750.12"
 xmlns:xlink="http://www.w3.org/1999/xlink">
 <g id="Brend">
  <metadata id="CorelCorpID_0Corel-Layer"/>
  <g id="_1217929488">
   <g>
    <path fill="black" d="M11721.75 2616.43c254.26,0.18 508.53,0.18 762.98,0 0,504.7 0,1009.41 0,1513.92 572.52,-0.18 1144.85,0 1717.37,0 0,-504.51 0,-1009.22 0,-1513.74 254.64,-0.18 509.09,0 763.72,-0.18 0,1251.6 0,2503.03 0.18,3754.63 -254.81,0 -509.45,0 -763.9,0 0.18,-507.99 0,-1015.98 0,-1523.97 -572.52,0 -1144.85,0.18 -1717.37,0 0,507.99 -0.18,1015.98 0,1523.97 -254.26,0 -508.72,-0.18 -763.17,0 0.19,-1251.6 0.19,-2503.03 0.19,-3754.63zm4298.44 3.3c254.09,-0.19 507.99,0 762.08,-0.19 -0.37,694.99 -0.19,1389.98 -0.19,2084.97 -1.09,241.1 33.45,497.2 179.33,697.18 118.64,166.72 315.13,263.6 515.49,288.27 221.91,27.61 461.55,7.13 655.86,-112.23 162.87,-99.08 270.18,-270.72 316.97,-452.79 59.96,-214.6 39.67,-439.26 43.14,-659.16 0,-616.39 0,-1232.78 0,-1849.17 254.45,0 508.91,0 763.54,0 -0.19,610.54 0,1221.27 0,1831.99 -1.28,212.95 7.49,427 -23.76,638.5 -41.13,303.08 -148.79,604.51 -349.51,839.41 -171.28,203.26 -407.45,345.84 -661.17,420.6 -282.42,83.36 -582.57,96.52 -874.13,63.62 -313.13,-36.74 -624.98,-152.63 -857.69,-370.35 -341.64,-313.49 -468.68,-794.06 -469.78,-1244.29 -0.18,-725.52 0,-1451.03 -0.18,-2176.36zm3620.09 3749.32c550.58,-1251.05 1102.63,-2501.56 1653.93,-3752.44 223.2,-0.18 446.4,0.19 669.59,-0.18 554.61,1248.87 1100.25,2501.93 1650.65,3752.62 -267.07,-1.64 -534.32,3.29 -801.38,-2.56 -111.14,-260.11 -224.29,-519.32 -335.62,-779.44 -571.96,-0.18 -1143.93,-0.18 -1715.89,0 -111.88,260.48 -228.14,518.96 -340.56,779.26 -260.29,6.4 -520.6,1.1 -780.72,2.74l0 0zm1404.79 -1459.26c382.77,0 765.55,-0.18 1148.32,0 -186.63,-448.94 -384.41,-893.33 -576.17,-1340.26 -190.11,446.93 -384.78,892.05 -572.15,1340.26zm2283.3 -2291.71c271.27,0.54 542.54,-1.1 813.81,0.92 274.38,859.31 551.67,1717.9 827.7,2576.87 282.42,-860.24 567.4,-1719.57 851.1,-2579.44 207.66,0.18 415.31,0 623.14,0 282.98,859.87 567.95,1719.01 850.92,2578.71 277.67,-858.78 553.69,-1718.29 830.82,-2577.25 263.95,0.55 527.72,0 791.68,0.38 -435.42,1250.86 -870.29,2501.92 -1305.53,3752.79 -212.41,0 -425,-0.18 -637.22,0 -284.44,-820.57 -568.5,-1641.14 -852.57,-2461.89 -284.79,820.57 -568.68,1641.32 -852.92,2461.89 -210.76,0 -421.53,-0.18 -632.29,0 -436.34,-1250.87 -872.3,-2501.93 -1308.64,-3752.98zm6201.53 1.46c921.11,0.19 1842.22,0.19 2763.51,0 -0.18,228.5 -0.18,456.81 -0.18,685.12 -670.49,-0.19 -1340.99,0 -2011.49,-0.19 0,255.37 0,510.73 0,766.1 462.11,0 924.22,0 1386.33,0 -0.37,228.32 -0.37,456.63 0,684.76 -462.11,0 -924.22,0 -1386.14,0 -0.19,309.29 -0.19,618.58 -0.19,928.05 694.27,0 1388.53,0 2082.79,0 -0.38,228.5 0.17,457.18 -0.19,685.67 -944.69,0 -1889.38,0 -2833.89,0 -1.09,-1249.78 -0.18,-2499.55 -0.55,-3749.51zm3742.39 -2.93c250.98,0 502.14,0 753.12,0 0,1249.6 -0.19,2499.01 0,3748.6 -250.98,0 -502.14,0 -753.12,0.19 0.17,-1249.6 0.17,-2499.19 0,-3748.79z"/>
   </g>
   <path fill="#C3172E" d="M2853.46 767.76c264.49,-506.97 838.25,-728.42 1380.89,-767.77 368.79,803.47 477.68,1692.95 534.44,2565.96 48.48,1091.71 13.72,2187.1 -117.14,3272.4 -646.98,-905.04 -1189.63,-1885.11 -1639.87,-2901.79 -282.77,-670.77 -544.49,-1484.29 -158.32,-2168.8zm2762.71 -729.35c759.52,-85.08 1541.04,560.97 1564.83,1337.91 46.66,679.91 -229.7,1324.15 -506.06,1929.02 -428.27,881.26 -908.7,1741.46 -1481.54,2537.58 -116.23,-1149.38 -177.53,-2308.79 -97.02,-3462.76 75.96,-795.21 147.35,-1620.64 519.79,-2341.75zm-4901.3 3167.19c-96.99,-709.2 338.59,-1345.2 793.4,-1843.94 1100.87,1459.59 2047.07,3041.8 2770.93,4721.02 -873.01,-416.36 -1708.51,-915.11 -2493.66,-1478.81 -471.28,-353.22 -998.37,-770.52 -1070.67,-1398.27zm7634.73 -1849.44c448.39,506.06 887.63,1137.49 787.89,1849.44 -86.02,624.09 -594.83,1050.55 -1073.41,1400.11 -781.5,562.8 -1615.16,1061.52 -2486.35,1472.41 718.35,-1681.98 1670.07,-3263.28 2771.87,-4721.96zm-8288.11 2621.77c1354.36,777.85 2731.59,1531.9 3996.27,2450.66 -774.19,28.38 -1550.21,16.47 -2325.29,13.72 -622.27,-1.81 -1200.61,-389.83 -1497.1,-927.89 -280.02,-461.22 -270.89,-1023.11 -173.88,-1536.49zm5746.85 2445.16c1258.26,-917.83 2626.34,-1671.88 3976.13,-2444.21 103.39,513.34 102.48,1077.05 -172.04,1540.1 -282.77,542.66 -864.78,916.02 -1480.66,916.93 -774.17,6.4 -1549.26,22.87 -2323.43,-12.82zm-4928.75 373.38c1038.64,-80.54 2083.71,-73.2 3123.24,-123.55 -414.54,362.38 -877.57,669.87 -1360.75,932.49 -269.96,154.65 -610.37,194.94 -896.8,60.41 -389.82,-167.47 -637.83,-529.85 -865.69,-869.35zm4974.5 -97.01c1039.57,10.99 2081.87,25.63 3119.6,97.01 -193.1,288.24 -392.58,588.4 -690.92,777.84 -277.27,178.44 -650.62,242.51 -952.62,90.58 -530.75,-257.14 -1010.28,-607.62 -1476.06,-965.43z"/>
  </g>
 </g>
</svg>
