<?xml version="1.0" encoding="UTF-8"?>
<!DOCTYPE svg PUBLIC "-//W3C//DTD SVG 1.1//EN" "http://www.w3.org/Graphics/SVG/1.1/DTD/svg11.dtd">
<!-- Creator: CorelDRAW 2018 (64-Bit) -->
<svg xmlns="http://www.w3.org/2000/svg" xml:space="preserve" width="27.9776mm" height="7.19608mm" version="1.1" shape-rendering="geometricPrecision" text-rendering="geometricPrecision" image-rendering="optimizeQuality" fill-rule="evenodd" clip-rule="evenodd"
viewBox="0 0 27977.64 7196.08"
 xmlns:xlink="http://www.w3.org/1999/xlink">
 <g id="Brend">
  <metadata id="CorelCorpID_0Corel-Layer"/>
  <g>
   <path fill="#00ACE8" d="M21762.49 1735.79c612.25,-1060.8 1810.66,-1750.11 3037.11,-1735.56 0,482.93 -1.46,965.37 0.47,1448.31 -528.95,7.75 -1056.44,210.72 -1433.3,586.1 -425.27,410.79 -653.43,1012.86 -609.35,1602.35 37.29,607.92 365.22,1189.65 867.07,1535.02 341.48,242.18 758.05,364.75 1174.63,370.09 0.48,484.37 -0.5,968.75 0.48,1452.65 -704.78,-2.41 -1408.6,-214.57 -1989.38,-615.64 -694.13,-472.27 -1210.48,-1201.28 -1416.82,-2016.02 -229.12,-879.17 -95.42,-1846 369.09,-2627.3zm-13868.93 -396.73c322.6,-144.81 721.74,153.56 657.32,505.71 -28.1,364.74 -521.19,543.48 -786.16,300.31 -267.39,-211.2 -193.29,-690.73 128.84,-806.02zm-7893.55 46.99c238.8,-0.47 478.11,-0.47 716.89,0 -0.5,1364.03 0,2728.07 0,4092.09 -239.29,0 -478.09,0 -716.89,0 0,-1364.02 0.48,-2728.06 0,-4092.09zm16596.52 0c239.28,-0.47 478.57,-0.47 717.87,0 -2.43,493.1 1.43,986.22 -1.96,1479.32 457.27,-478.1 1326.74,-481.46 1758.33,31.97 206.35,243.17 289.68,568.17 290.16,882.06 0,566.27 -0.48,1132.49 -0.48,1698.74 -239.3,0 -479.08,0 -718.36,0 -1.45,-532.83 2.43,-1065.65 -1.45,-1598.48 -0.48,-228.12 -85.73,-484.86 -302.25,-592.88 -271.74,-132.72 -636.48,-90.09 -849.14,132.25 -127.88,135.61 -177.28,325.99 -175.35,508.6 -1.46,516.83 0.5,1033.69 0,1550.51 -239.28,0 -478.09,0 -716.89,0.48 0,-1364.5 0.98,-2728.54 -0.48,-4092.57zm-7470.67 327.93c239.29,-0.47 478.56,0 718.34,-0.47 -0.5,294.98 0.48,590.47 -0.98,885.45 131.27,0.48 262.04,0.96 393.33,1.46 -0.97,213.62 -1.45,427.23 0,640.83 -131.29,-0.49 -262.06,-0.49 -392.85,-0.49 0.5,745.97 0.5,1491.92 0.5,2237.38 -239.78,0 -479.05,0 -718.85,0 0,-745.94 -0.47,-1491.41 0.51,-2237.38 -129.35,0 -258.18,0 -387.52,0 0,-213.61 0,-427.23 0,-640.84 128.84,0 258.17,0 387.01,0.5 0,-295.49 -0.47,-590.95 0.51,-886.44zm-6865.22 820.07c508.6,-91.06 1062.74,72.65 1419.27,451.46 535.72,545.39 550.26,1499.15 34.88,2062.98 -529.92,612.76 -1545.69,682.98 -2166.19,169.55 -516.84,-404.47 -693.63,-1159.62 -445.63,-1761.24 188.91,-483.4 647.62,-840.4 1157.67,-922.75l0 0zm59.59 703.32c-439.81,107.05 -703.81,614.69 -562.86,1039.98 109.95,411.26 570.12,672.82 980.4,564.31 440.32,-88.66 725.6,-578.84 607.42,-1008 -92.04,-444.66 -594.34,-728.03 -1024.96,-596.29zm2453.91 -277.54c356.01,-358.93 896.1,-519.26 1391.14,-421.43 403.99,117.23 829.76,38.74 1243.91,62.02 -0.95,190.84 -0.95,381.69 0,573.01 -67.32,23.74 -135.14,46.98 -202.49,70.74 409.33,614.18 254.31,1517.08 -323.55,1970.95 -620.5,516.35 -1638.68,447.1 -2169.58,-167.11 -524.08,-572.55 -498.43,-1548.09 60.57,-2088.18l0 0zm893.19 276.56c-401.55,97.38 -669.42,531.4 -590.95,935.37 57.16,440.8 515.39,769.21 952.33,680.08 450.45,-60.08 769.68,-542.02 667.46,-981.85 -73.15,-460.16 -585.63,-767.76 -1028.84,-633.6zm5124.79 -314.35c544.95,-533.31 1521.47,-560.92 2065.93,-12.6 371.52,365.22 482.92,910.17 459.68,1413.45 -746.44,1.45 -1492.89,-1.45 -2239.81,1.95 89.13,282.87 316.31,532.32 619.54,578.34 372.96,83.32 730.43,-119.17 990.06,-370.07 159.87,160.82 321.15,320.18 482.95,479.55 -566.73,607.41 -1595.09,743.51 -2275.17,251.87 -726.08,-537.65 -750.79,-1733.13 -103.18,-2342.49l0 0zm459.71 463.57c-93.51,97.82 -140.49,227.16 -188.44,350.7 504.26,1.45 1008.97,1.45 1513.22,0 -43.58,-115.3 -81.85,-236.9 -163.72,-332.3 -279,-344.39 -867.53,-342.46 -1161.06,-18.4zm2640.38 -314.86c452.91,-568.66 1315.59,-720.29 1951.12,-383.13 191.33,94.43 350.67,240.24 491.16,398.64 -166.15,165.64 -332.77,330.34 -498.93,496.48 -247.04,-290.14 -659.25,-472.26 -1032.2,-323.57 -440.81,149.21 -645.71,703.34 -456.79,1117.49 140.95,359.41 563.33,561.39 934.35,465 219.93,-47.94 401.08,-193.27 554.16,-351.68 165.66,165.68 332.78,330.37 499.89,495.07 -536.7,686.38 -1652.26,772.1 -2288.24,177.76 -590.95,-513.94 -657.31,-1495.28 -154.52,-2092.06zm-6174.46 -470.83c239.28,-0.48 479.04,0 718.35,0 0,959.58 0,1918.66 0,2878.22 -239.31,0 -478.58,0 -717.87,0 -0.48,-959.56 0,-1918.64 -0.48,-2878.22zm17127.4 268.34c1044.32,-0.48 2088.67,-0.48 3132.51,0 0,1045.33 0,2090.62 0,3135.92 -481.47,0 -963.43,0 -1444.92,0 0.98,-564.78 0.5,-1129.58 0.5,-1693.89 -562.87,-0.47 -1125.24,0.5 -1688.09,-0.47 0.48,-480.54 0.48,-961.02 0,-1441.56zm-20513.28 2804.12c242.21,-1.45 484.4,-0.95 727.07,-0.47 12.62,271.27 139.99,543.48 375.89,689.76 333.27,224.27 825.38,155.97 1079.69,-156.93 129.83,-146.78 183.1,-341.5 197.15,-532.83 243.17,-0.48 486.32,-0.48 729.96,0 -9.2,430.13 -185.52,860.26 -515.39,1142.65 -561.87,502.32 -1492.39,509.58 -2061.52,16.01 -341.02,-281.93 -528.01,-719.82 -532.85,-1158.19z"/>
  </g>
 </g>
</svg>
