<?xml version="1.0" encoding="UTF-8"?>
<!DOCTYPE svg PUBLIC "-//W3C//DTD SVG 1.1//EN" "http://www.w3.org/Graphics/SVG/1.1/DTD/svg11.dtd">
<!-- Creator: CorelDRAW 2018 (64-Bit) -->
<svg xmlns="http://www.w3.org/2000/svg" xml:space="preserve" width="25.4671mm" height="8.42561mm" version="1.1" shape-rendering="geometricPrecision" text-rendering="geometricPrecision" image-rendering="optimizeQuality" fill-rule="evenodd" clip-rule="evenodd"
viewBox="0 0 25467.08 8425.61"
 xmlns:xlink="http://www.w3.org/1999/xlink">
 <g id="Brend">
  <metadata id="CorelCorpID_0Corel-Layer"/>
  <g id="_1093370816">
   <path fill="#1F1B20" d="M7994.06 6331.28c528.26,-1455.58 1055.71,-2911.66 1584.46,-4367.07 299.99,0.81 614.63,34.87 875.02,196.19 109.99,70.87 216.07,153.82 292.81,261.03 51,73 84.09,156.76 107.87,242.14 291.18,-174.03 588.72,-342.18 908.91,-457.39 518.81,-197.32 1084.88,-294.43 1637.91,-213.94 243.93,35.35 480.69,137.04 661.23,307.14 110.64,93.54 182,225.36 217.7,364.36 239.85,-143.89 484.1,-281.74 741.39,-392.21 325.57,-132.96 664.66,-238.88 1014.49,-282.23 292.16,-34.54 591.49,-38.94 881.04,19.73 252.41,50.82 489.49,183.14 657.16,379.65 150.07,192.93 180.71,452.49 152.03,688.77 -13.85,130.03 -66.97,250.45 -109.99,372.49 -348.37,960.56 -696.91,1920.95 -1045.12,2881.51 -575.04,0.16 -1149.9,-0.17 -1724.93,0 333.06,-920.32 667.58,-1839.97 1000.8,-2760.12 44,-127.1 79.19,-270.32 29.98,-401 -38.95,-102.98 -143.55,-163.27 -247.34,-182.66 -180.88,-34.71 -366.8,-1.64 -542.29,45.62 -160.82,47.9 -325.07,106.23 -453.31,218.35 -162.94,135.41 -312.03,287.43 -441.9,454.78 -104.78,135.89 -197.33,283.19 -256.32,444.99 -263.31,726.57 -527.12,1452.99 -790.28,2179.72 -575.19,0.81 -1150.22,0.15 -1725.42,0.32 334.53,-922.27 669.22,-1844.53 1003.58,-2766.97 40.89,-119.92 72.34,-253.04 33.57,-377.7 -29.99,-97.93 -119.94,-164.9 -216.23,-189.99 -174.51,-46.11 -357.99,-17.76 -530.55,23.47 -188.53,50.34 -381.28,117.31 -527.28,252.24 -269.18,233.97 -518.33,507.73 -658.3,840.14 -270.17,739.11 -536.58,1479.53 -805.93,2218.97 -575.03,-0.33 -1149.89,0 -1724.76,-0.33zm12523.58 -4349.14c838.02,-49.38 1682.56,1.95 2507.06,161.63 -72.66,201.9 -146.49,403.3 -219.16,605.02 -522.72,-95 -1053.76,-145.35 -1585.12,-148.77 -215.25,-2.44 -432.94,5.21 -642.16,59.64 -133.29,35.68 -266.74,92.71 -361.25,196.35 -78.05,86.03 -123.35,203.35 -118.3,319.86 10.59,110.31 95.65,192.92 178.26,257.77 405.24,299.17 900.92,438 1317.57,717.61 184.78,123.84 332.41,314.81 371.52,537.23 42.69,225.84 -30.48,456.58 -144.21,650.64 -136.06,229.26 -353.11,396.27 -580.74,527.61 -264.45,150.07 -543.74,279.13 -840.14,351.14 -344.62,84.25 -700.98,103.97 -1054.41,111.29 -711.25,15.97 -1424.46,-41.22 -2122.84,-177.6 72.67,-201.73 146.15,-403.13 219,-604.86 525.82,96.14 1059.96,145.84 1594.41,149.26 224.7,1.8 452.83,-7.16 669.87,-70.23 160.49,-46.44 322.62,-137.02 396.93,-293.78 42.36,-94.02 70.22,-209.88 17.1,-305.52 -58.98,-107.22 -163.75,-177.77 -263.8,-243.12 -284.01,-180.21 -596.22,-307.63 -895.54,-458.53 -201.73,-107.7 -414.54,-219.97 -548.8,-411.92 -123.84,-168.97 -169.63,-389.92 -128.08,-594.75 50.68,-245.55 184.3,-471.4 370.86,-638.25 219.5,-197.32 486.08,-332.57 753.29,-452.98 348.54,-155.77 729.67,-221.6 1108.68,-244.74zm3159.82 161.47c589.21,-115.69 1189.66,-169.3 1789.62,-179.4 -76.41,211.99 -153.5,423.66 -230.25,635.65 -600.12,8.31 -1200.56,64.85 -1790.1,179.07 77.08,-211.66 153.01,-423.82 230.73,-635.32zm-387.64 1069.41c589.04,-115.53 1189.49,-169.47 1789.46,-179.41 -398.09,1099.39 -797.78,2198.3 -1196.02,3297.67 -575.2,0.33 -1150.23,0.33 -1725.25,0 377.54,-1039.26 753.45,-2079.17 1131.81,-3118.26z"/>
   <g>
    <path fill="#E31E24" d="M220.03 1580.02c-0.76,50.61 1.81,106.25 2.73,146.34 3.06,135.36 9.4,270.9 16.59,406.1 7.73,145.06 16.72,290.12 27.21,435.01 5.26,72.49 8.63,155.75 19.21,227.54 4.94,24.33 7.71,53.35 10.79,76.43 7.1,52.95 14.24,105.87 21.5,158.79 21.81,159.04 44.45,318.01 68.74,476.71 27.81,181.77 55.87,374.04 98.56,552.74 293.03,1226.72 706.36,2352.44 1624.92,3255.22 362.86,356.61 793.04,645.37 1262.04,842.91l3.9 1.68c22.99,10.21 44.83,18.41 66.27,26.61 51.49,-20.4 103.31,-39.73 152.04,-64.41l5.02 -2.53 5.13 -2.29c281.93,-125.22 548.91,-283.87 794.4,-470.62 385.24,-293.05 716.34,-655.03 987.11,-1055.57 697.22,-1031.46 897.67,-1911.86 1137.45,-3104.37 25.61,-127.31 40.37,-263.56 54.67,-392.68 20.78,-187.91 37.73,-376.48 52.71,-564.92 17.64,-221.87 32.77,-444.52 42.56,-666.88 3.57,-81.11 6.57,-162.54 7.12,-243.74 0.11,-14.69 0.45,-31.8 0.45,-49.24 -53.44,-36.95 -108.53,-72.62 -162.11,-107.33 -151.84,-98.41 -306.69,-192.72 -463.29,-283.38 -424.45,-245.76 -871.29,-471.22 -1328.94,-648.07 -395.46,-152.81 -844.73,-287.34 -1270.31,-306.25 -637.63,-28.36 -1254.85,192.44 -1812.75,482.87 -277.42,144.42 -544.17,307.84 -807.34,476.58 -205.41,131.74 -408.84,268.14 -616.38,396.75zm2864.17 -244.31c180.94,95.49 345.51,220.37 532.45,304.95 -33.39,26.87 -64.15,61.48 -107.04,72.51 -23.86,7.06 -48.14,-2.5 -67.26,-16.46 -141.84,-95.4 -254.3,-227.01 -358.15,-361zm-2169.32 831.93c145.36,-51.16 320.7,65.19 327.85,219.77 -19.62,3.53 -41.94,0.26 -59.95,9.04 -6.95,115.83 45.05,225.65 107.24,320.29 6.11,-104.8 -10.33,-216.6 40.3,-313.32 36.08,2.34 70.54,13.89 102.15,31.28 30.82,-25.05 32.56,-70.02 13.16,-102.59 -25.58,-42.36 -64.51,-74.12 -94.8,-112.8 70.78,40.9 140.19,90.25 186.44,159.05 30.83,49.87 37.99,124.19 -6.55,168.38 -27.89,29.01 -77.33,4.56 -104.72,34.03 -43.15,68.12 -28.59,154.57 -0.88,225.79 70.32,-13.17 121.62,-67.09 184.92,-95.85 -122.73,130.74 -245.19,268.63 -313.4,436.89 -3.18,-50.21 21.27,-108.85 -14.9,-151.83 -70.62,-65.81 -178.87,-57.7 -253.44,-116.95 -37.98,-31.35 -61.23,-75.95 -94.57,-111.41 -28.84,-30.95 -83.62,-18.71 -107.13,-56.1 -11.97,-65.7 -2.94,-144.93 -56.69,-194.79 -57.58,-50.06 -138.99,-41.01 -209.59,-47.89 114.69,-61.33 267.73,-26.43 352.31,70.11 39.44,45.46 35.83,116.61 85,155.08 54.53,39.62 112.99,76.74 179.3,92.76 11.3,-79.93 -52.87,-137.02 -87.57,-200.99 -42.28,-87.66 -63.98,-197.57 -14.13,-286.7 8.94,-22.74 33.93,-51.68 12.9,-74.5 -46.32,-44.46 -114.53,-42.87 -173.25,-56.75zm1594.2 597.85c55.71,-30.4 111.17,-63.38 173.19,-79.34 -119.12,111.37 -211.28,246.68 -304.88,379.05 -33.26,47.42 -69.34,93.09 -97.33,143.9 -22.99,40.9 -29.27,91.37 -13.53,135.9 4.33,14.98 21.62,25.93 35.75,14.98 68.56,-35.66 106.98,-105.92 154.83,-163.29 35.59,104.89 135.31,170.27 235.49,204.79 176.44,65.12 368.07,40.66 550.04,17.24 334.58,-47.79 675.63,-133.93 953.64,-334.75 77.57,-51.93 130.81,-131.07 204.19,-187.92 -10.86,43.39 -31.6,83.78 -58.39,119.45 -98.1,130.29 -232.53,228.65 -375.15,305.29 -264.04,139.34 -559.2,208.77 -853.98,243.99 -122.63,14.81 -246.14,22.04 -369.53,27.14 -62.53,5.95 -132.99,9.81 -181.31,55.18 -20.66,20.93 -3.88,52.47 13.79,69.35 35.75,31.6 78.02,54.75 119.27,78.37 129.52,68.56 270.69,118.74 417.09,133.82 207.73,22.15 416.73,-15.49 616.04,-72.6 181.71,-50.8 349.64,-138.58 519.12,-219.51 -207.37,190.07 -478.65,296.68 -752.36,347.14 -367.56,61.5 -748.14,9.74 -1096.75,-116.6 -33.49,-11.19 -71.55,-22.47 -105.66,-7.75 -29.9,13.16 -37.32,50.63 -31.97,79.91 8.46,46.94 40.57,84.32 61.24,126.19 75.8,149.06 166.13,293.31 286.86,410.33 114.72,113.12 261.13,193.79 419.26,225.84 -132.21,9.03 -257.94,-48.07 -372.14,-108.51 -227.37,-118.6 -392.7,-329.06 -502.67,-556.51 -23.1,-46.71 -42.73,-94.84 -62.98,-142.71 7.59,164.39 62.52,324.04 143.92,466.25 93.79,163.63 220.38,306.68 361.61,431.05 -4.22,14.37 -11.02,30.03 -27.12,34.27 -109.04,38.59 -229.86,35.05 -334.75,86.73 -30.22,16.62 -63.48,34.96 -78.98,67.61 -69.58,134.25 -74.74,293.83 -157.69,422.15 -150.36,-262.51 -248.72,-553.33 -298.41,-851.32 -62.1,-360.67 -13.1,-740.8 144.5,-1071.59 140.47,-299.81 378.09,-550.92 665.75,-713.52zm1912.39 510.45c33.32,-25.42 66.32,-51.44 100.84,-75.28 -25.74,57.78 -77.4,96.54 -122.87,138.06 -213.85,190.16 -478.33,318.05 -754.53,388.47 -210.13,53.68 -427.92,76.49 -644.62,70.39 -86.29,-5.69 -180.58,-8.89 -252.06,-63.83 -20.33,-10.76 -12.41,-40.92 6.55,-48.49 33.58,-16.1 71.64,-9.03 107.47,-8.5 376.36,13.33 760.54,-21.99 1114.84,-156.4 157.94,-61.25 311.24,-138.85 444.38,-244.42zm-331.74 621.28c178.88,-13.88 363.96,14.45 523.54,99.04 143.64,76.38 252.34,211.51 304.18,364.99 -98.7,-77.87 -232.61,-108.18 -354.91,-77.52 -4.03,38.07 7.17,75.25 24.73,108.59 -158.22,18.68 -328.38,-43.5 -423.82,-173.96 67.7,31.01 138.16,71.3 215.57,60.29 66.75,-11.45 137.88,-38.5 176.03,-97.92 14.29,-21.28 8.44,-49.53 -6.63,-68.57 -29.03,-38.05 -71.99,-61.39 -113.09,-84.13 -108.74,-59.08 -228.89,-91.47 -345.6,-130.81zm-1691.33 49.08c33.33,3.79 73.98,3.01 95.52,33.68 101.61,129.26 248.37,215.73 402.44,268.18 235.97,79.41 487.53,96.45 734.87,89.3 -211.61,53.59 -435.69,58.99 -649.28,13.62 -207.44,-45.56 -418.11,-136.43 -550.57,-309.35 -23.77,-26.19 -27.9,-62.09 -32.98,-95.43zm1689.1 410.98c-62.36,-88.38 -83.2,-203.86 -58.31,-308.85 16.12,92.84 45.04,187.39 108.18,259.67 76.03,86.53 190.23,129.7 302.71,141.32 105.94,12.75 211.95,-5.34 317.11,-16.88 145.35,-16.79 292.11,-34.2 438.51,-21.95 96.11,7.06 179.56,73.7 223.66,157.07 40.39,76.83 82.93,154.68 101.02,240.28 10.85,92.24 -63.05,161.91 -87.15,245.45 -43.14,160.1 -40.66,331.4 -106.35,485.56 -36.95,87.14 -117.98,143.47 -167.6,222.27 -78.89,124.01 -123.86,265.95 -157,408.12 -22.83,98.2 -36.87,211.36 -120.66,278.87 -107.56,78.02 -243.47,93.53 -366.19,135.9 -129.95,42.37 -240.01,126.18 -343.88,212.47 -50.8,38.76 -97.49,85.59 -158.03,108.93 -51.22,19.65 -107.46,25.16 -161.82,18.69 -70.54,-6.71 -135.04,-40.31 -205.31,-48.49 -71.24,-11.54 -143.39,2.07 -211.86,21.62 -60.8,19.3 -129.18,50.14 -191.6,19.3 -83.56,-43.4 -96.64,-155.11 -178.99,-200.15 -94.53,-49.01 -203.78,-48.22 -306.15,-67.96 -42.9,-7.92 -86.21,-30.98 -106.54,-71.12 -32.3,-70.28 -24.03,-155.81 -72.89,-219.01 -76.77,-99.55 -207.95,-133.58 -289.95,-227.37 -34.35,-39.26 -58.03,-89.82 -55.71,-142.86 -2.41,-74.94 44.87,-140.48 41.86,-215.4 2.07,-55.54 -21.7,-112.74 -68.22,-144.78 -58.71,-43.56 -133.9,-51.5 -204.37,-59.06 -0.15,-9.92 7.76,-17.06 12.07,-25.07 79.58,-117.46 125.38,-254.22 154.85,-392.03 13.09,-63.55 42.02,-127.04 94.12,-167.86 39.69,-31.94 91.64,-38.93 139,-53.38 87.68,-23.77 183.54,-43.83 272.06,-12.74 66.43,20.5 110.15,83.01 129.54,147.08 32.45,113.1 0.51,242.63 -79.84,328.32 -66.58,58.03 -161.56,81.37 -247.95,64.49 -38.07,-8.63 -79.83,-23.26 -100.58,-58.91 -22.84,-37.29 -21.62,-82.94 -17.25,-124.86 35.42,25.92 63.48,62.78 104.99,79.47 21.36,10 44,-2.92 63.9,-10.6 27.48,-12.14 58.15,-36.49 53.76,-69.92 -21.11,-60.12 -84.5,-103.77 -148.4,-99.9 -36.86,3.1 -68.47,24.29 -98.95,43.41 -58.92,38.84 -111.78,96.88 -121.36,169.31 -2.13,50.29 27.93,97.22 68.32,125.4 61.74,44.09 142.18,55.28 215.63,40.39 128.92,-23.79 238.03,-103.95 332.34,-191.03 -17.65,257.07 -8.01,522.34 82.09,766.5 33.07,85.34 70.18,171.97 133.21,239.92 81.05,89.83 193.27,148.57 311.53,171.22 234.23,49.62 478.3,28.15 708.76,-30.59 149.25,-39.09 297.13,-87.58 434.82,-158.04 95.17,-49.77 187.76,-107.71 265.01,-182.89 89.2,-94.82 156.48,-207.48 221.24,-319.6 88.27,-156.58 162.77,-320.73 226.33,-488.75 58.23,-153.21 107.47,-315.64 96.45,-481.33 -7.05,-76.89 -24.71,-156.84 -71.82,-219.78 -65.37,-82.08 -171.21,-117.83 -271.81,-131.77 -156.39,-26.28 -312,34.7 -468.66,12.05 -28.15,50.91 -27.9,127.9 27.38,160.45 102.57,58.39 224.79,44.33 337.96,50.8 -136.6,53.57 -283.71,85.87 -431.04,76.41 -159.78,-9.59 -314.96,-78.2 -430.35,-188.86 -85.79,-82.09 -151.6,-185.17 -189.57,-297.73 70.63,98.35 138.22,203.76 240.11,273.17 67.44,46.68 150.37,72.96 232.53,68.66 38.68,-4.94 91.71,-17.07 100.77,-61.77 3.51,-40.48 -24.8,-73.81 -42.9,-107.31 -96.88,-24.02 -193.27,-71.22 -252.76,-153.97zm1394.31 238.12c32.71,-22.14 69.85,-36.17 106.88,-49.53 -14.91,34.62 -31.01,80.35 -73.56,87.51 -23.34,3.71 -32.99,-18.69 -33.32,-37.98zm-14.48 489.08c61.32,-18.35 125.55,-6.11 188.27,-10.06 -43.49,42.62 -101.79,86.11 -166.47,70.53 -29.53,-2.09 -16.98,-40.66 -21.8,-60.47zm-2367.32 194.37c83.12,-67.44 194.56,-86.11 298.68,-88.7 -75.6,24.81 -164.56,49.95 -199.88,129.7 29.29,33.07 78.55,23.34 112.64,46.94 20.68,15.5 13.19,43.73 10.26,65.52 -18.86,94.07 -89.65,165.44 -120.74,254.76 94.13,-62.52 197.39,-122.12 258.27,-220.64 20.75,-31.27 -25.83,-46.68 -44.17,-62.78 49.44,-76.14 144.24,-107.03 231.39,-105.33 68.99,-3.45 143.83,18.78 186.38,76.39 -56.85,-13.34 -110.33,-50.11 -170.88,-39.88 -13.08,3.62 -32.81,4.99 -35.21,21.72 -12.31,45.72 -5.16,95.4 -24.71,139.5 -41.6,107.57 -141.6,179.83 -245.89,220.29 -40.73,15.86 -87.15,48.15 -80.08,98 70.78,5.37 142.85,13.73 213.15,0.19 60.89,-14.64 93.35,-77.16 151.31,-97.65 129.68,-42.57 288.09,9.13 358.09,128.85 -67.85,-32.82 -135.46,-89.34 -215.72,-72.1 -77.09,18.77 -111.46,97.67 -156.5,154.59 -48.48,9.21 -96.12,-22.24 -143.73,-5.7 -52.28,15.78 -100.68,45.91 -156.22,49.8 -96.73,7.21 -186.81,-51.09 -283.86,-35.5 -25.74,2.68 -47.88,21.44 -55.89,45.9 -8.87,27.23 -10.01,56.24 -15.33,84.23 -55.21,-183.77 -86.14,-377.29 -66.32,-569.33 42.28,46.23 42.54,111.35 56.51,168.86 7.22,31.61 49.43,36.27 72.67,19.57 70.02,-47.73 112.99,-132.3 109.63,-217.13 -78.79,-22.56 -105.14,-135.81 -43.85,-190.07zm-1101.21 440.01c28.75,-22.99 58.38,-51.95 97.57,-52.54 46.51,-2.76 99.89,26.86 105.15,76.72 6.21,44.87 7.75,99.75 -28.57,133.06 -36.96,26.12 -80.47,41.09 -121.36,59.87 -89.14,37.2 -186.63,81.9 -230.9,173.88 12.58,-144.78 66.32,-293.33 178.11,-390.99zm3147.13 141.49c33.69,-20.6 75.52,-6.8 107.3,11.01 46.08,26.03 97.07,44.29 150.36,46.78 -62.18,37.45 -134.15,67.94 -208.23,58.12 -29.1,-3.09 -61.24,-14.21 -74.73,-42.44 -14.33,-26.45 3.41,-57.62 25.3,-73.47zm-2694.3 509.4c60.96,-45.11 154.83,17.76 137.79,91.29 1.38,47.89 -39.09,82.43 -80.95,96.71 -98.25,40.66 -215.82,70.02 -273.03,168.89 8.97,-144.17 89.75,-284.7 216.19,-356.89zm1963.48 293.43c34.53,-15.6 80.59,1.3 95.59,36.52 17.05,39.18 15,83.1 22.91,124.44 7.75,50.63 31.86,96.61 56.65,140.79 -95.24,-36.23 -173.61,-112.81 -214.25,-205.98 -14.21,-35.74 3.42,-80.7 39.1,-95.77zm-1533.49 118.75c31.53,-44.68 90.95,-68.21 144.27,-54.96 64.24,32.15 77.85,138.33 17.3,181.06 -62.44,47.96 -136.14,80.34 -194.03,134.51 -29.03,26.69 -51.5,60.79 -61.39,99.2 -11.13,-125.3 16.88,-258.36 93.85,-359.81zm686.91 145.03c57.35,-35.99 138.66,21.1 132.1,86.21 -4.64,37.63 -37.11,62.1 -61.82,87.59 -59.95,56.76 -136.67,109.38 -154.34,195.47 -18.26,-93.67 -14.39,-194.1 23.69,-282.63 15.13,-31.78 33.25,-63.74 60.37,-86.64zm989.71 -5033.36c56.5,78.69 133.65,169.15 241.57,156.57 -13.34,-39.95 -19.55,-87.23 -54.09,-115.42 -61.58,-17.47 -126.07,-22.47 -187.48,-41.15zm-1245.06 -908.51c43.56,39.29 75.27,89.16 113.94,132.8 218.41,256.13 491.49,472.72 807.98,593.2 56.84,20.33 116.19,34.89 176.65,38.78 77.07,4.38 146.76,-44.27 224.18,-35.92 64.84,6.63 129.95,30.66 178.6,74.99 28.51,70.55 32.22,154.95 89.4,211.28 42.7,50.3 115.31,50.63 175.08,39.62 14.74,37.37 31.78,82.92 75.03,94.54 50.71,9.57 95.75,-28.33 143.1,-32.45 28.29,38.58 47.03,88.78 93.71,109.45 97.23,45.99 173.99,129.54 219,226.51 -56.21,-61.85 -115.12,-124.79 -192.28,-160.45 -3.02,121.94 14.55,265.85 -76.83,362.23 -3.8,-76.75 -12.84,-154.84 -45.22,-225.46 -70.71,56.57 -137.11,127.54 -229.44,146.9 28.76,-39.25 70.45,-72.07 82.09,-121.33 4.03,-34.28 -37.12,-42.36 -62.63,-46.85 -109.35,-17.23 -203.58,52.46 -290.2,108.26 -13.53,-38.5 -27.05,-77.01 -40.4,-115.58 -53.15,16.54 -112.66,28.07 -152.26,70.52 -19.22,18 -16.62,49.45 0.34,68.04 27.99,32.05 69.26,52.62 111.97,54.86 43.14,3.89 87.49,-4.99 129.95,6.13 37.54,11.1 58.91,46.15 86.2,71.47 1.99,-28.58 3.7,-57.17 6.46,-85.61 71.22,79.58 131.86,168.29 184.82,260.85 68.82,-29.43 107.47,-104.89 103.77,-177.91 24.63,51.15 27.31,108.86 25.34,164.59 17.45,-20.68 35.47,-40.94 54.42,-60.29 8.85,84.48 10.23,174.89 -29.37,252.59 -31,60.11 -90.51,99.31 -152.18,122.81 8.86,-39.97 27.64,-83.37 9.83,-123.42 -15.18,-30.74 -53.41,-33.15 -83.37,-34.37 -103.1,-5.84 -201.01,34.98 -302.98,40.83 66.48,-35.91 138.99,-71.05 180.07,-137.88 -4.66,-11.79 -8.09,-24.2 -14.2,-35.23 -54.09,-34.96 -117.81,-49.85 -177.33,-72.67 -18.7,-6.47 -36.93,-15.84 -56.92,-17.22 -30.24,1.79 -56.85,17.98 -84.31,29.1 -67.44,-36.26 -154.51,-44.27 -221.78,-3.53 -145.46,97.32 -363.95,2.83 -413.72,-159.26 -17.57,-57.68 -8.34,-124.25 31.36,-170.84 45.82,-55.54 113.77,-84.91 177.91,-113.6 11.3,-4.74 22.24,-10.42 30.41,-19.72 -82.51,-14.82 -176.99,-1.98 -238.39,59.69 -55.98,52.96 -77.07,130.2 -90.51,203.58 -212.31,-62.44 -434.14,-91.71 -655.38,-87.41 -224.43,5.94 -450.5,40.57 -659.61,124.8 -221.83,88.33 -424.13,228.38 -578.14,411.49 -226.84,266.17 -360.58,601.63 -421.21,943.64 -62.77,374.25 2.57,767.58 177.94,1103.79 46.75,96.81 108.4,185.17 164.31,276.7 -274.14,-224.51 -460.33,-538.33 -586.84,-865.42 -43.05,44.01 -38.4,110.76 -48.12,167.26 -83.92,-129.97 -76.06,-293.61 -53.31,-440.18 51.23,-289.62 150.53,-568.4 268.08,-837.17 -96.29,56.04 -167.18,143.63 -246.64,219.67 -2.86,-211.06 93.53,-408.11 211.75,-577.43 68.13,-96.9 140.56,-191.1 221.76,-277.39 76.92,-82.59 159.08,-159.94 239.51,-239.01 -95.25,25.25 -183.78,69.69 -276.35,102.66 186.03,-191.78 426.64,-321.82 675.62,-412.93 263.11,-93.45 541.02,-143.23 819.87,-152.35 -136.34,-34.55 -276.19,-56.25 -416.65,-64.16 -18.6,-3.45 -34.28,8.52 -50.74,14.64 2.85,-5.01 8.53,-14.9 11.47,-19.83 250.35,-63.55 511.39,-81.55 756.73,-165.78 90.01,-29.1 176.04,-71.73 249.42,-132.02 112.99,76.76 230.98,169.24 374.55,168.39 -221.41,-178.72 -444.92,-364.05 -603.56,-603.55 -53.63,-78.37 -105.66,-160.2 -131.75,-252.44l0 0z"/>
   </g>
   <path fill="#B3B3B3" d="M14.9 1446.06c844.08,-509.57 2076.53,-1504.5 3451.44,-1443.36 1374.9,61.13 3195.79,1273.1 3423.39,1443.44 49.97,56.82 -61.66,1649.01 -149.09,2083.81 -239.72,1192.21 -435.11,2094.93 -1171.08,3184.68 -284.71,420.19 -632.13,799.98 -1036.47,1107.78 -259.23,196.96 -540.93,364.55 -838.57,496.75 -80.78,40.91 -167.93,67.01 -249.4,106.45l-10.51 0c-45.39,-29.2 -99.13,-42.03 -148.21,-63.82 -494.78,-208.41 -948.37,-512.94 -1331.27,-889.03 -955.1,-938.91 -1383.79,-2100.51 -1685.05,-3361.66 -81.28,-340.28 -199.68,-1266.11 -201.36,-1272.7 -14.89,-56.58 -103.3,-1362.46 -53.82,-1392.34zm205.13 133.96c-0.76,50.61 1.81,106.24 2.72,146.35 3.07,135.34 9.4,270.89 16.61,406.08 7.72,145.07 16.72,290.13 27.2,435.03 5.25,72.48 8.64,155.75 19.21,227.52 4.95,24.34 7.71,53.35 10.8,76.44 7.09,52.95 14.23,105.87 21.49,158.79 21.8,159.04 44.44,318.01 68.73,476.7 27.83,181.78 55.88,374.05 98.57,552.75 293.03,1226.72 706.37,2352.45 1624.92,3255.22 362.86,356.61 793.04,645.36 1262.04,842.91l3.9 1.68c22.99,10.21 44.83,18.41 66.26,26.61 51.5,-20.4 103.33,-39.73 152.05,-64.41l5.02 -2.54 5.13 -2.28c281.93,-125.22 548.91,-283.88 794.41,-470.62 385.23,-293.05 716.34,-655.04 987.09,-1055.57 697.24,-1031.46 897.68,-1911.86 1137.46,-3104.37 25.6,-127.32 40.38,-263.56 54.67,-392.68 20.78,-187.91 37.73,-376.47 52.71,-564.93 17.64,-221.87 32.76,-444.51 42.56,-666.86 3.56,-81.13 6.57,-162.56 7.12,-243.75 0.11,-14.69 0.45,-31.8 0.44,-49.24 -53.44,-36.95 -108.51,-72.62 -162.09,-107.34 -151.86,-98.4 -306.7,-192.7 -463.3,-283.37 -424.46,-245.76 -871.29,-471.23 -1328.94,-648.07 -395.46,-152.81 -844.72,-287.33 -1270.31,-306.26 -637.63,-28.36 -1254.85,192.45 -1812.75,482.89 -277.42,144.42 -544.17,307.83 -807.34,476.58 -205.41,131.72 -408.84,268.13 -616.38,396.74z"/>
  </g>
 </g>
</svg>
