<?xml version="1.0" encoding="UTF-8"?>
<!DOCTYPE svg PUBLIC "-//W3C//DTD SVG 1.1//EN" "http://www.w3.org/Graphics/SVG/1.1/DTD/svg11.dtd">
<!-- Creator: CorelDRAW 2018 (64-Bit) -->
<svg xmlns="http://www.w3.org/2000/svg" xml:space="preserve" width="28.0128mm" height="5.27042mm" version="1.1" shape-rendering="geometricPrecision" text-rendering="geometricPrecision" image-rendering="optimizeQuality" fill-rule="evenodd" clip-rule="evenodd"
viewBox="0 0 28012.82 5270.42"
 xmlns:xlink="http://www.w3.org/1999/xlink">
 <g id="Brend">
  <metadata id="CorelCorpID_0Corel-Layer"/>
  <g>
   <path fill="#1F1B20" d="M1570.96 125.03c274.51,-65.82 553.26,-135.03 838.13,-123.82 316.27,8.68 637.03,-26.04 948.52,46.22 650.74,115.42 1255.26,410.12 1804.02,770.36 25.22,21.28 61.36,37.54 70.04,72.56 75.91,498.62 49.57,1010.14 -55.18,1502.88 -174.79,730.28 -601.44,1393.07 -1181.31,1868.18 -382.36,312.63 -819.93,552.41 -1273.74,744.57 -78.14,39.77 -162.75,5.05 -235.86,-28.01 -300.85,-137.26 -598.64,-284.05 -873.17,-469.5 -690.23,-447.64 -1231.43,-1134.51 -1463.38,-1927.28 -98.88,-300.02 -128.02,-616.57 -149.03,-929.74l0 -333.63c14.29,-148.2 10.08,-300.57 46.78,-445.4 51.26,-53.22 117.1,-89.08 178.73,-128.59 418.22,-264.44 867.54,-486.02 1345.45,-618.8l0 0zm878.76 185.73c-612.93,45.93 -1209.59,361.92 -1565.06,867.84 -219.35,312.62 -351.58,691.91 -344.84,1075.98 -17.66,574.24 268.36,1136.47 710.39,1495.02 641.78,527.21 1590.84,633.09 2336.55,271.73 435.33,-200.28 800.6,-558.02 989.7,-1000.34 142.57,-306.73 187.96,-656.05 142.3,-990.25 -64.71,-560.53 -405.63,-1074.28 -879.62,-1375.14 -406.74,-268.09 -905.09,-386.01 -1389.42,-344.84zm-114.3 105.32c341.76,-38.64 698.37,-20.73 1022.19,103.94 466.13,166.67 869.25,514.31 1092.22,957.19 195.82,379.29 235.87,830.29 131.94,1242.36 -135.86,509.83 -507.31,939.83 -969.52,1185.8 -671.75,357.43 -1540.7,310.37 -2163.99,-129.43 -427.2,-298.34 -747.94,-770.63 -802.57,-1295.59 -48.18,-389.38 36.98,-794.16 243.71,-1128.36 310.11,-506.46 856.08,-862.8 1446.02,-935.91l0 0zm-0.55 140.07c-312.35,51.54 -614.04,173.95 -867.27,364.73 -333.93,246.23 -568.66,620.19 -651.86,1025.83 -114.03,508.7 56.86,1059.72 403.66,1442.38 276.49,309.82 665.87,507.03 1070.93,584.06 451,84.04 928.35,-3.36 1324.45,-232.5 631.12,-347.92 1014.9,-1126.13 831.98,-1835.4 -98.61,-460.26 -410.12,-862.23 -814.05,-1098.1 -385.74,-231.11 -853.56,-321.03 -1297.84,-251zm3865.77 296.93c-12.05,-106.44 69.19,-224.94 184.6,-213.18 747.94,0.84 1496.17,-1.67 2244.1,1.41 298.61,16.25 617.69,58.83 863.08,244.55 103.36,75.34 193.01,173.67 238.1,294.69 93.57,205.32 62.47,435.88 68.37,654.1 -7.02,227.75 27.73,467.82 -67.8,682.39 -84.32,210.39 -285.45,349.32 -487.98,433.09 -243.71,74.8 -500.31,107.29 -755.23,103.07 -584.9,-2.51 -1169.82,3.1 -1754.72,-2.8 1.12,407.6 1.39,815.19 0.27,1222.77 3.65,95.23 -52.37,203.38 -153.78,220.17 -93.84,16.25 -196.09,20.19 -285.45,-17.63 -74.24,-36.98 -95.8,-126.9 -93.84,-203.11 0.55,-1139.84 0.28,-2279.68 0.28,-3419.52l0 0zm531.95 290.77c1.69,471.19 3.08,942.64 -0.82,1413.81 613.74,-0.28 1227.51,1.41 1840.98,-0.55 156.61,-9.25 317.68,-7.02 468.09,-56.87 127.2,-41.46 215.71,-167.52 215.71,-300.86 4.49,-214.87 0,-429.99 1.96,-644.85 5.6,-133.34 -50.97,-282.94 -179.55,-340.37 -122.71,-55.45 -260.52,-65.82 -393.6,-68.9 -650.74,-1.41 -1301.75,1.96 -1952.77,-1.41zm-4375.87 -177.59c80.96,-102.25 185.72,-182.35 278.45,-273.12 91.31,82.63 186.27,162.47 268.08,254.9 -0.27,8.97 -0.84,26.9 -0.84,35.86 -83.48,88.8 -170.33,176.77 -267.52,250.15 -96.66,-84.59 -194.97,-169.75 -278.17,-267.79zm15397.8 139.5c0.84,-84.05 59.1,-179.85 150.43,-182.92 77.87,-5.04 157.43,-9.25 234.75,5.33 86.83,26.33 114.28,125.49 119.32,206.16 10.64,187.96 -2.23,376.21 8.41,564.17 259.97,5.62 520.47,-3.63 780.44,3.94 112.05,-4.22 168.36,116.53 162.19,214.02 7.29,107.28 8.41,275.35 -133.62,290.77 -269.2,9.51 -539.24,3.92 -808.74,1.67 -12.32,678.76 0.57,1358.07 -6.43,2037.09 -5.05,82.63 -16.81,187.98 -98.89,230.56 -95.53,35.86 -206.46,39.78 -301.97,3.08 -91.06,-38.67 -112.06,-146.52 -108.97,-235.3 2.24,-675.97 -2.25,-1351.91 2.51,-2027.87 -791.63,-2.8 -1583.56,3.37 -2375.48,0.28 -121.01,-5.59 -242.03,35.58 -324.39,126.05 14.02,119.63 -43.99,279.02 71.72,362.22 98.88,63.02 221.29,70.31 335.59,74.8 345.96,3.08 692.19,-2.8 1038.42,2.51 254.64,11.5 540.95,67.25 709.29,277.33 139.23,163.03 156.59,390.79 152.12,596.4 1.96,213.46 -45.38,445.95 -207.3,597.5 -107.58,115.7 -261.36,166.41 -409.27,206.46 -255.19,56.87 -518.23,40.35 -777.36,42.31 -373.69,0.55 -747.37,-0.85 -1120.78,1.11 -89.92,-0.84 -203.65,1.12 -258.01,-84.59 -50.42,-86.85 -36.41,-192.44 -32.22,-288.27 3.65,-93 78.44,-180.39 177.05,-170.59 439.25,-3.92 878.77,-0.28 1318,-1.39 186.29,-1.69 375.09,8.95 559.13,-27.73 104.78,-22.99 214.59,-103.37 217.1,-219.9 0.57,-86.85 20.73,-188.25 -38.09,-261.36 -55.46,-70.88 -148.75,-96.37 -233.89,-106.17 -458.3,-29.98 -921.9,30.8 -1377.12,-45.68 -239.22,-38.36 -480.7,-177.32 -575.11,-409.81 -77.59,-173.4 -50.98,-367.26 -53.49,-551.01 -0.57,-226.91 142.87,-443.46 350.15,-534.2 312.35,-159.12 672.31,-125.51 1011.27,-129.71 613.75,-1.68 1227.51,3.92 1841.28,-2.8 1.39,-188.25 -5.61,-376.5 1.96,-564.46zm-16339.87 126.62c108.13,-97.21 206.46,-222.15 354.91,-256.6 175.09,-41.46 352.13,34.18 487.98,141.19 134.76,105.05 249.88,232.22 377.35,345.68 225.51,-184.06 414.58,-463.06 726.09,-495.84 167.52,-26.61 312.35,80.97 421.02,195.27 114.87,121 278.18,218.76 316.84,392.45 38.37,222.13 -123.55,407.58 -275.1,546.81 -196.91,195.52 -410.11,375.09 -602.26,575.38 66.09,110.38 194.95,174.51 266.4,285.17 -124.94,8.11 -251.55,16.81 -375.94,0.57 -171.99,-128.86 -310.66,-297.5 -475.66,-435.06 -163.87,141.48 -307.57,307.59 -480.69,437.02 -124.37,12.6 -250.43,6.15 -375.09,-2.53 86.27,-101.98 191.32,-185.16 283.76,-281.25 -219.33,-209.26 -443.43,-413.76 -662.5,-623.29 -124.37,-126.61 -252.96,-286.29 -231.66,-475.37 14.29,-151.84 140.89,-252.68 244.55,-349.6l0 0zm279.27 111.48c-73.66,74.8 -159.11,139.52 -220.17,225.8 -31.65,69.46 -9.23,152.1 42.01,206.16 153.53,173.13 334.48,319.07 500.88,479.58 82.91,75.93 159.96,159.68 252.96,224.11 62.19,-37.25 111.2,-91.33 161.91,-141.75 -99.17,-112.89 -226.62,-199.44 -315.15,-321.31 -27.16,-54.9 36.15,-92.72 66.41,-128.29 74.23,-63.6 134.44,-149.59 224.66,-191.05 70.01,48.73 128.02,112.04 189.07,170.89 -40.89,43.13 -83.2,84.87 -125.78,126.6 170.32,147.36 325.79,311.51 495.55,459.14 37.54,46.21 81.24,-8.4 112.34,-33.35 209.26,-201.97 430.27,-391.34 635.61,-597.23 54.07,-62.47 133.9,-143.14 92.16,-232.49 -50.99,-95.81 -141.18,-161.35 -217.39,-235.6 -57.98,-51.53 -117.36,-116.53 -199.44,-122.98 -72,-8.39 -133.9,36.7 -185.16,81.24 -124.94,111.5 -248.47,224.66 -368.1,341.77 111.77,100.28 217.37,207.29 328.87,308.13 -31.1,149.32 -180.39,229.15 -283.76,326.36 -82.63,-29.43 -147.06,-105.07 -200.85,-173.4 34.74,-45.67 76.75,-84.88 118.22,-124.39 -214.02,-201.69 -432.26,-398.9 -644.87,-601.99 -66.95,-60.23 -132.5,-129.99 -221.58,-155.19 -95.53,-21.58 -174.79,48.18 -238.4,109.24zm8669.71 432.24c262.18,-123.81 557.99,-105.6 839.81,-99.43 112.62,102.8 110.09,268.36 84.05,406.74 -12.05,68.9 -70.6,130.82 -143.17,131.37 -204.47,13.46 -422.14,-27.73 -613.74,64.72 -100.29,43.13 -178.73,141.73 -174.24,254.35 -1.12,561.09 -0.85,1122.2 0.27,1683.3 -0.84,91.31 -7.84,205.88 -95.53,257.99 -101.11,39.23 -220.74,42.01 -321.01,-0.57 -82.38,-43.13 -100.58,-144.53 -96.93,-229.13 3.37,-476.5 -5.33,-953.27 7.01,-1429.77 4.19,-206.46 -27.18,-424.4 65.55,-617.41 74.79,-201.42 252.38,-345.11 447.93,-422.16zm1591.12 -37.8c309.82,-99.45 639.53,-54.93 959.15,-65.28 327.48,10.65 675.12,-44.81 980.45,105.33 235.3,96.37 438.12,309.55 458.28,572.03 15.7,229.13 1.96,459.39 7.58,689.11 -3.93,107.01 13.15,231.38 -61.07,320.18 -28.03,39.78 -80.68,35.3 -123.26,38.37 -788.56,0 -1576.84,-1.66 -2365.39,0.57 -2.8,177.04 57.71,376.78 223.82,465.29 241.74,136.97 531.38,76.76 795.55,98.61 75.63,1.11 131.95,70.3 139.52,141.45 13.44,102.82 21.28,214.87 -23.83,311.24 -38.1,70.3 -125.77,84.32 -198.33,87.12 -346.23,7.56 -706.19,-8.98 -1024.7,-158.84 -172.85,-88.81 -330.55,-233.62 -386.3,-424.67 -34.17,-112.62 -55.18,-229.72 -52.94,-347.64 1.68,-336.16 0,-672.59 0.56,-1009.03 7.57,-186 52.38,-382.65 179.85,-524.66 125.76,-151 308.41,-237.85 491.06,-299.18l0 0zm-50.42 597.79c-173.12,108.97 -101.13,336.98 -113.46,505.89 689.68,-1.66 1379.06,1.12 2068.74,-1.39 -5.6,-126.05 8.68,-253.23 -9.52,-378.44 -30.53,-94.96 -134.46,-133.92 -218.78,-168.66 -281.8,-114.83 -589.94,-66.66 -885.48,-76.46 -281.52,4.49 -588.56,-29.41 -841.5,119.06zm9306.96 -608.16c242.87,-76.21 500.31,-49.87 750.76,-54.91 313.45,5.04 635.32,-23.8 939.83,69.2 187.39,61.9 378.72,141.45 514.3,291.05 113.18,129.7 189.64,297.49 188.53,472.01 1.11,635.89 -0.28,1271.5 0.84,1907.39 13.44,251.56 -136.7,493.31 -348.48,621.6 -300.85,188.25 -665.31,246.24 -1015.18,234.75 -88.53,-4.76 -202.81,21.85 -263.05,-62.19 -62.17,-92.43 -58.82,-212.89 -42.85,-318.5 9.52,-73.39 63.58,-150.44 143.14,-154.91 177.89,-17.65 359.97,17.09 535.33,-28.29 169.75,-45.11 353.52,-91.04 474.54,-228.31 -478.46,-7.83 -956.92,0.28 -1435.38,-3.64 -305.06,-22.12 -628.05,-82.09 -867.57,-286.29 -169.46,-143.14 -254.34,-367.8 -250.7,-586.59 -1.12,-345.95 -0.57,-692.2 -0.57,-1038.16 -3.07,-206.73 68.92,-418.22 215.71,-566.69 122.41,-133.62 291.05,-212.61 460.8,-267.52l0 0zm-58.82 586.02c-86.55,62.19 -117.08,173.12 -115.12,275.1 0.54,318.78 -0.3,637.55 0.27,956.35 -5.06,115.96 56.57,232.22 161.07,285.72 147.91,75.64 317.94,94.41 482.11,98.05 470.05,1.12 940.38,-2.25 1410.43,1.69 6.45,-446.81 1.69,-893.9 2.8,-1340.99 6.72,-113.44 -76.18,-207.57 -169.48,-259.95 -156.04,-86 -336.14,-121.02 -513.18,-118.49 -271.73,0.56 -543.73,-1.96 -815.46,1.68 -151.26,3.35 -315.7,8.96 -443.44,100.84zm4392.68 -509.56c329.15,-172.83 709.57,-124.64 1067.01,-131.09 341.19,5.6 703.41,-35.86 1019.96,121.84 173.95,74.25 298.88,226.64 380.7,393.03l0 1784.43c-73.13,140.61 -175.38,268.63 -313.47,349.3 -284.06,168.64 -624.97,187.69 -947.12,180.97 -394.14,-8.68 -805.94,39.5 -1180.46,-112.6 -309.83,-114.3 -531.96,-430.57 -530.57,-761.4 0.28,-355.75 -0.27,-711.52 0.28,-1067.29 -1.67,-324.66 214.31,-623 503.67,-757.19l0 0zm405.06 434.22c-169.75,37.25 -389.65,120.72 -400.84,324.1 -5.33,345.96 -1.41,692.48 -1.98,1038.44 -6.72,110.36 68.37,208.96 166.13,252.66 251.54,126.08 542.04,100.86 814.6,104.78 264.73,-6.73 540.94,27.72 793.9,-69.47 111.75,-41.76 230.25,-128.58 226.9,-260.81 3.64,-336.44 -1.42,-672.87 1.95,-1009.3 -1.11,-82.63 7,-176.75 -53.22,-242.87 -99.17,-117.65 -263.89,-143.71 -408.72,-156.03 -233.61,-7.57 -467.25,-0.85 -700.88,-3.08 -146.22,2.23 -294.4,-10.93 -437.84,21.58zm-6246.56 -332.81c134.73,-21.01 362.77,-35.57 373.68,152.96 7.56,728.61 0,1457.77 3.64,2186.39 0.85,79.01 -3.07,176.2 -79.26,221.88 -95.82,50.96 -215.7,47.04 -315.99,11.48 -98.33,-45.11 -112.05,-166.95 -112.34,-262.21 0.57,-644.29 1.13,-1288.86 -0.28,-1933.45 0.85,-128.86 -19.89,-323.26 130.55,-377.05zm4477.57 -3.65c98.88,-3.62 197.76,-3.35 296.93,-0.55 49.58,51.83 110.93,107.01 105.6,186 4.21,719.09 0,1438.48 2.25,2157.84 3.35,84.32 -14.28,184.04 -95.53,228.29 -86.84,38.39 -188.8,39.23 -279.01,14.58 -91.59,-26.34 -144.54,-124.1 -136.13,-215.71 0,-719.64 0,-1439.3 -0.28,-2158.93 -10.66,-87.42 51.27,-153.24 106.17,-211.52zm-22729.32 1112.69c365.57,-14.29 731.69,-3.38 1097.26,-5.61 422.71,2.23 845.44,-7.01 1268.15,3.37 3.92,126.88 5.04,254.05 -3.64,380.68 -785.48,-1.69 -1571.25,-0.27 -2356.73,-0.84 -11.49,-125.49 -9.23,-251.84 -5.04,-377.6z"/>
  </g>
 </g>
</svg>
