<?xml version="1.0" encoding="UTF-8"?>
<!DOCTYPE svg PUBLIC "-//W3C//DTD SVG 1.1//EN" "http://www.w3.org/Graphics/SVG/1.1/DTD/svg11.dtd">
<!-- Creator: CorelDRAW 2018 (64-Bit) -->
<svg xmlns="http://www.w3.org/2000/svg" xml:space="preserve" width="31.5027mm" height="4.8199mm" version="1.1" shape-rendering="geometricPrecision" text-rendering="geometricPrecision" image-rendering="optimizeQuality" fill-rule="evenodd" clip-rule="evenodd"
viewBox="0 0 31502.72 4819.9"
 xmlns:xlink="http://www.w3.org/1999/xlink">
 <g id="Brend">
  <metadata id="CorelCorpID_0Corel-Layer"/>
  <path fill="#1428A0" d="M504.38 272.48c341.48,-225.56 764.54,-276.91 1165.25,-272.18 355.03,3.15 727.38,51.36 1034.21,243.51 209.8,130.11 361.01,347.46 412.36,588.77 48.51,202.88 26.78,412.99 31.18,619.33 -374.87,0 -750.06,0 -1124.93,0 -6.3,-143.64 18.59,-292.34 -23.63,-432.2 -103.32,-334.56 -669.41,-347.16 -785.96,-17.33 -53.24,153.41 -39.38,344 80.01,463.71 180.51,187.12 421.49,297.37 645.79,421.17 379.27,203.82 781.25,398.82 1067.92,730.22 157.18,177.04 237.82,410.16 245.7,645.16 14.5,361.33 -3.78,760.14 -238.15,1055.62 -251.38,321.01 -668.16,449.54 -1059.09,487.65 -439.45,34.34 -901.9,16.07 -1306.07,-177.03 -257.37,-121.29 -470.63,-339.6 -566.4,-609.57 -106.48,-272.8 -79.39,-570.18 -79.7,-856.22 402.28,2.52 804.56,5.36 1206.84,0 14.49,203.82 -31.82,417.39 37.17,614.29 103.63,235.94 416.45,275.95 634.77,193.74 192.46,-72.46 254.21,-303.69 234.36,-489.85 -20.79,-192.17 -177.04,-328.89 -323.21,-436.62 -490.17,-343.69 -1090.59,-536.8 -1499.17,-991.05 -255.79,-274.7 -303.68,-677.92 -244.45,-1035.16 39.05,-297.69 201.29,-580.89 455.2,-745.96zm14647.73 26.46c322.58,-217.36 723.28,-270.6 1104.14,-275.32 346.84,1.57 707.85,37.49 1017.51,206.01 217.36,117.19 387.47,321.33 452.06,561.06 63.94,217.67 44.73,446.69 47.56,670.35 -371.41,0.32 -742.81,0.32 -1113.9,0 -7.56,-152.77 23.62,-314.07 -35.91,-459.29 -130.11,-307.78 -669.74,-296.43 -768.96,30.55 -40.01,138.93 -35.28,306.83 64.26,420.55 145.23,167.91 348.09,268.71 538.36,376.14 410.79,224.92 856.22,423.38 1170.93,782.5 162.55,180.82 242.24,421.18 249.49,662.18 13.23,359.11 -7.25,756.98 -249.49,1044.91 -270.6,326.67 -710.05,441.66 -1116.43,471.27 -426.85,25.2 -876.69,-5.04 -1261.33,-208.23 -259.27,-135.78 -460.87,-378.02 -537.74,-661.54 -75.6,-246.66 -45.99,-505.92 -55.45,-759.2 399.76,-5.98 799.84,-1.26 1199.6,-2.51 2.83,163.49 -6.3,327.62 3.78,491.11 13.55,174.21 164.13,311.87 333.6,334.24 181.45,30.56 415.52,-4.42 505.61,-187.12 80.02,-174.21 85.68,-402.6 -43.78,-555.07 -149.96,-183.03 -361.97,-298.33 -563.26,-414.87 -412.68,-235.02 -866.94,-436.63 -1176.6,-810.24 -235.95,-281.94 -265.25,-677.59 -201.29,-1026.02 45.04,-276.9 201.29,-536.47 437.24,-691.46zm13840.66 -112.78c348.73,-154.04 739.35,-178.93 1116.11,-159.39 347.78,22.68 711,101.74 987.27,326.68 205.39,164.43 333.29,411.72 374.86,669.41 34.03,183.96 20.8,371.72 23.32,557.89 -379.29,-0.95 -758.57,2.21 -1137.53,-1.58 -7.87,-188.69 35.59,-398.49 -71.83,-567.03 -142.38,-209.8 -460.23,-230.28 -666.26,-108.36 -146.17,90.41 -192.48,272.8 -189.32,435.05 0.94,725.16 -3.78,1450.65 2.51,2176.13 -3.78,177.99 125.69,342.11 297.7,385.27 181.45,44.42 402.59,25.84 535.84,-119.08 76.86,-79.69 103.32,-193.1 103.96,-300.84 -0.64,-234.99 -3.15,-470.01 -0.32,-705.01 -153.41,-0.63 -307.13,0 -460.55,-0.31 0.31,-219.89 -0.63,-439.46 0.63,-659.02 530.8,0.63 1061.92,0 1592.73,0.32 -3.78,465.91 7.56,932.14 -6.3,1397.73 -6.93,332.03 -134.2,674.14 -402.91,881.73 -370.15,291.4 -865.04,348.42 -1321.18,333.61 -430.63,-18.89 -898.45,-127.58 -1194.23,-464.33 -214.22,-237.85 -269.98,-567.35 -275.97,-876.38 -3.47,-546.57 -0.32,-1093.12 -1.26,-1639.68 -0.63,-334.55 -12.28,-684.85 122.55,-998.92 106.16,-253.91 319.42,-453.94 570.18,-563.89zm-24172.97 -43.15c668.48,-4.11 1337.26,-3.47 2006.04,0.31 275.64,1500.12 554.12,2999.6 830.08,4499.73 -404.48,-2.21 -809.28,3.46 -1213.77,-3.15 -198.77,-1376.63 -401.34,-2753.26 -608.3,-4128.64 -218,1375.38 -417.39,2754.53 -628.14,4131.47 -406.38,0.32 -813.06,0.32 -1219.76,0 277.85,-1499.81 557.58,-2999.6 833.85,-4499.72zm3828.11 4.1c613.66,-13.24 1228.57,-1.26 1842.86,-4.1 187.12,1165.57 373.93,2331.45 565.14,3496.39 192.8,-1165.25 377.71,-2331.77 567.04,-3497.65 612.71,-1.57 1225.11,3.78 1838.13,-2.52 33.08,1501.38 67.09,3002.76 100.5,4504.13 -376.77,-0.94 -753.21,-0.31 -1129.66,-0.31 -12.93,-1377.58 -21.74,-2755.15 -31.5,-4133.04 -264.62,1376.3 -514.43,2755.46 -772.74,4132.72 -381.81,0.32 -763.3,0.32 -1145.1,0 -257.68,-1370.64 -504.34,-2743.49 -768.96,-4112.57 -17.33,1370.96 -20.79,2741.93 -33.71,4112.57 -375.81,0 -751.63,0.32 -1127.45,0 30.56,-1498.53 67.41,-2997.09 95.45,-4495.62zm10279.7 -3.15c379.27,-0.32 758.24,-3.16 1137.53,-4.11 6.92,1135.02 -0.64,2270.35 3.46,3405.35 -1.89,167.6 97.96,338.02 260.52,393.46 181.44,60.17 416.77,32.77 535.84,-131.36 113.41,-147.1 80.02,-343.05 84.75,-516 -0.32,-1050.89 -4.1,-2101.8 1.88,-3152.4 379.91,3.48 759.83,9.78 1139.74,0 0.63,977.2 0,1954.08 0.32,2931.25 -4.73,293.92 23.31,596.03 -65.84,881.43 -69.93,237.21 -226.19,447.95 -436.61,578.7 -292.98,184.91 -647.37,238.46 -987.91,248.85 -348.41,6.93 -708.16,-22.99 -1028.85,-169.47 -236.9,-106.79 -437.56,-297.7 -537.42,-539.32 -107.74,-244.13 -111.52,-516 -107.74,-777.78 0.63,-1049.64 0,-2099.28 0.33,-3148.6zm4407.1 0.31c558.84,-5.04 1118,-2.52 1677.16,-0.95 349.98,1201.17 701.54,2402.02 1054.68,3601.93 -15.75,-1202.11 -42.84,-2404.23 -57.64,-3606.35 370.77,3.79 741.55,4.74 1112.64,0.64 6.93,1485.63 0.31,2970.95 2.83,4456.57 -535.84,0.63 -1071.69,0.31 -1607.54,0 -374.55,-1236.77 -757.62,-2470.69 -1126.5,-3709.03 -11.66,433.47 10.07,867.56 13.23,1301.35 12.59,802.66 29.61,1605.32 39.69,2408.31 -369.2,-0.94 -738.4,0 -1107.93,-0.32 -0.3,-1484.05 0.95,-2968.1 -0.62,-4452.15z"/>
 </g>
</svg>
