<?xml version="1.0" encoding="UTF-8"?>
<!DOCTYPE svg PUBLIC "-//W3C//DTD SVG 1.1//EN" "http://www.w3.org/Graphics/SVG/1.1/DTD/svg11.dtd">
<!-- Creator: CorelDRAW 2018 (64-Bit) -->
<svg xmlns="http://www.w3.org/2000/svg" xml:space="preserve" width="21.7415mm" height="4.54024mm" version="1.1" shape-rendering="geometricPrecision" text-rendering="geometricPrecision" image-rendering="optimizeQuality" fill-rule="evenodd" clip-rule="evenodd"
viewBox="0 0 21741.54 4540.24"
 xmlns:xlink="http://www.w3.org/1999/xlink">
 <g id="Brend">
  <metadata id="CorelCorpID_0Corel-Layer"/>
  <path fill="#004689" d="M854.19 117.44c560.54,-117.44 1137.13,-117.44 1708.38,-117.44 565.92,5.33 1137.13,-10.71 1703.05,53.39 282.94,32 560.54,181.49 715.37,427.09 197.54,314.99 229.6,694.03 245.6,1057.07 -459.15,0 -912.92,0 -1366.68,0 -37.39,-144.15 -16.05,-373.7 -202.88,-416.42 -464.48,-74.77 -939.63,-42.72 -1414.78,-53.39 -234.88,10.67 -475.15,-5.33 -710.03,48.05 -176.16,112.11 -122.78,427.1 69.39,496.49 325.65,112.11 678.03,74.72 1014.35,96.1 608.59,5.34 1222.57,0 1820.49,128.11 229.55,48.06 475.15,133.49 619.31,330.99 202.83,272.27 240.22,619.31 256.26,944.97 5.34,347.04 -32.05,720.7 -256.26,998.35 -186.88,234.88 -496.53,304.27 -774.14,346.99 -571.2,74.73 -1147.79,85.44 -1719.05,80.11 -501.82,5.33 -1003.68,5.33 -1500.17,-42.72 -314.98,-37.39 -667.31,-133.49 -859.52,-411.1 -144.16,-229.55 -176.16,-507.15 -202.88,-774.09l0 -341.7c453.76,0 902.24,-5.33 1356.06,0 32,149.49 10.66,379.09 192.16,437.76 405.76,74.77 816.81,48.06 1227.9,53.44 336.33,-5.38 678.03,16 1014.35,-32.05 154.83,-26.72 170.83,-224.22 128.11,-347.04 -37.33,-149.45 -197.5,-213.5 -336.32,-218.88 -656.65,-74.73 -1324.01,-16.01 -1980.65,-69.39 -368.38,-32.05 -742.09,-58.72 -1078.41,-208.22 -282.94,-138.82 -389.71,-469.81 -437.76,-758.08 -53.39,-411.1 -64.06,-854.2 122.77,-1233.24 117.44,-256.27 373.71,-421.76 645.98,-475.15zm4094.79 -58.72c517.87,0 1035.69,-5.33 1553.56,0 549.87,1083.74 1105.08,2162.15 1665.66,3235.23 26.72,0 80.11,0 106.78,-5.34 560.54,-1073.07 1105.12,-2151.48 1665.66,-3229.89 1884.6,-5.33 3763.81,0 5648.35,0 0,352.33 0,710.03 0,1067.74 -1137.13,0 -2268.92,-5.33 -3406.09,0 5.33,197.55 5.33,395.05 0,597.93 1083.78,5.33 2162.19,0 3245.93,0 0,357.7 0,710.03 0,1067.74 -1083.74,0 -2162.15,0 -3245.93,0 5.33,202.88 5.33,400.38 0,597.92 1137.17,5.34 2268.96,5.34 3400.76,0 5.33,363.04 10.67,726.08 0,1089.08 -1590.94,-10.67 -3181.88,0 -4772.78,-5.29 0,-1025.07 0,-2044.75 0,-3069.78 -523.2,1025.03 -1035.73,2050.05 -1558.93,3069.78 -694.03,-5.38 -1388.06,10.67 -2082.1,-5.38 -726.03,-1478.79 -1489.45,-2936.29 -2220.87,-4409.74zm10810.84 0c747.42,-5.33 1494.84,0 2236.92,-5.33 795.47,1105.08 1580.27,2210.2 2370.36,3315.33 0,-1105.13 0,-2210.25 0,-3310 459.15,0 918.3,-5.33 1372.06,0 5.34,1468.12 0,2941.62 0,4415.12 -747.41,0 -1494.83,5.29 -2236.92,-5.38 -784.75,-1099.74 -1569.55,-2199.54 -2359.69,-3293.95 -10.67,1099.75 -5.33,2199.54 -5.33,3299.33 -459.15,0 -918.25,5.29 -1377.4,-5.38 5.34,-1468.12 0,-2941.62 0,-4409.74z"/>
 </g>
</svg>
