<?xml version="1.0" encoding="UTF-8"?>
<!DOCTYPE svg PUBLIC "-//W3C//DTD SVG 1.1//EN" "http://www.w3.org/Graphics/SVG/1.1/DTD/svg11.dtd">
<!-- Creator: CorelDRAW 2018 (64-Bit) -->
<svg xmlns="http://www.w3.org/2000/svg" xml:space="preserve" width="30.4686mm" height="5.93864mm" version="1.1" shape-rendering="geometricPrecision" text-rendering="geometricPrecision" image-rendering="optimizeQuality" fill-rule="evenodd" clip-rule="evenodd"
viewBox="0 0 30468.62 5938.64"
 xmlns:xlink="http://www.w3.org/1999/xlink">
 <g id="Brend">
  <metadata id="CorelCorpID_0Corel-Layer"/>
  <g>
   <path fill="#B00F38" d="M3160.79 49.94c683.32,-117.05 1413.6,-33.2 2026.01,303.34 483.32,263.83 879,694.17 1076.77,1210.33 -187.7,0.25 -375.4,0.25 -563.1,0 -111.17,-321.12 -300.06,-617.91 -557.73,-841.2 -286.6,-251.53 -652.34,-406.02 -1029.05,-456.25 -427.2,-59.5 -865.13,12.69 -1265.65,166.26 -518.9,199.99 -981.15,535.77 -1348.98,951.2 1129.49,0.66 2258.98,-0.39 3388.47,2.88 -80.06,393.85 -166.52,786.39 -247.61,1179.85 -272.21,1.31 -544.53,-0.27 -816.86,0.78 -158.55,798.03 -320.88,1595.28 -479.28,2393.18 -415.43,1.18 -830.86,0 -1246.15,0.66 156.57,-798.29 320.34,-1595.28 478.35,-2393.45 -809.69,-1.56 -1619.48,-0.27 -2429.17,-0.66 162.86,-502.28 451.15,-959.31 813.86,-1341.25 584.57,-610.45 1365.86,-1033.47 2200.12,-1175.67zm26670.17 1115.64c212.55,-1.44 425.1,-4.05 637.66,-4.85 -239.37,1169 -481.49,2337.58 -719.55,3506.84 -209.29,5.24 -418.7,4.05 -627.99,6.93 48.79,-204.31 99.95,-407.97 146.77,-612.55 -106.35,161.03 -224.33,316.29 -369.77,444.22 -161.43,142.83 -364.03,254.81 -583.79,261.33 -199.87,8.51 -394.5,-80.83 -535.65,-219.08 -211.9,-208.24 -324,-502.3 -346.49,-795.15 -27.86,-432.71 89.6,-869.46 309.09,-1241.59 130.68,-218.71 299.02,-418.19 507.26,-566.64 188.48,-134.86 418.82,-225.39 653.75,-207.34 174.5,9.03 348.59,82.29 463.83,216.22 115.37,133.03 179.19,305.56 198.69,479.28 45.91,-181.82 77.3,-367.57 117.6,-550.95 49.7,-238.86 97.83,-477.96 148.59,-716.67l0 0zm-1000.38 1248.37c-186.92,27.22 -349.13,144.42 -462.93,291.04 -162.06,207.19 -256.62,462.15 -293.65,721.13 -27.47,205.22 2.49,432.17 138,596.33 79.02,96.8 197.9,160.23 322.95,168.87 124.79,11.9 243.3,-43.96 346.64,-108.17 340.48,-223.54 542.56,-622.63 564.29,-1024.84 2.22,-99.8 15.3,-201.46 -8.51,-299.68 -24.86,-116.41 -94.7,-226.16 -200.53,-284.11 -122.81,-67.62 -269.58,-78.74 -406.26,-60.57zm-21081.46 -1072.7c807.71,-5.24 1615.42,-13.08 2423.12,-18.84 -43.94,218.96 -94.05,436.62 -140.86,655.06 -279.53,1.7 -559.06,3.02 -838.6,6.8 -186.9,907.52 -377.62,1814.25 -565.32,2721.5 -229.56,2.61 -459.25,4.32 -688.81,5.37 188.23,-907.4 376.59,-1814.77 565.2,-2722.16 -288.56,1.83 -576.98,5.24 -865.39,6.27 37.01,-218.05 73.24,-436.1 110.66,-654zm12804.6 471.67c207.85,-97.83 441.46,-153.31 671.41,-121.25 273.9,28.12 542.83,173.18 689.21,410.97 -49.45,231.14 -88.04,465.41 -143.11,694.83 -55.59,-207.58 -239.88,-360.35 -443.29,-413.33 -226.93,-59.52 -484.76,-63.31 -691.81,60.04 -197,117.46 -328.98,317.99 -414.78,526.09 -57.3,138.78 -98.24,284.89 -119.03,433.61 -12.56,138.27 2.74,278.88 41.99,412.04 35.06,115.22 94.56,227.32 188.75,305.02 86.19,74.96 202.61,107.53 315.49,106.87 204.58,-0.12 401.96,-79.79 568.22,-195.29 124.39,-86.33 234.12,-192.55 328.83,-310.4 -20.28,160.25 -35.33,321.39 -56.26,481.49 -156.55,197 -357.47,364.03 -590.69,462.13 -222.76,94.97 -481.74,114.19 -711.06,30.22 -211.9,-74.82 -387.96,-233.61 -500.45,-426.43 -149.11,-252.84 -196.34,-553.81 -181.16,-843.67 16.49,-419.88 171.62,-835.58 448.14,-1153.7 164.94,-192.4 369.91,-351.46 599.6,-459.24zm2226.93 92.09c198.82,-126.23 429.56,-211.9 667.36,-211.9 192.02,0.12 391.87,25.49 559.83,124.78 134.33,78.61 231.01,210.73 283.85,355.52 45.91,129.24 73.77,265.01 86.85,401.43 13.07,303.21 -61.48,601.96 -147.42,890.39 -592.4,4.19 -1184.68,9.03 -1777.08,14.12 -9.3,147.28 10.05,298.63 71.67,433.76 51.01,115.36 143.62,213.07 259.38,265.01 137.74,62.77 293.4,65.38 441.59,51.26 332.24,-27.72 660.56,-195.56 844.47,-479.13 -18.44,155.13 -36.23,310.4 -54.81,465.53 -187.83,188.22 -408.24,349.77 -660.15,440.03 -223.81,81.87 -472.47,104.24 -704.52,44.33 -238.45,-59.38 -454.42,-206.41 -594.37,-408.75 -138.38,-194.12 -203.54,-434.27 -203.39,-671.15 -1.98,-419.24 137.86,-834.01 375.91,-1177.24 147.3,-211.9 332.64,-399.08 550.83,-537.99l0 0zm105.95 579.71c-151.6,118.91 -268.94,282.8 -331.85,464.88 459.51,-3 919.15,-7.97 1378.79,-10.85 15.44,-125.18 5.63,-256.91 -47.99,-372.4 -39.13,-85.8 -108.58,-157.11 -193.6,-197.65 -120.08,-58.07 -258.21,-65.26 -388.87,-51.65 -151.08,15.15 -296.41,75.07 -416.48,167.67zm-6549.32 -715.5c166.11,-53.1 346.1,-65.65 517.58,-32.56 127.53,24.46 251,89.48 328.7,195.55 91.83,123.35 117.47,282.94 113.03,433.36 -0.54,93.26 -23.55,184.04 -40.3,275.33 -129.89,671.15 -258.99,1342.57 -389.14,2013.72 -220.14,1.84 -440.15,4.07 -660.17,5.11 71.16,-328.58 142.72,-657.04 211.9,-985.87 52.6,-251.93 109.1,-503.33 147.42,-758.02 15.05,-131.96 17.93,-281.48 -65.91,-392.92 -84.37,-109.36 -234.81,-131.19 -364.16,-123.34 -205.11,8.76 -392.55,128.05 -512.75,290.24 -86.06,117.07 -156.83,249.98 -181.16,394.5 -112.63,533.04 -224.34,1066.18 -337.61,1598.96 -209.8,1.56 -419.62,2.61 -629.43,5.61 171.23,-946.89 346.11,-1892.98 518.77,-2839.6 210.73,-1.58 421.32,-3.15 632.05,-5.37 -50.63,261.6 -101.39,523.09 -153.04,784.42 99.15,-210.19 228.25,-408.09 395.53,-570.42 132.91,-128.45 291.84,-232.32 468.69,-288.7zm2049.94 13.35c233.1,-83.05 492.47,-86.73 729.89,-18.3 155.4,46.94 307.51,138.64 388.09,284.09 -47.75,209.95 -95.61,419.89 -141.01,630.35 -143.62,-154.47 -313.8,-297.33 -520.85,-354.34 -178.94,-49.58 -378.16,2.88 -516.55,124.64 -69.58,62.01 -130.15,146.25 -132.25,242.78 -2.88,67.36 38.06,129.23 94.05,163.63 82.02,51.01 175.67,79.01 266.06,111.45 214.38,75.46 442.51,157.36 593.84,336.03 154.35,182.21 163.52,446.3 93.53,665.39 -78.73,245.79 -267.75,441.08 -484.89,572.54 -209.95,125.83 -451.93,204.44 -697.84,206.14 -271.54,0.79 -550.15,-99.41 -737.72,-300.06 32.96,-215.44 63.82,-431.26 97.05,-646.7 136.05,150.42 289.6,292.87 478.74,372.93 144.27,62.77 312.5,79.65 462,24.84 127.27,-47.72 243.69,-138.38 302.02,-263.57 43.03,-87.88 16.61,-197.76 -46.7,-268.92 -70.75,-78.75 -174.23,-116.95 -274.28,-142.19 -122.71,-26.55 -245.52,-58.19 -358.81,-113.4 -174.87,-81.36 -328.95,-229.56 -373.57,-422.24 -53.62,-232.95 7.47,-481.49 130.81,-682.54 147.94,-241.59 382.08,-427.19 648.39,-522.55zm-4947.38 -34.01c151.08,-31.64 308.31,-21.05 458.07,13.08 157.11,36.1 309.36,120.48 399.21,257.69 113.29,169.52 128.98,385.86 96.29,582.34 -139.96,687.37 -279.67,1374.74 -419.89,2062.11 -195.42,0.91 -390.83,3.13 -586.38,5.1 22.23,-155 47.08,-309.48 67.23,-464.61 -194.65,352.25 -590.59,583.25 -993.46,574.74 -162.72,-3.52 -332.37,-54.8 -448,-174.09 -89.99,-90.78 -135.25,-217.92 -141.66,-344.01 -10.2,-208.63 32.71,-428.26 161.03,-597.51 124.25,-166.53 310.78,-270.89 497.7,-352.65 211.11,-91.18 431.9,-156.57 649.97,-228.51 156.18,-49.71 317.06,-103.21 445.12,-209.55 65.01,-54.41 122.03,-132.38 115.76,-221.32 -7.2,-92.09 -78.24,-165.07 -155.28,-207.98 -178.67,-98.36 -398.02,-101.11 -588.21,-35.32 -273.25,93.14 -507.52,273.52 -710.78,474.42 26.93,-220.39 54.54,-440.66 82.14,-660.8 293.79,-269.72 684.76,-404.33 1071.14,-473.13l0 0zm-451.79 1822.5c-134.59,54.53 -261.47,134.85 -355.52,246.81 -59.4,71.55 -102.82,165.74 -83.19,260.44 15.03,105.69 106.2,190.97 210.86,205.88 90.51,20.27 179.97,-15.05 261.98,-49.96 199.48,-90.39 377.77,-235.98 490.13,-425.51 88.17,-143.1 129.5,-311.97 128.96,-479.26 -219.22,76.25 -438.71,152.51 -653.22,241.6zm13351.89 -1788.62c139.18,-40.15 286.72,-51.27 430.47,-32.69 128.71,16.74 258.73,65.26 348.85,162.06 114.98,119.3 151.99,291.43 151.21,452.32 1.05,114.84 -27.86,226.54 -48.4,338.64 -126.74,657.82 -254.55,1315.36 -380.89,1973.17 -220.41,3.41 -440.95,4.58 -661.22,5.75 69.85,-321.12 138.27,-642.5 206.93,-963.75 51.42,-249.96 107.65,-499.15 147.29,-751.21 17.13,-124.13 24.84,-257.94 -31.52,-373.57 -39.51,-83.06 -122.95,-137.47 -210.87,-157.09 -175.14,-37.93 -365.84,-2.87 -513.14,100.06 -167.42,116.68 -282.01,297.84 -345.18,489.47 -119.29,559.97 -237.14,1120.2 -354.73,1680.44 -210.87,3 -421.58,4.05 -632.45,5.1 174.11,-946.24 346.12,-1892.74 521.52,-2838.7 210.2,-1.05 420.27,-2.88 630.46,-4.71 -48.77,258.2 -104.12,515.36 -148.18,774.49 102.15,-216.49 238.57,-418.7 413.85,-582.74 135.39,-125.96 297.31,-226.15 476,-277.04zm-14783.52 33.89c188.09,-44.74 391.09,-8.78 558.91,85.41 -71.15,235.83 -142.7,471.54 -213.34,707.52 -167.31,-77.31 -359.31,-119.83 -541.27,-72.48 -198.82,49.72 -358.27,196.61 -468.27,364.42 -72.59,113.03 -139.31,234.27 -163.38,367.82 -108.05,474.42 -216.34,948.59 -324,1423.02 -200.26,1.43 -400.38,2.73 -600.52,4.58 178.69,-916.93 358.41,-1833.74 537.09,-2750.8 5.37,-18.98 3.39,-42.13 15.69,-58.35 193.99,-4.44 388.1,-1.95 582.08,-6.79 -41.99,258.33 -92.34,515.36 -137.08,773.3 90.38,-223.54 201.43,-445.9 374.88,-617.26 103.98,-104.9 234.4,-186.38 379.21,-220.39zm-6383.48 156.04c404.97,0.53 809.94,-0.66 1214.9,0.65 117.86,582.86 18.71,1196.07 -226.41,1733.68 -391.63,864.21 -1134.2,1548.97 -2002.22,1920.45 -530.8,229.43 -1114.69,343.09 -1692.84,303.85 -375.81,-24.84 -748.6,-116.15 -1088.43,-279.92 -478.87,-227.34 -886.18,-610.99 -1121.38,-1088.02 -245.78,-484.62 -311.7,-1052.31 -211.77,-1584.03 210.21,1.97 420.55,-0.52 630.74,1.19 -90.65,435.17 -91.7,894.95 39.77,1322.15 110.12,362.98 319.29,699.15 612.55,942.04 297.43,250.1 674.54,396.08 1059.38,436.77 570.3,60.82 1146.87,-100.21 1641.05,-381.04 809.15,-461.61 1428.38,-1246.83 1684.61,-2142.69 -263.82,-0.53 -527.65,-0.14 -791.49,-0.26 82.67,-395.16 166.13,-790.18 251.54,-1184.82z"/>
  </g>
 </g>
</svg>
