<?xml version="1.0" encoding="UTF-8"?>
<!DOCTYPE svg PUBLIC "-//W3C//DTD SVG 1.1//EN" "http://www.w3.org/Graphics/SVG/1.1/DTD/svg11.dtd">
<!-- Creator: CorelDRAW 2018 (64-Bit) -->
<svg xmlns="http://www.w3.org/2000/svg" xml:space="preserve" width="25.0617mm" height="6.88303mm" version="1.1" shape-rendering="geometricPrecision" text-rendering="geometricPrecision" image-rendering="optimizeQuality" fill-rule="evenodd" clip-rule="evenodd"
viewBox="0 0 25061.66 6883.03"
 xmlns:xlink="http://www.w3.org/1999/xlink">
 <g id="Brend">
  <metadata id="CorelCorpID_0Corel-Layer"/>
  <g id="_1093364032">
   <g>
    <path fill="#114497" d="M647.11 7.26c32.4,-3.98 64.79,-5.96 97.47,-6.25 3249.49,-0.29 6498.69,0.29 9748.17,0 147.77,1.42 298.66,-11.93 442.74,28.7 242.39,68.77 449.84,270.24 503.26,519.74 25.29,103.45 31.55,210.29 28.42,316.57 -0.85,1705.59 0.28,3411.47 -0.57,5117.34 -7.11,283.31 -173.91,569.18 -447.28,669.79 -155.44,76.44 -331.63,52 -498.44,55.13 -3268.24,-0.86 -6536.76,-0.58 -9805.29,0 -274.22,3.98 -543.05,-168.52 -651.32,-421.15 -94.34,-211.99 -59.1,-450.69 -51.71,-675.18 0.56,-1221.93 -0.57,-2443.87 0.28,-3665.8 3.13,-170.78 -23.3,-341.01 -7.1,-511.5 27,-265.7 -27,-532.26 5.96,-797.39 20.47,-329.06 311.74,-601.87 635.41,-630l0 0zm1306.61 1534.51l-91.78 778.35 1013.59 0.96 106.61 -781.01 -1028.42 1.7 0 0zm1853.93 19.62l-395.79 760.2 1273.25 1.21 -72.98 -762.56 -804.48 1.15 0 0zm1759.29 -1.71l-243.8 763.73 1017.55 0.69 263.47 -763.57 -1037.22 -0.85 0 0zm1286.73 1.71l-251.49 763.56c596.19,3.13 1192.66,0.28 1788.85,1.42 179.59,1.42 360.04,85.82 467.17,231.88 108.56,147.2 129.58,342.43 96.62,518.61 -73.32,357.49 -312.02,671.5 -627.16,852.51 -294.12,181.02 -651.04,208.87 -987.78,191.25l471.72 -1417.44 -1321.55 -45.98 -805.46 2430.74c701.33,-0.86 1402.66,4.83 2103.72,-2.85 765.27,-75.3 1468.86,-525.71 1912.74,-1145.77 244.96,-348.96 415.45,-766.41 409.2,-1198.06 0.29,-308.89 -117.35,-622.05 -341.57,-838.02 -251.48,-240.12 -607.84,-353.51 -951.68,-343.56l-1963.33 1.71 0 0zm-5010.77 934.07l-290.71 2592.76 1366.86 0.85 1032.67 -2072.73 214.55 2073.02 1221.08 -1.14 839.86 -2440.17 -992.51 -34.55 -375.62 1181.46 -147.94 -1199.68 -1423.93 -49.55 -237.44 454.13 -390.45 714.12 178.38 -1183.9 -994.8 -34.62z"/>
   </g>
   <g>
    <path fill="black" d="M12235.85 566.51c190.1,-2.55 380.51,0.27 570.9,-1.42 134.4,634.27 260.57,1270.23 391.58,1905.36 182.73,-630.3 328.22,-1271.38 501.28,-1904.8 208,0.57 416.31,-1.14 624.61,1.42 143.49,632.84 294.4,1264 437.62,1897.12 43.19,-120.2 65.35,-246.37 91.78,-370.83 106,-509.52 220.8,-1017.62 323.68,-1527.71 177.6,0 354.93,-0.56 532.52,1.13 -218.23,851.94 -435.06,1704.46 -651.87,2556.68 -204.6,-2.27 -408.93,-0.85 -613.24,-0.85 -150.04,-645.92 -310.32,-1289.56 -454.12,-1936.91 -89.22,252.07 -132.41,517.76 -207.44,774.38 -98.88,388.17 -196.07,776.92 -298.37,1164.24 -206.6,-3.69 -412.9,-1.42 -619.5,-1.42 -220.23,-849.39 -414.88,-1705.31 -629.43,-2556.39zm6976.66 423.7c177.04,-60.53 351.5,-128.46 527.99,-190.41 0.84,180.17 0.84,360.34 -0.29,540.78 134.98,0.58 269.68,0 404.66,-0.84 3.4,120.48 0.56,240.68 3.12,361.17 -136.12,0.57 -271.95,0 -407.78,0.86 2.84,290.42 -1.42,581.13 2,871.82 0.84,76.74 15.63,166.54 82.11,214.84 97.19,48.89 209.73,17.62 313.74,19.6 0.84,105.43 0.55,210.86 0.27,316.29 -249.21,37.79 -529.42,109.12 -760.15,-31.82 -140.38,-106.85 -167.94,-298.39 -166.52,-463.2 1.71,-309.47 -0.86,-618.63 1.42,-927.82 -66.5,-0.29 -133.27,0 -199.49,0 0.85,-120.77 -2.55,-241.54 7.66,-361.74 63.38,0.56 126.75,0.56 190.68,1.13 0,-117.07 0.31,-233.88 0.58,-350.66zm-3525.41 695.35c116.21,-210.57 335.32,-358.9 574.59,-386.75 275.07,-36.94 593.34,12.51 784.3,232.74 212,225.62 228.76,556.7 224.21,849.94 -389.59,0.58 -779.18,-1.97 -1168.79,1.14 0.86,124.76 15.92,262.3 100.59,360.63 102.32,95.46 262.58,87.22 384.77,37.5 79.29,-36.37 114.8,-119.64 148.91,-193.8 160.85,1.13 321.68,-0.87 482.52,1.42 -23.59,207.44 -138.39,410.35 -335.32,495.86 -281.61,119.64 -611.82,123.62 -897.4,15.08 -213.42,-85.83 -350.67,-293.84 -398.14,-512.65 -60.51,-299.24 -55.4,-630.01 99.76,-901.11l0 0zm530.53 19.61c-88.37,77.58 -102.01,202.62 -119.33,311.74 207.15,3.97 414.88,0 622.32,1.99 -8.81,-108.84 -20.18,-231.31 -107.42,-308.6 -111.39,-84.12 -283.32,-91.8 -395.57,-5.13zm1352.36 -212.26c232.18,-190.12 554.42,-238.71 843.71,-184.72 165.96,23.58 326.23,112.82 416.88,256.6 46.89,75.87 58.55,165.96 69.34,252.91 -154.88,0 -309.74,-0.55 -464.33,1.14 -56.27,-160.84 -252.34,-216.26 -398.4,-146.34 -90.38,53.41 -85.83,207.71 18.74,242.11 227.34,105.43 492.48,117.93 705.88,257.73 131.01,86.4 231.31,236.73 221.38,398.41 16.77,179.04 -98.32,340.73 -241.83,435.93 -233.6,154.3 -532.26,203.18 -804.76,146.33 -177.05,-28.69 -358.64,-109.4 -460.67,-262.84 -58.8,-81.85 -70.46,-184.44 -83.82,-281.05 162.54,-4.82 325.37,-1.42 488.22,-3.11 55.4,214.25 357.19,279.03 509.52,132.98 84.38,-81 36.64,-206.59 -58.56,-252.07 -231.31,-118.5 -513.2,-111.67 -731.45,-261.71 -233.01,-163.4 -250.06,-551.02 -29.85,-732.3zm3336.74 -194.67c291.27,-40.35 632.85,24.44 818.69,271.95 179.61,228.77 191.82,533.96 178.75,811.88 -382.22,-2.27 -764.13,-0.29 -1146.06,-0.58 -2.28,129.02 -4.84,273.95 96.04,370.85 109.43,82.41 266.84,82.41 386.48,21.6 71.04,-34.95 98.33,-113.39 136.12,-177.32 157.99,-22.74 321.68,-2.56 482.23,-8.53 -18.47,201.47 -128.44,401.53 -317.42,487.91 -272.79,125.62 -594.19,128.75 -877.8,37.24 -254.33,-86.4 -414.03,-342.14 -447.27,-599.6 -32.69,-256.61 -33.82,-530.55 83.82,-767.55 106.85,-241.54 345.27,-414.32 606.42,-447.85l0 0zm-98.03 474.28c-51.16,71.61 -47.46,161.69 -52.01,245.52 202.6,-0.27 405.51,2.84 608.11,-2.27 -7.66,-116.51 -26.13,-252.07 -131.56,-322.81 -133.55,-79.85 -341.01,-65.93 -424.54,79.56zm3448.68 -464.05c223.36,-62.52 464.33,14.48 639.95,157.44 129.3,109.98 161.98,289.84 162.83,451.54 2.84,401.82 0.84,803.63 0.56,1205.74 -174.47,-1.71 -348.67,-0.87 -523.16,0 -3.97,-345.56 0.58,-691.11 -1.98,-1036.65 -10.52,-121.91 -17.62,-258.33 -103.72,-353.79 -64.5,-77.01 -175.33,-97.77 -270.25,-82.71 -152.6,38.08 -257.74,197.8 -250.92,351.81 -3.98,237 2.55,474.28 -2,711.28 -19.61,136.11 -10.22,273.65 -14.77,410.62 -174.2,-1.98 -348.11,-1.7 -522.3,-0.85 -2.27,-594.21 -2.27,-1188.69 0,-1782.89 172.22,1.15 344.69,1.44 517.19,0 1.14,69.9 0.85,139.82 0.85,210.01 97.48,-111.69 215.7,-217.68 367.72,-241.55zm-1398.68 77.3c112.24,-59.4 242.1,-66.22 366.56,-72.74 -62.79,163.4 -148.62,316.55 -224.47,473.99 -98.06,28.98 -208.87,57.69 -269.13,147.48 -67.9,134.7 -65.92,290.42 -65.35,437.62 0,250.08 -0.29,500.15 0.29,750.2 -177.04,0.58 -353.79,-0.55 -530.55,0.58 0,-594.48 2,-1188.97 -12.5,-1783.16 161.41,1.98 322.82,0.84 484.23,0.84 0.84,103.44 5.66,206.6 14.77,309.74 51.43,-108.25 123.32,-213.12 236.15,-264.55zm-10427.35 2234.43c385.63,5.96 772.67,-17.05 1157.44,22.17 321.66,34.66 638.8,195.22 816.41,472.57 191.81,305.2 212,683.43 179.89,1032.96 -33.82,314 -167.1,640.79 -440.19,819.54 -235.29,166.23 -528.27,207.73 -809.03,221.65 -300.94,0 -601.87,-1.13 -902.81,0.58 -5.69,-856.49 -1.98,-1712.99 -1.71,-2569.47l0 0zm570.34 441.89l-19.04 14.21c-0.57,561.52 -1.42,1123.02 0.56,1684.55 256.05,-5.11 544.47,26.42 762.44,-135.83 222.2,-164.54 271.1,-464.33 262.28,-723.22 7.11,-257.74 -44.05,-556.97 -263.71,-720.65 -216.54,-153.17 -492.75,-120.48 -742.53,-119.06zm1820.11 -442.75c188.67,2 377.37,0.29 566.07,0.58 -0.86,157.14 -0.86,314.58 0,471.72 -188.7,1.42 -377.67,0 -566.36,0.85 0,-157.71 -0.29,-315.43 0.29,-473.15zm2825.51 9.1c193.23,-16.49 387.3,-4.84 581.11,-9.1 -1.69,157.72 -1.69,315.44 -0.27,473.15 -193.81,-1.14 -387.32,1.71 -581.13,-1.98 0.84,-154.04 1.13,-308.05 0.29,-462.07zm3920.12 0.27c178.73,-16.47 358.34,-5.39 537.65,-9.08 -1.42,856.49 2.84,1713.26 -2,2569.75 -167.94,-2.55 -335.61,1.98 -503.26,-1.71 -25.58,-25.58 -36.37,-56.53 -31.84,-92.35 0,-822.1 1.71,-1644.22 -0.55,-2466.61zm-2986.06 422.3c179.59,-61.11 361.18,-119.36 536.23,-193.81 1.13,182.99 0.27,366.01 0.57,549 133.55,-0.84 267.11,-0.55 400.68,-0.55 -0.87,115.93 -0.58,231.88 0,347.82 -133.28,2.55 -266.55,0.86 -399.54,0.86 -1.14,305.19 -3.13,610.67 0.56,915.87 -3.69,87.23 40.36,177.32 127.59,205.74 87.53,11.37 175.9,2.26 263.99,0.28 -0.29,103.15 -0.29,206.31 0.29,309.74 -180.17,45.19 -366.58,51.16 -551.29,42.35 -125.32,-7.95 -252.91,-76.16 -308.33,-192.39 -61.09,-121.9 -63.36,-262.28 -72.75,-395.27 -1.98,-291.55 -1.13,-583.4 -0.27,-874.97 -68.21,-6.53 -136.4,-11.93 -204.33,-14.48 0.56,-115.09 0.56,-229.89 -0.84,-344.71 68.19,-0.56 136.38,-0.84 204.6,-0.84 0,-118.22 -1.14,-236.43 2.84,-354.64zm-2745.09 510.36c197.21,-204.89 523.73,-272.24 784.88,-158.85 86.38,38.08 142.09,117.37 197.21,190.4 1.71,-62.53 1.71,-125.04 2.55,-187.27 178.75,0 357.79,0 536.81,0 0,552.42 0.56,1104.57 -0.29,1656.7 -3.68,198.36 -30.11,410.92 -159.98,569.76 -160.57,198.93 -435.64,253.49 -678.88,250.07 -240.7,6.26 -504.12,-19.32 -697.64,-177.32 -119.64,-96.04 -148.62,-254.32 -172.2,-396.99 168.22,-1.98 337.02,0.58 505.52,-1.98 57.13,296.11 525.44,289 630.87,30.98 53.42,-133.28 62.8,-284.76 28.98,-423.99 -215.97,313.72 -725.49,303.22 -977.25,38.64 -337.61,-379.08 -334.77,-1009.93 -0.58,-1390.15l0 0zm553.84 160.28c-107.98,33.53 -183.86,131.56 -211.7,238.41 -63.09,224.5 -65.08,478.83 44.9,689.4 80.14,146.05 290.99,183.29 425.4,92.63 105.43,-76.15 150.89,-207.16 167.1,-331.35 10.5,-200.32 19.6,-421.41 -102.3,-593.05 -71.9,-102.3 -208.87,-121.62 -323.4,-96.04zm3631.7 -289.58c287.02,-110.54 622.63,-117.09 905.94,8.81 190.1,86.96 297.24,287.3 315.98,489.05 8.82,419.72 -12.77,840.31 13.37,1259.74 -153.73,-1.71 -307.19,-1.44 -460.92,0 -13.65,-74.45 -26.15,-149.48 -36.39,-224.21 -113.09,170.21 -311.71,285.59 -519.44,265.69 -233.6,25.01 -497.02,-97.75 -570.05,-333.05 -118.22,-307.48 72.45,-686.83 387.32,-781.74 208.02,-71.9 431.09,-87.26 649.9,-82.13 -6.26,-97.19 23.01,-213.99 -51.45,-292.42 -68.75,-83.54 -197.49,-115.65 -293.26,-59.67 -94.06,38.08 -118.2,147.2 -145.49,234.44 -167.94,-2.55 -335.88,0.85 -503.83,-2.84 -1.42,-203.46 113.95,-407.22 308.32,-481.67l0 0zm251.2 987.77c-71.88,37.51 -115.36,113.96 -125.03,193.23 -10.51,188.99 216.83,340.74 383.35,237.58 177.32,-96.33 176.75,-328.51 174.48,-504.41 -146.91,-6.25 -300.94,2.86 -432.8,73.6zm-5442.7 -1014.19c179.31,-0.29 358.9,0.55 538.21,-0.58 -1.13,594.78 1.44,1189.55 -1.13,1784.02 -178.46,-0.86 -356.93,-0.55 -535.37,0.29 -3.42,-594.76 0,-1189.26 -1.71,-1783.73zm2841.13 0.28c176.19,-0.28 352.66,-0.57 529.12,0 -0.55,594.19 -0.28,1188.11 -0.28,1782.03 -176.18,1.71 -352.09,0 -527.98,1.13 -2,-594.47 0,-1188.68 -0.86,-1783.16z"/>
   </g>
  </g>
 </g>
</svg>
