<?xml version="1.0" encoding="UTF-8"?>
<!DOCTYPE svg PUBLIC "-//W3C//DTD SVG 1.1//EN" "http://www.w3.org/Graphics/SVG/1.1/DTD/svg11.dtd">
<!-- Creator: CorelDRAW 2018 (64-Bit) -->
<svg xmlns="http://www.w3.org/2000/svg" xml:space="preserve" width="32.6176mm" height="9.84528mm" version="1.1" shape-rendering="geometricPrecision" text-rendering="geometricPrecision" image-rendering="optimizeQuality" fill-rule="evenodd" clip-rule="evenodd"
viewBox="0 0 7137.35 2154.33"
 xmlns:xlink="http://www.w3.org/1999/xlink">
 <g id="ICO-menu">
  <metadata id="CorelCorpID_0Corel-Layer"/>
  <g id="_1624915312">
   <g>
    <path fill="white" fill-rule="nonzero" d="M449.94 678.58c224.14,-4.61 448.55,-1.79 672.94,-1.79 116.3,-3.33 230.03,98.36 225.69,217.48 1.28,193.14 0.76,386.55 -0.26,579.7 -64.55,0.77 -129.36,0.77 -193.91,-0.25 -2.3,-167.53 1.79,-335.06 -1.28,-502.59 2.3,-60.19 -45.08,-123.21 -108.36,-123.21 -132.18,-4.61 -264.87,-2.05 -397.05,0 0.51,207.49 -1.28,415.25 1.02,622.74 -66.86,5.63 -133.98,6.4 -200.58,-1.29 4.1,-263.59 0.77,-527.18 1.79,-790.77zm1049.77 1.79c66.08,-5.9 132.68,-5.64 199.03,-1.03 -0.51,264.1 0,528.2 -0.25,792.31 -66.35,4.35 -133.2,4.87 -199.3,-2.31 3.07,-262.82 2.05,-525.9 0.52,-788.98zm-699.84 303.8c68.14,-1.02 136.27,-0.51 204.67,3.07 -0.26,160.88 -1.79,321.74 0.76,482.62 -68.9,6.14 -138.07,5.89 -206.98,3.32 -1.03,-163.18 -3.84,-326.09 1.54,-489.02z"/>
    <path fill="#EB6000" fill-rule="nonzero" d="M49.82 6.4c40.73,-7.94 82.49,-5.89 123.73,-6.4 632.21,2.56 1264.42,-2.05 1896.38,2.3 52,-3.84 83.77,50.47 80.18,97.09 0.77,649.88 0.51,1300.03 0,1950.17 7.94,60.2 -42.78,111.18 -103.23,103.23 -641.94,1.02 -1283.89,-0.26 -1926.1,0.77 -51.49,5.38 -123.47,-17.16 -119.11,-80.69 -2.05,-657.32 0,-1314.64 -1.02,-1971.95 -3.84,-37.14 9.47,-82.74 49.18,-94.52zm400.13 672.18l0 0c-1.02,263.59 2.31,527.18 -1.79,790.77 66.6,7.68 133.72,6.92 200.58,1.29 -2.31,-207.49 -0.52,-415.25 -1.02,-622.74 132.18,-2.05 264.87,-4.61 397.05,0 63.27,0 110.66,63.02 108.36,123.22 3.07,167.53 -1.02,335.06 1.28,502.59 64.55,1.02 129.36,1.02 193.92,0.26 1.02,-193.14 1.54,-386.55 0.26,-579.7 4.35,-119.12 -109.38,-220.82 -225.68,-217.48 -224.4,0 -448.8,-2.82 -672.94,1.79zm1049.76 1.79l0 0c1.53,263.08 2.56,526.16 -0.52,788.98 66.09,7.18 132.95,6.66 199.3,2.31 0.25,-264.11 -0.25,-528.21 0.25,-792.31 -66.35,-4.61 -132.95,-4.87 -199.03,1.02zm-699.84 303.81l0 0c-5.38,162.92 -2.56,325.84 -1.54,489.01 68.91,2.56 138.07,2.82 206.98,-3.33 -2.56,-160.88 -1.02,-321.74 -0.76,-482.62 -68.4,-3.59 -136.53,-4.09 -204.67,-3.07z"/>
   </g>
   <path fill="#4A4847" fill-rule="nonzero" d="M2694.7 697.02c68.92,-0.51 137.82,-0.25 206.99,2.05 62.5,85.05 122.96,171.63 191.86,251.81 60.96,-86.33 126.3,-169.07 190.08,-253.35 66.09,-0.76 132.18,-0.51 198.27,0.78 -99.14,122.7 -194.93,247.97 -292.79,371.69 102.2,129.63 203.13,260.53 304.06,391.17 -66.34,-0.26 -132.42,0 -198.78,1.79 -74.8,-86.84 -140.38,-181.1 -209.8,-272.05 -72.75,89.4 -138.58,184.45 -214.41,271.53 -63.27,-1.27 -126.54,-1.27 -189.57,-1.02 99.65,-131.15 201.09,-260.77 304.07,-389.37 -96.05,-125.52 -193.91,-249.75 -289.98,-375.02zm924.25 1.02c57.89,-0.76 115.78,-1.02 173.93,-1.02 -0.51,254.64 0,509.51 -0.51,764.15 -57.38,0 -114.75,0 -172.14,0 -1.54,-254.37 1.02,-508.75 -1.27,-763.12zm379.38 23.06c162.15,-50.46 345.05,-67.37 508.48,-12.04 107.58,37.14 152.92,156.52 146.53,262.83 0,152.16 1.02,304.32 -1.02,456.49 -182.65,53.53 -382.96,70.18 -565.87,9.73 -100.15,-30.74 -168.05,-135 -150.87,-239.26 8.44,-84.79 75.82,-150.11 152.16,-179.82 126.54,-49.45 265.13,-52.77 399.1,-51.23 -3.83,-60.46 -33.05,-124.76 -98.37,-136.8 -133.2,-25.37 -270.25,-3.33 -400.64,26.9 3.85,-45.09 -8.19,-94.27 10.5,-136.8zm160.35 418.32c-62.45,30.44 -79.41,128.97 -13.82,165.98 104.25,59.19 231.57,39.97 344.02,19.22 -0.51,-76.6 -0.51,-153.2 -0.77,-229.78 -110.41,-0.78 -228.5,-7.95 -329.42,44.58zm863.02 -442.14c164.45,-45.34 374.51,-29.46 486.45,114.75 98.62,140.65 98.37,339.16 21.01,489.28 -97.86,175.21 -333.27,205.45 -509.77,151.4 -323.03,-101.44 -328.4,-660.64 2.31,-755.43zm54.55 130.64c-136.68,76.04 -139.84,270.14 -86.84,398.59 55.84,145.24 283.32,160.88 365.29,32.29 59.42,-99.65 63.78,-229.27 19.98,-335.83 -46.11,-112.98 -195.71,-146.03 -298.44,-95.05zm637.34 -82.74c173.17,-71.98 387.83,-112.46 551.52,4.87 115.02,-68.39 258.21,-96.32 388.09,-57.13 85.04,26.39 156.77,106.82 152.41,199.04 1.55,189.81 0.26,379.63 0,569.45 -56.6,-0.25 -112.95,-0.25 -169.32,-0.25 -3.58,-180.09 5.12,-360.68 -4.1,-540.51 -34.07,-128.59 -198.53,-110.41 -288.69,-55.08 0,198.53 0.76,397.05 -0.26,595.59 -56.1,0 -112.19,0 -168.03,0 -3.85,-180.09 5.63,-360.68 -4.36,-540.51 -30.49,-123.47 -185.45,-114.5 -278.7,-76.34 -19.72,203.64 -1.79,411.65 -8.72,616.84 -56.35,0 -112.7,0 -169.06,0 -0.26,-238.75 -4.36,-477.24 -0.77,-715.99zm1251.87 -47.65c57.13,-0.25 114.5,-0.25 171.88,0 -2.3,254.62 0.26,509.26 -1.27,763.88 -56.62,-0.25 -112.97,-0.25 -169.07,-0.25 -1.8,-254.37 1.02,-509.01 -1.54,-763.63z"/>
  </g>
 </g>
</svg>
