<svg xmlns="http://www.w3.org/2000/svg" width="28" height="25" viewBox="0 0 28 25"><path fill="#FFF" fill-rule="evenodd" d="M27.963 9.383c-.064 2.633-1.135 5.268-2.941 7.19-2.841 3.02-7.118 6.304-11.114 7.692-2.541.883-4.58-.932-6.426-2.506a22.445 22.445 0 0 1-5.78-7.593c-1.643-3.54-3.067-9.681.606-12.652C3.83.284 6.733-.46 8.586.319c1.994.84 3.405 2.742 4.366 4.099 1.047 1.48 1.488 1.485 2.577.464 1.5-1.406 2.982-2.414 4.69-2.86 2.12-.554 3.925.032 5.637 1.444 1.888 1.558 2.161 3.66 2.107 5.917"/></svg>