<svg data-name="Layer 1" xmlns="http://www.w3.org/2000/svg" viewBox="0 0 60.27 292.96"><defs><style>.cls-1{fill:#036;fill-rule:evenodd;}</style></defs><title>arrow-down</title><path class="cls-1" d="M689.23,633l-.49-.24a.68.68,0,0,0-.19-.78c-.46-.44-.47-.65-.12-1.18a.84.84,0,0,0,.07-.18l-.43,0a.62.62,0,0,1,0-.13l.66-.12a2,2,0,0,0,.16-1.51l-.47.06c0-.4.58-.84-.12-1.07.07-.53.15-1,.19-1.51a11.24,11.24,0,0,0-.17-2,1,1,0,0,1,.78-1,.77.77,0,0,0,.39-.18,6.46,6.46,0,0,0-.81-.36.49.49,0,0,1-.37-.54.5.5,0,0,1,.29-.38c0-.11-.07-.22-.13-.39l.72,0c-.26-.34-1-.13-.91-.89.35.29.63.76,1.21.33l-1.05-1,.28-.1a2.24,2.24,0,0,1,0-.52.81.81,0,0,0-.22-.77.56.56,0,0,1-.14-.75c.07-.11,0-.3,0-.45a5.77,5.77,0,0,1,.08-.58h.16c0,.06,0,.14,0,.18s.16.15.22.14a.3.3,0,0,0,.15-.22.45.45,0,0,0-.07-.28.68.68,0,0,1-.07-.78,1.66,1.66,0,0,0,.06-.56l.19,0c0-.32,0-.32-.67-.3.07-.25.12-.47.2-.76l-.3-.47.49-.14c-.15-.17-.27-.3-.31-.36.14-.65.39-1.2,0-1.82a2.06,2.06,0,0,1-.23-1.16,3.18,3.18,0,0,1,.08-1.27,1.06,1.06,0,0,0-.07-1c.12-.23.25-.45.36-.67.28-.55.24-.65-.4-.82.24-.93-.35-2,.62-2.82a2.56,2.56,0,0,1-.61-2.36,5.24,5.24,0,0,0-.1-.77c0-.72,0-1.44-.06-2.19l.64-.31a1.61,1.61,0,0,1-.39-.11c-.11-.07-.28-.18-.27-.27a4,4,0,0,0-.49-1.92,1.58,1.58,0,0,1,0-1.39c.06-.12.17-.25.17-.37,0-1.14,1-1.59,1.65-2.26a.27.27,0,0,1,.15-.09,9.48,9.48,0,0,1,1.77,0,1.79,1.79,0,0,1,1.1.82c.45-.49.88-.19,1.32.16a2.2,2.2,0,0,0,1.57.71c.17,0,.36.2.53.32s.17.17.27.21a10.42,10.42,0,0,0,1.79.92c.13,0,.24.19.36.31a1.35,1.35,0,0,0,.92.45c.27,0,.55.4.74.68a2.15,2.15,0,0,1,.25,1.44,8.56,8.56,0,0,0,0,1.6,1.26,1.26,0,0,1-.34,1.13c.38.38.17.63-.27.85a.52.52,0,0,1,.57.58,3.58,3.58,0,0,1-.09.93c0,.13-.3.19-.55.34l.71.43c0,.51,0,1-.08,1.55a1.33,1.33,0,0,1-.17.34c.42.53,0,1.23.24,1.89l-.71.15.09.36.42-.13c.23.17.17.61-.08,1,.37.52.36.59-.19.75.41.39.13.76-.12,1.25l.56-.24s0,0,0,.06c0,.81-.08,1.63-.09,2.45,0,.33-.22.67,0,1,.07.09-.09.36-.17.53a2.23,2.23,0,0,1-.31.36l.42.14c.14,1,.12,1.06-.69,1.13.09.16.14.33.24.39a.89.89,0,0,1,0,1.41l.48.57-.89.08c.18.09.25.14.33.17a.85.85,0,0,1,.46,1.25.69.69,0,0,0-.1.66,1,1,0,0,1-.06.92c0,.06-.07.19,0,.22.31.32,0,.68.08,1a2.8,2.8,0,0,1,0,1.19c0,.35-.15.68-.18,1a1.39,1.39,0,0,0,.15.48l-.44.37c.38.08.47.26.39.61a6.82,6.82,0,0,0-.06,1.11,1.27,1.27,0,0,1-.11.52.76.76,0,0,0,0,.66,2,2,0,0,1,0,1.45.65.65,0,0,0-.06.33,10.61,10.61,0,0,1,0,3.6,9.63,9.63,0,0,0,0,1.07c0,.24.16.55-.24.67-.05,0-.07.2-.08.32a4,4,0,0,0,0,.49c.09.15.21.31.3.48s0,.12,0,.18c0,.81-.07.84-.85.69l.75.46c0,.69,0,1.44,0,2.21l-.4-.21-.1.09.35.52c-.09.14-.58.33-.26.52s.23.58.34.87a1.17,1.17,0,0,1,0,.59,7.66,7.66,0,0,1-.23.87l.31.28-.63.37c.05.35.66.49.41,1a.52.52,0,0,1-.13-.06,1,1,0,0,1-.06-.16c-.63.11-.18.67-.4.85.25.37.59.67.62,1a4.32,4.32,0,0,1-.19,1.88,7.69,7.69,0,0,0-.31,1.44.2.2,0,0,0,0,.17c.61.53.22,1.21.28,1.83,0,.13-.08.28,0,.4a.67.67,0,0,1-.47.84c.43,0,.5.24.48.57,0,.56-.08,1.12-.11,1.7l-.54.1.5.13a1.39,1.39,0,0,1-.11.86c-.11.24.25.65-.16.86.59.55.11,1.18.17,1.76h-.32c.48.41.34,1,.36,1.45a5.62,5.62,0,0,1-.08,1,1.14,1.14,0,0,1-.15.3,3.91,3.91,0,0,1,.2.87c0,1.08,0,2.15-.09,3.22a2.61,2.61,0,0,0,0,1.21,1.56,1.56,0,0,1,0,.83,4.23,4.23,0,0,0-.07,1.23,2.3,2.3,0,0,1-.2.81,3.3,3.3,0,0,1,.24.76c0,.49-.07,1-.1,1.47,0,.24,0,.48,0,.71,0,.43-.11.86-.18,1.29,0,0-.12.09-.14.1.06.17.18.31.18.46,0,.71,0,1.43,0,2.15,0,.08-.15.17-.25.28a.78.78,0,0,1,.33,1,12,12,0,0,0,0,2.68c0,.34-.2.68,0,1,0,0-.08.17-.15.24l-.64.51c-.2-.25-.38-.45-.56-.67,0,.68.25.83,1.28.74-.32.8.24,1.64-.29,2.41,0,0,.05.19.05.28,0,.34,0,.68.08,1.1l.2.15-.28.32c.27.46.26.51-.13.8l.43.41L698,689l.3.39c.09.11.27.21.27.31,0,.47-.05.94-.06,1.41,0,.77,0,1.55,0,2.31a1.78,1.78,0,0,1-.22,1.26.54.54,0,0,0,0,.8.8.8,0,0,1,.07.6c-.07.37-.3.73.14,1.11-.61-.18-.91.23-1.26.53a2.16,2.16,0,0,1,.57-.2,2.18,2.18,0,0,1,.56.14,9,9,0,0,1,.12,2,19.63,19.63,0,0,1-.06,2l-.31-.08-.09.08.42.52c0,.18-.11.42-.2.73a1.32,1.32,0,0,1,.18,1.41.94.94,0,0,0,0,.5.81.81,0,0,1-.43.93c.31.29-.12.34-.15.45l.62,1.25-.08.09-.32-.11a.78.78,0,0,0,0,.27c.09.14.32.23,0,.42,0,0,.25.35.22.5-.21.83.25,1.63.1,2.47a4.38,4.38,0,0,0,.19,1.09,1.44,1.44,0,0,1-.13.6,3.79,3.79,0,0,1-.42-.07c-.21.38.22.31.45.47,0,.2-.08.42-.11.65a6,6,0,0,0,.11,1.58c0,.42,0,.42-.45.44l-.46-.7a3,3,0,0,1-.92-.23c-.43-.33-.43-.42-.5-.69s-.11-.28-.17-.43-.08-.26-.14-.39c-.21-.41-.64-.41-1,.07l1.16.32a1.18,1.18,0,0,0,.78,1.57c.43.13.85.31,1.27.48l-.23.21.69.18s0,.08,0,.1a.83.83,0,0,0-.1,1.1.92.92,0,0,1,0,.64,5.67,5.67,0,0,0,.09,2.21,3.81,3.81,0,0,1-.17,1c.21.52.21.52-.24.84.23.14.45.27.19.59-.08.1,0,.33,0,.5-.63.26,0,1-.47,1.33l.46.12c.1.89.21,1.73.28,2.57a1.25,1.25,0,0,1-.38,1.13c.37.14.45.38.36.78a3.85,3.85,0,0,0,0,1c0,.33,0,.61-.62.6.37.21.8.28.45.7,0,0,.07.17.06.25s0,.59-.1.66c-.37.22-.37.56-.42.85l.54.4-.32.4c.57.31.32.9.4,1.4a4.65,4.65,0,0,1,.06.75,5.08,5.08,0,0,1-.18.69l-.72.1V737a1.28,1.28,0,0,0,.43,0c.39-.06.5.15.54.47a4.77,4.77,0,0,1,.11,1.06c0,.18-.21.35-.35.55a.71.71,0,0,1,.21.08,1.53,1.53,0,0,1,.25.22l-.93.22.29.13.47.11c-.06.19-.12.37-.2.58l.39.18-.5.2.48.3-.85.44.54.23c-.35.43.18.63.3,1l-1,.18a6.76,6.76,0,0,1,.8.81,3,3,0,0,1,.24.79l-.67,0a.65.65,0,0,1,0,.13l.52.32c-.35.31-.44.64,0,.93l0,.88a1.59,1.59,0,0,1,.07.2c.07.22.23.46.18.66a6.46,6.46,0,0,1-.36,1.61c-.21.4-.13.66.23,1a3.32,3.32,0,0,0,.29.21l-.55.19c.09.25.19.51.28.77l-.12.09-.42-.36c-.24.26.05.47.15.65a8.77,8.77,0,0,1,.68,1.64c0,.07,0,.15,0,.21l-.49.08a.43.43,0,0,0,0,.11l.55.3c-.4.63-.07,1.25.09,1.93l-.63-.16-.1.08c.11.16.18.38.33.48.46.3.47.28.12.66.42.5.41.64-.15.86.61.41.47,1.06.54,1.63l-.19,0a1.5,1.5,0,0,1,.08,1.78c0,.09,0,.22,0,.35l-.35,0c.3.29.64.57.29,1l.37.33-.34.28c.1.32.43.58.12,1-.09.11.14.47.23.76l-.49.1c.06.07.1.13.14.14.31.07.32.28.33.55,0,.49.09,1,.11,1.46a6.58,6.58,0,0,1,0,.86l-.33.05a4.16,4.16,0,0,1,.45,2.1c0,.11-.16.2-.22.27a3.5,3.5,0,0,1,.29.49,2.9,2.9,0,0,1-.32.2c.09.05.21.11.33.19-.18.47-.56.11-.9.24a2.84,2.84,0,0,1,.65.55,2.48,2.48,0,0,1,.25.71l-.35.19.6.4c-.05.06-.13.16-.22.25.29.37.29.37-.06.71.09.15.23.29.24.44,0,.32,0,.63-.07.95s-.05.41,0,.5a1.07,1.07,0,0,1,.22,1.35c-.19.37-.05.7-.09,1s.17.64.12.93a3.58,3.58,0,0,1-.42.93l.51.17a2.34,2.34,0,0,1-.13.36c-.05.09-.24.18-.23.24.08.44.18.87.29,1.29,0,.13.17.23.22.35a1.87,1.87,0,0,1,.09.41c-.43.37-.43.37-.11,1.14l-.6,0c.19.31.35.53.48.77a.85.85,0,0,1-.27,1c.14.05.31.06.39.15a.57.57,0,0,1,.13.38c0,.55,0,1.1,0,1.65a2.28,2.28,0,0,0,.07,1c.13.31.08.68.3,1s0,.49.07.75l-.32.06c.11.24.21.48.33.75l-.37.19.29.45c-.08.07-.14.14-.21.21a1.63,1.63,0,0,1,.27.33,1.38,1.38,0,0,1,.11.41h-.41c-.17.32-.21.61.18.85a.49.49,0,0,1,.17.35,6.5,6.5,0,0,1,.11,1.31,2.84,2.84,0,0,1-.31.83c0,.06.14.13.25.24-.28.18-.23.38-.06.63a2.06,2.06,0,0,1,.28,1.63c-.05.25.07.39.06.58a6.57,6.57,0,0,1,0,1.93c0,.07.06.17.08.26l.16.84-.64-.08,0,.08.5.42c-.1.25-.21.51-.33.82.19.15.53.32.25.74l-.49-.07,0,.09a1.89,1.89,0,0,1,.35.17c.24.19.51.32.38.78s.25.89.69,1.24l-.37.13a.78.78,0,0,1,0,1.06c.48.51.27,1.13.19,1.66a1.41,1.41,0,0,0,.15,1,1.29,1.29,0,0,1,0,.21l-.1.06c-.1-.11-.19-.23-.28-.35-.34.38.12.43.25.6a1.11,1.11,0,0,0-.08.34,5.06,5.06,0,0,0,.08.52c.05.37-.23.78.2,1.11.09.07,0,.42-.07.62a1.7,1.7,0,0,0,0,1.31l-.31.13.29.33-.36.4.44.12-.2.21.37.26c-.19.51-.28,1,.32,1.34l-.14.08-.53,0c.64.71.65.72.34,1.08.12.42.41.88.29,1.15-.27.58.43,1.3-.34,1.78l.43.19c0,.2.09.39.11.57a5.25,5.25,0,0,1,0,.56.66.66,0,0,0,0,.28,5.5,5.5,0,0,1,.14,2.06c0,.4.16.8.18,1.21a23.43,23.43,0,0,1,.11,2.63c-.07,1,.18,2,.09,3,0,.3-.35.58-.09.91,0,0,0,.17.06.2.31.26.23.56.11.87,0,.1-.1.25-.05.33a6.08,6.08,0,0,1,.32,2.11c0,.39,0,.68-.61.71l.63.47c-.22.63.29,1.39-.31,2,.49.26.47.81.51,1.28s0,1.2,0,1.79.2,1.05.27,1.58a10.85,10.85,0,0,1,.13,1.71,4.47,4.47,0,0,1-.26,1c.19.54.39,1.09.6,1.67.3-.1.3-.37.35-.62l1.2-5.49c.1-.45.18-.92.65-1.15-.42-.53-.29-1.29.31-2.11-.07-.21-.21-.43-.17-.6.23-.81.32-1.64.47-2.47.26-1.37.49-2.76.87-4.11a22.57,22.57,0,0,0,.4-2.3,1,1,0,0,1,.42-.73c-.06-.18-.19-.36-.16-.5.14-.81.32-1.6.49-2.4a.14.14,0,0,0,0-.06,13.77,13.77,0,0,1,.38-3c.08-.67.29-1.32.41-2,.08-.41.05-.84.12-1.25s.24-1.08.37-1.62l.09-.4c.14-.6.28-1.2.41-1.8,0-.06.06-.14,0-.16-.35-.36,0-.73,0-1.08.07-.71.24-1.41.38-2.11a2,2,0,0,1,.18-.36,1.14,1.14,0,0,0,.16-.36c0-.62,0-1.24.1-1.85a5.82,5.82,0,0,1,.32-1.62,1.26,1.26,0,0,0,.14-.63c0-.46.27-.57.68-.29a1.75,1.75,0,0,0,.32.12,1,1,0,0,0,.08-.11l-.92-.76c.11-.34.24-.74.36-1.14a.49.49,0,0,0,0-.27.79.79,0,0,1,.19-1,8.88,8.88,0,0,1,.07-1c.23-1,.5-2,.7-3.09.08-.41.24-.59.65-.56a1.06,1.06,0,0,0,.31-.12l-.57-.24c0-.09.17-.21.16-.31,0-.45.07-.71.6-.64.12,0,.27-.17.49-.32l.42.22a2,2,0,0,0-.16.19c-.19.29-.13.42.2.47.5.07.74-.28,1-.59.69.15.81.29.78,1,.07,0,.15.09.21.07.67-.13,1,.35,1.4.73a2,2,0,0,0,1,.68.66.66,0,0,1,.57.67,7.89,7.89,0,0,1,.18,1,3.66,3.66,0,0,1-.23.89l.79.3a4.39,4.39,0,0,1,.17,1.16c0,.3-.31.57-.48.87l1,.48c-.18.18-.46.4.06.66-.53.16-.49.64-.73.91.13.37.75,0,.69.52,0,.13-.19.24-.29.37a2.14,2.14,0,0,1,.21.77,3,3,0,0,1-.4.84l.38.32c-.55.3-.21.87-.4,1.34l-.65,0c-.26.77.53.68.83,1-.2.24-.53.47-.16.83a3.81,3.81,0,0,1-.22.89,5.41,5.41,0,0,0-.06.74l-.42.15c.06.1.12.18.2.33l-.68,0c.18.38.82.19.76.76l-.51-.19c-.11.4-.11.4.54.67l-.86,1.25.77.21c-.06.22-.11.42-.16.62.44.34.44.37,0,.89l.43.42-.09.12-.47-.19c0,.08-.07.15,0,.18a.69.69,0,0,1,0,.72,5.16,5.16,0,0,0-.23,1.05c-.07.43-.13.87-.19,1.3s0,.57.51.48a.76.76,0,0,0-.29.91c.15.53-.1.8-.78.86.4.11.42.35.51.61.17.48,0,.91,0,1.36,0,.18-.18.37-.3.59.26.41.19.61-.44.94a3.53,3.53,0,0,1,.28.25,3.76,3.76,0,0,1,.22.33c-.29.2-.74.29-.5.79,0,0-.13.17-.23.3l.32.12c0,.53-.07,1.06-.1,1.62l-.52,0c.09.22.18.4.27.62l-.73.25,0,.13.67.07v.12l-.87.13c.29.32.61.07,1,.13l-.27.3a.54.54,0,0,0-.13.65c.28.66.24.75-.49,1.06l.19.41-.54,0-.52,0,.64.65-.06.08.76.1-.64.24.46.57c-.14.52-.29,1.13-.47,1.73a1.11,1.11,0,0,0-.06.6c0,.25-.15.53-.25.79,0,.06-.14.14-.13.16.18.24-.07.33-.14.5s0,.41.05.66l-.57-.23a1.62,1.62,0,0,0,.05,1.13,1,1,0,0,1,0,1,.36.36,0,0,0,0,.23,1,1,0,0,1-.63,1l.34.21c-.16.09-.3.19-.48.3l.5.39,0,.13-.61,0a3.06,3.06,0,0,0,.15.82.49.49,0,0,1-.22.71c.07.21.12.4.19.62l-.43.38.16.19-.45.32a.14.14,0,0,0,0,.06l.32-.05c.13,1.07.1,1.13-.69,1.47l.47.19c-.1.31.17.74-.49.81.43.24.27.56.22.86s-.34.55-.82.64l.61.25c-.23.53-.07,1.16-.48,1.67-.07.08,0,.26,0,.39a.78.78,0,0,1-.15.22,1.25,1.25,0,0,0-.19-.15,3.32,3.32,0,0,0-.42-.15c.24.55.76.91.39,1.41s.07,1.17-.75,1.33l.21.38-.22.09c.19.84.16.91-.33,1.19.05.21.17.41.13.57-.15.55-.36,1.09-.55,1.63a.84.84,0,0,0,0,.2c0,.2.06.39.09.63l-.66,0,.38.36a.49.49,0,0,0-.22.69.44.44,0,0,1,0,.34,4.38,4.38,0,0,0-.6,2.78c-.39,0-.54.13-.31.55l-.46,0c0,.36.06.72.05,1.07a2,2,0,0,1-.2.52c-.22.57-.65,1.08-.57,1.75a.69.69,0,0,1,0,.35,7.11,7.11,0,0,0-.52,1.68,1.57,1.57,0,0,1-.81,1.22c0,.15,0,.3.07.44s-.43.25-.23.61c.08.14-.1.45-.22.65s-.33.39-.47.6c-.25.39-.48.79-.72,1.19,0,0,0,.08,0,.1.3.45-.08.73-.29,1a10.39,10.39,0,0,1-2.43,2.65,6,6,0,0,1-3.58,1.12c-.08,0-.17,0-.24,0a21.67,21.67,0,0,1-3.69.08l-1.19.09a24.32,24.32,0,0,1-3.62-.18,2.07,2.07,0,0,1-1.78-1.12c-.1-.21-.37-.34-.56-.51a7.72,7.72,0,0,1-1.33-2,17.09,17.09,0,0,1-.62-1.6c-.16-.35-.39-.66-.57-1s-.26-.65-.42-1-.35-.53-.48-.82c-.43-1-.83-2-1.26-3a7.19,7.19,0,0,1-.41-.77,4.37,4.37,0,0,0-.34-.87c-.53-1.09-1-2.2-1.49-3.32s-.86-2.27-1.31-3.4c-.13-.35-.36-.67-.5-1-.24-.55-.42-1.12-.65-1.67-.43-1-.88-2-1.3-3.06s-.75-1.93-1.13-2.9c-.17-.45-.35-.89-.51-1.34a5.29,5.29,0,0,1-.15-.57c0-.09,0-.21-.05-.28a22.37,22.37,0,0,1-1.77-4c-.2-.49-.41-1-.61-1.49l-1.65-4.15a15,15,0,0,1-.73-1.77c-.27-1-.87-1.83-1.16-2.8s-.52-1.69-.83-2.52c-.13-.32-.43-.58-.56-.9-.78-1.85-1.53-3.72-2.3-5.58-.38-.92-.79-1.82-1.18-2.74-.11-.27-.18-.57-.29-.84-.28-.65-.57-1.29-.85-1.93s-.45-1-.66-1.47c-.4-1-.8-1.91-1.18-2.87s-.73-1.89-1.07-2.84c-.27-.79-.54-1.59-.73-2.4a2.68,2.68,0,0,1,.28-1.77c.17-.34.36-.66.55-1a2.65,2.65,0,0,1,2.11-.89c.3.07.43.22.44.42l1.5.36,1.38.37a1.08,1.08,0,0,1,.44.18,1.84,1.84,0,0,0,1.57.36c.21.76,1,.85,1.44,1.3s1.12,1,1.63,1.48a11,11,0,0,1,.9,1.22l.73-.32c.67,1.7,1.35,3.42,2,5.13.13.33.3.64.42,1s.19.42-.1.62c-.14.1,0,.34.14.35.46,0,.51.36.63.67.19.54.4,1.08.62,1.67l-.28.25.44.17c0,.25.06.51.12.76s.07.45.2.55c.6.47.57,1.21.86,1.81,0,.09-.08.26-.14.42.39,0,.4.47.54.8A9.78,9.78,0,0,1,682,833a1.71,1.71,0,0,1,.11,1c-.21.52,0,.89.2,1.3s.29.61.44.92l-.43.22a.94.94,0,0,1,.88.69c.14.31.53.51.77.79a2.33,2.33,0,0,1,.61,1.68c0,.19.13.39.25.68l-.45-.28a6.86,6.86,0,0,0,.22,1,12.69,12.69,0,0,1,.66,1.78c.08.42.55.76.29,1.25,0,0,.06.09.09.13a1,1,0,0,1,.22,1c-.07.32-.08.6.38.64.11,0,.28.24.29.37a8.42,8.42,0,0,1-.09,1.08.87.87,0,0,1,.45,1.09c.22.21.42.42.65.62s.47.51.25.92a.49.49,0,0,0,.1.47c.45.24.35.72.48,1.08.07.17,0,.36.24.48s.07.31.1.51c.5,0,.46.57.61.9a2.23,2.23,0,0,1,.13,1c0,.37,0,.67.43.78a.15.15,0,0,1,.1.07c.08.65.71,1,.91,1.56.11.32.22.58-.31.71.21.08.41.11.41.16.06.78.94,1.35.59,2.25.07.05.13.12.2.13a.75.75,0,0,1,.77.71c.07.44.16.88.26,1.38a.56.56,0,0,0,.25-.83A1.31,1.31,0,0,1,693,860a4,4,0,0,0,0-1.59c0-1.09-.09-2.19-.16-3.28,0-.55-.1-1.1-.19-1.65a2.75,2.75,0,0,1,.07-1.45.33.33,0,0,0,0-.17,29.08,29.08,0,0,1-.48-6.11c0-.85,0-1.7,0-2.56-.05-1.38-.22-2.75-.19-4.13,0-.77,0-1.53,0-2.3a1.62,1.62,0,0,1,.16-.43c-.37-.6-.37-.81,0-1.22-.1-.11-.27-.21-.28-.32,0-.64,0-1.28-.06-1.92,0-.35-.15-.73.26-1-.49-.27-.42-.69-.39-1.1,0-.2,0-.4,0-.59a3.45,3.45,0,0,1,.11-.4s0-.1,0-.12a6.25,6.25,0,0,1-.36-2.42,12.6,12.6,0,0,1-.09-1.74c0-.38,0-.77,0-1.15,0-.05.12-.09.16-.12a2.7,2.7,0,0,1-.25-1.93c0-.06.08-.14.06-.19a5.46,5.46,0,0,1-.21-2.54,1,1,0,0,1,.12-.27,2.55,2.55,0,0,1-.28-.71c-.09-1.37-.14-2.74-.19-4.11,0-.71,0-1.42,0-2.12a15.88,15.88,0,0,0-.27-1.68c0-.19-.06-.38-.1-.61l.89-.17a.34.34,0,0,0,0-.1c-.12,0-.24,0-.36-.1a.77.77,0,0,1-.51-.68c0-.47-.07-1-.06-1.42,0-.29-.13-.64.24-.85,0,0,0-.21,0-.31s-.14-.52.16-.67l-.52-1.18c.41-.47-.47-1,0-1.41-.06-.3-.13-.54-.16-.78,0-.52-.08-1-.11-1.58a1.06,1.06,0,0,1,.65-1.15c-.74-.13,0-1-.69-1.13l.36-.69a1.31,1.31,0,0,1-.4-1.44.69.69,0,0,0,0-.4.84.84,0,0,1,.07-.8.3.3,0,0,0,.06-.21c-.29-.36-.08-.77-.11-1.15a12,12,0,0,1,0-1.7,4,4,0,0,1,.21-.82.9.9,0,0,1-.34-1l.42.44c0-.46-.27-.62-.57-.73a5.65,5.65,0,0,0-.24-2.45l.2-.11c0-.23,0-.42,0-.62s.11-.23.07-.28c-.42-.56-.06-1.11,0-1.66l.9.78.11-.08c0-.14-.06-.36-.15-.4a1.32,1.32,0,0,1-.61-.49c-.14-.2-.33-.08-.24.2-.11-.07-.33-.16-.32-.22a1.32,1.32,0,0,0-.22-1c-.07-.11,0-.3,0-.48a1,1,0,0,1,.87-.11c.09,0,.38-.08.39-.16a1,1,0,0,0-.12-.56.77.77,0,0,0-.37-.24s-.16.12-.17.2a1.4,1.4,0,0,0,.07.4c-.66.18-.71.14-.68-.49a7.57,7.57,0,0,0-.06-.79l.38-.29-.15-.13c-.12-.11-.36-.27-.34-.33.15-.43-.12-.8-.14-1.24l.7-.19-.85-.29.6-.78c-.35-.48-.28-1.2-.81-1.8l2.19-.6,0-.1a1.69,1.69,0,0,0-.68,0,1.18,1.18,0,0,1-1.4-.25c.26-.59.92-1,.89-1.82l-.45.24c0-.45,0-.86,0-1.38.31.2.6.38.87.58s.43.27.67,0c-.46-.25-.9-.47-1.33-.73-.18-.11-.5-.17-.32-.53,0,0-.07-.13-.12-.18a.5.5,0,0,1-.09-.81c.13-.18,0-.61-.12-.9a.65.65,0,0,1,0-.62,1.38,1.38,0,0,0,.16-1.24.38.38,0,0,1,0-.23,2.55,2.55,0,0,0-.41-2.09c-.11-.21-.16-.35.1-.47a2.6,2.6,0,0,0,.38-.27l.37.54c.11-.4.18-.67.27-1l-.95.13,0-.12.3-.08c-.13-.28-.12-.62-.5-.78s-.14-.39,0-.57a.89.89,0,0,0,.18-.75c0-.07,0-.18-.08-.2-.42-.2-.31-.54-.27-.93l.3.38c.21-.36.18-.59-.26-.74.57,0,1-.15,1-.85l.67.33c.21.09.43.2.5,0a4.12,4.12,0,0,1-.5-.86c0-.12.21-.32.33-.49a4.8,4.8,0,0,1-.54-.35c-.16-.13-.29-.32-.51-.18a.44.44,0,0,0-.12.64.84.84,0,0,0,.15.18s-.05.07-.08.07c-.85,0-.79,0-.73-.86a14.55,14.55,0,0,0-.11-2,3.13,3.13,0,0,1,0-.53c0-.38.08-.72-.31-1s-.22-.44,0-.64c.09-.07.23-.06.45-.11l-.47-.45.36-.08-.26-.24.33-.23a.52.52,0,0,1-.27-.82c.08-.15,0-.39,0-.58s0-.3.19-.51c-.09-.18-.18-.37-.26-.56l.1-.1.54.34c.23-.06.18-.28.21-.5.06-.41.18-.81.27-1.21.35.26.6.17.81-.22l-.31-.27c.09-.14.24-.27.22-.36a.53.53,0,0,0-.59-.43c-.05.46-.09.88-.13,1.29l-.21-.57c-.29.15-.55.32-.82,0l.29-.5-.33-.24c0-.4.35-.38.62-.42l-.68-1.3c-.06-.11-.16-.28-.13-.31.51-.54-.18-1.06,0-1.63.07-.27-.29-.66-.47-1l.33-.22c-.08-.28-.56-.33-.33-.76a.47.47,0,0,0,.63.25,1.62,1.62,0,0,1,.74.1,3.09,3.09,0,0,0,.8.11l-.85-.65.13-.07c0-.17.1-.37,0-.49-.23-.38-.57-.09-.86-.07l-.66-.66c.14-.14.4-.27.43-.45s-.21-.34-.34-.53c.08-.28.16-.58.24-.88l.18-.09c0,.14.06.27.1.43.35-.41,0-.58-.34-.86l.43-.38c0,.12.07.24.13.48a1.24,1.24,0,0,0,1.32.17c-.42-.34-.12-.93-.54-1.29,0,.21-.07.35-.1.54l-1-.27.21.38c-.26,0-.47-.14-.49-.44s-.4-.71,0-1.08c0,0,0-.18-.06-.28-.13-.66,0-.84.62-1a.26.26,0,0,0,.16-.17l-.69-.13a10.76,10.76,0,0,1-.07-1.51c0-.14.36-.26.65-.47,0-.19-.1-.49-.15-.79l.84,0c-.5-.21-.85-.49-.73-1.15l-.79.63c-.29-.22-.31-.44-.13-.66a2.07,2.07,0,0,1,.49-.49c.24-.15.47-.29.42-.59s-.35-.4-.64-.44l-.66-.1.36-.21c0-.37.08-.68.12-1L687,728c.38-.2.22-.44-.05-.7l.49-.2c-.5-.52,0-1.05-.07-1.63-.72,0-.21-.69-.54-1,.36-.21.39-.52.43-.91a1.93,1.93,0,0,1,.64-1.38c.2-.17.28-.32.15-.57a2.47,2.47,0,0,0-.39.29,3.72,3.72,0,0,0-.38.52c0-.34-.06-.56-.09-.85l.36-.18c-.11-.27-.21-.54-.32-.83l.64-.41c-.26-.58-.76-1-.83-1.59a1,1,0,0,0-.11-.34c-.23-.5-.14-.77.41-.92.32-.09.44-.23.36-.55a2.68,2.68,0,0,1-.63.32c-.1,0-.24-.14-.47-.3l.65-.25-.32-.32a2.55,2.55,0,0,0,.25-.59,3.61,3.61,0,0,0,0-.68c.33.19-.07.94.61.83,0-.28,0-.55.05-.93l-.86-.53s0-.09,0-.13l1.57.16.06-.15-1.11-.71.41-.31a2.89,2.89,0,0,0,0-.49.69.69,0,0,0-.21-.38c-.13.42-.17.86-.78,1,.37-.54-.13-1.13.26-1.65l-.25-.19a.36.36,0,0,1,0-.11c.07-.22.17-.43.22-.65a3.08,3.08,0,0,1,0-.53c.21-.55,0-.95-.55-1.3h.5c-.06-.24-.12-.47-.19-.71l.51-.21c-.63-.16-.74-.5-.49-1-.1-.07-.22-.16-.4-.31l.5-.25c0-.26,0-.56-.08-.9l.49-.17-.84-1.15.52-.68c-.1-.79-.22-1.69-.34-2.59h.29l-.27-.34.32-.48c.14.58.44.63,1.11.12-.27,0-.47-.1-.68-.12a3.23,3.23,0,0,0-.44,0c-.2-.48-.66-.89-.39-1.49,0-.12.08-.28.18-.34.39-.24.29-.51.09-.81-.08-.12-.14-.25-.25-.45l.9.29a.91.91,0,0,1,.07-.14l-.26-.22,1-.6-1.52-.19c0-1,.16-1.34.66-1.3l-.28.53.09.1,1.2-.63c0-.16,0-.33-.07-.5l-.14,0-.38.58c-.16-.35-.28-.6-.41-.86s-.12-.62-.19-.93c-.5-.24-.3-.65-.22-1,.11-.5.54-.52,1-.52l-.39-.36c.08-.15.35-.25.1-.5a1.08,1.08,0,0,1-.13-1.42.79.79,0,0,0,0-1c-.1.35-.16.59-.25.92-.19.09-.46.28-.75-.06,0-.34.07-.69.1-1a.91.91,0,0,1,.05-.41,1,1,0,0,0-.05-1.25c-.08-.11,0-.36.06-.55a2.34,2.34,0,0,0,.12-.63c-.05-.54-.16-1.08-.23-1.62,0-.09,0-.19.09-.2l1-.78-.06-.13a1.79,1.79,0,0,1-.39.13.7.7,0,0,1-.26-.08l.13-.28-.5-.48c.38-.41.11-.84.06-1.25,0-.19-.28-.39.11-.48l-.15-.3.56-.3c0,.11.06.21.12.4.13-.19.26-.31.27-.44a.61.61,0,0,0-.12-.46,4.2,4.2,0,0,0-.66-.43l.83-.36v-.11l-.58-.16c.06-.16.1-.28.15-.45l-.39-.08a3.75,3.75,0,0,1,.16-.43c.1-.2.29-.4.29-.61s-.26-.28-.47-.49l.61,0c-.43-.22-.32-.69-.52-1s-.06-.71.28-1l-.25-.34.39,0a.38.38,0,0,0,0-.16,3.22,3.22,0,0,1-.48-1.61c-.07-.5.23-1,0-1.48l.92-.61-.42-.29,2-.55c0,.11.09.29.16.54l.8-.22-.8-.57.43-.09-.18-.81-.2.3c-.35-.14-.35-.14-.24-.55l-.79.08c0,.24-.07.45-.12.75l-.77-.52c0,.17,0,.28,0,.4-.52,0-.51,0-.61-.59a1.58,1.58,0,0,0-.26-.43l.64-.21-.6-.13.51-.53c-.19-.36-.38-.69-.59-1.08l.84-.16-.71-.24.28-.42.21.26a3.3,3.3,0,0,1,1.33-.25,2.51,2.51,0,0,0,1.11,1.47c0-.29,0-.55,0-.76l-.74-.43.58-.25-.43-.62-.29-.43c.32-.16.32-.16.37-.81l-.32-.22.17-.23c-.15,0-.3-.08-.38,0-.49.31-.83-.06-1.17-.29-.12-.07-.17-.29-.21-.45s-.06-.62-.21-.82a.49.49,0,0,1-.06-.62,2,2,0,0,0,0-.77c.29-.09.55-.35.87,0,.1.13.46,0,.73.05-.21-.69-.39-.8-1-.7a3.05,3.05,0,0,1-.43,0c.09-.53.16-1,.25-1.49l-.45,0c.39-.31,1-.21,1.14-.76l.74.12c.16-.54-.19-.6-.49-.67a2.94,2.94,0,0,0,.09-.39s-.13,0-.2-.07c-.05.19-.1.37-.17.61l-.36-.34s-.07.09-.07.14c0,.2,0,.4,0,.6s-.17.37-.49.16l.33-.17a6.17,6.17,0,0,0-.19-.61c-.19-.36-.22-.65.24-.79l-.36-1.33.5.14c.2-.3,0-.52-.19-.73a1.76,1.76,0,0,0-.29-1.68l.61.16c-.13-.63-.57-1.15-.42-1.83l.4-.06c-.49-.59.22-.71.43-1.08a1.1,1.1,0,0,1-1-.07c-.05,0,0-.18-.05-.32l.57-.09c0-.58,0-1.12.07-1.75a1.47,1.47,0,0,1-.43-1.42.37.37,0,0,0,0-.18c0-.17-.15-.41-.08-.5a4.06,4.06,0,0,1,.64-.55,7.09,7.09,0,0,1,.56.64,1,1,0,0,1,.08.44,4.46,4.46,0,0,0,.52-.08,1.5,1.5,0,0,0,.38-.19,2.74,2.74,0,0,0-.23-.36c-.25-.28-.52-.54-.77-.82a1.27,1.27,0,0,1-.09-.32l.44.12c-.06-.25-.1-.46-.15-.69.55-.09,1.14.21,1.71-.09a1.14,1.14,0,0,1-1-.77l-.57.49a3.29,3.29,0,0,0-.67-.42,2.19,2.19,0,0,0-.68-.05c0-.19,0-.47-.08-.79l.46.09c-.14-.23-.23-.39-.28-.49a5.62,5.62,0,0,0-.05-.74,3.67,3.67,0,0,1,0-1.44c0-.21-.15-.52-.05-.66a.5.5,0,0,0,0-.65l0,0c-.21-.31,0-.41.22-.47-.08-.42-.17-.81-.24-1.21,0-.07,0-.19.06-.22.41-.25.12-.54,0-.89h.7q.39,0,.3-.39l.91.25c-.13-.5-.26-.94-.4-1.45l-.53-.19a1,1,0,0,1,0,.1l.5.3C689.4,632.72,689.32,632.88,689.23,633Zm1.32,54.64a1.59,1.59,0,0,0,.52-1.19c-.14.06-.32.12-.31.14.07.39-.2.58-.5.77l.3.27.51.64.54-.51c-.26-.06-.42-.11-.58-.13S690.71,687.67,690.55,687.67Zm5.33,94.64a1.4,1.4,0,0,0-1.19-1.06l1.2,1.06a2.77,2.77,0,0,0,.94,1.1c0-.31,0-.5-.06-.67Zm2.79-5.22c0,.13.08.36.05.37a7.49,7.49,0,0,1-.8.27c.3.45.71.13,1.08.21.09-.4.07-.7-.34-.85,0-.12,0-.32-.06-.35a.58.58,0,0,0-.43,0,2.59,2.59,0,0,0-.51.35Zm-6.36,8.36.68-.14s0-.08,0-.12l-.49-.13c0-.24.57-.06.31-.5l-.81.26.33.64c-.4-.15-.5.16-.68.37a1.06,1.06,0,0,0,1.52-.12l-1,.14C692.22,785.7,692.26,785.57,692.31,785.45Zm.5-55.8c0,.08-.09.23-.14.23a7.7,7.7,0,0,1-.79-.07c.3.53.63.75.87.61s.26-.4,0-.76-.2-.53.06-.75l-.27-.44c-.21.33-.4.64-.59,1Zm-.6-12.59c.29.24.49.69,1,.52l-.58-.48c-.15-.12-.3-.21-.47,0l-.71-.84c-.21.33-.43.58-.18.91a1.07,1.07,0,0,0,.14.16l.28-.26c.06.18.1.32.17.55Zm-3.74-19.76a4.67,4.67,0,0,0-.75.1.4.4,0,0,0-.24.28,3.12,3.12,0,0,0,0,.61l.12.05.83-1.05c.17.36.33.73.5,1.09a1.26,1.26,0,0,0,.37-1,.4.4,0,0,0-.27-.24A2.56,2.56,0,0,0,688.47,697.3Zm1.17-5.79a.91.91,0,0,0,1,.12c-.72,0-.65-.53-.73-1a1.16,1.16,0,0,0-.29.51.84.84,0,0,0,.06.38,2.34,2.34,0,0,1-.4-.12c-.35-.19-.48,0-.53.3a4.22,4.22,0,0,0,0,.53l.74,0C689.51,692,689.58,691.75,689.64,691.51ZM692,726.69l-.83.81c0,.07.09.22.13.32l1.1-.37c0-.09,0-.25,0-.4.23.15.45.17.59-.12a.74.74,0,0,0-.37-.87c-.08.34-.15.67-.22,1l-.41-.36c.14-.11.31-.19.21-.43s-.17-.42-.28-.7l-.63.48.31.22-.34.37Zm-.28-93.51-.13-.26,1-.65c-.49-.33-.65.14-.93.33l-.56-.4c.06.28.11.48.15.69s.24.34.49.28c0,.47-.13.55-.56.54-.26,0-.52,0-.78,0a1.43,1.43,0,0,0,1.73.16,4.27,4.27,0,0,0-.14-.66S691.79,633.2,691.7,633.18Zm1.52,74.09c0,.1,0,.26,0,.3a1,1,0,0,0,1.12-.06l-1.13-.24c.24.05.49.16.68-.13-.29-.67-1.09-.55-1.44-1.1l-.42.56Zm2.19,51.43c.05-.21.11-.42.19-.71-.05-.07-.15-.23-.27-.39a2.64,2.64,0,0,0,.46-.17.34.34,0,0,0,.1-.29.44.44,0,0,0-.3-.23.94.94,0,0,0-.47,0,.55.55,0,0,0-.32.21,1.14,1.14,0,0,0,.62,1.55c0,.25.08.49.12.7.59.09,1.09.2,1.54-.19l-.31-.47-1,.25c0-.21,0-.32.06-.46Zm-4.32-10.56.21-.52c-.39-.07-.3-.66-.73-.69,0,0-.06.05-.13.13l.65,1.09c.48.25,1,.51,1.45.74a12.51,12.51,0,0,0,1.31.55,1.85,1.85,0,0,0,.62-.06c-.32-.2-.52-.35-.74-.47a.89.89,0,0,0-.43-.15.59.59,0,0,1-.66-.54.64.64,0,0,0-1.09-.36Zm.1,29c.18-.5.18-.5-.35-.94a1.66,1.66,0,0,1-.36.17,2.9,2.9,0,0,1-.51,0,2.7,2.7,0,0,0,0,.47,1.79,1.79,0,0,0,.19.32c-.52.3-.55.62-.15,1,.09-.1.16-.26.27-.3.39-.11.79-.18,1.15-.26-.07-.25-.51-.07-.37-.46ZM691,658.24c-.2.66-.11.78.68,1-.15-.24-.37-.45-.38-.66s.23-.38.38-.61a1.31,1.31,0,0,1-.23-.38,1.14,1.14,0,0,1,.08-.44l-.64.05,0-.13.33-.15c-.45-.21-.07-.39,0-.65l-.62-.09c-.11.39-.19.69-.27,1l.25.16-.6.39.32.39c-.47.06,0,.31-.07.5h-.42c0,.12,0,.2,0,.29l-.43-.15c.32.64.35.65.8.25C690.43,658.8,690.67,658.55,691,658.24Zm4,130.85c0-.06,0-.13-.08-.19-.29.21-.53.17-.68-.1-.34.17-.2.36-.12.57.2.54.19.56-.31.8,0,0,0,.07,0,.18l1.39-.17-.31.39.47.49c.12-.44.45-.26.76-.2-.11-.35-.2-.65-.29-1l.82-.14a2.67,2.67,0,0,1-.78-.27c-.55-.41-.63-.41-1,.21a1.17,1.17,0,0,1-.16.16c-.09-.18-.14-.29-.2-.4Zm-1.11-13.62.56.48a1.71,1.71,0,0,1,1.27-.65c0-.31.06-.57,0-.83a.58.58,0,0,1,.41-.62,1.09,1.09,0,0,0-.64.24.48.48,0,0,1-.68.16c-.35-.24-.63-.13-1,0C694.19,774.68,694.33,775.09,693.91,775.47Zm-2.39-124.25,1.05.38c0-.14,0-.25,0-.43l.77.58-.45.74.61.09a2.23,2.23,0,0,1,.11-.4c0-.12.13-.24.18-.37.15-.35,0-.52-.4-.5a.42.42,0,0,1-.15-.06c.06-.16.11-.31.14-.42-.44-.7-1.11-.24-1.65-.39,0,0-.17.17-.19.27A4.12,4.12,0,0,0,691.52,651.22Zm2.53,31.45c.18-.29.25-.7.66-.72l.58.48c-.16-.52-.37-.73-.82-.68-.17,0-.37-.13-.52-.19l-.35.66-.12-.05c0-.17,0-.35.06-.57l-1.71-.23.49.68-.44.05.74.46a1.6,1.6,0,0,0,.15-.24Zm.35,83.57c-.22-.54-.3-1.12-.91-1.33a2.56,2.56,0,0,0,.11.24l-1,.24.68.33.27-.45c.59.25.12.47,0,.7l.9.78a4.83,4.83,0,0,0,.48-.06,4.11,4.11,0,0,0,.46-.15,5.53,5.53,0,0,0-.24-.61c0-.06-.16-.07-.27-.12.11-.19.19-.34.32-.59C694.61,765.43,694.36,765.69,694.4,766.24ZM697,635.43c0-.26.08-.43.11-.6-.79-.58-1.49-.22-2.14.17,0,.23,0,.44,0,.68l.85.62.06,0c-.16-.26-.33-.51-.58-.89.35,0,.61,0,.87,0Zm-4.49,103.19a3.48,3.48,0,0,1,.07.54c0,.17-.08.35-.07.52s.08.36.17.39a1.15,1.15,0,0,0,.55,0c.08,0,.14-.14.21-.21a.8.8,0,0,0,.14-1.11c-.22-.42-.52-.26-.82-.18Zm.25,34.68c-.54-.15-1-.29-1.47-.39-.09,0-.22.12-.32.19.07.11.12.25.22.3a.87.87,0,0,0,.4.06c-.23.51-.2.61.28.85s.85.35.86.93c.27-.38.24-.54,0-.82a4.07,4.07,0,0,1-.45-.74Zm-2.4-5.21.44-.16a.52.52,0,0,1,0,.11c.16.06.34.21.46.16s.29-.25,0-.37c0,0,0-.15,0-.22a1.23,1.23,0,0,1,.65-.87,3.49,3.49,0,0,0,.69-.54c-.38-.26-.5-.33-.64-.17-.33.35-.92.41-1.09.93-.06.18,0,.43-.08.55s-.34.13-.53.19A3.69,3.69,0,0,1,690.32,768.09Zm1.26-6.42-.63.15,1.3.71.09-.1-.43-.52c0-.55.74-.84.51-1.49l-.77.35-.44-.41-.13.08C691.24,760.85,691.41,761.25,691.58,761.67Zm2.68-89c.09.21.15.36.23.53l-.74,0v.1l1.6.85.51-.55c-.85-.53-.85-.53-.54-1.15a2.73,2.73,0,0,1-.51.26A2.57,2.57,0,0,1,694.26,672.63Zm0,128.78c.17.21.77.27.27.7,0,0,.06.1.08.16s.11.22.17.34c.7-.64.61-.91-.45-1.75l-.74.2c-.08.59.19.83.84.74Zm-4.21-91.65-.57-.78c-.44.29-.44.29-.66-.21l-.35.29c.08.31.12.52.18.75l.31-.23.43.77Zm4-33.16a4.65,4.65,0,0,1,0-.66.61.61,0,0,0-.42-.69c-.35-.07-.38.19-.44.43,0,.05,0,.1,0,.17-.35-.63-.35-.63-.67-.24.3.54,1.21.3,1.29,1.07Zm-4.58-2.11c-.14.24-.23.38-.32.52l.1.08a2.49,2.49,0,0,0,.43-.36c.26-.33.54-.59,1-.41-.51-.89-.51-.89-1.23-.25l-.29-.35-.42.71Zm1.84,23.82c-.1-.28-.16-.51-.26-.72a.69.69,0,0,0-.29-.27,1.07,1.07,0,0,0-1,.16l.37.34-.22,0s0,0,0,.07l.69.15c-.07.16-.13.28-.23.48Zm3.84,41.36-.14,0c0,.6-.43.86-.92,1l.71.95c.08,0,.24-.12.27-.22a12.73,12.73,0,0,0,.21-1.26A1.55,1.55,0,0,0,695.19,739.67Zm-2.85-17.21c-.37.26-.09.55-.08.9.66-.57.31-1.27.42-1.87,0,0-.14-.15-.22-.15s-.13.11-.18.18-.07.21-.13.23-.46.07-.42.39.3.18.48.23A.77.77,0,0,1,692.34,722.46ZM692,665a2.58,2.58,0,0,0-.52.29c-.28.22-.21.49.13.54.5.08,1,.14,1.25.82.12-.52,0-.81-.26-1A7,7,0,0,1,692,665Zm1.47,18.89.31-.76-.43-.17-.33,1.21-.27-.42-.67.29a.49.49,0,0,1,0,.12l1.47.4C693.52,684.36,693.49,684.13,693.47,683.9Zm-2.36,55.86c0-.06.15-.13.14-.16-.09-.31-.2-.62-.32-.93l.44-.27c-.79-.18-.88.7-1.47.9ZM695.39,643a5.77,5.77,0,0,0-3-.12.39.39,0,0,0,.26.12,2.67,2.67,0,0,1,1.5.17A1.17,1.17,0,0,0,695.39,643Zm.91,141.2a4.82,4.82,0,0,1-.9-.5c-.21-.2-.53-.38-.46-.82l-.68.49A2,2,0,0,0,696.3,784.23ZM689.23,735c-.21-.4-.37-.74-.56-1.11-.32.08-.78,0-.91.57l.83.09-.29.41c.07,0,.1.07.14.07Zm5.16-45.43c.8-.06.91-.15,1.05-.8.06-.26-.08-.48-.26-.39a3.28,3.28,0,0,0-.57.43l-.33.28C694.31,689.2,694.34,689.35,694.39,689.54Zm6.49,100.72c-.2-.85-.94-1-1.54-1.29a1.36,1.36,0,0,0,.37.81A5.44,5.44,0,0,0,700.88,790.26Zm-6.13-73c-.07-.42-.12-.77-.19-1.23-.22.07-.49.09-.6.23s-.26.49.15.6c0,0,0,.07,0,.11C694.27,717.45,694.3,717.46,694.75,717.27Zm-3,47-1,.11a1.41,1.41,0,0,0,2.07-.5C692.11,763.61,691.82,763.72,691.74,764.28ZM693.86,731c-.09-.17-.16-.28-.22-.41l-.16-.44c-.3.32,0,.52.06.74a2,2,0,0,0,1.11.71c.1.21.18.4.3.7a.76.76,0,0,0-.51-1.06c.12-.15.34-.35.31-.39s-.32-.18-.51,0A2.3,2.3,0,0,1,693.86,731ZM692.24,672c.08-.51.84-.07.84-.66-.43-.06-.43-.06-1.2.31.15.8.25,1,.7,1.16-.05-.2-.1-.38-.16-.59l.55-.24,0-.08Zm-1.58-36.34a3.64,3.64,0,0,1-.11.78c-.07.19-.21.37.07.48s.67.07.74-.19a.77.77,0,0,0-.13-.8l-.25.34Zm2.77-19.25c-.59-.32-1.06,0-1.57.23l.76.57ZM691,643.29c-.26-.13-.52-.64-1-.27l1.22.78c0-.68.87-.7.88-1.32l-.12-.1Zm-1.86-4.38a3,3,0,0,0,.53.47,1.57,1.57,0,0,0,.65.13s.14-.22.11-.26c-.23-.28-.34-.72-.85-.71ZM691.47,690a.86.86,0,0,1,0,.16l.89.55c.25-.56.06-1.15.53-1.54a.72.72,0,0,0-.42.27C692.26,689.84,692,690.13,691.47,690Zm6.93,52.58a.74.74,0,0,0,0-.14,4.4,4.4,0,0,0-2.17-1.17l-.06.11.79.32c0,.13,0,.24-.07.33a5.74,5.74,0,0,1,.66.18C697.87,742.32,698.13,742.45,698.4,742.58Zm-4.06-124.27-.43.52c.15.16.22.38.48.14s.33-.07.51-.1c0,.26,0,.42,0,.58l.14,0c.13-.24.25-.47.35-.68l-.51-.27ZM688.47,689c.21.28.57.08.94,0l-.49-.26c.26-.8.24-.85-.33-.88C688.55,688.21,688.52,688.57,688.47,689Zm.16,54.45a1,1,0,0,0,.12,1.43c0-.21.06-.4.08-.57l.56-.13Zm6.31-28.89c-.61.1-.64-.73-1.24-.61,0,.27,0,.49,0,.73l.85,0c0,.15,0,.27,0,.38l.13,0ZM690.28,721c-.26,0-.48.18-.65.12-.41-.12-.52.1-.65.44l1.09.23ZM697,796.18a3.51,3.51,0,0,0,.53.4s.18-.12.27-.18l.12.05-.12.6c.58.2.47-.36.64-.6A1.44,1.44,0,0,0,697,796.18ZM692.62,624.5l.1.06a2.68,2.68,0,0,0,.83-.47,3.16,3.16,0,0,0,.36-.93,10.24,10.24,0,0,0-1,.76C692.75,624.05,692.71,624.3,692.62,624.5Zm-.34,108.43c.09.35.17.6.22.87s.18.31.43.2l-.1-.31c.28-.15.69.17.85-.31C693.1,733.62,692.77,733.09,692.28,732.93Zm-1.4-59.47.18,0c.06-.34.39-.64.09-1s-.64-.15-1-.19l-.05.13.85.43C691,673,690.92,673.25,690.88,673.46Zm1.23,37c0-.22,0-.4,0-.57s-.26-.41-.39-.25-.34-.1-.5,0C691.36,710.18,691.46,710.29,692.11,710.44Zm4.41-44.9c-.46.37-.34,1-.66,1.49.21-.18.32-.44.51-.6a2.37,2.37,0,0,1,.7-.27Zm-5,48.32c-.17-.3-.44-.39-.91-.23.74.08.59.63.7,1a7.38,7.38,0,0,0,.55-.61,1.26,1.26,0,0,0,.16-.42s-.12-.11-.13-.1l-.3.31S691.59,713.84,691.55,713.86Zm-1.09-104.48c-.08.18-.18.32-.14.37s.28.39.4.37a3.19,3.19,0,0,0,1.46-.33C691.58,609.54,690.9,610.14,690.46,609.38Zm8,141.29a3.21,3.21,0,0,0-.56-.43c-.22-.12-.49,0-.41.23a1.35,1.35,0,0,0,.46.49C698.16,751.12,698.31,751,698.45,750.67Zm-8.63-122c.67-.23.74-.55.27-1.1C689.64,628,689.64,628,689.82,628.71Zm5.67,30.88c.2-.25.28-.43.41-.48a2.17,2.17,0,0,1,.59-.05c-.3-.52-.36-.55-1-.39C695.52,658.93,695.51,659.2,695.49,659.59Zm26.38,148.82-1.42,0C721,809.18,721.14,809.17,721.87,808.41Zm-22.94-8.2c0-.29,0-.62-.42-.58,0,.14,0,.26,0,.38-.51.06-.41-.46-.66-.65C697.67,800,698.12,800.39,698.93,800.21Zm-2.76-33.3-1.11.19c-.06.17-.12.36-.18.55.53-.2.94-.52,1.59-.27ZM692.31,779l.75-.62c-.25-.07-.49,0-.68,0a2.48,2.48,0,0,1-.63-.4l-.11.08Zm-.54-44.75a3.26,3.26,0,0,0,.32-.67.72.72,0,0,0-.19-.46.33.33,0,0,0-.3,0,.75.75,0,0,0-.12.48A2.15,2.15,0,0,0,691.77,734.27ZM691,659.41l-.2,0c.49.48,0,.8-.09,1.2l.91-.11-.32-.26.38-.16Zm24.54,149.47c0,.06,0,.11,0,.17l1,.27c.06.14.12.37.17.37a2.68,2.68,0,0,0,.57-.15A2.39,2.39,0,0,0,715.58,808.88ZM689.67,771l.66.59,1-.21c0-.05,0-.09,0-.13s-.18-.09-.25-.07a.76.76,0,0,1-.86-.19C690.17,770.87,689.92,771,689.67,771Zm7.17-59.78c.08.15.13.37.24.42a5.84,5.84,0,0,0,.93.27c0-.44-.07-.48-.66-.52,0-.11,0-.22-.07-.34Zm-6.45,54.47c.34.32.57.07.86,0,0-.27-.08-.51-.13-.82l-.62.33.34.25Zm.41-55.22.21-.08c0-.36-.09-.71-.14-1.16l-.59.21.26-.06C690.63,709.7,690.71,710.06,690.8,710.43Zm3.08,58.29,1.17.79-.43-1C694.33,768.43,694,768.38,693.88,768.72Zm2.73-67.43.76.41c-.07-.9-.34-1.26-.87-1.11l.45.5Zm1.15,65.17-.77-.63-.27.73A.94.94,0,0,0,697.76,766.46Zm-3.14-18.09-.12.08c.07.17.12.48.21.49a1.21,1.21,0,0,0,.7-.14c.08,0,0-.31.05-.48l-.12,0-.25.29Zm-.16,90.87.09.13,2.33-1.56A6.09,6.09,0,0,0,694.46,839.24Zm-2-184.49a1.46,1.46,0,0,0-.88-.94c0,.31,0,.55-.07.94C691.89,654.34,692.15,654.57,692.45,654.75Zm28.06,172.11.73-.9c-.29-.21-.57-.11-.9,0C720.4,826.28,720.45,826.53,720.51,826.86ZM696.85,644.74l-1.56-.54a.41.41,0,0,0-.07.11c.17.19.06.61.55.52C696.07,644.77,696.38,644.78,696.85,644.74Zm-2.41,98.39c0,.43,0,.68,0,1l.8.06a.59.59,0,0,0,0-.13Zm.66-67c-.45,0-.08-.74-.7-.6.19.27-.26.62.15.85C694.75,676.5,695,676.53,695.1,676.14Zm2.14,64.66c-.26-.09-.48-.14-.68-.22l-.69-.33a6.43,6.43,0,0,0,.62.71C696.76,741.25,696.89,741.23,697.24,740.8Zm.17,3.1a.57.57,0,0,1,0,.13c.08.05.16.16.22.14.38-.1.27-.35.16-.59l-1.19.13C696.81,744.08,697.13,743.89,697.41,743.9Zm-4.2-23.9-.23.11a2.44,2.44,0,0,0-.08-.73c-.11-.25-.45-.21-.71.06-.08.08-.15.29-.11.33.24.23.31-.07.45-.18s.07,0,0,0Zm3.47,72.92c-.08.3-.14.5-.2.71.15.25.37.25.62.14l.25-.12-.43-.12.39-.44Zm23.75,23.93c.38-.33.33-.79.47-1.2-.44-.1-.5.26-.68.41C720.29,816.34,720.36,816.58,720.43,816.85Zm-27.71-48.08c-.22.18-.22.18-.17,1.21l.46.13C692.91,769.63,692.82,769.21,692.72,768.77Zm-2-120.1c-.37-.26-.6-.85-1.2-.47C689.77,648.66,690.25,648.62,690.69,648.67Zm4.55,5.8c-.43.74-.43.75,0,1l.21-.77.57.45C696,654.58,695.57,654.62,695.24,654.47Zm-2.46,37.1s0,.09,0,.14c.33,0,.45.68,1,.24l-.51-.7Zm1.56,14.16.13.06.53-.49-.48-.34.17-.3-.06-.08-.62.26A.61.61,0,0,1,694.34,705.73Zm-3.6-75.89c0-.19,0-.31,0-.43l.35,0c-.31-.22-.58-.47-1-.35C690.09,629.44,690.41,629.59,690.74,629.84Zm3,162.62-.12.13.6.79.48-.49Zm-3.6-67.3c.23.1.44.18.55-.11s-.06-.56-.43-.74C690.25,724.57,690.22,724.84,690.17,725.16Zm1.53-46.72c-.27.81-.27.81-.06,1.21C692,679.42,692,679.24,691.7,678.44Zm1.73-10.69c.32.57.79.07,1.2.2,0-.19,0-.32.08-.49Zm-1,82-.08.1.2.44-.34.28a1.12,1.12,0,0,0,.37.07,4.54,4.54,0,0,0,.45-.21,1.55,1.55,0,0,0-.23-.42A1.44,1.44,0,0,0,692.43,749.79Zm1.18,65.47c0,.48,0,.48.48,1.09,0-.36,0-.69.07-1.05Zm2.7-11.52c-.26.25-.46.44-.64.65,0,0,.09.18.15.27a8.22,8.22,0,0,0,.65-.52S696.4,804,696.31,803.74Zm1.62-160.87a3.33,3.33,0,0,1-.32-.54,3,3,0,0,1-.12-.61c-.34.23-.43.32-.36.52A1,1,0,0,0,697.93,642.87Zm-5.48,43.72c.14.71.26.85.82.94,0,0,0,0,.09-.11l-.43-.25C692.93,686.6,692.93,686.6,692.45,686.59Zm7.24,120.62c0-.2,0-.35,0-.53-.38,0-.66.08-.72.42,0,.14.1.31.16.47l.13,0a1.66,1.66,0,0,0,.06-.21,3.44,3.44,0,0,0,0-.35ZM687.64,687.83c.42-.2.61-.49.47-.71a.39.39,0,0,0-.37-.14C687.3,687.19,687.62,687.49,687.64,687.83ZM696,686.5c.21.45.78.51,1.59.18Zm-5.62,43.59c0,.21,0,.36,0,.51l-.63.16,0,.14,1.45-.27Zm7.9-70.91c-.42,1-.4,1,.09,1a5.07,5.07,0,0,0,0-.66A1,1,0,0,0,698.26,659.18Zm-4.09,100a1.07,1.07,0,0,0-1.16.29A.94.94,0,0,0,694.17,759.17Zm-3.3-17.72c.23.33.4.56.62.86.13-.31.22-.52.33-.76ZM695.56,612l-.2-.68c-.07.41-.38.42-.74.37.1.21.17.34.24.47Zm-5.07,43.29c-.43.17-.65-.5-1.13-.19C690.17,655.78,690.25,655.8,690.49,655.3Zm5-22.81c.2.22.2.61.61.52.06,0,.15-.3.1-.39C696,632.33,695.78,632.25,695.45,632.49ZM689,681.34c.09.64.46.87,1,.71A6.32,6.32,0,0,0,689,681.34Zm-.17-4.25-.08.14a2.37,2.37,0,0,0,1,.63s.13-.1.23-.2Zm8.15,54.5-.11.06c.14.27.27.54.4.82.5-.29.62-.49.38-.66l-.29.24Zm-5.59,18c-.1.07-.16.09-.2.13-.21.2-.13.4,0,.56a.72.72,0,0,0,.3.11,5.63,5.63,0,0,0,0-.58C691.55,749.78,691.46,749.72,691.39,749.62ZM694.48,795c.07.57.56.38.89.58C695.23,795.07,695.06,795,694.48,795Zm-1.38-24.4-.44.27c.32.58.43.63,1.07.42l-.57-.23C693.14,770.93,693.13,770.79,693.1,770.6Zm1.61,37-.57.37,1.06.44.06-.12a1.92,1.92,0,0,1-.29-.28C694.88,807.94,694.81,807.8,694.71,807.65Zm-2.52-73.59c.47.81.83.92,1.41.45C693,734.77,692.7,734.31,692.19,734.06Zm5.14-96.36-1.32.24C696.69,638.25,696.91,638.21,697.33,637.7Zm-4.91,20.79c.14-.39.24-.66.37-1l-.87.45Zm1.12-3.78-.1.12a1.44,1.44,0,0,0,1.22.76Zm5.9,145c.13.06.36.09.46.21s.3.19.48-.06l-.58-.58Zm-4.12-56.65a.45.45,0,0,0,.23,0,1.93,1.93,0,0,0,.38-.19s0-.19-.08-.19a.73.73,0,0,0-.39,0,4.12,4.12,0,0,0-.51.26l.31.51C695.29,743.27,695.3,743.21,695.32,743.07Zm-5.13,43.06c-.35,1.22-.29,1.47.41,1.49-.53-.26-.42-.64-.32-1C690.31,786.49,690.24,786.37,690.19,786.13Zm3-151.15a3.84,3.84,0,0,1-.3-.46c-.07-.2-.21-.27-.34-.14a.46.46,0,0,0,0,.4,1.7,1.7,0,0,0,.33.41Zm3.88,162.67.06-.11a1.57,1.57,0,0,0-1.14-.35l0,.16Zm-7.78-63.76c.27-.26.39-.49.25-.78a.28.28,0,0,0-.25,0C689,733.3,689.11,733.56,689.3,733.89Zm11.44,80.8c.19.54.64.24.94.36C701.44,814.76,701.23,814.36,700.74,814.69Zm-8-102.45c-.62-.49-.71-.5-1.06-.13l.84.34s0,0,0,0A2,2,0,0,0,692.73,712.24Zm.89-54.7c-.49,0-.5,0-.61.56,0,.11.07.25.1.37l.13,0C693.36,658.17,693.48,657.89,693.62,657.54Zm-3.5,77.89.16.15a3,3,0,0,0,.56-.44s-.12-.27-.25-.53Zm6.33,45.45c.19.4.33.69.47,1C697.23,781.43,697.11,781.14,696.45,780.88Zm-4.25-135.7v.13a3.94,3.94,0,0,0,.68.08c.11,0,.21-.15.32-.23-.11,0-.23-.16-.33-.14A4.07,4.07,0,0,0,692.2,645.18Zm3.82-8.53c-.24,0-.51,0-.52,0-.15-.45-.48-.28-.81-.29.24.17.42.32.62.44S695.78,637,696,636.65Zm-5.31,8.92c0-.19,0-.32-.06-.45l-.11,0-.17.44.92.34c0-.26-.07-.38-.1-.53Zm-.16,69.95.77-.52c-.4-.19-.54-.14-1,.31Zm2.19,20.39-.79,0-.06.12.51.54ZM691.1,691v-.1l.53-.13a.6.6,0,0,0-.82.16c.32.43.34.43.93.24Zm4.79,73.14.85-1.05A1,1,0,0,0,695.89,764.11Zm-4-67.39.94.18c0-.19,0-.39.06-.64Zm4.45,70c0-.86-.06-.88-.79-.87Zm-3.8-22.1a4.11,4.11,0,0,0,.12.5.25.25,0,0,0,.12.13c.05,0,.15,0,.15,0,.06-.28.11-.55.16-.83l-.13,0Zm-1.37-19.44c-.26.15-.46.27-.66.41a1.13,1.13,0,0,0,.11.22,5.37,5.37,0,0,0,.65-.29A1.86,1.86,0,0,0,691.2,725.23ZM694,729.4c0-.06.07-.12.11-.17l-.3-.51-.63.54Zm5.71,78.52c.14.15.25.27.39.4l.45-.16c-.08-.18-.14-.33-.21-.52C700.09,807.75,699.9,807.83,699.68,807.92Zm-1-48.38c-.73-.07-.74-.06-.89.74Zm-3.92-36.23c-.24-.46-.27-.47-1-.13C694.18,723.17,694.41,723.63,694.79,723.31Zm-4.16,72.9c.39.52.42.52,1.17,0Zm.21-60.25.44.39c0-.37-.21-.62-.57-.64s-.43,0-.45.38Zm7.86,44.42c-.28-.41-.37-.36-.91.61Zm-4-58.38a1.34,1.34,0,0,1,.07-.18l-.89-.55-.08.1c0,.16.08.32.11.47a3.29,3.29,0,0,1,.45,0C694.45,721.9,694.56,722,694.68,722Zm-5.38,40.21a.65.65,0,0,1,0,.13l1,.38.11-.41Zm-.93-25.28-.73.27v.17l.62.25C688.29,737.41,688.31,737.26,688.37,736.93Zm4.52,38.85c.26-.16.49-.29.7-.45a.3.3,0,0,0,0-.3c0-.06-.2,0-.3-.06C693.35,775.32,692.78,775.31,692.89,775.78Zm5.8,15.12c-.21-.22-.39-.09-.59,0a2.94,2.94,0,0,1-.68.09C697.73,791.3,697.73,791.3,698.69,790.9Zm-8.4-107.35c.11-.29.21-.54.35-.89C689.91,683,689.89,683,690.29,683.55Zm-.92-22.6c-.43-.54-.8-.61-1.14-.31Zm.83-44.7.71-.66C690.41,615.32,690.19,615.49,690.2,616.25Zm5.21,134.86a.78.78,0,0,1,0-.14l-.87.08c0,.15,0,.32.08.35C695,751.58,695.14,751.22,695.41,751.11Zm1.6,47.17-.86-.1c.08.27.16.47.42.46S697,798.63,697,798.28Zm-7.28-115.45-.85-.38c-.06.17-.08.39.17.49S689.54,683.12,689.73,682.83ZM697,744.51c-.19,0-.46-.15-.53-.08a1.48,1.48,0,0,0-.21.58l.11,0Zm.34-36.68-.85.44,1,.16C697.42,708.28,697.37,708.09,697.31,707.83Zm-.92,107.82-.1.15.76.52C697,815.72,696.76,815.63,696.39,815.65Zm16.72,16,.43.77.13,0c0-.21,0-.41,0-.68Zm-19.6-63.36c0-.28,0-.46.09-.71l-.9.37Zm3-10.51a.22.22,0,0,1,0,.08l1.32-.36-.53-.26Zm-.56,57.94c-.82-.5-.94-.52-1.25-.29a2.74,2.74,0,0,1,.57.16C695.45,815.7,695.6,816,695.93,815.73Zm-8.17-104.12s0,.1,0,.15l.48.4.13-.07c0-.16,0-.41-.06-.46S687.94,711.61,687.76,711.61Zm7.75-9.3h-.16c0,.11,0,.22-.05.33s-.47-.09-.52.35a5.28,5.28,0,0,0,.8-.18A3,3,0,0,0,695.51,702.31Zm.1,21.4,1-.45C695.91,723,695.91,723,695.61,723.71Zm-.56-65c-.22-.52-.26-.54-.69-.39.11,0,.33.12.33.17a4.26,4.26,0,0,1-.15.79Zm-.58,102,.7.26c0-.21,0-.38,0-.58l-.69.06C694.49,760.61,694.48,760.7,694.47,760.75Zm-4.85-80.13c-.06.53,0,.63.24.71s.57,0,.72-.23A.65.65,0,0,1,689.62,680.62Zm6.49,35c-.12.69,0,.76.64.7ZM691.54,663l.33.33.6-.91-.06,0Zm-3.18-10.32.25,1C688.84,652.83,688.79,652.65,688.36,652.64Zm.86-3.47c.19.28,0,.68.37.88,0-.34.06-.62.09-.93Zm.71-14.19c-.22-.29-.29-.67-.77-.59C689.14,634.92,689.53,634.91,689.93,635Zm1.43,31.88,1,0-.72-.59C691.53,666.51,691.45,666.66,691.36,666.86Z" transform="translate(-662.93 -591.59)"/><path class="cls-1" d="M689.54,663.78l-.25.45c-.29-.08-.58-.17-.86-.23s-.31-.11-.49.06-.41-.08-.62-.13c.18-.06.32-.15.28-.39a1.14,1.14,0,0,1,.07-.64,3.29,3.29,0,0,1,.38.54.58.58,0,0,0,.72.36A6.6,6.6,0,0,1,689.54,663.78Z" transform="translate(-662.93 -591.59)"/><path class="cls-1" d="M687.21,691.53c0-.34,0-.69-.07-1.12a1.4,1.4,0,0,1,.37.1c0,.35.22.73-.11,1Z" transform="translate(-662.93 -591.59)"/><path class="cls-1" d="M687.55,693.08c.07.31.13.62.19.93-.13.07-.28.13-.45.2A.89.89,0,0,1,687.55,693.08Z" transform="translate(-662.93 -591.59)"/><path class="cls-1" d="M691.11,777.16a.09.09,0,0,1,.08,0Z" transform="translate(-662.93 -591.59)"/></svg>