<?xml version="1.0" encoding="UTF-8"?>
<!-- Generator: Adobe Illustrator 23.0.1, SVG Export Plug-In . SVG Version: 6.00 Build 0)  -->
<svg version="1.1" id="Layer_1" xmlns="http://www.w3.org/2000/svg" xmlns:xlink="http://www.w3.org/1999/xlink" x="0px" y="0px" viewBox="0 0 410 100" style="enable-background:new 0 0 410 100;" xml:space="preserve">
<style type="text/css">
	.st0{fill-rule:evenodd;clip-rule:evenodd;fill:#FFFFFF;}
</style>
<path class="st0" d="M405,69.2c-1.3-0.9-2.3-1-3.1,0.7c-14.3,30.8-38.3,15.4-35.9,16.8c5.3-2.4,19.3-13.6,17.2-29.2  c-1.3-9.5-9.4-13.7-18.1-12.2c-15.1,2.6-20.6,18.9-17.8,33.3c0.5,2.5,1.4,4.5,2.3,6.5c-17,13.9-23.8-12.4-24.6-15.5  c0-0.2,13.2-11.2,16.8-37.4C345.8,4.9,337-0.1,328,0.1c-16.6,0.3-21,34.9-15,63.7c-0.5,0.1-2.8,1.4-6.6,1.6  c-2.7-8.5-14.3-16-17.3-13.1c-7.6,7.2,1.8,21.3,8.5,22.4c-4,24.5-28.9,18.5-24.3-12.3c8.1-15,14.3-37.5,13.2-51  c-0.4-4.8-3.9-11.2-11.9-10.9c-15.4,0.6-17.1,35.2-15.3,59.8c-0.1-0.6-1,3-7.3,4.8c-1.5-8.3-14.8-16.6-18-12.6  c-5.9,7.5,4.3,20.8,9.1,21.7c-4,24.5-28.9,18.5-24.3-12.3c8.1-15,14.3-37.4,13.2-51c-0.4-4.8-3.9-11.2-11.9-10.9  c-15.4,0.6-17.1,35.2-15.3,59.8c-0.1-0.6-1,3.1-7.5,4.9c-0.2-10.8-13.6-15.7-16.8-12.2c-5.7,6.1,1.3,18.7,7.8,21.7  c-4,24.5-28.9,18.5-24.3-12.3c8.1-15,14.3-37.5,13.2-51c-0.4-4.7-3.9-11.2-11.9-10.8c-15.4,0.6-16.6,37-14.8,61.5  c-5.1,21.7-22.1,48.9-19.9-5.5c0.2-3.8,0.4-5.2-1.4-6.7c-1.4-1.1-4.7-0.6-6.4-0.5c-2.1,0.1-2.7,1.4-3.1,3.2  c-1.1,4.9-1.3,9.7-1.5,16.2c-0.1,3.1-0.3,4.5-1.5,8.6s-7.8,11.7-11.5,10.5c-5.1-1.7-3.4-16.1-2.5-25.9c0.8-7.8-1.7-11.2-8.2-12.5  c-3.8-0.8-6.1-0.7-10.1-1.9c-3.8-1.2-4.6-8.3-12.6-5.9c-4.4,1.3-1.6,10.5-2.6,17.4C64,92.2,53.3,93.1,48.3,76.8  c22.4-54.9,6.4-76.6-2.9-76.6c-9.7,0-20.8,6.7-16.1,49.6c-2.3-0.7-3-1-5.5-1C9.7,48.7,0,60.2,0,74.3s9.7,25.6,23.8,25.6  c8.4,0,14.2-3.8,18.7-9.7c2.9,4.2,6.4,9.8,12.9,9.5c19.2-0.7,24.8-40.2,25.5-42.5c2.1,0.3,4,0.9,5.9,1.2c3.1,0.5,3.4,1.7,3.3,4.9  c-0.8,26.9,4.1,36.3,15.4,36.3c6.3,0,11.9-6.2,15.7-10.5c2.9,5.9,7.4,10.4,13.6,10.5c14.9,0.3,20.6-23.4,20.1-20.3  c-0.4,2.4,4.8,20.1,20.2,20.2c19,0.1,22.5-20.8,22.9-24.3c0.1-0.6,0-0.7,0,0c0,0,0,0.1,0,0.2c6-1.1,9.1-4.3,9.1-4.3  s4.9,28.7,22.7,28.4c18.6-0.3,22.1-19.2,22.6-22.9c0.1-0.8,0-0.9,0,0c0,0,0,0.1,0,0.1c7.2-2.6,9.1-5.2,9.1-5.2s3.8,28.2,22.7,28.4  c16.8,0.2,23.1-17.1,23.1-24.3c2.8,0,8.1-1.7,8-1.8c0,0,6.2,24.6,23.4,25.9c8.1,0.6,14.2-4.5,17.6-6.9c8.1,6.6,35.2,15,52.3-14  C411.1,74.8,405.9,69.9,405,69.2z M23.1,90.3c-8.3,0-13.6-7.7-13.6-15.9c0-8.2,4.9-15.9,13.1-15.9c3.7,0,5.8,0.4,8.7,2.9  c0.5,2.1,2,6.8,2.8,9c1,2.9,2.1,5.4,3.3,8C35.7,85.4,30.3,90.3,23.1,90.3z M43.3,61.7c-0.3-0.6-0.3-0.2-0.7-0.7  c-1.5-4.1-4.4-13.3-4.8-23.8c-0.4-11.8,1.6-25.7,7.4-25.7C49.2,11.5,53.4,39.6,43.3,61.7z M159.6,49.4c-0.9-7-1-38.3,6.5-37.4  C170.3,13.7,163.5,43.1,159.6,49.4z M214.5,49.4c-0.9-7-1-38.3,6.5-37.4C225.1,13.7,218.3,43.1,214.5,49.4z M268.8,49.8  c-0.9-7-1-38.3,6.5-37.4C279.5,14.1,272.7,43.6,268.8,49.8z M328.8,10.1c6.9-0.7,6.6,29.3-7.2,48.2  C319.9,51.4,317.2,12.5,328.8,10.1z M357.7,74.6c-2.2-11.2,3.5-18.5,9.4-19.2c2.1-0.3,5,1,5.6,3.5c1,4.7-0.1,11.6-13.3,20.4  C359.4,79.4,358.2,77.1,357.7,74.6z M125.1,40.3c4.7,0,8.5-3.8,8.5-8.5c0-4.7-3.8-8.5-8.5-8.5c-4.7,0-8.5,3.8-8.5,8.5  C116.6,36.4,120.4,40.3,125.1,40.3z"/>
</svg>