<?xml version="1.0" encoding="UTF-8"?>
<!-- Generator: Adobe Illustrator 23.0.1, SVG Export Plug-In . SVG Version: 6.00 Build 0)  -->
<svg version="1.1" id="Layer_1" xmlns="http://www.w3.org/2000/svg" xmlns:xlink="http://www.w3.org/1999/xlink" x="0px" y="0px" viewBox="0 0 787.5 264" style="enable-background:new 0 0 787.5 264;" xml:space="preserve">
<style type="text/css">
	.st0{fill:#FFFFFF;}
</style>
<g>
	<path class="st0" d="M301.8,175.7l-29.7-81H264V23.9C264,10.7,253.3,0,240.1,0H23.9C10.7,0,0,10.7,0,23.9v216.1   C0,253.3,10.7,264,23.9,264h216.1c13.2,0,23.9-10.7,23.9-23.9v-98.8l26.3,64.5h22.8l45.1-111.1h-26.5L301.8,175.7z M88.2,51.3   c8.8,0,16.1,6.9,16.1,15.9c0,9-7.4,15.9-16.1,15.9c-8.8,0-16.1-6.9-16.1-15.9C72.1,58.2,79.5,51.3,88.2,51.3z M196.1,203.3   c-16.4,0-24.2-9.7-24.2-23c0-3.8,0.5-7.8,1.7-11.9l7.8-28c0.9-3.1,1.2-5.9,1.2-8.5c0-9-5.5-14.5-14.2-14.5   c-11.1,0-18.5,8-22.3,23.4l-15.2,60.9h-26.6l4.8-19.1c-7.8,12.8-18.6,20.8-32,20.8c-16.1,0-23.7-9.3-23.7-23.3   c0-3.6,0.5-7.9,1.4-11.9l12.1-49.4H48.1l5.7-21h45.1l-17.8,70.6c-1.2,4.5-1.7,8.2-1.7,10.9c0,4.5,2.2,5.8,5.7,6.6   c2.1,0.5,19,0.1,28.1-20.3l11.7-46.8h-19l5.7-21h40.6l-5.2,23.8c7.1-13.3,21.3-25.9,35.3-25.9c14.9,0,27.3,10.6,27.3,31   c0,5.2-0.7,10.9-2.6,17.3l-7.6,27.3c-0.7,2.9-1.2,5.2-1.2,7.4c0,4.7,1.9,7.1,5.5,7.1c3.6,0,8.1-2.6,13.3-17.1l10.4,4   C221.3,194.3,210.1,203.3,196.1,203.3z"/>
	<path class="st0" d="M748.2,92.4c-17.1,0-27.4,9-34.5,19.4V94.7h-25.3v110.3h25.3v-62.2c0-17.1,10.2-27.4,24.9-27.4   c15,0,23.6,9.8,23.6,26.9v62.6h25.3v-70.2C787.5,109.1,773.1,92.4,748.2,92.4z"/>
	<rect x="370.7" y="94.7" class="st0" width="25.3" height="110.3"/>
	<path class="st0" d="M614.6,92.4c-33.8,0-58.9,26.1-58.9,57.8c0,31.5,24.8,57.2,58.5,57.2c34,0,59.1-26.1,59.1-57.6   C673.3,118.1,648.4,92.4,614.6,92.4z M614.6,185.5c-19.6,0-33.6-16.1-33.6-35.7c0-19.4,12.9-35.3,33.2-35.3   c19.8,0,33.8,16.1,33.8,35.7C648,169.7,635,185.5,614.6,185.5z"/>
	<rect x="513.9" y="94.7" class="st0" width="25.3" height="110.3"/>
	<path class="st0" d="M463,139.8c-12.9-4.2-24.9-7.5-24.9-15.5v-0.4c0-6.5,5.6-11.1,15.5-11.1c4.8,0,10.1,1.1,15.7,3l0,0   c0,0,0.1,0,0.2,0.1c0.5,0.2,1,0.4,1.4,0.5c4,1.3,14.8,3,23.9-11.2C483,97.6,468,92.8,454.2,92.8c-21.9,0-39.3,12.7-39.3,33.6v0.4   c0,21.1,18.2,27.8,34.5,32.4c12.9,4,24.6,6.9,24.6,15.4v0.4c0,7.3-6.3,11.9-17.1,11.9c-7.2,0-15.1-1.9-23-5.6   c-2.3-1-14.1-5-24.1,9.4c13.7,10.7,31,16.3,46.5,16.3c23,0,40.9-11.5,40.9-34.7V172C497.2,152.1,479.1,144.8,463,139.8z"/>
</g>
</svg>