<svg width="114" height="91" viewBox="0 0 114 91" fill="none" xmlns="http://www.w3.org/2000/svg">
<path d="M6.02633 41.1573H8.59741H8.93479C8.63231 41.5588 8.34534 41.9448 8.07388 42.3153C5.2438 46.5851 3.80563 51.6199 3.95551 56.7331V85.0707C3.95551 86.6433 4.58307 88.1514 5.70013 89.2634C6.25325 89.8139 6.90989 90.2507 7.63257 90.5487C8.35525 90.8466 9.12981 91 9.91203 91H17.6136C18.3959 91 19.1704 90.8466 19.8931 90.5487C20.6158 90.2507 21.2724 89.8139 21.8255 89.2634C22.3787 88.7128 22.8174 88.0591 23.1167 87.3398C23.4161 86.6204 23.5702 85.8494 23.5702 85.0707V80.6238H72.4323V55.5172C68.5469 54.3123 65.1489 51.9051 62.7323 48.6457C60.3157 45.3863 59.0066 41.4445 58.9952 37.3936V9.79715C58.986 6.61244 59.7864 3.47719 61.322 0.683253H57.0524C50.3652 0.533201 43.6776 0.963307 37.0654 1.96869C33.0634 2.66353 27.2697 4.28481 23.2909 9.93612C21.0573 13.1439 17.474 21.1113 14.647 28.1407C12.8898 26.3542 10.5238 25.2881 8.01572 25.153C7.28278 25.153 6.54985 25.153 5.81692 25.153C4.28073 25.1739 2.81339 25.7907 1.72703 26.8721C0.640683 27.9535 0.0210672 29.4141 0 30.9432C0 32.1824 0 33.5141 0 35.147C0.0268418 36.7307 0.670016 38.2422 1.79409 39.3633C2.91815 40.4844 4.4354 41.1275 6.02633 41.1573V41.1573ZM19.1958 52.2862C19.1999 51.5815 19.3654 50.887 19.6799 50.2556C19.9943 49.6242 20.4493 49.0725 21.0102 48.6426C21.5711 48.2126 22.2232 47.9157 22.9168 47.7745C23.6104 47.6333 24.3273 47.6515 25.0128 47.8277L35.9137 50.6765C36.9706 50.9908 37.881 51.6686 38.4824 52.589C39.0839 53.5094 39.3374 54.6126 39.1977 55.7017C39.0579 56.7909 38.5341 57.7952 37.7195 58.5356C36.9049 59.276 35.8526 59.7043 34.7503 59.7441H23.8261C22.5919 59.7441 21.4083 59.256 20.5356 58.3873C19.6629 57.5186 19.1726 56.3404 19.1726 55.1119L19.1958 52.2862ZM68.2441 37.3936V9.79715C68.2441 7.19878 69.2811 4.70684 71.1268 2.86952C72.9726 1.0322 75.476 0 78.0863 0H104.158C106.768 0 109.272 1.0322 111.117 2.86952C112.963 4.70684 114 7.19878 114 9.79715V37.3936C114 39.992 112.963 42.4839 111.117 44.3212C109.272 46.1586 106.768 47.1908 104.158 47.1908H100.528V52.7957C100.528 53.0434 100.478 53.2886 100.383 53.5172C100.287 53.7458 100.146 53.9532 99.9696 54.1275L95.6069 58.4702C95.5394 58.537 95.4858 58.6163 95.4492 58.7038C95.4126 58.7912 95.3938 58.885 95.3938 58.9798C95.3938 59.0745 95.4126 59.1683 95.4492 59.2557C95.4858 59.3432 95.5394 59.4226 95.6069 59.4893L99.4926 63.3456C99.953 63.8076 100.211 64.432 100.211 65.0827C100.211 65.7334 99.953 66.3578 99.4926 66.8198L95.6069 70.6877C95.5394 70.7544 95.4858 70.8338 95.4492 70.9213C95.4126 71.0087 95.3938 71.1025 95.3938 71.1973C95.3938 71.292 95.4126 71.3858 95.4492 71.4732C95.4858 71.5607 95.5394 71.64 95.6069 71.7068L99.9696 76.0495C100.146 76.2238 100.287 76.4312 100.383 76.6598C100.478 76.8884 100.528 77.1336 100.528 77.3813V81.3997C100.529 81.6155 100.486 81.8292 100.402 82.0281C100.318 82.2271 100.195 82.4072 100.039 82.5578L91.8957 90.6642C91.7941 90.7654 91.6735 90.8456 91.5408 90.9004C91.408 90.9552 91.2658 90.9834 91.1221 90.9834C90.9784 90.9834 90.8361 90.9552 90.7033 90.9004C90.5706 90.8456 90.45 90.7654 90.3484 90.6642L82.2047 82.5578C82.0531 82.4057 81.9338 82.2247 81.8539 82.0258C81.7739 81.8269 81.735 81.6139 81.7394 81.3997V47.1444H78.0863C75.4841 47.1445 72.9877 46.1186 71.1432 44.2913C69.2988 42.464 68.2564 39.9839 68.2441 37.3936V37.3936Z" fill="#1B4A8A"/>
</svg>
