<svg width="122" height="98" viewBox="0 0 122 98" fill="none" xmlns="http://www.w3.org/2000/svg">
<path d="M59.6494 52.9811C57.9937 48.0141 53.4089 44.7028 48.1872 44.7028H45.5127L38.508 63.8065L35.9608 52.7264H36.2155C37.107 52.7264 37.8712 51.9622 37.8712 51.0707V48.0141C37.8712 47.1226 37.107 46.3585 36.2155 46.3585H32.2674C31.3759 46.3585 30.6118 47.1226 30.6118 48.0141V51.0707C30.6118 51.9622 31.3759 52.7264 32.2674 52.7264H32.5221L29.975 63.8065L22.9703 44.5754H20.2958C15.0741 44.5754 10.4892 47.8867 8.83353 52.8537L0.427896 79.2168C-0.845684 83.0376 0.809971 87.2404 4.24864 89.2781C13.1637 94.4998 23.6071 97.3017 34.1778 97.3017C44.8759 97.3017 55.1919 94.4998 64.1069 89.2781C67.5456 87.2404 69.2013 83.0376 67.9277 79.2168L59.6494 52.9811Z" fill="#1B4A8A"/>
<path d="M34.3051 42.6649C45.4888 42.6649 54.555 33.5987 54.555 22.415C54.555 11.2312 45.4888 2.16504 34.3051 2.16504C23.1214 2.16504 14.0552 11.2312 14.0552 22.415C14.0552 33.5987 23.1214 42.6649 34.3051 42.6649Z" fill="#1B4A8A"/>
<path d="M93.5267 0C78.3711 0 66.0173 9.80657 66.0173 21.9056C66.0173 27.5093 68.6919 32.731 73.1494 36.5518C72.3852 38.9716 70.9843 42.2829 68.6919 44.9574C67.1636 46.8678 68.5645 49.6696 71.1117 49.4149C79.2626 48.1413 84.3569 45.5942 87.5408 43.1744C89.4512 43.5565 91.489 43.6838 93.5267 43.6838C108.682 43.6838 121.036 33.8772 121.036 21.7782C121.036 9.80657 108.682 0 93.5267 0ZM79.3899 25.8537C77.0975 25.8537 75.3145 24.0707 75.3145 21.7782C75.3145 19.4858 77.0975 17.7028 79.3899 17.7028C81.6824 17.7028 83.4654 19.4858 83.4654 21.7782C83.4654 24.0707 81.555 25.8537 79.3899 25.8537ZM93.5267 25.8537C91.2342 25.8537 89.4512 24.0707 89.4512 21.7782C89.4512 19.4858 91.2342 17.7028 93.5267 17.7028C95.8191 17.7028 97.6021 19.4858 97.6021 21.7782C97.6021 24.0707 95.6918 25.8537 93.5267 25.8537ZM107.663 25.8537C105.371 25.8537 103.588 24.0707 103.588 21.7782C103.588 19.4858 105.371 17.7028 107.663 17.7028C109.956 17.7028 111.739 19.4858 111.739 21.7782C111.739 24.0707 109.956 25.8537 107.663 25.8537Z" fill="#1B4A8A"/>
</svg>