<svg width="83" height="121" viewBox="0 0 83 121" fill="none" xmlns="http://www.w3.org/2000/svg">
<path d="M74.6771 6.48439H60.2586V3.4957C60.2586 2.11368 59.1403 0.995361 57.7582 0.995361C56.3762 0.995361 55.2579 2.11368 55.2579 3.4957V6.48439H43.8281V3.4957C43.8281 2.11368 42.7098 0.995361 41.3278 0.995361C39.9457 0.995361 38.8274 2.11368 38.8274 3.4957V6.48439H27.3976V3.4957C27.3976 2.11368 26.2793 0.995361 24.8973 0.995361C23.5153 0.995361 22.397 2.11368 22.397 3.4957V6.48439H7.99297C3.84232 6.48439 0.491943 9.83477 0.491943 13.9854V113.499C0.491943 117.65 3.84232 121 7.99297 121H74.6771C78.8027 121 82.1781 117.65 82.1781 113.499V13.9854C82.1781 9.83477 78.8027 6.48439 74.6771 6.48439ZM32.3983 93.469L20.7317 102.914C20.2848 103.277 19.7281 103.47 19.1592 103.47C19.0249 103.47 18.8881 103.458 18.7514 103.436C18.0482 103.321 17.4256 102.909 17.0447 102.306L13.7117 97.0266C12.9743 95.857 13.3234 94.3138 14.4906 93.5764C15.6602 92.8414 17.2034 93.1906 17.9408 94.3553L19.7721 97.2561L29.2534 89.5817C30.3253 88.7125 31.9027 88.8809 32.7695 89.9529C33.6387 91.0248 33.4727 92.5997 32.3983 93.469ZM32.3983 73.4662L20.7317 82.9109C20.2848 83.2747 19.7281 83.4676 19.1592 83.4676C19.0249 83.4676 18.8881 83.4554 18.7514 83.4334C18.0482 83.3187 17.4256 82.906 17.0447 82.3029L13.7117 77.0238C12.9743 75.8542 13.3234 74.3111 14.4906 73.5737C15.6602 72.8387 17.2034 73.1879 17.9408 74.3526L19.7721 77.2534L29.2534 69.579C30.3253 68.7122 31.9027 68.8782 32.7695 69.9501C33.6387 71.022 33.4727 72.597 32.3983 73.4662ZM32.3983 53.4635L20.7317 62.9081C20.2848 63.272 19.7281 63.4649 19.1592 63.4649C19.0249 63.4649 18.8881 63.4526 18.7514 63.4307C18.0482 63.3159 17.4256 62.9033 17.0447 62.3001L13.7117 57.0211C12.9743 55.8515 13.3234 54.3083 14.4906 53.5709C15.6602 52.836 17.2034 53.1851 17.9408 54.3498L19.7721 57.2506L29.2534 49.5762C30.3253 48.7094 31.9027 48.8755 32.7695 49.9474C33.6387 51.0193 33.4727 52.5942 32.3983 53.4635ZM32.3983 33.4607L20.7317 42.9054C20.2848 43.2692 19.7281 43.4621 19.1592 43.4621C19.0249 43.4621 18.8881 43.4499 18.7514 43.4279C18.0482 43.3132 17.4256 42.9005 17.0447 42.2974L13.7117 37.0184C12.9743 35.8488 13.3234 34.3056 14.4906 33.5682C15.6602 32.8332 17.2034 33.1848 17.9408 34.3471L19.7721 37.2479L29.2534 29.5735C30.3253 28.7067 31.9027 28.8727 32.7695 29.9446C33.6387 31.0166 33.4727 32.5915 32.3983 33.4607ZM66.8318 98.748H43.391C42.009 98.748 40.8907 97.6297 40.8907 96.2477C40.8907 94.8656 42.009 93.7473 43.391 93.7473H66.8318C68.2138 93.7473 69.3321 94.8656 69.3321 96.2477C69.3321 97.6297 68.2138 98.748 66.8318 98.748ZM66.8318 78.7453H43.391C42.009 78.7453 40.8907 77.627 40.8907 76.2449C40.8907 74.8629 42.009 73.7446 43.391 73.7446H66.8318C68.2138 73.7446 69.3321 74.8629 69.3321 76.2449C69.3321 77.627 68.2138 78.7453 66.8318 78.7453ZM66.8318 58.7425H43.391C42.009 58.7425 40.8907 57.6242 40.8907 56.2422C40.8907 54.8602 42.009 53.7418 43.391 53.7418H66.8318C68.2138 53.7418 69.3321 54.8602 69.3321 56.2422C69.3321 57.6242 68.2138 58.7425 66.8318 58.7425ZM66.8318 38.7398H43.391C42.009 38.7398 40.8907 37.6215 40.8907 36.2394C40.8907 34.8574 42.009 33.7391 43.391 33.7391H66.8318C68.2138 33.7391 69.3321 34.8574 69.3321 36.2394C69.3321 37.6215 68.2138 38.7398 66.8318 38.7398Z" fill="#1B4A8A"/>
</svg>
