<svg width="168" height="87" viewBox="0 0 168 87" fill="none" xmlns="http://www.w3.org/2000/svg">
<path d="M77.0839 38.3681L78.7125 32.0291C79.2873 29.6417 81.6824 27.9129 84.4606 27.7482L98.1603 26.678L108.699 17.7869C111.573 15.3172 115.405 14 119.428 14H125.368C135.523 14 145.391 16.9637 153.438 22.3148L154.205 22.7264C156.695 24.3729 159.282 25.9371 161.964 27.3366L166.659 29.8063C167.521 30.218 168 31.0412 168 31.7821V39.7676C168 41.0848 166.755 42.0727 165.318 42.0727H159.282C159.282 37.2979 154.779 33.4286 149.223 33.4286C143.666 33.4286 139.164 37.2979 139.164 42.0727H106.112C106.016 37.2979 101.418 33.4286 95.8611 33.4286C90.3046 33.4286 85.7061 37.2979 85.7061 42.0727H80.5328C78.2335 42.0727 76.6049 40.2616 77.0839 38.3681ZM133.415 26.1017H148.648C144.145 23.2204 138.876 21.2446 133.415 20.2567V26.1017ZM126.901 26.1017V19.5981C126.422 19.5981 125.943 19.5158 125.368 19.5158H119.333C117.033 19.5158 114.83 20.2567 113.105 21.6562L107.932 26.1017H126.901Z" fill="#1B4A8A"/>
<path d="M149.127 48C145.317 48 142.229 45.3462 142.229 42.0726C142.229 38.799 145.317 36.1453 149.127 36.1453C152.936 36.1453 156.025 38.799 156.025 42.0726C156.025 45.3462 152.936 48 149.127 48Z" fill="#1B4A8A"/>
<path d="M95.8608 48C92.0513 48 88.9631 45.3462 88.9631 42.0726C88.9631 38.799 92.0513 36.1453 95.8608 36.1453C99.6703 36.1453 102.759 38.799 102.759 42.0726C102.759 45.3462 99.6703 48 95.8608 48Z" fill="#1B4A8A"/>
<path d="M16.2775 3.23565H22.8813L71.4069 0V62.6958H75.0415V53.5173H157.523C160.299 53.5242 162.959 54.4619 164.922 56.1255C166.885 57.7892 167.992 60.0436 168 62.3964V71.5944H159.853C159.898 73.6255 159.46 75.6435 158.564 77.5276C157.668 79.4118 156.333 81.1233 154.638 82.5597C152.943 83.9962 150.923 85.128 148.7 85.8874C146.477 86.6469 144.096 87.0183 141.699 86.9795C139.301 87.0242 136.917 86.6567 134.691 85.8993C132.464 85.142 130.442 84.0103 128.746 82.5727C127.05 81.1351 125.714 79.4212 124.821 77.5344C123.927 75.6477 123.493 73.6271 123.546 71.5944H71.1138C71.1192 73.6159 70.6541 75.6184 69.7451 77.4872C68.8361 79.3561 67.501 81.0547 65.8164 82.4857C64.1317 83.9167 62.1306 85.052 59.9275 85.8266C57.7244 86.6013 55.3627 87 52.9775 87C50.5924 87 48.2306 86.6013 46.0275 85.8266C43.8245 85.052 41.8233 83.9167 40.1386 82.4857C38.454 81.0547 37.1189 79.3561 36.2099 77.4872C35.3009 75.6184 34.8358 73.6159 34.8412 71.5944H0V35.595L5.94194 10.4166C6.41982 8.39163 7.71074 6.56954 9.59509 5.26032C11.4794 3.95111 13.8408 3.23564 16.2775 3.23565ZM141.728 79.1583C143.493 79.1583 145.218 78.7147 146.686 77.8836C148.154 77.0525 149.298 75.8711 149.974 74.489C150.649 73.1068 150.826 71.5859 150.482 70.1186C150.137 68.6513 149.287 67.3035 148.039 66.2456C146.791 65.1877 145.2 64.4673 143.469 64.1755C141.738 63.8836 139.943 64.0334 138.312 64.6059C136.681 65.1785 135.288 66.148 134.307 67.392C133.326 68.6359 132.803 70.0984 132.803 71.5944C132.803 72.5877 133.034 73.5713 133.482 74.489C133.931 75.4067 134.588 76.2406 135.417 76.9429C136.246 77.6453 137.229 78.2025 138.312 78.5826C139.395 78.9627 140.556 79.1583 141.728 79.1583ZM52.9775 79.1583C54.7427 79.1583 56.4683 78.7147 57.9361 77.8836C59.4038 77.0525 60.5478 75.8711 61.2234 74.489C61.8989 73.1068 62.0757 71.5859 61.7313 70.1186C61.387 68.6513 60.5369 67.3035 59.2887 66.2456C58.0405 65.1877 56.4502 64.4673 54.7189 64.1755C52.9876 63.8836 51.193 64.0334 49.5621 64.6059C47.9313 65.1785 46.5374 66.148 45.5567 67.392C44.576 68.6359 44.0526 70.0984 44.0527 71.5944C44.0511 72.5881 44.2808 73.5723 44.7288 74.4906C45.1767 75.4089 45.8341 76.2433 46.6631 76.9459C47.4922 77.6485 48.4767 78.2056 49.5602 78.5853C50.6437 78.9649 51.805 79.1596 52.9775 79.1583ZM41.5225 35.595V15.37H22.327C21.0386 15.37 19.7946 15.769 18.8291 16.4921C17.8637 17.2152 17.2433 18.2123 17.0848 19.296L14.7003 35.595H41.5225Z" fill="#1B4A8A"/>
</svg>
