<svg width="125" height="149" viewBox="0 0 125 149" fill="none" xmlns="http://www.w3.org/2000/svg">
<path d="M25.7863 43.4452C32.4562 43.4452 37.8632 38.0382 37.8632 31.3683C37.8632 24.6985 32.4562 19.2915 25.7863 19.2915C19.1165 19.2915 13.7095 24.6985 13.7095 31.3683C13.7095 38.0382 19.1165 43.4452 25.7863 43.4452Z" fill="#1B4A8A"/>
<path d="M49.7832 73.2452L37.079 69.481L28.139 51.601C27.9821 51.2873 27.5116 50.1894 26.1 48.7778C23.7474 46.582 20.6105 45.4841 17.4737 45.4841C14.3369 45.641 11.5137 47.0526 9.47476 49.4052C8.84739 50.1894 8.06318 51.7578 7.7495 52.6989L0.221075 82.1852C-0.249451 83.9104 0.0642326 85.7925 0.848443 87.361L13.3958 111.044C13.7095 111.515 13.7095 112.142 13.7095 112.769L9.31791 140.217C8.69055 143.824 10.7295 147.588 14.3369 148.686C15.1211 148.843 15.7484 149 16.3758 149C19.8263 149 22.8063 146.647 23.5905 143.04L29.5505 111.828C29.8642 110.574 29.7074 109.319 29.2369 108.064L22.6495 88.6157C22.4926 88.1452 22.4927 87.5178 22.4927 86.8904L25.4727 73.402L27.3548 77.1662C28.139 78.7347 29.3937 79.8325 31.119 80.3031L46.6463 84.8515C47.2737 85.0083 47.7442 85.1652 48.3716 85.1652C51.1948 85.1652 53.8611 83.1262 54.3316 80.1462C54.959 77.1662 52.92 74.1862 49.7832 73.2452Z" fill="#1B4A8A"/>
<path d="M98.561 43.4452C105.231 43.4452 110.638 38.0382 110.638 31.3683C110.638 24.6985 105.231 19.2915 98.561 19.2915C91.8911 19.2915 86.4841 24.6985 86.4841 31.3683C86.4841 38.0382 91.8911 43.4452 98.561 43.4452Z" fill="#1B4A8A"/>
<path d="M123.185 87.3613C123.969 85.7928 124.283 83.9107 123.812 82.1855L116.284 52.6992C115.97 51.7581 115.343 50.1897 114.559 49.4055C112.52 47.0529 109.697 45.6413 106.56 45.4844C103.423 45.3276 100.286 46.4255 97.9334 48.7781C96.5218 50.1897 96.0513 51.2876 95.8944 51.6013L87.2681 69.4813L74.5639 73.0886C71.5839 74.0297 69.3881 77.0097 70.0155 80.1465C70.6429 83.1265 73.1523 85.1655 75.9755 85.1655C76.6029 85.1655 77.0734 85.0086 77.7008 84.8518L93.2281 80.3034C94.7966 79.8328 96.2081 78.735 96.9923 77.1665L98.8744 73.4023L101.854 86.8907C102.011 87.5181 102.011 87.9886 101.698 88.616L94.7966 108.064C94.326 109.319 94.326 110.574 94.4829 111.829L100.443 143.04C101.07 146.491 104.207 149 107.501 149C108.128 149 108.912 148.843 109.54 148.687C113.147 147.589 115.186 143.824 114.559 140.217L110.167 112.77C110.01 112.142 110.167 111.672 110.481 111.044L123.185 87.3613Z" fill="#1B4A8A"/>
<path d="M81.9361 15.6842C81.9361 7.05789 73.1529 0 62.174 0C51.195 0 42.4119 7.05789 42.4119 15.6842C42.4119 20.5463 45.235 24.9379 49.7834 27.9179C49.4698 29.3295 48.6855 31.6821 47.1171 33.5642C46.1761 34.6621 47.1171 36.2305 48.3719 35.9168C54.4887 34.9758 57.4687 32.6232 58.8803 31.0547C59.9782 31.2116 60.9192 31.2116 62.0171 31.2116C72.9961 31.3684 81.9361 24.3105 81.9361 15.6842ZM72.3687 12.7042C73.9371 12.7042 75.1919 13.9589 75.1919 15.5274C75.1919 17.0958 73.9371 18.3505 72.3687 18.3505C70.8003 18.3505 69.5455 17.0958 69.5455 15.5274C69.3887 14.1158 70.6434 12.7042 72.3687 12.7042ZM51.9792 12.7042C53.5476 12.7042 54.8024 13.9589 54.8024 15.5274C54.8024 17.0958 53.5476 18.3505 51.9792 18.3505C50.4108 18.3505 49.1561 17.0958 49.1561 15.5274C49.1561 14.1158 50.4108 12.7042 51.9792 12.7042ZM59.3508 15.6842C59.3508 14.1158 60.6055 12.8611 62.174 12.8611C63.7424 12.8611 64.9971 14.1158 64.9971 15.6842C64.9971 17.2526 63.7424 18.5074 62.174 18.5074C60.6055 18.5074 59.3508 17.2526 59.3508 15.6842Z" fill="#1B4A8A"/>
</svg>