<svg width="106" height="107" viewBox="0 0 106 107" fill="none" xmlns="http://www.w3.org/2000/svg">
<path d="M81.997 40.6466C81.997 49.8064 74.5152 57.2538 65.3132 57.2538C56.1112 57.2538 48.6295 49.8064 48.6295 40.6466C48.6295 31.4868 56.0823 24.0394 65.3132 24.0394C74.5441 24.0394 81.997 31.4868 81.997 40.6466ZM104.557 48.8358L97.7634 44.7556C98.1642 41.7023 98.0788 38.6203 97.649 35.6533L104.299 31.373C105.532 30.5737 105.99 29.0327 105.417 27.6918L103.869 24.0969L102.321 20.502C101.748 19.1611 100.258 18.4481 98.8817 18.7896L91.1713 20.6446C89.2789 18.1905 87.0145 16.0503 84.4347 14.1678L86.0972 6.52024C86.3837 5.09307 85.6385 3.66709 84.2625 3.12426L80.6222 1.66953L76.9806 0.214793C75.6324 -0.328037 74.0855 0.186034 73.3403 1.44065L69.1835 8.20385C66.1162 7.83238 63.0199 7.91865 60.0393 8.40397L55.797 1.84088C54.9941 0.613826 53.446 0.157274 52.0989 0.727664L48.4874 2.26868L44.876 3.80969C43.5289 4.38008 42.8126 5.86357 43.1557 7.23323L45.0481 14.9659C42.6694 16.8208 40.5482 19.0173 38.7136 21.5289L31.0309 19.8741C29.5971 19.5889 28.1646 20.3306 27.6192 21.7003L26.1578 25.3239L24.6964 28.9476C24.1522 30.2885 24.6675 31.8295 25.9291 32.5713L32.7222 36.709C32.3635 39.6436 32.4333 42.6034 32.8715 45.4638C36.1591 45.822 39.2999 46.6644 42.2216 47.9179C40.5868 42.7963 40.6554 37.1032 42.8126 31.7169C47.7712 19.3337 61.8462 13.2834 74.2865 18.2204C86.6991 23.1562 92.776 37.1667 87.8451 49.5499C83.2164 61.1087 70.6461 67.147 58.8752 63.8864C60.2295 66.718 61.1877 69.7736 61.6753 72.9827C64.5536 73.3014 67.45 73.2068 70.2453 72.8053L74.5453 79.4247C75.3483 80.6518 76.8964 81.1084 78.2434 80.538L81.8549 78.9969L85.4664 77.4559C86.8134 76.8855 87.5297 75.4021 87.1866 74.0324L85.3231 66.3573C87.7307 64.5023 89.8808 62.3346 91.7154 59.823L99.4547 61.4778C100.888 61.763 102.321 61.0213 102.866 59.6516L104.328 56.028L105.789 52.4043C106.333 51.1185 105.789 49.5775 104.557 48.8358ZM58.5177 75.1432V77.8634V80.5835C58.5177 81.6128 57.7797 82.4708 56.7697 82.6422L51.3297 83.5493C50.7879 85.6319 49.9754 87.5923 48.8919 89.4054L52.0917 93.8894C52.6827 94.7222 52.584 95.8498 51.8702 96.5604L49.9501 98.4717L48.03 100.383C47.3161 101.094 46.1833 101.192 45.3467 100.603L40.842 97.4184C39.0206 98.4969 37.0512 99.3057 34.9589 99.845L34.0476 105.26C33.8755 106.264 32.9895 107 31.9795 107H29.2468H26.5141C25.48 107 24.6181 106.265 24.446 105.26L23.5347 99.845C21.5159 99.3309 19.5717 98.522 17.7985 97.4927L13.2685 100.703C12.4318 101.291 11.299 101.193 10.5852 100.482L8.66509 98.5712L6.745 96.6599C6.03114 95.9493 5.93242 94.8217 6.5235 93.9889L9.69917 89.554C8.64102 87.7649 7.77908 85.8045 7.23736 83.7218L1.74795 82.7908C0.739145 82.6194 0 81.7375 0 80.7321V78.0119V75.2918C0 74.2625 0.737942 73.4045 1.74795 73.2331L7.13865 72.326C7.65509 70.2434 8.46767 68.283 9.52703 66.4699L6.30199 61.9607C5.71092 61.1279 5.80963 60.0003 6.5235 59.2897L8.44359 57.3784L10.3637 55.4672C11.0775 54.7566 12.2103 54.6583 13.047 55.2467L17.4783 58.4569C19.2756 57.4036 21.245 56.5456 23.3372 56.0064L24.2726 50.5421C24.4448 49.538 25.3308 48.8022 26.3408 48.8022H29.0734H31.8061C32.8402 48.8022 33.7021 49.5368 33.8743 50.5421L34.7856 55.9081C36.9524 56.4222 38.97 57.2562 40.8167 58.3586L45.3214 55.1736C46.158 54.5852 47.2908 54.6835 48.0047 55.3941L49.9248 57.3053L51.8449 59.2166C52.5588 59.9272 52.6575 61.0548 52.0664 61.8876L48.8666 66.3717C49.9501 68.1847 50.7627 70.1451 51.3032 72.2278L56.7432 73.1349C57.7292 73.305 58.4683 74.163 58.5177 75.1432ZM46.1099 77.8873C46.1099 68.6005 38.5523 61.0776 29.2227 61.0776C19.8931 61.0776 12.3355 68.6005 12.3355 77.8873C12.3355 87.1741 19.8931 94.6971 29.2227 94.6971C38.5282 94.6983 46.1099 87.1753 46.1099 77.8873Z" fill="#1B4A8A"/>
</svg>
