<?xml version="1.0" encoding="utf-8"?>
<!-- Generator: Adobe Illustrator 22.1.0, SVG Export Plug-In . SVG Version: 6.00 Build 0)  -->
<svg version="1.1" id="Layer_1" xmlns="http://www.w3.org/2000/svg" xmlns:xlink="http://www.w3.org/1999/xlink" x="0px" y="0px"
	 width="83px" height="60px" viewBox="0 0 83 60" enable-background="new 0 0 83 60" xml:space="preserve">
<g>
	<path fill="#BFC8D8" d="M21,56.7c-1.1,0-2-0.9-2-2s0.9-2,2-2s2,0.9,2,2S22.1,56.7,21,56.7z M23.8,46.4h-5c-0.5,0-1,0.5-1,1v10.1
		c0,0.6,0.4,1,1,1h5c0.5,0,1-0.5,1-1V47.4C24.7,46.9,24.3,46.4,23.8,46.4z"/>
	<path fill="#9FA8B9" d="M28.7,10.2V6.9c0-2.1-1.7-3.7-3.7-3.7h-2.2c0-0.9-0.7-1.7-1.6-1.7c-0.9,0-1.5,0.7-1.5,1.7h-2.2
		c-2,0-3.7,1.7-3.7,3.7v3.3H28.7z"/>
	<path fill="#BFC8D8" d="M25,42.4h-7.5c-2,0-3.7-1.7-3.7-3.7V9.9c0-2.1,1.7-3.7,3.7-3.7H25c2,0,3.7,1.7,3.7,3.7v28.7
		C28.7,40.7,27.1,42.4,25,42.4z"/>
	<path fill="#9FA8B9" d="M42.9,44.9c-0.4-0.9-1.3-1.5-2.3-1.5h-4.4c-1.4,0-2.5-1.1-2.5-2.5v-2.1c0-1.4-1.1-2.5-2.5-2.5H11.3
		c-1.4,0-2.5,1.1-2.5,2.5v2.1c0,1.4-1.1,2.5-2.5,2.5H2.5c-1,0-1.9,0.5-2.3,1.5c-0.7,1.8,0.6,3.6,2.3,3.6h5.6c1.2,0,2.2,0.5,2.2,1
		c0,0.6,1,1,2.2,1h18.3c1.2,0,2.2-0.5,2.2-1c0-0.6,1-1,2.2-1h5.3C42.3,48.4,43.6,46.7,42.9,44.9z"/>
</g>
</svg>
