<?xml version="1.0" encoding="utf-8"?>
<!-- Generator: Adobe Illustrator 16.0.0, SVG Export Plug-In . SVG Version: 6.00 Build 0)  -->
<!DOCTYPE svg PUBLIC "-//W3C//DTD SVG 1.1//EN" "http://www.w3.org/Graphics/SVG/1.1/DTD/svg11.dtd">
<svg version="1.1" id="Слой_1" xmlns="http://www.w3.org/2000/svg" xmlns:xlink="http://www.w3.org/1999/xlink" x="0px" y="0px"
	 width="801.938px" height="104.7px" viewBox="0 0 801.938 104.7" enable-background="new 0 0 801.938 104.7" xml:space="preserve">
<g>
	<g>
		<path fill-rule="evenodd" clip-rule="evenodd" fill="#FFFFFF" d="M0.24,66.48c0-22.08,0-44.16,0-66.24c267.36,0,534.72,0,802.08,0
			c0,34.96,0,69.919,0,104.88c-267.359,0-534.72,0-802.08,0c0-6.16,0-12.32,0-18.48c5.419,0,10.838,0,16.254,0
			c0-6.773,0-13.358,0-20.085c-1.593,0-3.132,0-4.804,0c0.848-3.563,1.647-6.963,2.488-10.353c0.053-0.216,0.425-0.501,0.651-0.503
			c3.513-0.032,7.025-0.022,10.537-0.022c0.809,3.649,1.596,7.201,2.412,10.881c-1.342,0-2.5,0.062-3.648-0.019
			c-1.008-0.071-1.282,0.286-1.275,1.278c0.043,5.878,0.02,11.757,0.023,17.636c0,0.351,0.038,0.702,0.061,1.115
			c5.441,0,10.819,0,16.249,0c0.034-0.222,0.088-0.413,0.088-0.603c0.005-6.159-0.005-12.317,0.019-18.476
			c0.003-0.759-0.291-0.964-0.993-0.942c-1.227,0.04-2.456,0.011-3.686,0.011c-2.538-11.302-5.042-22.458-7.588-33.801
			c1.354,0,2.49,0,3.592,0c0-6.402,0-12.657,0-18.997c-7.124,0-14.157,0.004-21.189-0.006c-0.727-0.001-0.716,0.453-0.716,0.96
			c0.003,5.719,0.013,11.438-0.011,17.156c-0.003,0.757,0.285,0.977,0.991,0.944c0.907-0.042,1.817-0.01,2.847-0.01
			c-0.509,2.216-0.983,4.265-1.45,6.315c-2.014,8.85-4.033,17.698-6.023,26.553c-0.137,0.611-0.333,0.92-0.998,0.892
			C2.795,66.509,1.517,66.505,0.24,66.48z M772.315,32.804c1.358,0,2.597-0.051,3.828,0.017c0.895,0.05,1.165-0.248,1.159-1.149
			c-0.037-5.598-0.038-11.197,0.001-16.795c0.006-0.918-0.297-1.144-1.172-1.138c-4.999,0.037-9.997,0.017-14.996,0.021
			c-0.311,0-0.621,0.044-0.986,0.071c0,6.318,0,12.575,0,19.012c1.698,0,3.348,0,4.965,0c0,11.32,0,22.459,0,33.734
			c-1.698,0-3.317,0-4.946,0c0,6.751,0,13.365,0,19.961c5.731,0,11.382,0,17.028,0c0.038-0.207,0.077-0.323,0.078-0.438
			c0.005-6.198-0.003-12.396,0.021-18.595c0.003-0.74-0.252-0.983-0.976-0.96c-1.338,0.042-2.678,0.012-3.995,0.012
			c0-5.036,0-9.856,0-14.675c2.788,0,5.507-0.159,8.198,0.043c2.809,0.212,5.143,1.615,5.565,4.561
			c0.47,3.283,0.385,6.645,0.546,10.069c-1.539,0-2.777,0.061-4.007-0.019c-1.011-0.065-1.389,0.188-1.378,1.301
			c0.058,5.878,0.026,11.757,0.029,17.635c0.001,0.35,0.041,0.7,0.066,1.097c5.77,0,11.467,0,17.199,0
			c0.037-0.205,0.089-0.356,0.09-0.508c0.006-6.198-0.004-12.397,0.022-18.595c0.003-0.782-0.336-0.937-1.015-0.92
			c-1.379,0.033-2.759,0.01-4.21,0.01c0-2.624,0.02-5.059-0.004-7.492c-0.058-5.971-3.981-10.867-9.813-12.256
			c-0.786-0.188-1.585-0.321-2.497-0.504c0.21-0.302,0.305-0.476,0.435-0.619c3.158-3.487,6.419-6.888,9.439-10.49
			c1.547-1.844,3.184-2.862,5.593-2.394c0.039,0.008,0.081-0.003,0.12,0.001c0.703,0.083,0.994-0.178,0.99-0.934
			c-0.023-5.719-0.022-11.437,0-17.156c0.002-0.728-0.234-0.973-0.967-0.969c-4.839,0.024-9.678,0.025-14.516-0.001
			c-0.754-0.004-0.95,0.282-0.947,0.988c0.02,5.679,0.029,11.357-0.008,17.036c-0.006,0.896,0.352,1.078,1.135,1.048
			c1.209-0.047,2.422-0.012,3.836-0.012c-0.331,0.436-0.479,0.665-0.66,0.865c-3.638,4.022-7.298,8.026-10.906,12.076
			c-0.668,0.75-1.346,1.021-2.348,0.707C772.315,41.967,772.315,37.47,772.315,32.804z M466.178,66.56c0,6.788,0,13.403,0,20.014
			c5.476,0,10.861,0,16.249,0c0.052-0.163,0.118-0.274,0.119-0.384c0.009-6.279,0.006-12.557,0.023-18.835
			c0.003-0.658-0.302-0.814-0.881-0.804c-1.18,0.023-2.36,0.007-3.518,0.007c0-11.355,0-22.524,0-33.68c4.241,0,8.384,0,12.557,0
			c0,11.247,0,22.42,0,33.701c-1.504,0-2.929,0-4.415,0c0,6.721,0,13.334,0,19.976c5.477,0,10.889,0,16.304,0
			c0.044-0.186,0.095-0.299,0.095-0.413c0.006-6.239,0.001-12.477,0.021-18.716c0.003-0.701-0.283-0.894-0.932-0.879
			c-1.343,0.032-2.686,0.01-4.01,0.01c0-11.354,0-22.522,0-33.753c1.306,0,2.508-0.066,3.699,0.02
			c1.039,0.075,1.26-0.338,1.253-1.301c-0.041-5.438-0.052-10.878,0.006-16.316c0.013-1.138-0.275-1.481-1.447-1.477
			c-11.278,0.044-22.556,0.026-33.833,0.026c-0.428,0-0.854,0-1.313,0c0,6.409,0,12.667,0,19.063c1.683,0,3.301,0,4.947,0
			c0,11.307,0,22.475,0,33.741C469.426,66.56,467.838,66.56,466.178,66.56z M650.011,44.05c-1.414,1.969-1.873,3.994-1.974,6.059
			c-0.177,3.626-0.123,7.264-0.295,10.891c-0.099,2.058-0.326,4.128-0.727,6.147c-0.472,2.371-1.305,2.911-3.743,2.943
			c-0.229,0.003-0.456,0.026-0.708,0.042c0,8.535,0,16.988,0,25.486c1.738,0,3.399,0,5.093,0c0.103-1.845,0.188-3.628,0.302-5.409
			c0.104-1.611,0.848-2.62,2.406-3.03c0.951-0.25,1.962-0.373,2.946-0.375c4.906-0.01,9.816-0.071,14.716,0.117
			c2.395,0.092,3.478,1.583,3.502,3.979c0.013,1.279,0.082,2.559,0.053,3.836c-0.017,0.745,0.26,0.989,0.98,0.958
			c0.998-0.044,2.005-0.075,2.998,0.006c1.065,0.087,1.438-0.217,1.431-1.368c-0.054-7.639-0.028-15.279-0.028-22.918
			c0-0.421,0-0.842,0-1.387c-1.848,0-3.508,0-5.127,0c0-8.708,0-17.289,0-25.976c1.108,0,2.136,0,3.205,0c0-5.041,0-9.975,0-14.912
			c-10.161,0-20.252,0-30.332,0c0,4.998,0,9.904,0,14.91C646.435,44.05,648.103,44.05,650.011,44.05z M584.138,81.454
			c0.161,0.014,0.215,0.003,0.227,0.021c0.112,0.164,0.223,0.329,0.322,0.5c2.312,3.982,5.986,5.046,10.242,4.63
			c3.584-0.351,5.809-2.55,7.151-5.763c1.236-2.957,1.637-6.088,1.658-9.239c0.067-9.878,0.065-19.757-0.006-29.636
			c-0.017-2.255-0.286-4.531-0.672-6.758c-0.609-3.514-2.896-5.74-6.417-6.379c-1.245-0.226-2.538-0.226-3.811-0.254
			c-2.906-0.065-5.273,1.073-7.078,3.346c-0.535,0.674-0.991,1.411-1.632,2.332c-0.278-1.874-0.523-3.529-0.762-5.128
			c-2.834,0-5.535,0-8.221,0c0,5.01,0,9.941,0,14.985c1.112,0,2.135,0,3.17,0c0,15.841,0,31.567,0,47.385c-1.121,0-2.146,0-3.172,0
			c0,4.343,0,8.593,0,12.835c4.438,0,8.783,0,13.175,0c0-4.313,0-8.564,0-12.921c-1.434,0-2.779,0-4.176,0
			C584.138,88.038,584.138,84.77,584.138,81.454z M427.364,29.115c-4.327,0-8.504,0-12.803,0c0,4.816-0.012,9.566,0.038,14.315
			c0.002,0.221,0.543,0.589,0.86,0.622c0.849,0.088,1.712,0.03,2.628,0.03c0,0.801-0.038,1.4,0.01,1.992
			c0.068,0.854-0.188,1.437-0.883,2.042c-2.826,2.464-5.56,5.035-8.335,7.558c-1.844,1.676-3.699,3.338-5.654,5.1
			c0-5.656,0-11.136,0-16.753c1.237,0,2.374,0,3.508,0c0-5.044,0-9.95,0-14.893c-4.31,0-8.56,0-12.789,0c0,5.012,0,9.944,0,14.989
			c1.116,0,2.139,0,3.205,0c0,8.694,0,17.272,0,25.986c-1.109,0-2.165,0-3.205,0c0,5.586,0,11.037,0,16.454
			c4.319,0,8.542,0,12.751,0c0-5.527,0-10.978,0-16.544c-1.236,0-2.376,0-3.451,0c-0.38-1.987-0.068-3.468,1.582-4.825
			c3.294-2.708,6.355-5.698,9.519-8.565c1.182-1.071,2.381-2.121,3.677-3.273c0,5.707,0,11.171,0,16.762c-1.161,0-2.259,0-3.401,0
			c0,5.547,0,10.968,0,16.455c4.241,0,8.419,0,12.66,0c0-5.494,0-10.946,0-16.504c-1.107,0-2.133,0-3.166,0
			c0-8.71,0-17.315,0-25.978c0.629,0,1.147,0,1.666,0c1.582-0.001,1.583-0.001,1.584-1.528c0-4.04,0-8.08,0-12.119
			C427.364,30.008,427.364,29.581,427.364,29.115z M375,86.557c4.294,0,8.473,0,12.699,0c0-5.496,0-10.917,0-16.486
			c-1.113,0-2.167,0-3.208,0c0-8.728,0-17.306,0-25.987c0.719,0,1.356-0.051,1.982,0.012c0.957,0.096,1.327-0.191,1.313-1.237
			c-0.058-4.239-0.022-8.479-0.027-12.719c0-0.345-0.047-0.689-0.07-1.002c-4.289,0-8.467,0-12.73,0
			c0,4.803-0.012,9.517,0.036,14.23c0.002,0.241,0.501,0.649,0.802,0.682c0.855,0.093,1.728,0.033,2.69,0.033
			c0,0.667-0.065,1.189,0.014,1.689c0.167,1.054-0.25,1.768-1.028,2.459c-3.637,3.232-7.231,6.512-10.842,9.775
			c-0.959,0.867-1.92,1.733-3,2.708c0-5.678,0-11.123,0-16.662c1.216,0,2.324,0,3.495,0c0-5.03,0-9.963,0-14.917
			c-4.315,0-8.566,0-12.822,0c0,4.993,0,9.899,0,14.958c1.103,0,2.158,0,3.237,0c0,8.732,0,17.311,0,26.023
			c-1.116,0-2.173,0-3.232,0c0,5.557,0,10.979,0,16.433c4.312,0,8.563,0,12.821,0c0-5.505,0-10.928,0-16.468
			c-1.198,0-2.341,0-3.601,0c0-1.063-0.032-2.014,0.021-2.959c0.016-0.276,0.215-0.603,0.429-0.798
			c3.772-3.438,7.559-6.862,11.347-10.283c0.983-0.888,1.984-1.754,3.076-2.718c0,5.71,0,11.205,0,16.827c-1.18,0-2.274,0-3.401,0
			C375,75.669,375,81.058,375,86.557z M744.667,70.128c-1.185,0-2.281,0-3.4,0c0,5.548,0,10.969,0,16.441c4.248,0,8.426,0,12.645,0
			c0-5.514,0-10.964,0-16.521c-1.117,0-2.143,0-3.192,0c0-8.684,0-17.261,0-25.965c0.742,0,1.418-0.054,2.081,0.013
			c0.943,0.095,1.235-0.242,1.225-1.204c-0.05-4.279-0.02-8.559-0.025-12.838c0-0.309-0.054-0.617-0.082-0.931
			c-4.253,0-8.431,0-12.715,0c0,4.826-0.011,9.577,0.033,14.328c0.002,0.212,0.481,0.576,0.764,0.602
			c0.862,0.08,1.736,0.029,2.581,0.029c0.424,2.583,0.355,2.925-1.355,4.497c-3.231,2.968-6.498,5.897-9.751,8.841
			c-1.167,1.055-2.338,2.105-3.602,3.243c0-5.63,0-11.074,0-16.613c1.217,0,2.325,0,3.494,0c0-5.03,0-9.963,0-14.914
			c-4.317,0-8.567,0-12.823,0c0,4.993,0,9.899,0,14.958c1.104,0,2.159,0,3.239,0c0,8.731,0,17.31,0,26.022c-1.117,0-2.174,0-3.234,0
			c0,5.557,0,10.979,0,16.435c4.311,0,8.562,0,12.823,0c0-5.504,0-10.926,0-16.466c-1.196,0-2.339,0-3.52,0
			c-0.178-1.904-0.364-3.533,1.476-4.858c1.962-1.413,3.632-3.229,5.435-4.864c2.586-2.344,5.177-4.684,7.905-7.151
			C744.667,58.921,744.667,64.418,744.667,70.128z M249.499,86.603c6.25,0,12.371,0.14,18.479-0.083
			c1.897-0.069,3.895-0.868,5.607-1.78c2.684-1.43,3.779-4.144,4.004-6.993c0.353-4.485,0.438-8.998,0.474-13.5
			c0.012-1.395-0.361-2.839-0.805-4.18c-0.633-1.911-2.122-3.127-4.085-3.949c0.343-0.241,0.517-0.391,0.714-0.498
			c1.985-1.076,2.956-2.877,3.015-4.998c0.145-5.183,0.124-10.363-0.879-15.498c-0.593-3.034-2.225-4.97-5.23-5.668
			c-1.002-0.233-2.046-0.386-3.071-0.393c-5.64-0.037-11.278-0.018-16.918-0.018c-0.422,0-0.845,0-1.363,0
			c0,4.876-0.013,9.589,0.034,14.3c0.002,0.247,0.489,0.669,0.783,0.7c0.891,0.093,1.798,0.034,2.69,0.034c0,8.771,0,17.345,0,26.03
			c-1.188,0-2.29,0-3.449,0C249.499,75.644,249.499,81.064,249.499,86.603z M682.641,29.098c0,4.841-0.01,9.591,0.033,14.342
			c0.002,0.216,0.474,0.584,0.754,0.612c0.815,0.083,1.646,0.03,2.489,0.03c0,8.753,0,17.328,0,26.013c-1.099,0-2.121,0-3.193,0
			c0,5.563,0,11.015,0,16.453c4.346,0,8.604,0,12.888,0c0-5.506,0-10.927,0-16.473c-1.247,0-2.427,0-3.619,0
			c0-3.818,0-7.512,0-11.19c4.414,0,8.748,0,13.075,0c0,3.757,0,7.422,0,11.213c-1.154,0-2.253,0-3.373,0c0,5.575,0,11.024,0,16.441
			c4.274,0,8.45,0,12.63,0c0-5.516,0-10.937,0-16.464c-1.101,0-2.126,0-3.177,0c0-8.712,0-17.317,0-25.99
			c0.742,0,1.386-0.059,2.015,0.014c1.027,0.118,1.273-0.313,1.262-1.287c-0.049-4.039-0.021-8.08-0.021-12.12
			c0-0.509,0-1.018,0-1.581c-4.317,0-8.495,0-12.646,0c-0.063,0.13-0.127,0.2-0.127,0.27c-0.015,4.64-0.016,9.279-0.041,13.918
			c-0.004,0.667,0.323,0.806,0.893,0.791c0.859-0.023,1.72-0.006,2.564-0.006c0,3.494,0,6.792,0,10.074c-4.414,0-8.748,0-13.053,0
			c0-3.394,0-6.696,0-10.073c0.839,0,1.603-0.063,2.351,0.015c1.032,0.107,1.382-0.217,1.365-1.311
			c-0.065-4.199-0.025-8.399-0.03-12.599c0-0.349-0.042-0.698-0.067-1.091C691.301,29.098,687.071,29.098,682.641,29.098z
			 M348.575,70.051c-1.213,0-2.319,0-3.436,0c-0.091-2.009-0.245-3.914-0.25-5.819c-0.011-4.72-3.688-8.664-8.254-9.5
			c-1.307-0.239-2.655-0.249-4.097-0.375c0.124-0.233,0.172-0.429,0.296-0.542c2.39-2.174,4.764-4.366,7.191-6.497
			c1.862-1.634,3.431-3.925,6.475-3.199c0.054,0.013,0.131-0.067,0.2-0.106c0-4.973,0-9.943,0-14.906c-4.197,0-8.303,0-12.382,0
			c-0.063,0.129-0.127,0.199-0.128,0.269c-0.014,4.639-0.016,9.278-0.041,13.917c-0.004,0.665,0.316,0.815,0.89,0.793
			c0.635-0.024,1.271-0.006,1.906-0.006c0.017,0.115,0.034,0.23,0.051,0.346c-3.548,3.295-7.095,6.59-10.782,10.015
			c0-3.562,0-6.896,0-10.378c1.111,0,2.167,0,3.21,0c0-5.086,0-10.022,0-14.96c-4.194,0-8.301,0-12.537,0
			c0,4.844-0.01,9.632,0.036,14.42c0.002,0.188,0.526,0.502,0.83,0.532c0.78,0.076,1.572,0.025,2.418,0.025
			c0,8.728,0,17.304,0,26.034c-1.111,0-2.164,0-3.219,0c0,5.576,0,10.997,0,16.436c4.212,0,8.348,0,12.501,0
			c0-5.501,0-10.924,0-16.48c-1.108,0-2.164,0-3.215,0c0-3.749,0-7.362,0-11.037c2.321,0,4.558-0.04,6.792,0.011
			c2.61,0.059,4.839,0.903,5.793,3.579c0.859,2.41,0.5,4.929,0.53,7.508c-1.521,0-2.866,0-4.216,0c0,5.543,0,10.994,0,16.44
			c4.517,0,8.942,0,13.437,0C348.575,81.093,348.575,75.672,348.575,70.051z M132.571,29.108c0,5.012,0,9.944,0,15.037
			c0.958,0,1.836,0,3.021,0c-3.795,3.523-7.338,6.812-11.039,10.247c0-3.575,0-6.871,0-10.308c0.654,0,1.249-0.061,1.827,0.013
			c1.126,0.143,1.514-0.232,1.492-1.423c-0.073-4.118-0.026-8.238-0.03-12.357c0-0.389-0.034-0.778-0.053-1.192
			c-4.227,0-8.362,0-12.49,0c0,5.008,0,9.939,0,14.983c1.11,0,2.133,0,3.174,0c0,8.721,0,17.328,0,26.027c-1.12,0-2.146,0-3.175,0
			c0,5.542,0,10.993,0,16.439c4.196,0,8.301,0,12.459,0c0-5.511,0-10.963,0-16.52c-1.112,0-2.138,0-3.184,0
			c0-3.715,0-7.325,0-11.021c0.362,0,0.635,0,0.909,0c2,0.001,4.006-0.104,5.998,0.028c3.502,0.232,5.488,1.691,5.91,4.639
			c0.294,2.056,0.057,4.188,0.057,6.396c-1.348,0-2.691,0-4.081,0c0,5.563,0,11.015,0,16.445c4.544,0,9,0,13.508,0
			c0-2.809,0-5.525,0-8.242c0-2.706,0-5.412,0-8.25c-1.272,0-2.406,0-3.6,0c0-1.77,0.027-3.406-0.005-5.041
			c-0.123-6.239-4.511-10.519-10.762-10.52c-0.563,0-1.127,0-1.83,0c0.184-0.345,0.215-0.472,0.295-0.544
			c2.845-2.565,5.786-5.032,8.509-7.72c1.556-1.536,3.157-2.439,5.353-2.116c0.056,0.008,0.126-0.075,0.223-0.136
			c0-4.924,0-9.865,0-14.864C140.881,29.108,136.775,29.108,132.571,29.108z M44.307,86.632c1.61,0,3.159,0.005,4.707-0.001
			c2.848-0.012,4.792-1.341,5.395-4.119c0.519-2.395,0.872-4.869,0.913-7.315c0.118-7.077,0.002-14.157,0.067-21.236
			c0.019-2.021,0.226-4.059,0.547-6.056c0.476-2.965,1.602-3.821,4.589-3.821c1.919,0,3.839-0.003,5.759,0.003
			c0.383,0.001,0.767,0.042,1.148,0.065c0,8.695,0,17.269,0,25.962c-1.141,0-2.201,0-3.25,0c0,5.571,0,11.021,0,16.454
			c4.2,0,8.305,0,12.449,0c0-5.514,0-10.964,0-16.539c-1.11,0-2.129,0-3.118,0c0-8.705,0-17.286,0-25.946c0.596,0,1.112,0,1.627,0
			c1.582-0.001,1.583-0.002,1.583-1.528c0.001-4.039,0-8.079,0-12.118c0-0.428,0-0.856,0-1.324c-10.244,0-20.341,0-30.474,0
			c-0.036,0.209-0.084,0.362-0.084,0.514c-0.006,4.52,0.008,9.039-0.022,13.558c-0.005,0.795,0.361,0.922,1.026,0.908
			c1.452-0.03,2.905-0.009,4.615-0.009c-2.168,2.733-2.355,5.692-2.342,8.711c0.021,4.639,0.018,9.279,0,13.918
			c-0.009,2.217-0.923,3.134-3.101,3.201c-0.28,0.009-0.564,0.035-0.839-0.003c-0.999-0.138-1.296,0.275-1.286,1.272
			c0.046,4.758,0.02,9.518,0.023,14.277C44.239,85.811,44.278,86.162,44.307,86.632z M636.23,58.827
			c0.098-0.268,0.146-0.341,0.147-0.414c0.011-3.638,0.08-7.277,0.008-10.913c-0.063-3.143-0.112-6.303-0.479-9.419
			c-0.604-5.132-3.251-8.379-7.735-9.113c-2.666-0.437-5.509-0.409-8.187-0.015c-3.973,0.585-6.623,3.08-7.529,7.056
			c-0.5,2.196-0.865,4.473-0.887,6.718c-0.095,9.834-0.067,19.67-0.018,29.505c0.01,1.902,0.188,3.826,0.519,5.7
			c0.657,3.726,2.404,6.718,6.1,8.259c2.237,0.934,4.573,0.94,6.933,0.928c5.637-0.028,9.419-3.089,10.615-8.6
			c1.045-4.815,0.591-9.697,0.655-14.554c0.003-0.252-0.403-0.722-0.633-0.731c-1.627-0.064-3.258-0.034-5.012-0.034
			c0,0.75,0.022,1.38-0.007,2.008c-0.029,0.633-0.11,1.264-0.169,1.895c-0.15,1.611-1.151,2.682-2.771,2.73
			c-2.395,0.071-4.794,0.07-7.189,0.008c-2.048-0.053-3.195-1.026-3.301-3.031c-0.14-2.621-0.034-5.254-0.034-7.984
			C623.62,58.827,629.922,58.827,636.23,58.827z M242.803,58.805c0-5.192,0.038-10.186-0.02-15.178
			c-0.021-1.864-0.153-3.741-0.424-5.584c-0.814-5.555-3.433-8.456-8.721-9.285c-2.129-0.333-4.388-0.193-6.545,0.077
			c-4.704,0.587-7.563,3.36-8.425,8.013c-0.404,2.183-0.69,4.42-0.709,6.635c-0.077,9.316-0.063,18.632-0.01,27.948
			c0.013,2.101,0.181,4.222,0.514,6.296c0.679,4.235,2.729,7.584,7.086,8.755c2.077,0.558,4.335,0.582,6.513,0.6
			c4.614,0.038,8.167-2.62,9.615-7.008c1.76-5.329,0.946-10.838,1.092-16.279c0.006-0.192-0.358-0.56-0.559-0.565
			c-1.666-0.046-3.333-0.026-5.084-0.026c0,1.064,0.03,1.98-0.006,2.893c-0.107,2.745-1.098,3.762-3.801,3.806
			c-2.117,0.035-4.237,0.015-6.354-0.06c-1.935-0.068-3.109-0.963-3.229-2.827c-0.173-2.692-0.045-5.405-0.045-8.212
			C230.043,58.805,236.345,58.805,242.803,58.805z M210.472,58.783c0-0.563,0-0.995,0-1.427c0-4.918,0.073-9.837-0.034-14.753
			c-0.046-2.096-0.314-4.217-0.753-6.269c-0.842-3.939-3.248-6.63-7.261-7.339c-2.398-0.424-4.96-0.549-7.36-0.203
			c-5.356,0.771-7.817,3.302-8.815,8.604c-0.374,1.986-0.609,4.027-0.624,6.045c-0.064,9.196-0.055,18.393-0.008,27.589
			c0.011,2.064,0.153,4.145,0.451,6.187c0.639,4.388,2.586,7.865,7.128,9.286c2.684,0.84,5.452,0.875,8.166,0.38
			c1.523-0.277,3.078-0.898,4.389-1.729c3.148-1.998,4.179-5.309,4.425-8.748c0.304-4.255,0.209-8.538,0.28-12.81
			c0.001-0.104-0.082-0.209-0.161-0.397c-1.585,0-3.179-0.036-4.769,0.037c-0.254,0.012-0.663,0.491-0.695,0.788
			c-0.109,0.989-0.022,1.999-0.118,2.99c-0.171,1.776-1.163,2.774-2.944,2.826c-2.435,0.071-4.874,0.06-7.31-0.008
			c-1.681-0.047-2.721-0.897-2.943-2.582c-0.229-1.73-0.188-3.498-0.237-5.25c-0.03-1.059-0.006-2.119-0.006-3.218
			C197.746,58.783,204.019,58.783,210.472,58.783z M108.504,63.2c-1.774,0-3.404-0.035-5.029,0.039
			c-0.238,0.011-0.613,0.524-0.648,0.836c-0.106,0.949-0.04,1.916-0.107,2.872c-0.123,1.757-1.133,2.835-2.886,2.887
			c-2.474,0.074-4.954,0.064-7.429-0.003c-1.604-0.044-2.78-0.948-2.87-2.512c-0.161-2.804-0.045-5.623-0.045-8.57
			c6.262,0,12.593,0,18.981,0c0-5.248,0.044-10.363-0.022-15.477c-0.026-1.944-0.186-3.904-0.496-5.823
			c-0.765-4.739-3.356-7.759-7.695-8.503c-2.397-0.411-4.953-0.444-7.363-0.113c-4.94,0.679-7.578,3.252-8.555,8.025
			c-0.429,2.094-0.696,4.258-0.712,6.393c-0.074,9.676-0.09,19.354,0.009,29.03c0.024,2.327,0.391,4.688,0.906,6.964
			c0.908,4.007,3.469,6.61,7.512,7.465c1.772,0.375,3.642,0.375,5.468,0.386c5.173,0.034,8.981-3.011,10.207-8.031
			C108.999,73.862,108.259,68.583,108.504,63.2z M535.672,57.632c0-4.998,0.042-9.996-0.024-14.993
			c-0.021-1.664-0.207-3.345-0.516-4.98c-0.868-4.606-3.371-7.919-8.159-8.709c-2.593-0.428-5.342-0.396-7.96-0.073
			c-3.979,0.492-6.935,2.714-8.034,6.69c-0.672,2.431-1.125,5-1.158,7.515c-0.131,9.754-0.076,19.511-0.03,29.267
			c0.007,1.624,0.181,3.272,0.503,4.863c0.978,4.812,3.455,8.438,8.533,9.507c1.963,0.414,4.061,0.486,6.067,0.332
			c4.088-0.315,7.253-2.235,9.067-6.057c1.185-2.494,1.68-5.153,1.7-7.889C535.7,67.948,535.672,62.79,535.672,57.632z
			 M172.658,63.199c-0.096,1.403-0.164,2.635-0.268,3.863c-0.144,1.687-1.147,2.73-2.86,2.775c-2.515,0.066-5.033,0.042-7.549-0.004
			c-1.177-0.021-2.088-0.631-2.492-1.742c-0.266-0.732-0.422-1.547-0.427-2.326c-0.035-5.797-0.02-11.594-0.017-17.39
			c0-0.319,0.012-0.64,0.042-0.958c0.199-2.155,1.203-3.194,3.354-3.26c2.314-0.072,4.634-0.077,6.948,0.003
			c1.894,0.065,2.864,1.123,3.006,3.023c0.091,1.214,0.182,2.427,0.271,3.628c1.87,0,3.655,0,5.578,0c0-1.884,0.085-3.718-0.02-5.54
			c-0.161-2.817-0.267-5.658-0.729-8.433c-0.692-4.149-3.108-7.104-7.337-7.821c-2.702-0.458-5.587-0.467-8.301-0.068
			c-4.243,0.623-6.871,3.37-7.719,7.594c-0.413,2.057-0.72,4.174-0.736,6.266c-0.076,9.834-0.061,19.669-0.01,29.503
			c0.01,1.902,0.194,3.826,0.531,5.698c0.671,3.729,2.457,6.703,6.156,8.215c2.241,0.916,4.583,0.907,6.941,0.894
			c5.307-0.03,8.95-2.773,10.328-7.873c1.365-5.053,0.779-10.226,0.861-15.355c0.004-0.227-0.45-0.651-0.703-0.661
			C175.917,63.169,174.323,63.199,172.658,63.199z M310.117,50.817c0.449-3.152,0.057-11.392-0.618-14.258
			c-0.941-4.002-3.225-6.885-7.352-7.545c-2.745-0.439-5.667-0.447-8.416-0.031c-4.205,0.637-6.757,3.431-7.596,7.588
			c-0.43,2.134-0.717,4.334-0.734,6.507c-0.077,9.675-0.06,19.352-0.011,29.027c0.01,1.903,0.188,3.824,0.502,5.701
			c0.641,3.835,2.452,6.888,6.234,8.437c2.315,0.949,4.752,0.898,7.189,0.872c4.941-0.054,8.643-2.826,9.976-7.56
			c1.455-5.165,0.827-10.464,0.919-15.715c0.003-0.21-0.407-0.605-0.635-0.612c-1.628-0.054-3.258-0.029-4.909-0.029
			c-0.097,1.389-0.158,2.654-0.28,3.913c-0.158,1.64-1.152,2.677-2.774,2.721c-2.516,0.068-5.034,0.058-7.55-0.003
			c-1.361-0.033-2.358-0.747-2.713-2.109c-0.188-0.723-0.289-1.49-0.293-2.237c-0.024-4.877-0.016-9.755-0.01-14.633
			c0.001-1.159-0.038-2.324,0.069-3.474c0.203-2.173,1.21-3.158,3.373-3.224c2.314-0.07,4.635-0.058,6.949,0.008
			c1.765,0.05,2.766,1.047,2.949,2.821c0.131,1.257,0.183,2.521,0.272,3.834C306.479,50.817,308.265,50.817,310.117,50.817z
			 M568.356,63.199c-1.793,0-3.386-0.036-4.975,0.036c-0.259,0.012-0.678,0.481-0.71,0.773c-0.11,0.989-0.035,1.997-0.113,2.991
			c-0.139,1.764-1.131,2.769-2.92,2.841c-2.155,0.087-4.316,0.105-6.473,0.062c-2.77-0.057-3.984-1.143-4.024-3.908
			c-0.088-5.956-0.092-11.914,0.002-17.87c0.045-2.884,1.315-3.993,4.188-4.032c1.998-0.027,3.998-0.027,5.994,0.048
			c2.057,0.077,3.112,1.13,3.239,3.188c0.071,1.142,0.013,2.292,0.013,3.469c2.021,0,3.836,0,5.96,0
			c-0.241-4.499-0.241-8.938-0.777-13.311c-0.634-5.171-3.571-8.043-8.679-8.757c-2.141-0.299-4.398-0.18-6.553,0.116
			c-4.632,0.637-7.563,3.503-8.361,8.099c-0.412,2.381-0.678,4.818-0.698,7.232c-0.079,9.195-0.075,18.391-0.001,27.585
			c0.019,2.213,0.273,4.452,0.688,6.628c0.834,4.374,3.328,7.396,7.81,8.346c1.693,0.359,3.483,0.348,5.23,0.36
			c5.356,0.038,9.111-2.932,10.384-8.093C568.853,73.838,568.079,68.589,568.356,63.199z M400.437,11.084
			c0.251,3.08,0.375,6.021,0.761,8.926c0.334,2.51,2.069,4.11,4.472,4.319c3.278,0.284,6.61,0.237,9.897,0.014
			c1.826-0.124,3.402-1.204,4.091-3.083c1.212-3.31,0.735-6.744,0.794-10.115c-1.244,0-2.339,0-3.417,0
			c-0.383,3.187-1.094,3.967-4.263,4.279c-1.609,0.159-3.25,0.074-4.872-0.002c-2.097-0.098-3.188-1.122-3.575-3.178
			c-0.071-0.38-0.168-0.756-0.259-1.159C402.953,11.084,401.88,11.084,400.437,11.084z"/>
		<path fill-rule="evenodd" clip-rule="evenodd" d="M0.24,66.48c1.277,0.025,2.555,0.029,3.831,0.083
			c0.665,0.028,0.861-0.281,0.998-0.892c1.99-8.855,4.009-17.703,6.023-26.553c0.467-2.05,0.941-4.099,1.45-6.315
			c-1.03,0-1.94-0.032-2.847,0.01c-0.706,0.033-0.994-0.187-0.991-0.944c0.024-5.719,0.014-11.438,0.011-17.156
			c0-0.507-0.011-0.961,0.716-0.96c7.033,0.01,14.065,0.006,21.189,0.006c0,6.339,0,12.594,0,18.997c-1.102,0-2.238,0-3.592,0
			c2.546,11.342,5.051,22.499,7.588,33.801c1.23,0,2.459,0.028,3.686-0.011c0.702-0.022,0.997,0.183,0.993,0.942
			c-0.024,6.159-0.014,12.317-0.019,18.476c0,0.19-0.055,0.38-0.088,0.603c-5.43,0-10.808,0-16.249,0
			c-0.023-0.413-0.061-0.764-0.061-1.115c-0.003-5.878,0.02-11.757-0.023-17.636c-0.007-0.992,0.267-1.35,1.275-1.278
			c1.148,0.081,2.306,0.019,3.648,0.019c-0.816-3.68-1.603-7.231-2.412-10.881c-3.512,0-7.024-0.01-10.537,0.022
			c-0.226,0.002-0.598,0.288-0.651,0.503c-0.841,3.39-1.64,6.79-2.488,10.353c1.671,0,3.211,0,4.804,0c0,6.728,0,13.313,0,20.085
			c-5.417,0-10.835,0-16.254,0C0.24,79.92,0.24,73.2,0.24,66.48z M24.167,50.409c0.022-0.178,0.069-0.298,0.047-0.404
			c-1.186-5.478-2.367-10.956-3.596-16.424c-0.068-0.304-0.537-0.72-0.817-0.718c-0.286,0.002-0.75,0.412-0.824,0.718
			c-0.514,2.125-0.949,4.268-1.404,6.407c-0.733,3.45-1.462,6.901-2.207,10.421C18.36,50.409,21.258,50.409,24.167,50.409z"/>
		<path fill-rule="evenodd" clip-rule="evenodd" d="M772.315,32.804c0,4.667,0,9.164,0,13.647c1.002,0.315,1.68,0.043,2.348-0.707
			c3.608-4.049,7.269-8.053,10.906-12.076c0.182-0.2,0.329-0.429,0.66-0.865c-1.414,0-2.627-0.035-3.836,0.012
			c-0.783,0.03-1.141-0.152-1.135-1.048c0.037-5.679,0.027-11.357,0.008-17.036c-0.003-0.707,0.193-0.992,0.947-0.988
			c4.838,0.026,9.677,0.025,14.516,0.001c0.732-0.004,0.969,0.241,0.967,0.969c-0.022,5.719-0.023,11.437,0,17.156
			c0.004,0.756-0.287,1.017-0.99,0.934c-0.039-0.005-0.081,0.006-0.12-0.001c-2.409-0.468-4.046,0.55-5.593,2.394
			c-3.021,3.602-6.281,7.002-9.439,10.49c-0.13,0.143-0.225,0.317-0.435,0.619c0.912,0.183,1.711,0.316,2.497,0.504
			c5.831,1.39,9.755,6.285,9.813,12.256c0.023,2.434,0.004,4.868,0.004,7.492c1.451,0,2.831,0.023,4.21-0.01
			c0.679-0.016,1.018,0.138,1.015,0.92c-0.026,6.198-0.017,12.397-0.022,18.595c-0.001,0.152-0.053,0.303-0.09,0.508
			c-5.732,0-11.43,0-17.199,0c-0.025-0.397-0.065-0.748-0.066-1.097c-0.003-5.878,0.028-11.757-0.029-17.635
			c-0.011-1.112,0.367-1.366,1.378-1.301c1.229,0.079,2.468,0.019,4.007,0.019c-0.161-3.424-0.076-6.787-0.546-10.069
			c-0.423-2.946-2.757-4.349-5.565-4.561c-2.691-0.203-5.41-0.043-8.198-0.043c0,4.819,0,9.639,0,14.675
			c1.317,0,2.657,0.03,3.995-0.012c0.724-0.022,0.979,0.221,0.976,0.96c-0.024,6.198-0.017,12.396-0.021,18.595
			c-0.001,0.115-0.04,0.231-0.078,0.438c-5.646,0-11.297,0-17.028,0c0-6.596,0-13.21,0-19.961c1.629,0,3.248,0,4.946,0
			c0-11.275,0-22.414,0-33.734c-1.617,0-3.267,0-4.965,0c0-6.437,0-12.694,0-19.012c0.365-0.027,0.676-0.071,0.986-0.071
			c4.999-0.004,9.997,0.016,14.996-0.021c0.875-0.006,1.178,0.219,1.172,1.138c-0.039,5.598-0.038,11.197-0.001,16.795
			c0.006,0.901-0.265,1.199-1.159,1.149C774.912,32.752,773.673,32.804,772.315,32.804z"/>
		<path fill-rule="evenodd" clip-rule="evenodd" d="M466.178,66.56c1.66,0,3.248,0,4.926,0c0-11.266,0-22.434,0-33.741
			c-1.646,0-3.265,0-4.947,0c0-6.396,0-12.653,0-19.063c0.458,0,0.885,0,1.313,0c11.277,0,22.555,0.018,33.833-0.026
			c1.172-0.004,1.46,0.339,1.447,1.477c-0.058,5.438-0.047,10.877-0.006,16.316c0.007,0.963-0.214,1.375-1.253,1.301
			c-1.191-0.086-2.394-0.02-3.699-0.02c0,11.231,0,22.399,0,33.753c1.324,0,2.667,0.022,4.01-0.01
			c0.648-0.015,0.935,0.178,0.932,0.879c-0.021,6.239-0.016,12.477-0.021,18.716c0,0.113-0.051,0.227-0.095,0.413
			c-5.415,0-10.827,0-16.304,0c0-6.642,0-13.255,0-19.976c1.486,0,2.911,0,4.415,0c0-11.281,0-22.454,0-33.701
			c-4.173,0-8.315,0-12.557,0c0,11.155,0,22.324,0,33.68c1.157,0,2.338,0.016,3.518-0.007c0.579-0.011,0.884,0.146,0.881,0.804
			c-0.018,6.278-0.015,12.557-0.023,18.835c-0.001,0.11-0.067,0.221-0.119,0.384c-5.388,0-10.773,0-16.249,0
			C466.178,79.962,466.178,73.347,466.178,66.56z"/>
		<path fill-rule="evenodd" clip-rule="evenodd" d="M650.011,44.05c-1.908,0-3.576,0-5.302,0c0-5.006,0-9.912,0-14.91
			c10.08,0,20.171,0,30.332,0c0,4.937,0,9.871,0,14.912c-1.069,0-2.097,0-3.205,0c0,8.687,0,17.268,0,25.976
			c1.619,0,3.279,0,5.127,0c0,0.545,0,0.966,0,1.387c0,7.64-0.025,15.279,0.028,22.918c0.008,1.151-0.365,1.456-1.431,1.368
			c-0.993-0.081-2-0.051-2.998-0.006c-0.721,0.032-0.997-0.213-0.98-0.958c0.029-1.277-0.04-2.557-0.053-3.836
			c-0.024-2.396-1.107-3.887-3.502-3.979c-4.899-0.188-9.81-0.126-14.716-0.117c-0.984,0.002-1.995,0.125-2.946,0.375
			c-1.559,0.41-2.302,1.419-2.406,3.03c-0.114,1.781-0.199,3.563-0.302,5.409c-1.693,0-3.354,0-5.093,0c0-8.498,0-16.952,0-25.486
			c0.252-0.016,0.479-0.039,0.708-0.042c2.438-0.032,3.271-0.572,3.743-2.943c0.4-2.019,0.628-4.09,0.727-6.147
			c0.172-3.627,0.118-7.264,0.295-10.891C648.138,48.044,648.597,46.019,650.011,44.05z M665.771,44.083
			c-2.467,0-4.787,0.083-7.099-0.028c-1.601-0.077-2.58,0.676-3.268,1.942c-0.414,0.765-0.811,1.587-0.974,2.43
			c-0.316,1.631-0.592,3.291-0.653,4.946c-0.157,4.229-0.12,8.464-0.309,12.69c-0.059,1.312-0.592,2.602-0.921,3.958
			c4.416,0,8.792,0,13.223,0C665.771,61.381,665.771,52.807,665.771,44.083z"/>
		<path fill-rule="evenodd" clip-rule="evenodd" d="M584.138,81.454c0,3.316,0,6.584,0,9.957c1.396,0,2.742,0,4.176,0
			c0,4.356,0,8.608,0,12.921c-4.392,0-8.737,0-13.175,0c0-4.242,0-8.492,0-12.835c1.025,0,2.051,0,3.172,0
			c0-15.818,0-31.544,0-47.385c-1.035,0-2.058,0-3.17,0c0-5.044,0-9.975,0-14.985c2.686,0,5.387,0,8.221,0
			c0.238,1.6,0.483,3.254,0.762,5.128c0.641-0.921,1.097-1.658,1.632-2.332c1.805-2.272,4.172-3.411,7.078-3.346
			c1.272,0.028,2.565,0.028,3.811,0.254c3.521,0.64,5.808,2.866,6.417,6.379c0.386,2.227,0.655,4.502,0.672,6.758
			c0.071,9.878,0.073,19.758,0.006,29.636c-0.021,3.15-0.422,6.282-1.658,9.239c-1.343,3.213-3.567,5.413-7.151,5.763
			c-4.256,0.416-7.931-0.648-10.242-4.63c-0.1-0.171-0.21-0.336-0.322-0.5C584.353,81.457,584.299,81.467,584.138,81.454z
			 M597.848,57.122c0-2.998,0.016-5.996-0.005-8.994c-0.02-2.635-1.227-3.94-3.803-4.021c-1.916-0.061-3.838-0.044-5.753,0.041
			c-2.956,0.131-4.191,1.469-4.2,4.468c-0.014,4.917-0.007,9.833-0.001,14.75c0.001,1.038-0.019,2.081,0.073,3.113
			c0.19,2.132,1.566,3.399,3.714,3.43c2.238,0.033,4.478,0.024,6.716,0.002c1.563-0.016,2.655-0.878,3-2.392
			c0.158-0.691,0.24-1.413,0.247-2.122C597.864,62.638,597.848,59.88,597.848,57.122z"/>
		<path fill-rule="evenodd" clip-rule="evenodd" d="M427.364,29.115c0,0.465,0,0.893,0,1.321c0,4.04,0,8.08,0,12.119
			c-0.001,1.527-0.002,1.527-1.584,1.528c-0.519,0-1.037,0-1.666,0c0,8.663,0,17.268,0,25.978c1.033,0,2.059,0,3.166,0
			c0,5.558,0,11.01,0,16.504c-4.241,0-8.419,0-12.66,0c0-5.487,0-10.908,0-16.455c1.143,0,2.24,0,3.401,0c0-5.59,0-11.055,0-16.762
			c-1.296,1.152-2.495,2.203-3.677,3.273c-3.163,2.867-6.225,5.857-9.519,8.565c-1.65,1.357-1.962,2.838-1.582,4.825
			c1.075,0,2.215,0,3.451,0c0,5.566,0,11.017,0,16.544c-4.209,0-8.432,0-12.751,0c0-5.417,0-10.868,0-16.454c1.04,0,2.096,0,3.205,0
			c0-8.713,0-17.292,0-25.986c-1.066,0-2.089,0-3.205,0c0-5.045,0-9.977,0-14.989c4.229,0,8.479,0,12.789,0
			c0,4.943,0,9.849,0,14.893c-1.134,0-2.271,0-3.508,0c0,5.617,0,11.097,0,16.753c1.955-1.762,3.811-3.424,5.654-5.1
			c2.775-2.523,5.509-5.093,8.335-7.558c0.694-0.605,0.951-1.188,0.883-2.042c-0.048-0.592-0.01-1.191-0.01-1.992
			c-0.916,0-1.779,0.058-2.628-0.03c-0.317-0.033-0.858-0.401-0.86-0.622c-0.05-4.749-0.038-9.499-0.038-14.315
			C418.86,29.115,423.037,29.115,427.364,29.115z"/>
		<path fill-rule="evenodd" clip-rule="evenodd" d="M375,86.557c0-5.499,0-10.888,0-16.406c1.127,0,2.222,0,3.401,0
			c0-5.622,0-11.117,0-16.827c-1.092,0.964-2.093,1.831-3.076,2.718c-3.788,3.421-7.574,6.845-11.347,10.283
			c-0.214,0.195-0.413,0.521-0.429,0.798c-0.053,0.945-0.021,1.896-0.021,2.959c1.26,0,2.402,0,3.601,0c0,5.54,0,10.962,0,16.468
			c-4.259,0-8.51,0-12.821,0c0-5.453,0-10.875,0-16.433c1.06,0,2.116,0,3.232,0c0-8.713,0-17.292,0-26.023c-1.079,0-2.135,0-3.237,0
			c0-5.059,0-9.965,0-14.958c4.256,0,8.507,0,12.822,0c0,4.953,0,9.887,0,14.917c-1.171,0-2.279,0-3.495,0
			c0,5.539,0,10.983,0,16.662c1.08-0.975,2.041-1.841,3-2.708c3.61-3.263,7.205-6.543,10.842-9.775
			c0.778-0.691,1.195-1.405,1.028-2.459c-0.079-0.5-0.014-1.022-0.014-1.689c-0.963,0-1.835,0.061-2.69-0.033
			c-0.301-0.033-0.8-0.44-0.802-0.682c-0.048-4.713-0.036-9.427-0.036-14.23c4.264,0,8.441,0,12.73,0
			c0.023,0.313,0.07,0.657,0.07,1.002c0.005,4.24-0.03,8.48,0.027,12.719c0.014,1.045-0.356,1.333-1.313,1.237
			c-0.626-0.063-1.264-0.012-1.982-0.012c0,8.681,0,17.259,0,25.987c1.041,0,2.095,0,3.208,0c0,5.569,0,10.99,0,16.486
			C383.473,86.557,379.294,86.557,375,86.557z"/>
		<path fill-rule="evenodd" clip-rule="evenodd" d="M744.667,70.128c0-5.71,0-11.207,0-16.917c-2.729,2.467-5.319,4.807-7.905,7.151
			c-1.803,1.635-3.473,3.452-5.435,4.864c-1.84,1.325-1.653,2.954-1.476,4.858c1.181,0,2.323,0,3.52,0c0,5.54,0,10.962,0,16.466
			c-4.262,0-8.513,0-12.823,0c0-5.456,0-10.877,0-16.435c1.061,0,2.117,0,3.234,0c0-8.712,0-17.291,0-26.022
			c-1.08,0-2.135,0-3.239,0c0-5.059,0-9.965,0-14.958c4.256,0,8.506,0,12.823,0c0,4.951,0,9.884,0,14.914c-1.169,0-2.277,0-3.494,0
			c0,5.539,0,10.983,0,16.613c1.264-1.138,2.435-2.188,3.602-3.243c3.253-2.944,6.52-5.873,9.751-8.841
			c1.711-1.572,1.779-1.913,1.355-4.497c-0.845,0-1.719,0.051-2.581-0.029c-0.282-0.026-0.762-0.389-0.764-0.602
			c-0.044-4.75-0.033-9.502-0.033-14.328c4.284,0,8.462,0,12.715,0c0.028,0.314,0.082,0.623,0.082,0.931
			c0.006,4.28-0.024,8.56,0.025,12.838c0.011,0.961-0.281,1.298-1.225,1.204c-0.663-0.067-1.339-0.013-2.081-0.013
			c0,8.704,0,17.281,0,25.965c1.05,0,2.075,0,3.192,0c0,5.557,0,11.007,0,16.521c-4.219,0-8.396,0-12.645,0
			c0-5.472,0-10.893,0-16.441C742.386,70.128,743.483,70.128,744.667,70.128z"/>
		<path fill-rule="evenodd" clip-rule="evenodd" d="M249.499,86.603c0-5.539,0-10.959,0-16.491c1.159,0,2.262,0,3.449,0
			c0-8.685,0-17.258,0-26.03c-0.893,0-1.8,0.059-2.69-0.034c-0.294-0.031-0.781-0.453-0.783-0.7
			c-0.047-4.711-0.034-9.424-0.034-14.3c0.519,0,0.941,0,1.363,0c5.64,0,11.278-0.02,16.918,0.018
			c1.025,0.007,2.069,0.16,3.071,0.393c3.006,0.698,4.638,2.634,5.23,5.668c1.003,5.134,1.023,10.315,0.879,15.498
			c-0.059,2.121-1.029,3.922-3.015,4.998c-0.197,0.107-0.371,0.257-0.714,0.498c1.963,0.822,3.452,2.038,4.085,3.949
			c0.443,1.34,0.816,2.785,0.805,4.18c-0.036,4.502-0.121,9.014-0.474,13.5c-0.225,2.85-1.32,5.563-4.004,6.993
			c-1.713,0.913-3.71,1.711-5.607,1.78C261.87,86.743,255.749,86.603,249.499,86.603z M259.01,69.927
			c3.237,0,6.42,0.102,9.592-0.036c2.118-0.091,3.161-1.052,3.465-3.116c0.205-1.391,0.178-2.879-0.085-4.26
			c-0.429-2.258-2.035-3.473-4.31-3.546c-2.59-0.083-5.182-0.124-7.773-0.172c-0.301-0.006-0.604,0.057-0.889,0.085
			C259.01,62.642,259.01,66.304,259.01,69.927z M259.02,54.033c2.963,0,5.827,0.071,8.686-0.033
			c1.245-0.045,2.229-0.784,2.788-1.977c0.806-1.719,0.635-3.496,0.333-5.277c-0.233-1.378-1.073-2.338-2.45-2.386
			c-3.093-0.106-6.191-0.033-9.356-0.033C259.02,47.498,259.02,50.794,259.02,54.033z"/>
		<path fill-rule="evenodd" clip-rule="evenodd" d="M682.641,29.098c4.43,0,8.66,0,12.972,0c0.025,0.393,0.067,0.742,0.067,1.091
			c0.005,4.2-0.035,8.4,0.03,12.599c0.017,1.094-0.333,1.418-1.365,1.311c-0.748-0.078-1.512-0.015-2.351-0.015
			c0,3.377,0,6.679,0,10.073c4.305,0,8.639,0,13.053,0c0-3.282,0-6.58,0-10.074c-0.845,0-1.705-0.017-2.564,0.006
			c-0.569,0.015-0.896-0.124-0.893-0.791c0.025-4.64,0.026-9.279,0.041-13.918c0-0.07,0.063-0.14,0.127-0.27
			c4.15,0,8.328,0,12.646,0c0,0.563,0,1.072,0,1.581c0,4.04-0.028,8.081,0.021,12.12c0.012,0.974-0.234,1.405-1.262,1.287
			c-0.629-0.073-1.272-0.014-2.015-0.014c0,8.672,0,17.277,0,25.99c1.051,0,2.076,0,3.177,0c0,5.527,0,10.948,0,16.464
			c-4.18,0-8.355,0-12.63,0c0-5.417,0-10.866,0-16.441c1.12,0,2.219,0,3.373,0c0-3.791,0-7.456,0-11.213c-4.327,0-8.661,0-13.075,0
			c0,3.679,0,7.372,0,11.19c1.192,0,2.372,0,3.619,0c0,5.545,0,10.966,0,16.473c-4.283,0-8.542,0-12.888,0c0-5.438,0-10.89,0-16.453
			c1.072,0,2.095,0,3.193,0c0-8.685,0-17.26,0-26.013c-0.844,0-1.674,0.053-2.489-0.03c-0.28-0.028-0.752-0.396-0.754-0.612
			C682.631,38.689,682.641,33.938,682.641,29.098z"/>
		<path fill-rule="evenodd" clip-rule="evenodd" d="M348.575,70.051c0,5.621,0,11.042,0,16.521c-4.494,0-8.92,0-13.437,0
			c0-5.446,0-10.896,0-16.44c1.35,0,2.695,0,4.216,0c-0.03-2.579,0.329-5.098-0.53-7.508c-0.954-2.675-3.183-3.52-5.793-3.579
			c-2.234-0.05-4.471-0.011-6.792-0.011c0,3.675,0,7.288,0,11.037c1.051,0,2.106,0,3.215,0c0,5.557,0,10.979,0,16.48
			c-4.153,0-8.289,0-12.501,0c0-5.439,0-10.86,0-16.436c1.055,0,2.107,0,3.219,0c0-8.73,0-17.307,0-26.034
			c-0.846,0-1.638,0.051-2.418-0.025c-0.304-0.029-0.828-0.344-0.83-0.532c-0.046-4.788-0.036-9.576-0.036-14.42
			c4.236,0,8.343,0,12.537,0c0,4.938,0,9.874,0,14.96c-1.043,0-2.099,0-3.21,0c0,3.483,0,6.816,0,10.378
			c3.688-3.425,7.234-6.72,10.782-10.015c-0.017-0.115-0.034-0.23-0.051-0.346c-0.636,0-1.271-0.019-1.906,0.006
			c-0.573,0.022-0.894-0.129-0.89-0.793c0.025-4.639,0.027-9.278,0.041-13.917c0.001-0.07,0.064-0.14,0.128-0.269
			c4.079,0,8.185,0,12.382,0c0,4.963,0,9.934,0,14.906c-0.069,0.039-0.146,0.119-0.2,0.106c-3.044-0.726-4.612,1.565-6.475,3.199
			c-2.428,2.13-4.802,4.322-7.191,6.497c-0.124,0.113-0.172,0.309-0.296,0.542c1.441,0.125,2.79,0.136,4.097,0.375
			c4.566,0.835,8.243,4.78,8.254,9.5c0.005,1.905,0.159,3.81,0.25,5.819C346.255,70.051,347.362,70.051,348.575,70.051z"/>
		<path fill-rule="evenodd" clip-rule="evenodd" d="M132.571,29.108c4.205,0,8.311,0,12.484,0c0,5,0,9.94,0,14.864
			c-0.096,0.061-0.167,0.144-0.223,0.136c-2.196-0.324-3.797,0.58-5.353,2.116c-2.724,2.688-5.664,5.155-8.509,7.72
			c-0.08,0.072-0.111,0.199-0.295,0.544c0.702,0,1.266,0,1.83,0c6.251,0,10.639,4.281,10.762,10.52
			c0.032,1.635,0.005,3.271,0.005,5.041c1.194,0,2.328,0,3.6,0c0,2.838,0,5.544,0,8.25c0,2.717,0,5.434,0,8.242
			c-4.507,0-8.964,0-13.508,0c0-5.43,0-10.882,0-16.445c1.39,0,2.733,0,4.081,0c0-2.208,0.238-4.34-0.057-6.396
			c-0.422-2.947-2.407-4.407-5.91-4.639c-1.991-0.132-3.998-0.027-5.998-0.028c-0.273,0-0.547,0-0.909,0c0,3.696,0,7.306,0,11.021
			c1.046,0,2.072,0,3.184,0c0,5.556,0,11.008,0,16.52c-4.158,0-8.263,0-12.459,0c0-5.447,0-10.897,0-16.439c1.029,0,2.055,0,3.175,0
			c0-8.699,0-17.306,0-26.027c-1.041,0-2.064,0-3.174,0c0-5.044,0-9.976,0-14.983c4.128,0,8.263,0,12.49,0
			c0.02,0.414,0.053,0.803,0.053,1.192c0.004,4.12-0.042,8.24,0.03,12.357c0.021,1.191-0.366,1.566-1.492,1.423
			c-0.578-0.074-1.173-0.013-1.827-0.013c0,3.437,0,6.733,0,10.308c3.701-3.435,7.244-6.724,11.039-10.247c-1.185,0-2.063,0-3.021,0
			C132.571,39.052,132.571,34.12,132.571,29.108z"/>
		<path fill-rule="evenodd" clip-rule="evenodd" d="M44.307,86.632c-0.028-0.471-0.067-0.821-0.067-1.172
			c-0.004-4.759,0.023-9.519-0.023-14.277c-0.01-0.997,0.288-1.41,1.286-1.272c0.275,0.038,0.56,0.012,0.839,0.003
			c2.178-0.067,3.092-0.984,3.101-3.201c0.018-4.639,0.021-9.279,0-13.918c-0.013-3.02,0.174-5.978,2.342-8.711
			c-1.709,0-3.163-0.021-4.615,0.009c-0.665,0.014-1.031-0.113-1.026-0.908c0.03-4.519,0.016-9.038,0.022-13.558
			c0-0.152,0.049-0.304,0.084-0.514c10.133,0,20.229,0,30.474,0c0,0.468,0,0.896,0,1.324c0,4.04,0,8.079,0,12.118
			c0,1.526-0.001,1.527-1.583,1.528c-0.516,0-1.032,0-1.627,0c0,8.66,0,17.241,0,25.946c0.989,0,2.008,0,3.118,0
			c0,5.574,0,11.024,0,16.539c-4.144,0-8.249,0-12.449,0c0-5.433,0-10.883,0-16.454c1.048,0,2.108,0,3.25,0
			c0-8.693,0-17.268,0-25.962c-0.382-0.022-0.765-0.063-1.148-0.065c-1.919-0.007-3.839-0.003-5.759-0.003
			c-2.987,0-4.113,0.856-4.589,3.821c-0.321,1.998-0.528,4.035-0.547,6.056c-0.064,7.079,0.051,14.159-0.067,21.236
			c-0.041,2.446-0.394,4.92-0.913,7.315c-0.603,2.778-2.547,4.107-5.395,4.119C47.465,86.638,45.917,86.632,44.307,86.632z"/>
		<path fill-rule="evenodd" clip-rule="evenodd" d="M636.23,58.827c-6.308,0-12.61,0-18.974,0c0,2.73-0.105,5.363,0.034,7.984
			c0.105,2.005,1.253,2.979,3.301,3.031c2.396,0.062,4.795,0.063,7.189-0.008c1.62-0.048,2.621-1.119,2.771-2.73
			c0.059-0.631,0.14-1.262,0.169-1.895c0.029-0.628,0.007-1.258,0.007-2.008c1.754,0,3.385-0.03,5.012,0.034
			c0.229,0.009,0.636,0.479,0.633,0.731c-0.064,4.857,0.39,9.739-0.655,14.554c-1.196,5.511-4.979,8.572-10.615,8.6
			c-2.359,0.012-4.695,0.006-6.933-0.928c-3.695-1.541-5.442-4.533-6.1-8.259c-0.33-1.874-0.509-3.798-0.519-5.7
			c-0.05-9.835-0.077-19.671,0.018-29.505c0.021-2.245,0.387-4.522,0.887-6.718c0.906-3.977,3.557-6.471,7.529-7.056
			c2.678-0.395,5.521-0.422,8.187,0.015c4.484,0.733,7.132,3.981,7.735,9.113c0.366,3.116,0.416,6.276,0.479,9.419
			c0.072,3.636,0.003,7.275-0.008,10.913C636.376,58.486,636.328,58.559,636.23,58.827z M617.101,54.17c4.666,0,9.105,0,13.392,0
			c0-2.457,0.111-4.842-0.036-7.211c-0.112-1.801-1.251-2.765-3.084-2.815c-2.349-0.065-4.703-0.043-7.053,0.02
			c-1.589,0.043-2.648,0.783-2.833,2.367C617.196,49.039,617.215,51.583,617.101,54.17z"/>
		<path fill-rule="evenodd" clip-rule="evenodd" d="M242.803,58.805c-6.458,0-12.76,0-19.109,0c0,2.808-0.128,5.52,0.045,8.212
			c0.119,1.864,1.294,2.758,3.229,2.827c2.116,0.075,4.236,0.095,6.354,0.06c2.703-0.044,3.693-1.061,3.801-3.806
			c0.036-0.913,0.006-1.829,0.006-2.893c1.751,0,3.418-0.02,5.084,0.026c0.2,0.006,0.564,0.374,0.559,0.565
			c-0.146,5.44,0.668,10.95-1.092,16.279c-1.448,4.388-5.001,7.046-9.615,7.008c-2.178-0.018-4.436-0.042-6.513-0.6
			c-4.357-1.17-6.407-4.52-7.086-8.755c-0.333-2.074-0.501-4.195-0.514-6.296c-0.053-9.316-0.067-18.632,0.01-27.948
			c0.019-2.215,0.305-4.453,0.709-6.635c0.862-4.653,3.721-7.426,8.425-8.013c2.157-0.27,4.416-0.41,6.545-0.077
			c5.288,0.829,7.906,3.729,8.721,9.285c0.271,1.843,0.403,3.72,0.424,5.584C242.841,48.619,242.803,53.612,242.803,58.805z
			 M223.677,54.172c4.532,0,8.948,0,13.546,0c-0.113-2.503-0.146-4.931-0.359-7.342c-0.15-1.701-1.216-2.619-2.974-2.674
			c-2.274-0.072-4.555-0.071-6.83-0.003c-2.047,0.061-3.214,1.081-3.349,3.131C223.562,49.544,223.677,51.823,223.677,54.172z"/>
		<path fill-rule="evenodd" clip-rule="evenodd" d="M210.472,58.783c-6.453,0-12.727,0-19.2,0c0,1.099-0.024,2.159,0.006,3.218
			c0.049,1.752,0.009,3.519,0.237,5.25c0.223,1.685,1.263,2.535,2.943,2.582c2.436,0.068,4.875,0.079,7.31,0.008
			c1.781-0.052,2.773-1.05,2.944-2.826c0.096-0.991,0.009-2.001,0.118-2.99c0.032-0.297,0.441-0.776,0.695-0.788
			c1.59-0.073,3.184-0.037,4.769-0.037c0.079,0.188,0.162,0.293,0.161,0.397c-0.071,4.271,0.023,8.555-0.28,12.81
			c-0.246,3.439-1.276,6.75-4.425,8.748c-1.311,0.831-2.865,1.452-4.389,1.729c-2.714,0.495-5.482,0.459-8.166-0.38
			c-4.542-1.421-6.489-4.898-7.128-9.286c-0.298-2.042-0.44-4.123-0.451-6.187c-0.047-9.196-0.057-18.393,0.008-27.589
			c0.015-2.018,0.25-4.06,0.624-6.045c0.998-5.301,3.459-7.833,8.815-8.604c2.4-0.346,4.962-0.221,7.36,0.203
			c4.013,0.709,6.419,3.4,7.261,7.339c0.438,2.052,0.707,4.172,0.753,6.269c0.107,4.916,0.034,9.835,0.034,14.753
			C210.472,57.788,210.472,58.22,210.472,58.783z M191.465,54.147c4.384,0,8.828,0,13.259,0c0-2.258,0.083-4.418-0.022-6.569
			c-0.116-2.359-1.222-3.415-3.551-3.472c-2.196-0.054-4.398-0.029-6.594,0.054c-1.798,0.068-2.928,0.973-3.051,2.734
			C191.34,49.27,191.465,51.667,191.465,54.147z"/>
		<path fill-rule="evenodd" clip-rule="evenodd" d="M108.504,63.2c-0.246,5.383,0.495,10.662-0.774,15.864
			c-1.225,5.02-5.034,8.064-10.207,8.031c-1.826-0.012-3.696-0.012-5.468-0.386c-4.043-0.855-6.604-3.458-7.512-7.465
			c-0.516-2.276-0.882-4.637-0.906-6.964c-0.099-9.676-0.083-19.354-0.009-29.03c0.016-2.135,0.284-4.299,0.712-6.393
			c0.977-4.773,3.615-7.346,8.555-8.025c2.411-0.331,4.966-0.297,7.363,0.113c4.338,0.744,6.93,3.764,7.695,8.503
			c0.31,1.918,0.47,3.879,0.496,5.823c0.067,5.114,0.022,10.229,0.022,15.477c-6.388,0-12.72,0-18.981,0
			c0,2.947-0.115,5.767,0.045,8.57c0.09,1.564,1.265,2.468,2.87,2.512c2.475,0.068,4.955,0.078,7.429,0.003
			c1.752-0.052,2.763-1.13,2.886-2.887c0.067-0.956,0.001-1.922,0.107-2.872c0.035-0.312,0.41-0.825,0.648-0.836
			C105.1,63.165,106.73,63.2,108.504,63.2z M89.449,54.18c4.396,0,8.813,0,13.218,0c0-2.374,0.16-4.694-0.046-6.981
			c-0.203-2.255-1.216-3.041-3.483-3.094c-2.156-0.05-4.317-0.026-6.472,0.054c-1.914,0.07-3.062,1.021-3.181,2.878
			C89.335,49.375,89.449,51.729,89.449,54.18z"/>
		<path fill-rule="evenodd" clip-rule="evenodd" d="M535.672,57.632c0,5.158,0.027,10.316-0.011,15.473
			c-0.021,2.736-0.516,5.395-1.7,7.889c-1.814,3.821-4.979,5.742-9.067,6.057c-2.007,0.155-4.104,0.082-6.067-0.332
			c-5.078-1.069-7.556-4.695-8.533-9.507c-0.322-1.591-0.496-3.24-0.503-4.863c-0.046-9.755-0.101-19.513,0.03-29.267
			c0.033-2.514,0.486-5.084,1.158-7.515c1.1-3.977,4.055-6.199,8.034-6.69c2.618-0.324,5.367-0.355,7.96,0.073
			c4.788,0.79,7.291,4.104,8.159,8.709c0.309,1.636,0.494,3.317,0.516,4.98C535.714,47.636,535.672,52.635,535.672,57.632z
			 M529.997,57.002c-0.003,0-0.006,0-0.009,0c0-3.159,0.029-6.318-0.011-9.476c-0.023-1.834-1.182-3.475-3.33-3.418
			c-2.676,0.071-5.355-0.003-8.031,0.057c-1.546,0.035-2.444,0.745-2.881,2.216c-0.199,0.674-0.276,1.408-0.279,2.115
			c-0.021,5.677-0.013,11.355-0.009,17.033c0,0.398,0.015,0.8,0.066,1.195c0.276,2.118,1.219,3.05,3.35,3.123
			c2.396,0.081,4.797,0.089,7.194,0.06c2.865-0.036,3.926-1.146,3.937-4.026C530.004,62.92,529.997,59.961,529.997,57.002z"/>
		<path fill-rule="evenodd" clip-rule="evenodd" d="M172.658,63.199c1.665,0,3.259-0.03,4.848,0.031
			c0.253,0.009,0.707,0.434,0.703,0.661c-0.082,5.129,0.504,10.303-0.861,15.355c-1.378,5.1-5.021,7.842-10.328,7.873
			c-2.358,0.013-4.7,0.022-6.941-0.894c-3.699-1.512-5.484-4.486-6.156-8.215c-0.337-1.872-0.521-3.796-0.531-5.698
			c-0.051-9.834-0.066-19.669,0.01-29.503c0.016-2.092,0.323-4.209,0.736-6.266c0.848-4.224,3.476-6.971,7.719-7.594
			c2.714-0.398,5.6-0.39,8.301,0.068c4.229,0.718,6.645,3.672,7.337,7.821c0.463,2.775,0.568,5.616,0.729,8.433
			c0.104,1.822,0.02,3.656,0.02,5.54c-1.923,0-3.708,0-5.578,0c-0.089-1.201-0.18-2.414-0.271-3.628
			c-0.143-1.9-1.112-2.958-3.006-3.023c-2.314-0.08-4.634-0.075-6.948-0.003c-2.151,0.066-3.154,1.104-3.354,3.26
			c-0.029,0.318-0.041,0.638-0.042,0.958c-0.002,5.796-0.018,11.593,0.017,17.39c0.004,0.779,0.161,1.594,0.427,2.326
			c0.404,1.11,1.315,1.721,2.492,1.742c2.516,0.045,5.034,0.07,7.549,0.004c1.712-0.045,2.716-1.089,2.86-2.775
			C172.494,65.834,172.562,64.603,172.658,63.199z"/>
		<path fill-rule="evenodd" clip-rule="evenodd" d="M310.117,50.817c-1.852,0-3.638,0-5.457,0c-0.09-1.313-0.142-2.578-0.272-3.834
			c-0.184-1.774-1.185-2.771-2.949-2.821c-2.314-0.065-4.635-0.078-6.949-0.008c-2.163,0.066-3.17,1.051-3.373,3.224
			c-0.107,1.15-0.068,2.315-0.069,3.474c-0.006,4.878-0.015,9.756,0.01,14.633c0.004,0.748,0.104,1.514,0.293,2.237
			c0.354,1.362,1.352,2.076,2.713,2.109c2.516,0.061,5.034,0.071,7.55,0.003c1.622-0.043,2.616-1.081,2.774-2.721
			c0.122-1.259,0.184-2.524,0.28-3.913c1.651,0,3.281-0.025,4.909,0.029c0.228,0.007,0.638,0.402,0.635,0.612
			c-0.092,5.25,0.536,10.55-0.919,15.715c-1.333,4.733-5.034,7.506-9.976,7.56c-2.438,0.026-4.874,0.077-7.189-0.872
			c-3.782-1.549-5.594-4.602-6.234-8.437c-0.313-1.877-0.492-3.798-0.502-5.701c-0.049-9.675-0.066-19.352,0.011-29.027
			c0.018-2.173,0.305-4.374,0.734-6.507c0.839-4.157,3.391-6.952,7.596-7.588c2.749-0.416,5.671-0.408,8.416,0.031
			c4.127,0.66,6.41,3.542,7.352,7.545C310.173,39.425,310.566,47.665,310.117,50.817z"/>
		<path fill-rule="evenodd" clip-rule="evenodd" d="M568.356,63.199c-0.277,5.39,0.497,10.639-0.776,15.804
			c-1.272,5.161-5.027,8.131-10.384,8.093c-1.747-0.012-3.537-0.001-5.23-0.36c-4.481-0.95-6.976-3.972-7.81-8.346
			c-0.415-2.176-0.67-4.415-0.688-6.628c-0.074-9.195-0.078-18.391,0.001-27.585c0.021-2.415,0.286-4.851,0.698-7.232
			c0.798-4.596,3.729-7.462,8.361-8.099c2.154-0.296,4.412-0.416,6.553-0.116c5.107,0.714,8.045,3.586,8.679,8.757
			c0.536,4.374,0.536,8.813,0.777,13.311c-2.124,0-3.938,0-5.96,0c0-1.176,0.059-2.327-0.013-3.469
			c-0.127-2.058-1.183-3.111-3.239-3.188c-1.996-0.075-3.996-0.075-5.994-0.048c-2.872,0.039-4.143,1.148-4.188,4.032
			c-0.094,5.956-0.09,11.914-0.002,17.87c0.04,2.766,1.255,3.852,4.024,3.908c2.156,0.043,4.317,0.026,6.473-0.062
			c1.789-0.072,2.781-1.077,2.92-2.841c0.078-0.994,0.003-2.002,0.113-2.991c0.032-0.292,0.451-0.762,0.71-0.773
			C564.97,63.164,566.563,63.199,568.356,63.199z"/>
		<path fill-rule="evenodd" clip-rule="evenodd" d="M400.437,11.084c1.443,0,2.516,0,3.629,0c0.091,0.403,0.188,0.778,0.259,1.159
			c0.387,2.056,1.479,3.08,3.575,3.178c1.622,0.076,3.263,0.161,4.872,0.002c3.169-0.312,3.88-1.092,4.263-4.279
			c1.078,0,2.173,0,3.417,0c-0.059,3.372,0.418,6.805-0.794,10.115c-0.688,1.88-2.265,2.96-4.091,3.083
			c-3.287,0.224-6.619,0.271-9.897-0.014c-2.402-0.208-4.138-1.809-4.472-4.319C400.812,17.105,400.688,14.164,400.437,11.084z"/>
		<path fill-rule="evenodd" clip-rule="evenodd" fill="#FFFFFF" d="M24.167,50.409c-2.909,0-5.807,0-8.8,0
			c0.745-3.52,1.473-6.971,2.207-10.421c0.455-2.139,0.89-4.282,1.404-6.407c0.074-0.307,0.538-0.716,0.824-0.718
			c0.28-0.001,0.749,0.415,0.817,0.718c1.229,5.468,2.41,10.946,3.596,16.424C24.236,50.111,24.189,50.231,24.167,50.409z"/>
		<path fill-rule="evenodd" clip-rule="evenodd" fill="#FFFFFF" d="M665.771,44.083c0,8.724,0,17.298,0,25.938
			c-4.431,0-8.807,0-13.223,0c0.329-1.355,0.862-2.646,0.921-3.958c0.188-4.227,0.151-8.462,0.309-12.69
			c0.062-1.656,0.337-3.315,0.653-4.946c0.163-0.843,0.56-1.665,0.974-2.43c0.688-1.267,1.667-2.02,3.268-1.942
			C660.984,44.167,663.304,44.083,665.771,44.083z"/>
		<path fill-rule="evenodd" clip-rule="evenodd" fill="#FFFFFF" d="M597.848,57.122c0,2.758,0.016,5.517-0.012,8.275
			c-0.007,0.708-0.089,1.431-0.247,2.122c-0.345,1.514-1.438,2.376-3,2.392c-2.238,0.022-4.478,0.031-6.716-0.002
			c-2.147-0.031-3.523-1.298-3.714-3.43c-0.092-1.032-0.072-2.075-0.073-3.113c-0.006-4.917-0.013-9.834,0.001-14.75
			c0.009-2.999,1.244-4.337,4.2-4.468c1.915-0.085,3.837-0.102,5.753-0.041c2.576,0.081,3.783,1.387,3.803,4.021
			C597.864,51.125,597.848,54.124,597.848,57.122z"/>
		<path fill-rule="evenodd" clip-rule="evenodd" fill="#FFFFFF" d="M259.01,69.927c0-3.623,0-7.285,0-11.044
			c0.285-0.029,0.588-0.091,0.889-0.085c2.592,0.048,5.184,0.089,7.773,0.172c2.274,0.073,3.881,1.288,4.31,3.546
			c0.263,1.38,0.29,2.869,0.085,4.26c-0.304,2.064-1.347,3.024-3.465,3.116C265.43,70.028,262.248,69.927,259.01,69.927z"/>
		<path fill-rule="evenodd" clip-rule="evenodd" fill="#FFFFFF" d="M259.02,54.033c0-3.238,0-6.535,0-9.706
			c3.165,0,6.264-0.073,9.356,0.033c1.377,0.048,2.217,1.008,2.45,2.386c0.302,1.781,0.473,3.558-0.333,5.277
			c-0.56,1.193-1.543,1.932-2.788,1.977C264.847,54.104,261.983,54.033,259.02,54.033z"/>
		<path fill-rule="evenodd" clip-rule="evenodd" fill="#FFFFFF" d="M617.101,54.17c0.114-2.587,0.095-5.131,0.386-7.639
			c0.185-1.584,1.244-2.324,2.833-2.367c2.35-0.063,4.704-0.085,7.053-0.02c1.833,0.05,2.972,1.014,3.084,2.815
			c0.147,2.369,0.036,4.754,0.036,7.211C626.207,54.17,621.767,54.17,617.101,54.17z"/>
		<path fill-rule="evenodd" clip-rule="evenodd" fill="#FFFFFF" d="M223.677,54.172c0-2.349-0.115-4.627,0.034-6.889
			c0.135-2.05,1.302-3.07,3.349-3.131c2.275-0.068,4.556-0.069,6.83,0.003c1.758,0.055,2.823,0.973,2.974,2.674
			c0.214,2.412,0.246,4.839,0.359,7.342C232.625,54.172,228.209,54.172,223.677,54.172z"/>
		<path fill-rule="evenodd" clip-rule="evenodd" fill="#FFFFFF" d="M191.465,54.147c0-2.48-0.125-4.877,0.041-7.253
			c0.123-1.761,1.253-2.666,3.051-2.734c2.195-0.083,4.397-0.107,6.594-0.054c2.329,0.057,3.435,1.112,3.551,3.472
			c0.105,2.151,0.022,4.312,0.022,6.569C200.293,54.147,195.849,54.147,191.465,54.147z"/>
		<path fill-rule="evenodd" clip-rule="evenodd" fill="#FFFFFF" d="M89.449,54.18c0-2.451-0.113-4.805,0.036-7.143
			c0.119-1.857,1.267-2.808,3.181-2.878c2.155-0.08,4.316-0.104,6.472-0.054c2.267,0.053,3.28,0.839,3.483,3.094
			c0.206,2.287,0.046,4.607,0.046,6.981C98.262,54.18,93.844,54.18,89.449,54.18z"/>
		<path fill-rule="evenodd" clip-rule="evenodd" fill="#FFFFFF" d="M529.997,57.002c0,2.958,0.008,5.917-0.003,8.876
			c-0.011,2.88-1.071,3.99-3.937,4.026c-2.397,0.03-4.798,0.021-7.194-0.06c-2.131-0.073-3.073-1.005-3.35-3.123
			c-0.052-0.395-0.066-0.796-0.066-1.195c-0.004-5.678-0.013-11.356,0.009-17.033c0.003-0.707,0.08-1.44,0.279-2.115
			c0.437-1.471,1.335-2.181,2.881-2.216c2.676-0.06,5.355,0.015,8.031-0.057c2.148-0.057,3.307,1.584,3.33,3.418
			c0.04,3.158,0.011,6.317,0.011,9.476C529.991,57.002,529.994,57.002,529.997,57.002z"/>
	</g>
</g>
</svg>
