<?xml version="1.0" encoding="utf-8"?>
<!-- Generator: Adobe Illustrator 16.0.0, SVG Export Plug-In . SVG Version: 6.00 Build 0)  -->
<!DOCTYPE svg PUBLIC "-//W3C//DTD SVG 1.1//EN" "http://www.w3.org/Graphics/SVG/1.1/DTD/svg11.dtd">
<svg version="1.1" id="Слой_1" xmlns="http://www.w3.org/2000/svg" xmlns:xlink="http://www.w3.org/1999/xlink" x="0px" y="0px"
	 width="500px" height="500px" viewBox="0 0 500 500" enable-background="new 0 0 500 500" xml:space="preserve">
<g>
	<rect fill="#2284AB" width="500" height="500"/>
	<path fill="#FFFFFF" d="M103.835938,63.09668h292.341797c2.394531,0,4.788086,2.407715,4.788086,4.801758v329.875
		c0,2.394531-2.393555,4.788086-4.788086,4.788086H103.835938c-2.394043,0-3.990234-2.393555-3.990234-4.788086v-329.875
		C99.845703,65.504395,101.441895,63.09668,103.835938,63.09668L103.835938,63.09668z M392.1875,71.888672H108.637695V393.78418
		H392.1875V71.888672z"/>
	<path fill="#FFFFFF" d="M138.177246,127.005371h224.45752c2.393555,0,3.989258,1.595703,3.989258,3.989746v252.387695
		c0,2.420898-1.595703,4.017578-3.989258,4.017578h-224.45752c-2.394043,0-4.788086-1.59668-4.788086-4.017578V130.995117
		C133.38916,128.601074,135.783203,127.005371,138.177246,127.005371L138.177246,127.005371z M357.84668,135.783203H142.181152
		v242.811523H357.84668V135.783203z"/>
	<path fill="#FFFFFF" d="M138.177246,81.478027h224.45752c2.393555,0,3.989258,2.394043,3.989258,4.788086v22.35791
		c0,2.407715-1.595703,4.801758-3.989258,4.801758h-224.45752c-2.394043,0-4.788086-2.394043-4.788086-4.801758v-22.35791
		C133.38916,83.87207,135.783203,81.478027,138.177246,81.478027L138.177246,81.478027z M358.644531,90.256348H142.181152v14.377441
		h216.463379V90.256348z"/>
	<path fill="#FFFFFF" d="M99.845703,405.753906H400.96582c2.393555,0,3.990234,1.595703,3.990234,3.990234v23.168945
		c0,1.595703-1.59668,3.990234-3.990234,3.990234H99.845703c-2.393555,0-3.989746-2.394531-3.989746-3.990234v-23.168945
		C95.855957,407.349609,97.452148,405.753906,99.845703,405.753906L99.845703,405.753906z M396.177734,413.733398H103.835938
		V428.125h292.341797V413.733398z"/>
	<path fill="#FFFFFF" d="M212.473633,230.841309c21.55957,0,41.523438,8.777832,55.915039,23.155762l0,0
		c14.363281,14.391602,23.141602,34.34082,23.141602,55.915039c0,22.371094-8.77832,42.321289-23.141602,56.711914l0,0
		c-14.391602,14.364258-34.355469,23.169922-55.915039,23.169922c-22.371582,0-42.335449-8.805664-56.712891-23.169922
		c-14.37793-14.390625-23.169434-34.34082-23.169434-56.711914c0-21.574219,8.791504-41.523438,23.169434-55.915039
		C170.138184,239.619141,190.102051,230.841309,212.473633,230.841309L212.473633,230.841309z M261.976563,260.380859
		c-12.767578-12.768066-30.337402-20.761719-49.50293-20.761719c-19.977539,0-37.547363,7.993652-50.329102,20.761719
		c-12.781738,12.795898-20.761719,30.351563-20.761719,49.53125c0,19.976563,7.97998,37.533203,20.761719,50.328125
		c12.781738,12.768555,30.351563,20.748047,50.329102,20.748047c19.165527,0,36.735352-7.979492,49.50293-20.748047l0,0
		c12.795898-12.794922,20.775391-30.351563,20.775391-50.328125c0-19.179688-7.181641-36.735352-19.977539-49.53125H261.976563z"/>
	<path fill="#FFFFFF" d="M226.837402,290.732422c13.57959,0,26.361816,5.613281,35.13916,14.391602
		c8.805664,8.777344,14.391602,21.573242,14.391602,35.138672c0,13.566406-5.585938,25.563477-14.391602,35.139648l0,0
		c-9.576172,8.77832-21.55957,14.391602-35.13916,14.391602c-13.565918,0-26.347656-5.613281-35.13916-14.391602
		c-8.77832-9.576172-14.37793-21.573242-14.37793-35.139648c0-13.56543,5.599609-26.361328,14.37793-35.138672
		C200.489746,296.345703,213.271484,290.732422,226.837402,290.732422L226.837402,290.732422z M255.592773,311.507813
		c-7.182129-7.980469-17.569824-11.969727-28.755371-11.969727c-11.171875,0-21.55957,3.989258-28.741699,11.969727
		c-7.195801,7.181641-11.983398,17.583008-11.983398,28.754883s4.787598,21.574219,11.983398,28.755859
		c7.182129,7.181641,17.569824,11.969727,28.741699,11.969727c11.185547,0,21.573242-4.788086,28.755371-11.969727
		c7.181641-7.181641,11.99707-17.583984,11.99707-28.755859S262.774414,318.689453,255.592773,311.507813L255.592773,311.507813z"/>
	<path fill="#FFFFFF" d="M332.283203,321.083984c9.576172,0,17.555664,4.017578,23.967773,10.401367
		c6.383789,6.383789,10.373047,14.363281,10.373047,23.966797c0,9.576172-3.989258,18.354492-10.373047,23.94043l0,0
		c-6.412109,6.411133-14.391602,10.401367-23.967773,10.401367c-9.603516,0-18.381836-3.990234-23.967773-10.401367
		c-6.383789-5.585938-10.374023-14.364258-10.374023-23.94043c0-9.603516,3.990234-17.583008,10.374023-23.966797l0,0
		C314.699219,325.101563,322.679688,321.083984,332.283203,321.083984L332.283203,321.083984z M349.838867,337.071289
		c-3.990234-3.990234-10.374023-7.182617-17.555664-7.182617s-13.59375,3.192383-18.381836,7.182617v0.797852
		c-4.788086,3.990234-7.181641,10.374023-7.181641,17.583008c0,7.182617,2.393555,13.566406,7.181641,18.354492
		c4.788086,3.990234,11.200195,7.181641,18.381836,7.181641s13.56543-3.191406,17.555664-7.181641l0,0
		c4.81543-4.788086,8.007813-11.171875,8.007813-18.354492C357.84668,348.243164,354.654297,341.859375,349.838867,337.071289
		L349.838867,337.071289z"/>
	<path fill="#FFFFFF" d="M138.177246,208.469727h224.45752c2.393555,0,3.989258,1.596191,3.989258,3.990234v11.185547
		c0,2.394043-1.595703,3.989746-3.989258,3.989746h-224.45752c-2.394043,0-4.788086-1.595703-4.788086-3.989746v-11.185547
		C133.38916,210.065918,135.783203,208.469727,138.177246,208.469727L138.177246,208.469727z M357.84668,215.665527H142.181152
		v3.989746H357.84668V215.665527z"/>
	<path fill="#FFFFFF" d="M332.283203,146.170898c9.576172,0,17.555664,3.191895,23.967773,9.589844
		c6.383789,6.383789,10.373047,15.175781,10.373047,23.953613c0,9.589844-3.989258,18.367676-10.373047,24.765625
		c-6.412109,5.585938-14.391602,9.589355-23.967773,9.589355c-9.603516,0-18.381836-4.003418-23.967773-9.589355h-0.797852
		c-5.585938-6.397949-9.576172-15.175781-9.576172-24.765625c0-8.777832,3.990234-17.569824,10.374023-23.953613
		C313.901367,149.362793,322.679688,146.170898,332.283203,146.170898L332.283203,146.170898z M349.838867,162.144531
		c-3.990234-4.787598-10.374023-7.97998-17.555664-7.97998s-13.59375,3.192383-18.381836,7.97998
		c-4.788086,4.788086-7.181641,11.186035-7.181641,17.569824c0,7.195801,2.393555,13.57959,7.181641,18.367676l0,0
		c4.788086,4.801758,11.200195,7.195801,18.381836,7.195801s13.56543-2.394043,17.555664-7.195801
		c4.81543-4.788086,8.007813-11.171875,8.007813-18.367676C357.84668,173.330566,354.654297,166.932617,349.838867,162.144531
		L349.838867,162.144531z"/>
	<path fill="#FFFFFF" d="M301.931641,146.170898c9.576172,0,18.353516,3.191895,24.765625,9.589844l0,0
		c6.383789,6.383789,9.576172,15.175781,9.576172,23.953613c0,9.589844-3.990234,18.367676-9.576172,24.765625
		c-6.412109,5.585938-15.189453,9.589355-24.765625,9.589355c-8.805664,0-17.583008-4.003418-23.967773-9.589355l0,0
		c-6.383789-6.397949-9.575195-15.175781-9.575195-24.765625c0-8.777832,3.191406-17.569824,9.575195-23.953613l0,0
		C284.348633,149.362793,293.125977,146.170898,301.931641,146.170898L301.931641,146.170898z M320.285156,162.144531
		c-4.787109-4.787598-11.171875-7.97998-18.353516-7.97998c-6.383789,0-12.794922,3.192383-17.583008,7.97998l0,0
		c-4.788086,4.788086-7.182617,11.186035-7.182617,17.569824c0,7.195801,2.394531,13.57959,7.182617,18.367676l0,0
		c4.788086,4.801758,11.199219,7.195801,17.583008,7.195801c7.181641,0,13.566406-2.394043,18.353516-7.195801
		c4.816406-4.788086,7.209961-11.171875,7.209961-18.367676C327.495117,173.330566,325.101563,166.932617,320.285156,162.144531
		L320.285156,162.144531z"/>
	<path fill="#FFFFFF" d="M258.785156,146.170898c9.603516,0,17.583008,3.191895,23.966797,9.589844l0,0
		c6.384766,6.383789,10.374023,15.175781,10.374023,23.953613c0,9.589844-3.989258,18.367676-10.374023,24.765625
		c-6.383789,5.585938-14.363281,9.589355-23.966797,9.589355c-9.576172,0-18.368164-4.003418-23.954102-9.589355
		c-6.383789-6.397949-10.387695-15.175781-10.387695-24.765625c0-8.777832,4.003906-17.569824,10.387695-23.953613
		C240.416992,149.362793,249.208984,146.170898,258.785156,146.170898L258.785156,146.170898z M276.368164,162.144531
		c-3.990234-4.787598-10.374023-7.97998-17.583008-7.97998c-7.182617,0-13.566406,3.192383-18.368164,7.97998
		c-3.989746,4.788086-7.181641,11.186035-7.181641,17.569824c0,7.195801,3.191895,13.57959,7.181641,18.367676
		c4.801758,4.801758,11.185547,7.195801,18.368164,7.195801c7.208984,0,13.592773-2.394043,17.583008-7.195801
		c4.788086-4.788086,7.980469-11.171875,7.980469-18.367676c0-6.383789-3.192383-12.781738-7.182617-17.569824H276.368164z"/>
	<path fill="#FFFFFF" d="M205.277832,178.118164c0.797852,0.79834,0.797852,2.394043,0.797852,3.990234
		c0.79834,1.609863,0.79834,2.407715,0.79834,4.003906c0,8.777832-3.990234,16.771484-9.589844,22.357422
		c-5.585938,5.599609-13.565918,8.791992-21.55957,8.791992c-8.791992,0-16.771973-3.192383-22.35791-8.791992v-0.797852
		c-5.599609-5.585938-8.791504-12.781738-8.791504-21.55957c0-1.596191,0-2.394043,0-4.003906
		c0-1.596191,0.797852-3.191895,0.797852-3.990234c0.797852-2.393555,2.394043-3.191895,3.989746-3.191895h51.924805
		C203.681641,174.92627,205.277832,175.724609,205.277832,178.118164L205.277832,178.118164z M198.095703,186.112305v-3.192383
		h-44.729004v3.192383c0,6.383789,2.394043,11.969727,5.585938,15.973633h0.797852
		c3.990234,3.989746,9.589844,6.383789,15.974121,6.383789c5.585938,0,11.185547-2.394043,15.973633-6.383789
		C195.687988,198.082031,198.095703,192.496094,198.095703,186.112305L198.095703,186.112305z"/>
	<path fill="#FFFFFF" d="M205.277832,144.575195c0.797852,0.797852,0.797852,2.393555,0.797852,3.191895
		c0.79834,1.595703,0.79834,3.191895,0.79834,4.788086c0,8.791504-3.990234,15.987305-9.589844,21.573242
		c-5.585938,6.383789-13.565918,9.589844-21.55957,9.589844c-8.791992,0-16.771973-3.206055-22.35791-9.589844
		c-5.599609-5.585938-8.791504-12.781738-8.791504-21.573242c0-1.596191,0-3.192383,0-3.990234
		c0-1.596191,0.797852-3.191895,0.797852-4.788086c0.797852-1.595703,2.394043-3.191895,3.989746-3.191895h51.924805
		C203.681641,140.584961,205.277832,142.181152,205.277832,144.575195L205.277832,144.575195z M198.095703,152.555176v-3.192383
		h-44.729004v3.192383c0,6.397461,2.394043,11.983398,6.383789,15.987305c3.990234,3.989746,9.589844,6.383789,15.974121,6.383789
		c5.585938,0,11.185547-2.394043,15.973633-6.383789C195.687988,164.538574,198.095703,158.952637,198.095703,152.555176
		L198.095703,152.555176z"/>
</g>
</svg>
