<?xml version="1.0" encoding="UTF-8"?> <svg xmlns="http://www.w3.org/2000/svg" width="39" height="39" viewBox="0 0 39 39" fill="none"> <path d="M19.2227 0C8.82602 0 0.397705 8.5904 0.397705 19.187C0.397705 29.7835 8.82602 38.3739 19.2227 38.3739C29.6193 38.3739 38.0476 29.7835 38.0476 19.187C38.0476 8.5904 29.6193 0 19.2227 0ZM24.7535 10.9977C23.8586 10.9977 22.9581 10.9977 22.0637 10.9977C21.4975 10.9604 20.9134 11.4008 20.81 11.9778C20.7978 12.9766 20.8039 13.9751 20.8039 14.9739C22.1182 14.9801 23.433 14.9739 24.7477 14.9801C24.6504 16.4252 24.474 17.8644 24.2671 19.2912C23.1047 19.3037 21.9423 19.2912 20.7798 19.2975C20.7676 23.5588 20.7859 27.8139 20.7737 32.0757C19.0451 32.0819 17.3231 32.0695 15.5945 32.0819C15.5639 27.8206 15.5945 23.5592 15.5762 19.2975C14.7363 19.2912 13.8903 19.3037 13.0505 19.2912C13.0566 17.8582 13.0505 16.4256 13.0505 14.9988C13.8903 14.9863 14.7363 14.9988 15.5762 14.9925C15.6006 13.6031 15.5517 12.2074 15.6006 10.818C15.6918 9.70749 16.0995 8.5974 16.9092 7.83439C17.8892 6.88539 19.2765 6.56284 20.5912 6.52548C21.9789 6.51303 23.3666 6.51926 24.7539 6.51926C24.7596 8.01415 24.7596 9.50282 24.7535 10.9977Z" fill="#F08A5D"></path> </svg> 