<?xml version="1.0" encoding="UTF-8"?> <svg xmlns="http://www.w3.org/2000/svg" width="60" height="60" viewBox="0 0 60 60" fill="none"> <rect x="0.000244141" y="-0.000976562" width="60.0008" height="60.0008" fill="#E19371"></rect> <path d="M30.0188 24.2994C26.8526 24.2994 24.2761 26.8382 24.2761 29.9592C24.2761 33.0798 26.8522 35.6187 30.0188 35.6187C33.185 35.6187 35.7615 33.0798 35.7615 29.9592C35.7615 26.8382 33.185 24.2994 30.0188 24.2994ZM30.0188 33.5351C28.0055 33.5351 26.3679 31.9307 26.3679 29.9592C26.3679 27.9874 28.0055 26.3834 30.0188 26.3834C32.0317 26.3834 33.6697 27.9874 33.6697 29.9592C33.6697 31.931 32.0321 33.5351 30.0188 33.5351Z" fill="white"></path> <path d="M34.6683 18.9995H25.333C21.8414 18.9995 19.0005 21.8291 19.0005 25.3074V34.6919C19.0005 38.1699 21.8411 40.9998 25.333 40.9998H34.6683C38.1602 40.9998 41.0008 38.1699 41.0008 34.6919V25.3074C41.0008 21.8294 38.1602 18.9995 34.6683 18.9995ZM38.9051 34.6919C38.9051 37.0189 37.0044 38.9122 34.6683 38.9122H25.333C22.9969 38.9122 21.0962 37.0189 21.0962 34.6919V25.3074C21.0962 22.9804 22.9969 21.0871 25.333 21.0871H34.6683C37.0044 21.0871 38.9051 22.9804 38.9051 25.3074V34.6919Z" fill="white"></path> <path d="M35.8637 25.4143C36.6099 25.4143 37.2149 24.8117 37.2149 24.0684C37.2149 23.325 36.6099 22.7224 35.8637 22.7224C35.1174 22.7224 34.5125 23.325 34.5125 24.0684C34.5125 24.8117 35.1174 25.4143 35.8637 25.4143Z" fill="white"></path> </svg> 