<?xml version="1.0" encoding="UTF-8"?> <svg xmlns="http://www.w3.org/2000/svg" width="39" height="39" viewBox="0 0 39 39" fill="none"> <path d="M24.234 9.52111H14.1398C11.6138 9.52111 9.5586 11.5763 9.5586 14.1023V24.2891C9.5586 26.8151 11.6138 28.8703 14.1398 28.8703H24.234C26.76 28.8703 28.8152 26.8151 28.8152 24.2891V14.1023C28.8152 11.5763 26.76 9.52111 24.234 9.52111ZM19.2062 25.2953C15.7821 25.2953 12.9966 22.5394 12.9966 19.1519C12.9966 15.7645 15.7825 13.0086 19.2062 13.0086C22.6298 13.0086 25.4157 15.7645 25.4157 19.1519C25.4157 22.5394 22.6302 25.2953 19.2062 25.2953ZM25.5262 14.2182C24.7192 14.2182 24.0652 13.5642 24.0652 12.7572C24.0652 11.9502 24.7192 11.2962 25.5262 11.2962C26.3332 11.2962 26.9873 11.9502 26.9873 12.7572C26.9873 13.5642 26.3332 14.2182 25.5262 14.2182Z" fill="#F08A5D"></path> <path d="M19.2346 0C8.63801 0 0.0476074 8.5904 0.0476074 19.187C0.0476074 29.7835 8.63801 38.3739 19.2346 38.3739C29.8311 38.3739 38.4215 29.7835 38.4215 19.187C38.4215 8.5904 29.8311 0 19.2346 0ZM31.0813 24.2891C31.0813 28.0649 28.0094 31.1364 24.234 31.1364H14.1398C10.364 31.1364 7.29252 28.0645 7.29252 24.2891V14.1023C7.29252 10.3265 10.3644 7.25503 14.1398 7.25503H24.234C28.0098 7.25503 31.0813 10.3269 31.0813 14.1023V24.2891Z" fill="#F08A5D"></path> <path d="M19.2062 15.2704C17.0292 15.2704 15.2584 17.0115 15.2584 19.1519C15.2584 21.2923 17.0292 23.0335 19.2062 23.0335C21.3831 23.0335 23.1539 21.2923 23.1539 19.1519C23.1539 17.0115 21.3831 15.2704 19.2062 15.2704Z" fill="#F08A5D"></path> </svg> 