<?xml version="1.0" encoding="utf-8"?>
<!-- Generator: Adobe Illustrator 16.0.0, SVG Export Plug-In . SVG Version: 6.00 Build 0)  -->
<!DOCTYPE svg PUBLIC "-//W3C//DTD SVG 1.1//EN" "http://www.w3.org/Graphics/SVG/1.1/DTD/svg11.dtd">
<svg version="1.1" id="Слой_1" xmlns="http://www.w3.org/2000/svg" xmlns:xlink="http://www.w3.org/1999/xlink" x="0px" y="0px"
	 width="424.717px" height="96px" viewBox="0 0 424.717 96" enable-background="new 0 0 424.717 96" xml:space="preserve">
<g>
	<path fill="none" d="M425.039,40.8c0,18.56,0,37.12,0,55.681c-141.239,0-282.479,0-423.72-0.01c-0.359,0-0.72-0.15-1.079-0.23
		c32.295,0,64.59,0,96.96,0c0-32.106,0-64.053,0-96c109.279,0,218.56,0,327.839,0c0,13.28,0,26.56,0,39.84
		c-2.942-2.263-3.955-1.845-5.467,0.276c-0.035,0.051-0.129,0.062-0.233,0.108c-1.325-2.722-3.615-3.589-6.461-3.193
		c-1.017,0.141-2.041,0.432-2.987,0.83c-7.488,3.156-12.689,12.172-11.714,20.228c0.669,5.522,5.302,8.118,10.053,5.515
		c1.335-0.732,2.43-1.914,3.6-2.928c0.411-0.357,0.719-0.833,1.072-1.255c-0.015,0.86-0.187,1.597-0.446,2.299
		c-2.342,6.288-5,12.299-12.289,14.379c-0.784,0.224-0.947,1.12-0.277,1.608c0.675,0.492,1.529,0.953,2.335,1.01
		c3.137,0.221,5.456-1.538,7.579-3.537c2.872-2.705,4.954-6.016,6.307-9.664c2.178-5.869,4.016-11.861,6.075-17.776
		C423.03,45.55,424.08,43.191,425.039,40.8z M128.808,44.874c0.064,0.053,0.128,0.107,0.192,0.161
		c-0.164,0.489-0.34,0.974-0.49,1.466c-1.176,3.854-1.847,7.771-1.321,11.813c0.636,4.879,3.755,7.19,8.564,6.258
		c1.238-0.239,2.477-0.659,3.614-1.209c4.731-2.285,8.339-5.883,11.299-10.139c4.633-6.662,7.463-13.94,6.968-22.2
		c-0.098-1.635-0.663-3.27-1.202-4.839c-0.328-0.953-1.113-1.652-2.247-1.74c-1.908-0.148-3.466,0.579-4.623,2.038
		c-0.281,0.354-0.352,1.179-0.134,1.574c1.298,2.345,1.909,4.857,1.75,7.49c-0.558,9.316-4.454,17.052-11.394,23.231
		c-0.979,0.873-2.279,1.502-3.539,1.916c-1.921,0.634-3.294-0.375-3.53-2.405c-0.119-1.028-0.191-2.086-0.089-3.11
		c0.759-7.624,2.732-14.765,8.276-20.464c0.799-0.82,0.693-1.626-0.272-2.169c-1.313-0.737-2.658-0.978-4.089-0.167
		c-3.029,1.715-5.569,4.022-7.961,6.499c-5.729,5.933-10.311,12.713-14.479,19.793c-0.223,0.379-0.475,0.743-0.799,1.246
		c-0.557-2.023-0.586-4.341,0.378-6.934c1.361-3.656,2.933-7.24,4.534-10.802c1.57-3.492,3.448-6.853,4.902-10.389
		c1.408-3.425-0.93-7.516-4.604-8.141c-3.41-0.58-6.571,0.486-9.419,2.346c-0.479,0.313-0.862,1.228-0.809,1.822
		c0.172,1.938,2.78,3.152,4.492,2.217c1.82-0.994,3.772-1.459,5.97-1.474c-0.195,0.375-0.322,0.657-0.483,0.918
		c-2.984,4.84-5.51,9.912-7.581,15.203c-1.502,3.837-2.803,7.741-3.082,11.901c-0.186,2.759,0.453,5.263,2.51,7.216
		c1.606,1.526,3.608,1.232,4.895-0.549c3.296-4.57,6.594-9.139,9.946-13.669C126.161,47.956,127.52,46.441,128.808,44.874z
		 M225.849,43.277c0.161-0.985,0.393-1.772,0.384-2.557c-0.006-0.681-0.121-1.461-0.471-2.021c-1.52-2.423-5.749-1.622-6.76-0.142
		c-0.247,0.361-0.242,1.373-0.019,1.501c1.609,0.924,1.55,2.286,1.185,3.763c-2.656,10.732-5.116,21.523-9.455,31.754
		c-0.651,1.536-0.293,2.716,0.954,3.421c1.159,0.654,2.733,0.26,3.603-0.95c0.324-0.45,0.611-0.948,0.808-1.465
		c0.803-2.126,1.622-4.249,2.325-6.409c0.834-2.563,1.556-5.16,2.339-7.787c3.22,2.819,5.785,3.215,9.559,1.241
		c1.645-0.86,3.257-1.926,4.595-3.201c4.831-4.606,7.64-10.104,6.783-17.004c-0.527-4.251-3.399-6.669-7.312-6.189
		c-2.231,0.274-4.065,1.389-5.634,2.943C227.773,41.128,226.888,42.155,225.849,43.277z M284.873,43.222
		c0.124-0.9,0.167-1.647,0.338-2.365c0.317-1.335-0.298-2.255-1.267-3.002c-1.454-1.122-4.688-0.8-5.894,0.576
		c-0.566,0.646-0.805,1.329,0.16,1.868c1.016,0.567,1.309,1.459,1.124,2.543c-0.155,0.905-0.309,1.814-0.543,2.7
		c-2.695,10.179-4.945,20.492-9.164,30.209c-0.586,1.349-0.187,2.502,0.97,3.211c1.02,0.625,2.539,0.403,3.381-0.585
		c0.435-0.508,0.8-1.109,1.054-1.729c0.692-1.698,1.38-3.405,1.939-5.149c0.97-3.017,1.842-6.065,2.791-9.22
		c2.388,3.009,5.358,3.007,8.506,1.824c6.432-2.414,13.67-11.162,12.443-20.517c-0.566-4.318-3.344-6.801-7.313-6.357
		c-2.236,0.25-4.071,1.37-5.647,2.913C286.792,41.082,285.912,42.104,284.873,43.222z M260.881,58.266
		c0,0.549-0.005,1.092,0.001,1.635c0.028,2.399,1.462,4.332,3.566,4.81c2.407,0.545,5.521-0.938,6.505-3.222
		c0.272-0.633,0.177-1.428,0.25-2.147c-0.599,0.103-1.219,0.134-1.788,0.319c-2.259,0.732-3.445-0.023-3.251-2.371
		c0.133-1.605,0.479-3.262,1.092-4.748c1.7-4.131,3.544-8.205,5.429-12.255c0.52-1.115,0.286-1.786-0.623-2.434
		c-1.382-0.986-3.032-0.879-4.211,0.346c-0.513,0.533-0.958,1.13-1.437,1.701c-2.345-2.354-3.526-2.98-5.897-2.642
		c-1.315,0.188-2.675,0.603-3.839,1.237c-5.363,2.921-8.733,7.49-10.455,13.287c-0.795,2.677-1.038,5.42-0.225,8.156
		c1.145,3.853,4.438,5.778,8.044,4.526c1.275-0.442,2.512-1.272,3.504-2.204C258.782,61.102,259.747,59.652,260.881,58.266z
		 M171.803,58.327c0,0.565-0.061,1.327,0.012,2.075c0.184,1.873,0.983,3.396,2.819,4.109c2.581,1,6.215-0.562,7.239-3.133
		c0.244-0.611,0.12-1.367,0.166-2.057c-0.563,0.093-1.151,0.111-1.685,0.291c-2.401,0.814-3.731-0.174-3.354-2.696
		c0.239-1.603,0.613-3.233,1.233-4.724c1.67-4.011,3.526-7.943,5.248-11.934c0.219-0.506,0.315-1.313,0.061-1.731
		c-0.861-1.416-3.498-1.985-4.782-0.423c-0.498,0.606-0.999,1.21-1.502,1.82c-2.658-2.902-5.089-3.456-8.621-1.997
		c-7.385,3.051-13.005,12.396-12.128,20.319c0.294,2.659,1.368,4.991,4.014,6.093c2.571,1.069,5.023,0.458,7.022-1.338
		C169.123,61.584,170.427,59.859,171.803,58.327z M376.917,47.945c-0.031-0.034-0.063-0.068-0.095-0.102
		c0.199-0.471,0.433-0.932,0.593-1.416c0.586-1.776,1.204-3.546,1.698-5.348c0.338-1.225-0.12-2.282-1.106-3.089
		c-1.487-1.218-4.689-1.024-5.995,0.386c-0.631,0.681-0.807,1.385,0.115,2.004c0.834,0.561,1.097,1.399,0.896,2.312
		c-0.343,1.554-0.646,3.143-1.229,4.613c-1.792,4.522-3.698,9-5.585,13.484c-0.667,1.585-0.341,2.663,1.159,3.496
		c1.78,0.99,2.89,0.679,3.819-1.107c0.388-0.744,0.697-1.525,1.069-2.275c1.026-2.073,1.795-4.344,3.158-6.166
		c2.819-3.768,5.947-7.307,8.983-10.913c0.453-0.539,1.035-1.054,1.667-1.329c0.47-0.205,1.206-0.167,1.647,0.079
		c0.27,0.151,0.342,0.925,0.26,1.375c-0.119,0.655-0.427,1.284-0.706,1.9c-1.036,2.29-2.151,4.545-3.129,6.86
		c-1.013,2.402-1.759,4.889-1.609,7.551c0.131,2.309,1.563,3.977,3.822,4.434c2.877,0.582,6.256-1.387,6.771-3.984
		c0.088-0.439-0.039-0.92-0.067-1.383c-0.448,0.07-0.905,0.105-1.343,0.217c-0.575,0.146-1.123,0.436-1.703,0.52
		c-1.665,0.242-2.289-0.34-1.748-1.912c0.983-2.858,2.217-5.629,3.281-8.461c0.851-2.266,1.761-4.527,2.354-6.864
		c0.474-1.866-0.197-3.592-1.874-4.705c-1.682-1.116-3.586-1.427-5.313-0.333c-1.662,1.051-3.254,2.315-4.592,3.751
		C380.245,43.543,378.638,45.797,376.917,47.945z M311.027,55.107c0.223-0.082,0.293-0.127,0.366-0.133
		c0.278-0.025,0.559-0.035,0.837-0.056c4.504-0.344,8.756-1.394,12.256-4.476c1.818-1.6,2.861-3.623,3.063-6.042
		c0.403-4.854-3.136-7.958-8.086-7.115c-3.463,0.589-6.222,2.422-8.548,4.949c-3.786,4.112-6.174,8.82-5.873,14.578
		c0.226,4.319,2.995,7.332,7.264,7.901c1.021,0.138,2.079,0.112,3.11,0.032c2.79-0.217,5.434-0.881,7.652-2.732
		c0.964-0.805,1.469-1.841,1.33-3.05c-0.068-0.601-0.44-1.313-0.908-1.657c-0.237-0.176-1.086,0.237-1.497,0.578
		c-1.896,1.568-3.997,2.62-6.464,2.877c-2.686,0.278-4.259-1.014-4.493-3.717C310.98,56.414,311.027,55.775,311.027,55.107z
		 M185.398,59.191c0.071,0.021,0.142,0.043,0.211,0.065c0.057,0.517,0.079,1.038,0.174,1.548c0.476,2.592,2.345,4.073,5.013,3.994
		c2.339-0.068,5.004-2.238,5.27-4.332c0.047-0.371,0.045-0.914-0.173-1.102c-0.197-0.17-0.722,0.025-1.097,0.09
		c-0.152,0.025-0.286,0.17-0.438,0.188c-0.881,0.103-2.033,0.551-2.565,0.162c-0.488-0.357-0.568-1.693-0.373-2.486
		c0.771-3.135,1.646-6.25,2.621-9.33c2.104-6.658,4.32-13.279,6.419-19.939c0.439-1.398,0.633-2.887,0.823-4.349
		c0.24-1.851-1.13-3.453-3-3.648c-1.77-0.184-2.355,0.507-2.747,2.763c-0.514,2.947-0.955,5.932-1.806,8.788
		c-2.095,7.035-4.434,13.998-6.613,21.007C186.444,54.773,185.966,56.997,185.398,59.191z M205.482,64.799
		c2.425,0.049,5.136-1.884,5.62-4.063c0.097-0.438-0.024-0.922-0.046-1.387c-0.447,0.055-0.895,0.108-1.342,0.164
		c-0.987,0.119-1.975,0.24-2.961,0.36c-0.079-0.957-0.403-1.972-0.191-2.858c0.674-2.83,1.478-5.633,2.355-8.406
		c2.206-6.96,4.517-13.887,6.696-20.855c0.447-1.43,0.619-2.974,0.718-4.479c0.112-1.734-1.359-3.131-3.168-3.229
		c-1.619-0.088-2.192,0.545-2.516,2.62c-0.302,1.932-0.498,3.905-1.046,5.771c-2.071,7.042-4.296,14.04-6.4,21.073
		c-0.902,3.016-1.841,6.041-2.416,9.127C200.15,62.04,202.371,64.736,205.482,64.799z M339.32,48.596
		c-0.086-0.035-0.173-0.07-0.26-0.104c0.083-0.375,0.144-0.759,0.254-1.126c0.535-1.755,1.163-3.486,1.601-5.264
		c0.281-1.146,0.452-2.372-0.367-3.454c-1.399-1.849-5.173-2.007-6.609-0.181c-0.292,0.372-0.348,1.471-0.108,1.63
		c1.63,1.087,1.428,2.642,1.073,4.102c-0.693,2.866-1.482,5.718-2.413,8.515c-0.931,2.801-2.105,5.518-3.125,8.29
		c-0.565,1.539,0.245,2.832,2.113,3.536c1.661,0.626,2.351,0.333,3.06-1.395c0.757-1.846,1.404-3.738,2.208-5.563
		c2.087-4.743,4.604-9.23,8.298-12.938c1.47-1.476,2.241-1.483,3.817-0.149c0.837,0.708,1.6,0.622,2.375,0.016
		c1.456-1.138,2.033-4.109,1.136-5.729c-0.569-1.027-1.422-1.554-2.623-1.589c-1.472-0.042-2.618,0.612-3.655,1.544
		c-2.635,2.365-4.402,5.352-6.021,8.442C339.823,47.65,339.571,48.122,339.32,48.596z M360.253,37.2
		c-0.046-0.109-0.091-0.218-0.137-0.327c-1.178,0.496-2.413,0.892-3.51,1.527c-0.659,0.382-0.923,1.262-0.133,1.807
		c1.369,0.944,1.353,2.211,0.931,3.514c-0.612,1.896-1.381,3.742-2.074,5.613c-1.138,3.064-2.404,6.091-3.35,9.214
		c-0.569,1.882-0.361,3.888,1.361,5.265c1.663,1.332,3.582,1.281,5.452,0.517c1.602-0.654,2.714-1.843,2.938-3.64
		c0.125-1.006-0.302-1.273-1.28-0.973c-0.567,0.174-1.153,0.331-1.74,0.383c-0.955,0.084-1.425-0.418-1.333-1.377
		c0.045-0.476,0.093-0.972,0.265-1.41c1.079-2.748,2.207-5.477,3.29-8.224c0.965-2.448,2.08-4.858,2.79-7.38
		C364.691,38.273,363.751,37.201,360.253,37.2z M363.967,24.681c-2.529-0.044-4.302,1.493-4.327,3.75
		c-0.021,2.074,1.694,4.091,3.538,4.157c2.382,0.085,4.576-2.225,4.618-4.861C367.824,25.921,366.316,24.722,363.967,24.681z"/>
	<path fill="#D2DD8E" d="M97.2,0.24c0,31.947,0,63.895,0,96c-32.37,0-64.665,0-96.96,0c0-31.98,0-63.96,0-96
		C32.56,0.24,64.88,0.24,97.2,0.24z M5.287,91.161c29.024,0,57.919,0,86.845,0c0-28.651,0-57.226,0-85.821
		c-28.99,0-57.912,0-86.845,0C5.287,33.985,5.287,62.531,5.287,91.161z"/>
	<path d="M425.039,40.8c-0.959,2.392-2.01,4.75-2.855,7.18c-2.061,5.915-3.897,11.907-6.075,17.776
		c-1.353,3.646-3.435,6.959-6.307,9.664c-2.123,1.999-4.442,3.758-7.579,3.537c-0.806-0.057-1.66-0.518-2.335-1.01
		c-0.67-0.488-0.507-1.385,0.277-1.608c7.289-2.08,9.947-8.091,12.289-14.379c0.261-0.703,0.433-1.438,0.446-2.299
		c-0.354,0.422-0.662,0.897-1.072,1.255c-1.17,1.016-2.265,2.195-3.6,2.928c-4.751,2.604-9.384,0.008-10.053-5.515
		c-0.977-8.054,4.226-17.072,11.714-20.228c0.946-0.398,1.972-0.689,2.987-0.83c2.846-0.396,5.136,0.471,6.461,3.193
		c0.104-0.047,0.198-0.057,0.233-0.108c1.511-2.122,2.523-2.539,5.467-0.276C425.039,40.32,425.039,40.56,425.039,40.8z
		 M404.035,56.701c0.084,1.049,0.063,1.781,0.217,2.474c0.338,1.519,1.379,2.115,2.746,1.513c0.746-0.33,1.471-0.834,2.037-1.42
		c4.237-4.381,6.75-9.709,8.334-15.521c0.104-0.377,0.058-0.927-0.154-1.236c-1.263-1.848-3.16-3.027-5.502-1.551
		c-0.637,0.401-1.281,0.844-1.785,1.392C406.115,46.497,404.463,51.518,404.035,56.701z"/>
	<path d="M128.808,44.874c-1.289,1.567-2.646,3.082-3.852,4.71c-3.353,4.529-6.649,9.1-9.946,13.669
		c-1.286,1.782-3.288,2.076-4.894,0.55c-2.058-1.955-2.695-4.457-2.511-7.217c0.279-4.16,1.58-8.064,3.082-11.901
		c2.071-5.291,4.598-10.363,7.581-15.203c0.161-0.261,0.288-0.543,0.483-0.918c-2.197,0.015-4.149,0.479-5.969,1.474
		c-1.713,0.935-4.321-0.278-4.493-2.217c-0.054-0.594,0.33-1.509,0.809-1.822c2.848-1.86,6.009-2.926,9.419-2.346
		c3.673,0.625,6.011,4.715,4.604,8.141c-1.455,3.537-3.332,6.897-4.902,10.389c-1.602,3.562-3.173,7.146-4.534,10.803
		c-0.964,2.592-0.936,4.91-0.378,6.933c0.324-0.503,0.576-0.866,0.799-1.246c4.168-7.079,8.749-13.86,14.479-19.793
		c2.392-2.477,4.932-4.784,7.961-6.499c1.432-0.811,2.776-0.57,4.089,0.167c0.966,0.543,1.071,1.349,0.273,2.169
		c-5.545,5.699-7.519,12.84-8.277,20.463c-0.103,1.025-0.03,2.084,0.089,3.111c0.236,2.031,1.609,3.04,3.53,2.406
		c1.259-0.416,2.56-1.043,3.539-1.916c6.939-6.182,10.835-13.917,11.394-23.232c0.158-2.633-0.452-5.145-1.75-7.49
		c-0.218-0.395-0.146-1.22,0.134-1.574c1.157-1.459,2.715-2.186,4.623-2.038c1.135,0.088,1.919,0.787,2.247,1.74
		c0.54,1.569,1.104,3.204,1.202,4.839c0.495,8.259-2.335,15.538-6.968,22.199c-2.96,4.256-6.567,7.854-11.299,10.141
		c-1.138,0.549-2.376,0.969-3.614,1.209c-4.811,0.932-7.929-1.379-8.564-6.258c-0.525-4.043,0.146-7.959,1.321-11.814
		c0.15-0.493,0.326-0.978,0.49-1.466C128.937,44.981,128.873,44.927,128.808,44.874z"/>
	<path d="M225.849,43.277c1.04-1.123,1.925-2.149,2.884-3.1c1.568-1.554,3.402-2.669,5.634-2.943
		c3.912-0.48,6.784,1.938,7.312,6.189c0.856,6.897-1.952,12.397-6.783,17.005c-1.338,1.274-2.951,2.34-4.595,3.2
		c-3.773,1.974-6.339,1.578-9.56-1.241c-0.782,2.627-1.504,5.225-2.338,7.787c-0.704,2.16-1.522,4.283-2.325,6.409
		c-0.195,0.517-0.483,1.015-0.808,1.465c-0.869,1.209-2.443,1.604-3.603,0.95c-1.247-0.705-1.605-1.885-0.954-3.421
		c4.339-10.231,6.798-21.022,9.455-31.754c0.365-1.477,0.425-2.838-1.185-3.763c-0.224-0.129-0.229-1.14,0.019-1.501
		c1.011-1.479,5.24-2.281,6.76,0.142c0.35,0.559,0.464,1.34,0.471,2.021C226.241,41.505,226.009,42.292,225.849,43.277z
		 M235.96,45.483c0-0.2,0.006-0.399-0.001-0.599c-0.049-1.323,0.039-2.853-1.338-3.482c-1.42-0.651-2.602,0.359-3.617,1.277
		c-3.502,3.163-6.047,6.989-7.552,11.453c-0.449,1.332-0.685,2.798-0.69,4.203c-0.009,2.379,1.63,3.528,3.859,2.733
		c1.097-0.391,2.196-1.022,3.049-1.813C233.661,55.555,235.581,50.859,235.96,45.483z"/>
	<path d="M284.873,43.222c1.04-1.118,1.919-2.14,2.878-3.08c1.576-1.542,3.412-2.662,5.647-2.913
		c3.969-0.444,6.746,2.039,7.313,6.357c1.227,9.354-6.014,18.104-12.443,20.518c-3.146,1.182-6.118,1.184-8.506-1.824
		c-0.949,3.152-1.821,6.201-2.791,9.219c-0.56,1.745-1.248,3.451-1.94,5.148c-0.252,0.619-0.618,1.222-1.053,1.729
		c-0.842,0.989-2.361,1.21-3.381,0.585c-1.155-0.708-1.556-1.861-0.97-3.211c4.219-9.719,6.469-20.031,9.164-30.209
		c0.234-0.886,0.388-1.795,0.543-2.7c0.186-1.084-0.108-1.976-1.124-2.543c-0.965-0.54-0.727-1.223-0.16-1.868
		c1.207-1.375,4.438-1.698,5.894-0.576c0.968,0.747,1.584,1.667,1.267,3.002C285.039,41.574,284.996,42.322,284.873,43.222z
		 M294.96,45.328c0-0.16,0.008-0.32-0.001-0.479c-0.077-1.314,0.016-2.827-1.383-3.458c-1.327-0.599-2.452,0.301-3.43,1.157
		c-3.557,3.116-6.098,6.95-7.643,11.39c-0.512,1.469-0.709,3.111-0.717,4.676c-0.012,1.953,1.337,3.056,3.154,2.574
		c1.263-0.334,2.583-0.953,3.55-1.813C292.663,55.656,294.585,50.831,294.96,45.328z"/>
	<path d="M260.881,58.266c-1.135,1.389-2.099,2.836-3.334,3.994c-0.993,0.932-2.229,1.76-3.504,2.204
		c-3.604,1.251-6.899-0.675-8.044-4.526c-0.813-2.736-0.571-5.479,0.225-8.156c1.722-5.797,5.092-10.366,10.455-13.287
		c1.164-0.634,2.523-1.049,3.839-1.237c2.372-0.338,3.553,0.289,5.897,2.642c0.479-0.571,0.924-1.168,1.437-1.701
		c1.179-1.225,2.83-1.332,4.211-0.346c0.908,0.648,1.143,1.319,0.623,2.434c-1.885,4.051-3.729,8.125-5.429,12.255
		c-0.611,1.486-0.958,3.143-1.092,4.748c-0.194,2.348,0.991,3.104,3.251,2.371c0.569-0.186,1.189-0.217,1.788-0.319
		c-0.073,0.722,0.022,1.515-0.25,2.147c-0.983,2.281-4.098,3.767-6.506,3.222c-2.104-0.478-3.537-2.41-3.565-4.81
		C260.876,59.357,260.881,58.813,260.881,58.266z M251.531,56.938c0,0.561-0.059,1.127,0.011,1.678
		c0.249,1.984,1.666,2.712,3.32,1.613c0.916-0.608,1.751-1.401,2.463-2.246c3.376-4.014,5.427-8.724,6.958-13.68
		c0.665-2.157-1.013-4.059-3.198-3.492c-1.151,0.299-2.335,0.926-3.219,1.722C253.613,46.363,251.918,51.384,251.531,56.938z"/>
	<path d="M171.803,58.327c-1.376,1.534-2.68,3.258-4.258,4.676c-2,1.796-4.451,2.407-7.022,1.338
		c-2.646-1.101-3.72-3.435-4.014-6.093c-0.877-7.923,4.743-17.269,12.128-20.319c3.531-1.458,5.962-0.905,8.621,1.997
		c0.504-0.61,1.004-1.214,1.502-1.82c1.284-1.562,3.921-0.993,4.782,0.423c0.255,0.419,0.158,1.225-0.061,1.731
		c-1.722,3.99-3.578,7.923-5.248,11.933c-0.621,1.49-0.995,3.121-1.233,4.725c-0.377,2.521,0.953,3.51,3.354,2.697
		c0.533-0.182,1.121-0.199,1.685-0.293c-0.045,0.689,0.078,1.447-0.166,2.058c-1.024,2.571-4.659,4.134-7.239,3.132
		c-1.836-0.712-2.637-2.234-2.819-4.107C171.742,59.654,171.803,58.893,171.803,58.327z M162.239,57.184
		c0.074,0.592,0.114,1.189,0.229,1.772c0.315,1.599,1.518,2.243,2.92,1.448c0.851-0.482,1.651-1.137,2.305-1.866
		c3.612-4.031,5.696-8.882,7.384-13.946c0.41-1.233,0.263-2.298-0.643-3.184c-0.937-0.917-2.17-1.024-3.217-0.409
		c-1.387,0.815-2.83,1.713-3.872,2.905C164.05,47.675,162.567,52.213,162.239,57.184z"/>
	<path d="M376.917,47.945c1.721-2.148,3.328-4.401,5.2-6.409c1.338-1.436,2.93-2.7,4.592-3.751c1.729-1.094,3.633-0.783,5.313,0.333
		c1.677,1.113,2.348,2.839,1.874,4.705c-0.594,2.337-1.504,4.599-2.354,6.865c-1.064,2.832-2.298,5.603-3.281,8.461
		c-0.541,1.572,0.083,2.154,1.748,1.912c0.58-0.084,1.128-0.373,1.703-0.52c0.438-0.111,0.895-0.146,1.343-0.217
		c0.028,0.462,0.155,0.943,0.067,1.383c-0.517,2.598-3.896,4.566-6.771,3.984c-2.259-0.457-3.691-2.125-3.822-4.434
		c-0.148-2.664,0.598-5.148,1.609-7.551c0.977-2.314,2.093-4.57,3.129-6.86c0.279-0.617,0.587-1.245,0.706-1.9
		c0.082-0.45,0.01-1.223-0.26-1.375c-0.441-0.246-1.179-0.284-1.647-0.079c-0.632,0.275-1.214,0.79-1.667,1.329
		c-3.036,3.604-6.164,7.144-8.983,10.913c-1.363,1.822-2.132,4.092-3.158,6.166c-0.372,0.75-0.684,1.533-1.069,2.274
		c-0.931,1.787-2.039,2.099-3.819,1.108c-1.5-0.833-1.826-1.911-1.159-3.496c1.887-4.484,3.793-8.962,5.585-13.484
		c0.583-1.47,0.887-3.059,1.229-4.613c0.201-0.912-0.062-1.751-0.896-2.312c-0.922-0.62-0.746-1.324-0.115-2.004
		c1.306-1.41,4.508-1.604,5.995-0.386c0.986,0.807,1.444,1.864,1.106,3.089c-0.494,1.802-1.112,3.572-1.698,5.348
		c-0.16,0.484-0.394,0.945-0.593,1.416C376.854,47.877,376.886,47.911,376.917,47.945z"/>
	<path d="M311.027,55.107c0,0.668-0.047,1.307,0.009,1.937c0.234,2.703,1.808,3.995,4.493,3.716
		c2.467-0.256,4.568-1.308,6.464-2.875c0.411-0.342,1.26-0.755,1.496-0.58c0.469,0.346,0.841,1.059,0.909,1.658
		c0.139,1.209-0.367,2.246-1.33,3.049c-2.219,1.852-4.862,2.518-7.652,2.733c-1.031,0.08-2.089,0.104-3.11-0.032
		c-4.27-0.57-7.039-3.583-7.264-7.9c-0.301-5.758,2.087-10.466,5.873-14.579c2.326-2.526,5.084-4.359,8.548-4.949
		c4.95-0.843,8.489,2.261,8.086,7.115c-0.201,2.42-1.244,4.444-3.063,6.043c-3.5,3.082-7.751,4.131-12.256,4.475
		c-0.278,0.021-0.559,0.029-0.837,0.055C311.32,54.98,311.25,55.023,311.027,55.107z M311.701,52.098
		c4.069-0.08,8.904-3.438,10.136-7.027c0.296-0.864,0.298-1.88,0.22-2.809c-0.09-1.075-0.887-1.748-1.918-1.434
		c-1.139,0.346-2.367,0.839-3.211,1.635C314.183,45.053,312.875,48.485,311.701,52.098z"/>
	<path d="M185.398,59.191c0.568-2.194,1.046-4.416,1.72-6.58c2.18-7.009,4.519-13.972,6.613-21.007
		c0.852-2.856,1.292-5.841,1.806-8.788c0.392-2.256,0.979-2.947,2.746-2.763c1.871,0.195,3.241,1.797,3,3.648
		c-0.189,1.462-0.383,2.951-0.822,4.349c-2.099,6.66-4.316,13.281-6.419,19.939c-0.974,3.08-1.85,6.195-2.621,9.33
		c-0.195,0.793-0.115,2.129,0.373,2.486c0.532,0.389,1.686-0.061,2.565-0.162c0.15-0.018,0.285-0.162,0.438-0.188
		c0.375-0.063,0.899-0.26,1.097-0.09c0.218,0.188,0.22,0.73,0.173,1.102c-0.266,2.094-2.931,4.264-5.27,4.332
		c-2.668,0.079-4.537-1.402-5.014-3.994c-0.094-0.51-0.116-1.031-0.173-1.548C185.539,59.234,185.469,59.213,185.398,59.191z"/>
	<path d="M205.482,64.799c-3.11-0.063-5.332-2.759-4.695-6.166c0.575-3.085,1.513-6.111,2.416-9.126
		c2.104-7.033,4.329-14.03,6.4-21.073c0.548-1.865,0.744-3.838,1.046-5.771c0.323-2.074,0.896-2.708,2.516-2.62
		c1.809,0.098,3.28,1.496,3.168,3.229c-0.099,1.505-0.271,3.049-0.718,4.479c-2.18,6.968-4.49,13.895-6.696,20.854
		c-0.879,2.774-1.683,5.578-2.355,8.406c-0.211,0.889,0.113,1.903,0.191,2.859c0.987-0.12,1.974-0.241,2.961-0.361
		c0.447-0.055,0.895-0.107,1.342-0.162c0.021,0.463,0.144,0.948,0.046,1.385C210.617,62.916,207.906,64.848,205.482,64.799z"/>
	<path d="M339.32,48.596c0.25-0.474,0.503-0.946,0.751-1.419c1.62-3.091,3.387-6.077,6.021-8.442
		c1.038-0.932,2.184-1.586,3.655-1.544c1.2,0.035,2.054,0.562,2.623,1.589c0.897,1.621,0.32,4.591-1.136,5.729
		c-0.774,0.606-1.537,0.692-2.375-0.016c-1.578-1.334-2.349-1.326-3.817,0.149c-3.694,3.708-6.21,8.196-8.298,12.938
		c-0.804,1.825-1.451,3.718-2.208,5.563c-0.708,1.727-1.398,2.021-3.06,1.394c-1.868-0.704-2.679-1.997-2.113-3.536
		c1.02-2.771,2.194-5.49,3.125-8.29c0.931-2.797,1.72-5.649,2.413-8.515c0.354-1.459,0.557-3.015-1.073-4.102
		c-0.238-0.159-0.184-1.258,0.108-1.63c1.437-1.827,5.21-1.668,6.609,0.181c0.818,1.082,0.647,2.307,0.367,3.454
		c-0.438,1.778-1.065,3.509-1.601,5.264c-0.111,0.367-0.171,0.75-0.254,1.126C339.147,48.525,339.234,48.561,339.32,48.596z"/>
	<path d="M360.253,37.2c3.498,0.001,4.438,1.073,3.47,4.509c-0.71,2.522-1.825,4.933-2.79,7.38c-1.083,2.747-2.211,5.476-3.29,8.224
		c-0.172,0.438-0.22,0.936-0.265,1.41c-0.092,0.959,0.378,1.461,1.333,1.377c0.587-0.052,1.173-0.209,1.74-0.383
		c0.979-0.301,1.405-0.033,1.28,0.973c-0.225,1.797-1.337,2.984-2.938,3.64c-1.87,0.765-3.789,0.813-5.452-0.517
		c-1.723-1.377-1.931-3.383-1.361-5.265c0.945-3.123,2.211-6.149,3.35-9.214c0.693-1.871,1.462-3.716,2.074-5.613
		c0.422-1.303,0.438-2.57-0.931-3.514c-0.79-0.545-0.526-1.424,0.133-1.807c1.098-0.636,2.332-1.031,3.509-1.527
		C360.162,36.982,360.207,37.091,360.253,37.2z"/>
	<path d="M363.967,24.681c2.35,0.041,3.857,1.241,3.829,3.045c-0.042,2.637-2.236,4.946-4.618,4.861
		c-1.844-0.065-3.561-2.083-3.538-4.157C359.665,26.173,361.438,24.637,363.967,24.681z"/>
	<path fill="#D2DD8E" stroke="#D2DD8E" stroke-miterlimit="10" d="M5.287,91.161c0-28.63,0-57.176,0-85.821
		c28.933,0,57.854,0,86.845,0c0,28.595,0,57.17,0,85.821C63.206,91.161,34.313,91.161,5.287,91.161z M15.575,28.452
		c0,12.174,0,24.108,0,36.05c1.563,0,3.029,0,4.666,0c0-4.816,0-9.577,0-14.104c2.724-0.16,5.293-0.106,7.792-0.502
		c5.558-0.879,8.967-4.273,9.785-9.393c0.979-6.106-2.221-11.011-8.28-12.11c-2.874-0.521-5.877-0.41-8.822-0.423
		C19.015,27.963,17.313,28.278,15.575,28.452z M70.982,65.08c6.114-0.002,10.795-3.439,12.407-9.152
		c0.705-2.498,0.771-5.033,0.385-7.602c-0.754-5.03-4.142-8.961-8.81-10.15c-5.395-1.375-10.852,0.347-13.865,4.459
		c-2.443,3.335-3.005,7.132-2.578,11.161C59.237,60.54,64.232,65.082,70.982,65.08z M43.151,64.471c1.734,0,3.231,0,4.81,0
		c0-0.521,0-0.955,0-1.389c0-4.314-0.033-8.629,0.01-12.941c0.042-4.157,2.243-7.238,5.548-7.787
		c0.834-0.138,1.71-0.021,2.599-0.021c0-1.494,0-2.923,0-4.505c-4.347-0.553-6.925,1.704-8.659,5.409
		c-0.097-0.061-0.192-0.121-0.288-0.182c0-1.538,0-3.075,0-4.631c-1.482,0-2.783,0-4.02,0
		C43.151,47.137,43.151,55.783,43.151,64.471z"/>
	<path fill="none" d="M404.035,56.701c0.428-5.184,2.079-10.205,5.893-14.35c0.504-0.548,1.148-0.991,1.785-1.392
		c2.342-1.476,4.239-0.296,5.502,1.551c0.212,0.309,0.258,0.859,0.154,1.236c-1.584,5.813-4.097,11.141-8.334,15.521
		c-0.566,0.586-1.291,1.09-2.037,1.418c-1.367,0.604-2.408,0.006-2.746-1.512C404.098,58.482,404.119,57.75,404.035,56.701z"/>
	<path fill="none" d="M235.96,45.483c-0.379,5.376-2.299,10.072-6.291,13.774c-0.853,0.79-1.952,1.423-3.049,1.813
		c-2.229,0.793-3.868-0.355-3.859-2.734c0.006-1.406,0.241-2.871,0.69-4.203c1.505-4.464,4.05-8.29,7.552-11.453
		c1.017-0.918,2.197-1.928,3.617-1.277c1.377,0.631,1.29,2.16,1.338,3.482C235.966,45.083,235.96,45.283,235.96,45.483z"/>
	<path fill="none" d="M294.96,45.328c-0.375,5.503-2.297,10.328-6.469,14.045c-0.967,0.859-2.287,1.479-3.55,1.813
		c-1.817,0.481-3.166-0.621-3.154-2.574c0.008-1.563,0.206-3.207,0.717-4.676c1.545-4.439,4.086-8.272,7.643-11.39
		c0.978-0.856,2.103-1.756,3.43-1.157c1.398,0.631,1.307,2.144,1.383,3.458C294.968,45.008,294.96,45.168,294.96,45.328z"/>
	<path fill="none" d="M251.531,56.938c0.389-5.553,2.083-10.575,6.335-14.404c0.883-0.796,2.066-1.423,3.219-1.722
		c2.186-0.567,3.864,1.335,3.198,3.492c-1.531,4.957-3.581,9.666-6.958,13.679c-0.712,0.846-1.547,1.638-2.463,2.246
		c-1.654,1.1-3.072,0.371-3.32-1.612C251.472,58.063,251.531,57.497,251.531,56.938z"/>
	<path fill="none" d="M162.239,57.184c0.328-4.971,1.812-9.509,5.106-13.279c1.042-1.192,2.484-2.09,3.872-2.905
		c1.047-0.615,2.28-0.508,3.217,0.409c0.905,0.885,1.053,1.951,0.643,3.184c-1.688,5.063-3.771,9.917-7.384,13.946
		c-0.653,0.729-1.455,1.384-2.305,1.865c-1.402,0.795-2.604,0.15-2.92-1.447C162.353,58.373,162.313,57.775,162.239,57.184z"/>
	<path fill="none" d="M311.701,52.098c1.174-3.612,2.481-7.044,5.228-9.635c0.844-0.796,2.072-1.289,3.211-1.635
		c1.031-0.313,1.828,0.359,1.918,1.434c0.078,0.928,0.076,1.945-0.22,2.809C320.606,48.658,315.771,52.018,311.701,52.098z"/>
	<path d="M15.575,28.452c1.738-0.174,3.439-0.489,5.141-0.481c2.945,0.013,5.949-0.098,8.822,0.423
		c6.061,1.099,9.259,6.003,8.28,12.11c-0.818,5.119-4.228,8.514-9.785,9.393c-2.499,0.396-5.069,0.342-7.792,0.502
		c0,4.526,0,9.287,0,14.104c-1.637,0-3.104,0-4.666,0C15.575,52.561,15.575,40.626,15.575,28.452z M20.204,31.938
		c0,4.619-0.011,9.128,0.028,13.638c0.002,0.226,0.398,0.609,0.652,0.648c2.965,0.455,5.918,0.505,8.657-0.947
		c2.957-1.567,3.838-4.239,3.604-7.381c-0.204-2.737-1.629-4.627-4.209-5.58C26.105,31.271,23.216,31.564,20.204,31.938z"/>
	<path d="M70.982,65.08c-6.75,0.002-11.745-4.541-12.46-11.284c-0.427-4.026,0.136-7.826,2.578-11.161
		c3.014-4.113,8.471-5.834,13.865-4.459c4.668,1.188,8.056,5.12,8.81,10.15c0.386,2.568,0.32,5.104-0.385,7.602
		C81.777,61.641,77.096,65.078,70.982,65.08z M79.087,51.432c-0.041-2.453-0.527-4.853-1.979-6.975
		c-2.581-3.774-7.842-4.239-11.044-0.987C62.328,47.265,62.294,55.344,66,59.24c3.007,3.162,7.71,3.039,10.561-0.293
		C78.39,56.807,79.024,54.249,79.087,51.432z"/>
	<path d="M43.151,64.471c0-8.688,0-17.333,0-26.046c1.236,0,2.536,0,4.02,0c0,1.556,0,3.094,0,4.631
		c0.096,0.061,0.19,0.121,0.288,0.182c1.734-3.706,4.313-5.962,8.659-5.409c0,1.582,0,3.011,0,4.505
		c-0.889,0-1.765-0.118-2.599,0.021c-3.305,0.548-5.506,3.629-5.548,7.786c-0.043,4.313-0.01,8.629-0.01,12.942
		c0,0.435,0,0.868,0,1.39C46.382,64.471,44.885,64.471,43.151,64.471z"/>
	<path fill="#D2DD8E" d="M20.204,31.938c3.012-0.375,5.9-0.667,8.731,0.378c2.58,0.953,4.005,2.843,4.209,5.58
		c0.234,3.142-0.646,5.814-3.604,7.381c-2.738,1.452-5.692,1.402-8.657,0.947c-0.254-0.039-0.65-0.422-0.652-0.648
		C20.194,41.067,20.204,36.557,20.204,31.938z"/>
	<path fill="#D2DD8E" d="M79.087,51.432c-0.063,2.817-0.697,5.375-2.527,7.516c-2.85,3.332-7.554,3.455-10.561,0.293
		c-3.705-3.896-3.671-11.975,0.064-15.77c3.202-3.252,8.464-2.788,11.044,0.987C78.56,46.579,79.046,48.979,79.087,51.432z"/>
</g>
</svg>
