<?xml version="1.0" encoding="UTF-8"?> <svg xmlns="http://www.w3.org/2000/svg" width="39" height="39" viewBox="0 0 39 39" fill="none"> <path d="M19.1989 0C8.80222 0 0.373901 8.5904 0.373901 19.187C0.373901 29.7835 8.80222 38.3739 19.1989 38.3739C29.5955 38.3739 38.0238 29.7835 38.0238 19.187C38.0238 8.5904 29.5955 0 19.1989 0ZM29.7883 8.91763L25.5733 29.0929C25.4943 29.489 25.0515 29.6831 24.7152 29.4684L18.2334 25.0868L14.824 28.3205C14.5205 28.5851 14.0505 28.4563 13.9185 28.0719L11.6986 20.9359L5.73752 18.4442C5.28018 18.2317 5.28667 17.4894 5.75546 17.3038L29.0255 8.2624C29.4447 8.09664 29.8776 8.46861 29.7883 8.91763Z" fill="#F08A5D"></path> <path d="M14.6346 25.9556L15.0133 22.2873L25.526 11.8136L12.835 20.3083L14.6346 25.9556Z" fill="#F08A5D"></path> </svg> 