<?xml version="1.0" encoding="UTF-8"?> <svg xmlns="http://www.w3.org/2000/svg" width="39" height="39" viewBox="0 0 39 39" fill="none"> <path d="M19.2108 0C8.6142 0 0.0238037 8.5904 0.0238037 19.187C0.0238037 29.7835 8.6142 38.3739 19.2108 38.3739C29.8073 38.3739 38.3977 29.7835 38.3977 19.187C38.3977 8.5904 29.8073 0 19.2108 0ZM18.5618 9.99775C18.7034 9.99503 18.8516 10.0168 18.9789 10.0164C19.0306 10.016 19.0785 10.0121 19.1201 10.0016C23.7021 10.1682 27.7004 14.3334 27.6171 18.9154C27.6171 19.3317 27.7837 19.9982 27.1171 19.9982C26.4506 19.9982 26.6172 19.3317 26.6172 18.8321C26.5444 18.2282 26.4452 17.6644 26.3187 17.1392C26.1923 16.6139 26.0378 16.1267 25.8545 15.6758C25.5791 14.9992 25.2382 14.4038 24.8254 13.8828C23.5877 12.3195 21.7076 11.4234 19.0365 11.0016C18.6201 10.9183 18.0369 11.0016 18.0369 10.5016C18.0369 10.069 18.2863 9.99736 18.5618 9.99775ZM24.8678 19.0819C24.118 19.1652 24.2845 18.4987 24.2013 18.0823C23.7013 15.1665 22.7017 14.0836 19.703 13.4171C19.2863 13.3338 18.6201 13.4171 18.7034 12.7506C18.7867 12.0841 19.4532 12.3343 19.8695 12.4175C22.8686 12.7506 25.2845 15.2497 25.2845 18.0823C25.2009 18.4154 25.451 18.9986 24.8678 19.0819ZM23.0352 17.5823C23.0352 17.9154 23.0352 18.3321 22.5352 18.4154C22.2021 18.4154 22.0352 18.1656 21.9519 17.8321C21.8687 16.5828 21.2021 15.9162 19.9528 15.7493C19.6197 15.6661 19.203 15.5828 19.3695 15.0828C19.4528 14.7497 19.7858 14.7497 20.1193 14.7497C21.5356 14.6669 23.0352 16.1664 23.0352 17.5823ZM27.7 26.7463C27.2 28.1626 25.4507 29.5785 23.9511 29.5785C23.7846 29.4952 23.3678 29.4952 22.9515 29.3287C16.4537 26.4965 11.6219 21.9145 8.95622 15.2501C8.0399 13.084 9.03948 11.1681 11.2888 10.4184C11.7052 10.2518 12.1219 10.2518 12.5382 10.4184C13.5378 10.7514 15.9537 14.1673 16.0369 15.1669C16.1202 15.9999 15.537 16.4162 15.0374 16.7497C14.0378 17.4162 14.0378 18.3325 14.4541 19.2488C15.4537 21.4149 17.1198 22.8308 19.2026 23.8308C19.9524 24.1639 20.7022 24.1639 21.2018 23.3308C22.1181 21.9145 23.2842 21.9145 24.534 22.8308C25.1172 23.2472 25.7833 23.6639 26.3666 24.1639C27.2004 24.83 28.2 25.4132 27.7 26.7463Z" fill="#F08A5D"></path> </svg> 