<?xml version="1.0" encoding="UTF-8"?> <svg xmlns="http://www.w3.org/2000/svg" width="39" height="39" viewBox="0 0 39 39" fill="none"> <path d="M19.9683 8.12505C14.6221 8.12505 10.2744 12.4724 10.2725 17.8162C10.2717 19.6477 10.7841 21.4309 11.7541 22.974L11.9845 23.3405L11.0055 26.9171L14.6735 25.9549L15.0276 26.165C16.5155 27.0482 18.2212 27.5151 19.9605 27.5159H19.9644C25.3062 27.5159 29.654 23.1682 29.6563 17.824C29.6575 15.2342 28.6501 12.7992 26.8202 10.9674C24.9903 9.13513 22.5569 8.12582 19.9683 8.12505ZM25.6693 21.983C25.4265 22.6635 24.2623 23.2849 23.7028 23.3682C23.2009 23.4433 22.5655 23.4744 21.8678 23.2526C21.4449 23.1184 20.9021 22.939 20.2068 22.639C17.2835 21.3772 15.3746 18.4341 15.2291 18.2399C15.0836 18.0454 14.0393 16.6602 14.0393 15.226C14.0393 13.7918 14.7918 13.0872 15.0591 12.7953C15.326 12.5035 15.6419 12.4308 15.8361 12.4308C16.0303 12.4308 16.2248 12.4327 16.3944 12.4409C16.5734 12.4498 16.8135 12.3732 17.0501 12.9409C17.2929 13.5245 17.8757 14.9583 17.9485 15.1042C18.0212 15.2501 18.0699 15.4202 17.9726 15.6147C17.8753 15.8089 17.8271 15.9306 17.6812 16.1007C17.5353 16.2707 17.3753 16.4804 17.2442 16.6112C17.0983 16.7563 16.9466 16.9143 17.1166 17.2057C17.2866 17.4975 17.8714 18.4516 18.7376 19.2239C19.8504 20.2165 20.7893 20.5243 21.0807 20.6702C21.3721 20.8161 21.5421 20.7916 21.7118 20.5974C21.8818 20.4029 22.4402 19.7465 22.6343 19.4551C22.8285 19.1636 23.0226 19.2119 23.29 19.3091C23.5569 19.4064 24.9895 20.1111 25.2809 20.257C25.5724 20.4029 25.7665 20.4756 25.8393 20.5974C25.9121 20.7188 25.9121 21.3025 25.6693 21.983Z" fill="#F08A5D"></path> <path d="M19.187 0C8.5904 0 0 8.5904 0 19.187C0 29.7835 8.5904 38.3739 19.187 38.3739C29.7835 38.3739 38.3739 29.7835 38.3739 19.187C38.3739 8.5904 29.7835 0 19.187 0ZM19.9644 29.4851C19.9648 29.4851 19.964 29.4851 19.9644 29.4851H19.9597C18.008 29.4843 16.0906 28.9948 14.3875 28.0657L8.20598 29.6874L9.8604 23.6448C8.83981 21.8764 8.30286 19.8702 8.30403 17.8154C8.30597 11.386 13.5373 6.15546 19.9644 6.15546C23.0837 6.15662 26.0117 7.37098 28.2132 9.5752C30.4146 11.779 31.6267 14.7089 31.6251 17.8248C31.6224 24.2541 26.391 29.4851 19.9644 29.4851Z" fill="#F08A5D"></path> </svg> 