<svg width="108" height="110" viewBox="0 0 108 110" fill="none" xmlns="http://www.w3.org/2000/svg">
<path d="M79.2006 87.3808C79.1634 87.4305 79.1545 87.4944 79.1119 87.5405L66.5577 101.193C66.5417 101.211 66.5258 101.227 66.508 101.244C65.8108 101.942 64.9272 102.304 64.0153 102.304C63.4901 102.304 62.9543 102.185 62.4398 101.94C61.0897 101.298 60.2576 99.8658 60.3693 98.3737L62.7432 79.7908C62.7503 79.7287 62.7929 79.6808 62.8071 79.6205C62.8319 79.5123 62.8355 79.4005 62.8834 79.2958L81.4432 38.7395V2.2C81.4432 0.986452 80.4567 0 79.245 0H2.9724C1.76062 0 0.77417 0.986452 0.77417 2.2V107.8C0.77417 109.012 1.76062 110 2.9724 110H79.2467C80.4585 110 81.445 109.012 81.445 107.8V82.6455L79.41 87.0934C79.3585 87.2034 79.2716 87.285 79.2006 87.3808ZM51.2961 98.1519H9.73917C8.7953 98.1519 8.03062 97.3855 8.03062 96.4416C8.03062 95.496 8.7953 94.7313 9.73917 94.7313H51.2961C52.24 94.7313 53.0047 95.4977 53.0047 96.4416C53.0064 97.3855 52.24 98.1519 51.2961 98.1519ZM51.2961 81.5756H9.73917C8.7953 81.5756 8.03062 80.8092 8.03062 79.8653C8.03062 78.9197 8.7953 78.155 9.73917 78.155H51.2961C52.24 78.155 53.0047 78.9214 53.0047 79.8653C53.0064 80.8092 52.24 81.5756 51.2961 81.5756ZM51.2961 64.9994H9.73917C8.7953 64.9994 8.03062 64.2329 8.03062 63.289C8.03062 62.3452 8.7953 61.5787 9.73917 61.5787H51.2961C52.24 61.5787 53.0047 62.3452 53.0047 63.289C53.0047 64.2329 52.24 64.9994 51.2961 64.9994ZM51.2961 48.4231H9.73917C8.7953 48.4231 8.03062 47.6566 8.03062 46.7127C8.03062 45.7671 8.7953 45.0024 9.73917 45.0024H51.2961C52.24 45.0024 53.0047 45.7689 53.0047 46.7127C53.0064 47.6566 52.24 48.4231 51.2961 48.4231ZM51.2961 31.8468H9.73917C8.7953 31.8468 8.03062 31.0803 8.03062 30.1365C8.03062 29.1908 8.7953 28.4261 9.73917 28.4261H51.2961C52.24 28.4261 53.0047 29.1926 53.0047 30.1365C53.0064 31.0803 52.24 31.8468 51.2961 31.8468ZM51.2961 15.2705H9.73917C8.7953 15.2705 8.03062 14.504 8.03062 13.5602C8.03062 12.6145 8.7953 11.8498 9.73917 11.8498H51.2961C52.24 11.8498 53.0047 12.6163 53.0047 13.5602C53.0064 14.504 52.24 15.2705 51.2961 15.2705Z" fill="#1B4A8A"/>
<path d="M106.985 17.0145C106.598 15.9304 105.792 15.0504 104.721 14.5412L101.323 12.9267C100.284 12.43 99.1038 12.375 97.9984 12.7759C96.8772 13.1858 95.9847 14.0143 95.4844 15.109L92.6936 21.2033L103.905 26.5295L106.704 20.405C107.286 19.3067 107.384 18.134 106.985 17.0145Z" fill="#1B4A8A"/>
<path d="M63.3926 99.0302C63.4706 99.126 63.5452 99.197 63.6197 99.2467L64.7356 98.8457L75.835 86.7741L65.4365 81.8347L63.2844 98.6576L63.2595 98.867L63.3926 99.0302Z" fill="#1B4A8A"/>
<path d="M77.2312 54.9914L81.067 56.8135C81.3633 56.9536 81.5851 57.2002 81.6951 57.5072C81.8033 57.8141 81.7873 58.1459 81.6472 58.4404C81.3668 59.0277 80.6093 59.3009 80.022 59.0206L76.2146 57.2127L74.5362 60.8817L78.372 62.7038C78.9806 62.993 79.2414 63.7222 78.9539 64.3307C78.6701 64.9251 77.9214 65.1983 77.327 64.9109L73.5196 63.103L71.8412 66.7702L75.6752 68.5923C75.9715 68.7325 76.1915 68.9809 76.3033 69.2878C76.4115 69.5948 76.3955 69.9265 76.2554 70.2228C75.9751 70.8083 75.2175 71.0833 74.6302 70.8012L70.8228 68.9933L66.052 79.4202L77.2631 84.7464L102.886 28.7528L91.6767 23.4285L77.2312 54.9914Z" fill="#1B4A8A"/>
</svg>
