<?xml version="1.0" encoding="utf-8"?>
<!-- Generator: Adobe Illustrator 22.1.0, SVG Export Plug-In . SVG Version: 6.00 Build 0)  -->
<svg version="1.1" id="Layer_1" xmlns="http://www.w3.org/2000/svg" xmlns:xlink="http://www.w3.org/1999/xlink" x="0px" y="0px"
	 width="83px" height="60px" viewBox="0 0 83 60" enable-background="new 0 0 83 60" xml:space="preserve">
<g>
	<path fill="#BFC8D8" d="M66,11.6c0-2-1.6-3.6-3.5-3.6h-59C1.6,8,0,9.6,0,11.6v36.9c0,2,1.6,3.6,3.5,3.6h59c1.9,0,3.5-1.6,3.5-3.6
		V11.6z"/>
	<path fill="#9FA8B9" d="M62.5,10.4c0.6,0,1.1,0.5,1.1,1.1v36.9c0,0.6-0.5,1.1-1.1,1.1h-59c-0.6,0-1.1-0.5-1.1-1.1V11.5
		c0-0.6,0.5-1.1,1.1-1.1H62.5z M62.5,8h-59C1.6,8,0,9.6,0,11.5v36.9c0,1.9,1.6,3.5,3.5,3.5h59c1.9,0,3.5-1.6,3.5-3.5V11.5
		C66,9.6,64.4,8,62.5,8z"/>
	<path fill="#9FA8B9" d="M1.1,28.8h64v2.4h-64C1.1,31.2,1.1,28.8,1.1,28.8z"/>
	<path fill="#9FA8B9" d="M5.4,8.9h1.2v42.2H5.4V8.9z M10.3,8.9h1.2v42.2h-1.2V8.9z M15.3,8.9h1.2v42.2h-1.2V8.9z M20.2,8.9h1.2v42.2
		h-1.2V8.9z M25.1,8.9h1.2v42.2h-1.2V8.9z M30,8.9h1.2v42.2H30V8.9z M35,8.9h1.2v42.2H35V8.9z M39.9,8.9h1.2v42.2h-1.2V8.9z
		 M44.8,8.9H46v42.2h-1.2V8.9z M49.7,8.9h1.2v42.2h-1.2V8.9z M54.6,8.9h1.2v42.2h-1.2C54.6,51.1,54.6,8.9,54.6,8.9z M59.6,8.9h1.2
		v42.2h-1.2V8.9z"/>
</g>
</svg>
