<svg xmlns="http://www.w3.org/2000/svg" xmlns:xlink="http://www.w3.org/1999/xlink" width="83" height="60"><defs><path id="a" d="M80.6 36.1h-1.2c-1 0-1.9-1.1-1.9-2.3 0-1.3-.8-2.5-1.9-2.7L43.2 25c-1-.2-1.9.7-1.9 2 0-1.3-.8-2.2-1.9-2L7.3 31.1c-1 .2-1.9 1.4-1.9 2.7 0 1.3-.8 2.3-1.9 2.3H2.4c-1 0-1.9 1.1-1.9 2.3v2.4c0 1.3.8 2.3 1.9 2.3h14.4c1 0 2.6.4 3.4.9.8.5 2.3.6 3.3.3 0 0 8.6-2.9 18-2.9s18 2.9 18 2.9c1 .3 2.5.2 3.3-.3.8-.5 2.4-.9 3.4-.9h14.4c1 0 1.9-1.1 1.9-2.3v-2.4c0-1.3-.8-2.3-1.9-2.3z"/></defs><clipPath id="b"><use xlink:href="#a" overflow="visible"/></clipPath><g clip-path="url(#b)"><defs><path id="c" d="M.5 15.5h83.2v29.4H.5z"/></defs><clipPath id="d"><use xlink:href="#c" overflow="visible"/></clipPath><path clip-path="url(#d)" fill="#9FA8B9" d="M-5.4 19h93.7v31.4H-5.4z"/></g><defs><path id="e" d="M41.4 15.5h-.1-.1c-15 0-28.2 4.6-35.9 11.5v7.4L22 43.6c5.4-2.2 12-3.5 19.1-3.5h.2c7.1 0 13.6 1.3 19.1 3.5l16.8-9.2V27c-7.6-6.9-20.8-11.5-35.8-11.5z"/></defs><clipPath id="f"><use xlink:href="#e" overflow="visible"/></clipPath><g clip-path="url(#f)"><defs><path id="g" d="M.5 15.5h83.2v29.4H.5z"/></defs><clipPath id="h"><use xlink:href="#g" overflow="visible"/></clipPath><path clip-path="url(#h)" fill="#BFC8D8" d="M-.7 9.6h83.9v39.9H-.7z"/></g><g><defs><path id="i" d="M52 16.3c.5.1 1.1.2 1.6.3v25.7c-.5-.1-1.1-.2-1.6-.3V16.3z"/></defs><clipPath id="j"><use xlink:href="#i" overflow="visible"/></clipPath><g clip-path="url(#j)"><defs><path id="k" d="M.5 16.3h83.2v30.4H.5z"/></defs><clipPath id="l"><use xlink:href="#k" overflow="visible"/></clipPath><path clip-path="url(#l)" fill="#9FA8B9" d="M46.2 10.2h13.3v38.1H46.2z"/></g></g><g><defs><path id="m" d="M30.2 16.3c-.5.1-1.1.2-1.6.3v25.7c.5-.1 1.1-.2 1.6-.3V16.3z"/></defs><clipPath id="n"><use xlink:href="#m" overflow="visible"/></clipPath><g clip-path="url(#n)"><defs><path id="o" d="M.5 16.3h83.2v30.4H.5z"/></defs><clipPath id="p"><use xlink:href="#o" overflow="visible"/></clipPath><path clip-path="url(#p)" fill="#9FA8B9" d="M22.8 10.2h13.3v38.1H22.8z"/></g></g></svg>