<?xml version="1.0" encoding="utf-8"?>
<!-- Generator: Adobe Illustrator 22.1.0, SVG Export Plug-In . SVG Version: 6.00 Build 0)  -->
<svg version="1.1" id="Layer_1" xmlns="http://www.w3.org/2000/svg" xmlns:xlink="http://www.w3.org/1999/xlink" x="0px" y="0px"
	 width="83px" height="60px" viewBox="0 0 83 60" enable-background="new 0 0 83 60" xml:space="preserve">
<g>
	<path fill="#BFC8D8" d="M27.5,6.4c0-1.3-1-2.4-2.3-2.4H17c-1.3,0-2.3,1.1-2.3,2.4v4.4c0,1.3,1,2.4,2.3,2.4h8.2
		c1.3,0,2.3-1.1,2.3-2.4V6.4z"/>
	<path fill="#9FA8B9" d="M18.3,41.9c0-0.3-0.1-0.7-0.1-1v-0.7c0.7-7.7,7.9-20,9.1-22.1v-2.5c0-1.9-1.5-3.4-3.4-3.4h-5.8
		c-1.9,0-4.5,1-5.9,2.2l-9.7,8.5C1.1,24.1,0,26.6,0,28.5v24.1C0,54.5,1.5,56,3.4,56h20.4c2,0,3.6-1.5,3.6-3.4v-0.4
		C22.6,50.9,18.8,46.9,18.3,41.9z"/>
	<path fill="#BFC8D8" d="M39.1,40.6v-0.8c-0.6-6.9-8.2-19.6-8.2-19.6s-7.6,12.7-8.2,19.6v1.5c0.3,4.2,3.9,7.5,8.2,7.5
		s7.9-3.3,8.2-7.5V40.6z"/>
</g>
</svg>
