<?xml version="1.0" encoding="utf-8"?>
<!-- Generator: Adobe Illustrator 22.1.0, SVG Export Plug-In . SVG Version: 6.00 Build 0)  -->
<svg version="1.1" id="Layer_1" xmlns="http://www.w3.org/2000/svg" xmlns:xlink="http://www.w3.org/1999/xlink" x="0px" y="0px"
	 width="83px" height="60px" viewBox="0 0 83 60" enable-background="new 0 0 83 60" xml:space="preserve">
<g>
	<path fill="#9FA8B9" d="M14.7,2.6c0-0.6-0.5-1.1-1-1.1H9.5c-0.6,0-1,0.5-1,1.1v8.7c0,0.6,0.5,1.1,1,1.1h4.2c0.6,0,1-0.5,1-1.1V2.6z
		"/>
	<path fill="#BFC8D8" d="M13.1,31.4c-0.6-1.2-0.5-2.5,0.2-3.6l4.5-6.7v-9.9c0-1.8-1.5-3.2-3.3-3.2H8.6c-1.8,0-3.3,1.5-3.3,3.2v18.3
		c0,1.8,1.5,3.2,3.3,3.2h5.8C13.9,32.4,13.4,31.9,13.1,31.4z"/>
	<path fill="#9FA8B9" d="M7.4,58.5c-0.6,0-1.1-0.5-1.1-1.1s0.5-1.1,1.1-1.1c0.8,0,1.5-0.2,2-0.7c1-1,1.1-2.9,1.1-3.5
		s0.4-1.1,1.1-1.1c0.6,0,1.1,0.4,1.2,1c0,0.1,0.2,3.2-1.7,5.1C10.1,58,8.9,58.5,7.4,58.5z"/>
	<path fill="#9FA8B9" d="M16.6,49.2C16,48.3,15.8,47,16.2,46l2.4-6.4c-0.2-0.2-0.5-0.4-0.8-0.4H5.3c-0.6,0-1.1,0.5-1.1,1v11.9
		c0,0.6,0.5,1.1,1.1,1.1h12.5c0.6,0,1.1-0.5,1.1-1.1v-1.4C18,50.5,17.2,50,16.6,49.2z"/>
	<path fill="#BDC8DB" d="M30.7,7.9L16,29.6c-0.1,0.2,0,0.4,0.2,0.4h9.2c0.2,0,0.3,0.2,0.3,0.4l-6.4,16.8c-0.1,0.3,0.3,0.5,0.5,0.3
		L37,24.7c0.1-0.2,0-0.4-0.2-0.4h-9.2c-0.2,0-0.3-0.2-0.3-0.3l3.9-15.7C31.2,7.9,30.8,7.7,30.7,7.9z"/>
	<path fill="#9FA8B9" d="M21,33.5c0-0.1-0.1-0.2-0.1-0.3h-4.7c-0.6,0-1.3-0.2-1.8-0.5H3.2c-0.6,0-1.1,0.5-1.1,1.1v6.4
		c0,0.6,0.5,1.1,1.1,1.1H18L21,33.5z"/>
	<path fill="#9FA8B9" d="M21.1,33.2h-4.9c-1.3,0-2.5-0.7-3.1-1.9c-0.6-1.2-0.5-2.5,0.2-3.6l0.3-0.4H1c-0.6,0-1,0.4-1,1v5.6
		c0,0.5,0.5,1,1,1h19.5L21.1,33.2z"/>
</g>
</svg>
