<?xml version="1.0" encoding="utf-8"?>
<!-- Generator: Adobe Illustrator 16.0.0, SVG Export Plug-In . SVG Version: 6.00 Build 0)  -->
<!DOCTYPE svg PUBLIC "-//W3C//DTD SVG 1.1//EN" "http://www.w3.org/Graphics/SVG/1.1/DTD/svg11.dtd">
<svg version="1.1" id="Слой_1" xmlns="http://www.w3.org/2000/svg" xmlns:xlink="http://www.w3.org/1999/xlink" x="0px" y="0px"
	 width="500px" height="500px" viewBox="0 0 500 500" enable-background="new 0 0 500 500" xml:space="preserve">
<g>
	<rect fill="#2284AB" width="500" height="500"/>
	<path fill="#FFFFFF" d="M81.478027,118.213379h337.869629c2.393555,0,3.989258,1.596191,3.989258,3.990234v297.144043
		c0,2.393555-1.595703,3.989258-3.989258,3.989258H81.478027c-2.394043,0-4.003418-1.595703-4.003418-3.989258V122.203613
		C77.474609,119.80957,79.083984,118.213379,81.478027,118.213379L81.478027,118.213379z M414.55957,126.20752H85.468262V414.55957
		H414.55957V126.20752z"/>
	<path fill="#FFFFFF" d="M85.468262,118.213379H414.55957V91.852051
		c-58.308594-11.969727-115.021484-18.367676-170.138672-18.367676c-55.116699,0-107.839844,6.397949-158.952637,18.367676
		V118.213379z M419.347656,126.20752H81.478027c-2.394043,0-4.003418-1.596191-4.003418-4.003906V88.660156
		c0-2.394043,0.797852-3.989746,3.205566-4.788086c52.708984-12.781738,107.027832-19.165527,163.740723-19.165527
		s115.021484,6.383789,174.926758,19.165527c2.393555,0,3.989258,2.394043,3.989258,4.788086v33.543457
		C423.336914,124.611328,420.943359,126.20752,419.347656,126.20752L419.347656,126.20752z"/>
	
		<rect x="103.038086" y="159.750488" fill-rule="evenodd" clip-rule="evenodd" fill="#FFFFFF" width="134.984863" height="21.560059"/>
	<path fill="#FFFFFF" d="M394.582031,423.336914H103.038086c-2.394043,0-4.788086-1.595703-4.788086-3.989258
		c0.797852-3.990234,0-8.007813,0-11.200195c0-51.896484,38.331055-85.467773,87.862305-100.629883
		c18.367676-5.585938,39.927246-8.77832,60.702637-8.77832c20.774902,0,41.522949,2.394531,60.702637,7.980469
		c51.126953,14.364258,91.054688,47.907227,91.054688,101.427734v11.200195
		C398.572266,421.741211,396.975586,423.336914,394.582031,423.336914L394.582031,423.336914z M107.027832,414.55957h283.563965
		v-6.412109c-0.797852-48.705078-38.358398-79.854492-85.467773-92.649414
		c-18.381836-5.585938-38.332031-7.980469-58.309082-7.980469c-19.977539,0-39.940918,3.192383-58.309082,8.77832
		c-46.324707,13.592773-81.478027,43.944336-81.478027,91.851563V414.55957z"/>
	<path fill="#FFFFFF" d="M147.76709,334.676758c-2.394043,0-4.788086-1.595703-4.788086-3.989258
		c-0.797852-2.394531,0.797852-3.990234,3.191895-4.788086c0,0,22.371582-2.421875,42.334961,8.777344
		c5.586426,3.192383,10.388184,3.990234,12.781738,3.990234l0,0c-9.589355-4.788086-23.967285-19.179688-23.967285-19.179688
		c-1.595703-1.595703-1.595703-3.989258,0-5.585938c1.596191-1.595703,4.788086-1.595703,6.397949,0
		c0,0,12.767578,12.795898,20.761719,16.786133c3.989746,1.595703,6.383789,4.787109,6.383789,7.181641
		c0,2.393555,0,3.990234-1.596191,5.585938c-0.797852,1.595703-2.393555,2.393555-3.989746,3.192383
		c-4.788086,1.595703-11.983887,0.797852-21.55957-4.788086C166.134766,332.283203,147.76709,334.676758,147.76709,334.676758
		L147.76709,334.676758z"/>
	<path fill="#FFFFFF" d="M217.261719,310.709961c-2.394043,0-3.990234-2.394531-3.192383-4.788086
		c0-2.394531,2.394043-3.990234,4.788086-3.192383c0,0,21.55957,2.394531,38.331055,18.354492
		c4.788086,5.613281,8.805664,7.208984,11.200195,7.208984l0,0c-8.805664-7.208984-15.189453-19.179688-15.189453-19.179688
		c-1.59668-1.595703-0.798828-3.989258,0.797852-5.585938c1.595703-1.595703,4.788086-1.595703,6.383789,0.798828
		c0,0,7.208984,11.969727,13.59375,17.555664c3.191406,2.393555,3.989258,5.613281,3.989258,8.805664l0,0
		c0,1.595703-0.797852,3.989258-2.393555,4.787109c-1.595703,0.798828-3.192383,1.59668-4.788086,1.59668h-0.797852
		c-3.990234,0.797852-11.199219-1.59668-19.179688-9.576172C236.427246,313.901367,218.05957,310.709961,217.261719,310.709961
		L217.261719,310.709961z"/>
	<path fill="#FFFFFF" d="M297.941406,313.103516c-2.393555-1.595703-2.393555-3.990234-1.595703-6.383789
		c1.595703-1.595703,4.788086-2.393555,6.383789-0.797852c0,0,19.950195,12.767578,31.149414,31.947266
		c3.990234,6.383789,7.182617,9.576172,9.576172,10.374023h-0.797852c-5.585938-8.77832-9.576172-23.141602-9.576172-23.141602
		c-0.797852-2.421875,0.797852-4.816406,3.192383-5.614258c2.393555,0,4.788086,1.59668,5.585938,3.990234
		c0,0,3.191406,11.99707,7.979492,19.179688c2.394531,3.990234,3.192383,7.181641,1.595703,9.576172v0.797852
		c-0.797852,1.595703-1.595703,2.420898-3.989258,3.219727c-0.797852,0.797852-3.192383,0.797852-4.788086,0.797852l0,0
		c-4.788086-0.797852-10.374023-4.81543-15.959961-14.391602C315.498047,325.101563,297.941406,313.103516,297.941406,313.103516
		L297.941406,313.103516z"/>
</g>
</svg>
