<?xml version="1.0" encoding="utf-8"?>
<!-- Generator: Adobe Illustrator 16.0.0, SVG Export Plug-In . SVG Version: 6.00 Build 0)  -->
<!DOCTYPE svg PUBLIC "-//W3C//DTD SVG 1.1//EN" "http://www.w3.org/Graphics/SVG/1.1/DTD/svg11.dtd">
<svg version="1.1" id="Слой_1" xmlns="http://www.w3.org/2000/svg" xmlns:xlink="http://www.w3.org/1999/xlink" x="0px" y="0px"
	 width="500px" height="500px" viewBox="0 0 500 500" enable-background="new 0 0 500 500" xml:space="preserve">
<g>
	<rect fill="#2284AB" width="500" height="500"/>
	<path fill="#FFFFFF" d="M193.293945,89.458008h109.435547c2.394531,0,3.990234,1.596191,3.990234,4.003906v261.165039
		c0,2.421875-1.595703,4.017578-3.990234,4.017578H193.293945c-2.394043,0-3.989746-1.595703-3.989746-4.017578V93.461914
		C189.304199,91.054199,190.899902,89.458008,193.293945,89.458008L193.293945,89.458008z M297.941406,97.452148h-99.845703
		v252.386719h99.845703V97.452148z"/>
	<path fill="#FFFFFF" d="M75.080566,392.986328h345.862793V380.19043H75.080566V392.986328z M425.731445,401.763672H70.29248
		c-2.394043,0-3.989746-1.595703-3.989746-3.990234v-21.573242c0-2.393555,1.595703-4.788086,3.989746-4.788086h355.438965
		c2.393555,0,3.990234,2.394531,3.990234,4.788086v21.573242C429.72168,400.167969,428.125,401.763672,425.731445,401.763672
		L425.731445,401.763672z"/>
	<path fill="#FFFFFF" d="M193.293945,317.891602h109.435547c0.797852,0,0.797852,0,1.59668,0l123.000977,54.319336
		c1.595703,0.797852,3.192383,3.191406,2.394531,5.585938c-0.798828,1.595703-2.394531,2.393555-3.990234,2.393555H70.29248
		c-2.394043,0-3.989746-1.595703-3.989746-3.990234c0-2.393555,0.797852-3.989258,3.191895-4.788086l122.203613-53.520508
		C192.496094,317.891602,193.293945,317.891602,193.293945,317.891602L193.293945,317.891602z M301.133789,325.899414H194.092285
		L91.054199,371.412109h313.901855L301.133789,325.899414z"/>
</g>
</svg>
