<?xml version="1.0" encoding="utf-8"?>
<!-- Generator: Adobe Illustrator 16.0.0, SVG Export Plug-In . SVG Version: 6.00 Build 0)  -->
<!DOCTYPE svg PUBLIC "-//W3C//DTD SVG 1.1//EN" "http://www.w3.org/Graphics/SVG/1.1/DTD/svg11.dtd">
<svg version="1.1" id="Слой_1" xmlns="http://www.w3.org/2000/svg" xmlns:xlink="http://www.w3.org/1999/xlink" x="0px" y="0px"
	 width="500px" height="500px" viewBox="0 0 500 500" enable-background="new 0 0 500 500" xml:space="preserve">
<g>
	<rect fill="#2284AB" width="500" height="500"/>
	<path fill="#FFFFFF" d="M119.011719,144.575195h50.328613l0,0h0.797852V81.478027c0-2.407715,0-4.003418-1.595703-4.801758l0,0
		c-1.609863-1.595703-3.205566-2.393555-4.801758-2.393555h-39.129395c-1.596191,0-3.205566,0.797852-4.801758,2.393555
		c-0.797852,0.79834-1.596191,2.394043-1.596191,4.801758v63.097168l0,0H119.011719z M204.47998,423.336914h-0.79834
		c-0.797852,0.797852-2.394043,3.192383,13.580078,9.576172c14.377441,7.181641,23.155273,5.585938,39.926758,2.394531
		c11.200195-2.394531,25.563477-4.788086,47.137695-6.384766l20.775391-0.797852l-8.805664-2.393555
		c-8.77832-1.59668-17.556641-3.990234-26.361328-5.585938c-18.354492-4.788086-37.53418-8.805664-55.103516-11.998047
		l-0.797852,0.797852L204.47998,423.336914L204.47998,423.336914L204.47998,423.336914z M201.287598,416.953125l22.35791-10.401367
		c-13.57959-2.393555-25.549805-3.192383-33.543457-0.797852l0,0c-0.797852,0-1.596191,0-1.596191,0
		c-2.393555,0.797852-3.989746,1.595703-5.585938,2.393555c-6.397461,5.585938-10.387695,11.998047-12.781738,18.381836
		c-0.797852,3.192383-0.797852,6.383789,0,8.77832c0,2.393555,1.596191,3.989258,3.990234,5.585938
		c3.191895,1.595703,7.182129,2.393555,14.377441,1.595703c7.97998-0.797852,18.368164-0.797852,30.351563-0.797852
		l-4.788086-2.394531C182.919922,424.933594,200.489746,417.750977,201.287598,416.953125L201.287598,416.953125
		L201.287598,416.953125L201.287598,416.953125L201.287598,416.953125L201.287598,416.953125z M393.78418,433.710938
		c7.979492-11.171875,34.34082-48.705078,40.724609-56.712891c2.394531-3.191406-7.181641-3.989258-11.171875-3.989258
		c-13.592773,19.977539-40.75293,46.338867-43.146484,47.93457l0,0l0,0l0,0c0,0.797852-3.192383,3.990234-12.767578,6.383789
		l2.393555,0.797852C381.786133,428.922852,389.793945,430.519531,393.78418,433.710938L393.78418,433.710938z
		 M419.347656,369.816406L419.347656,369.816406c0-1.595703,0.797852-3.192383,2.393555-3.990234
		c3.192383-4.788086,3.990234-7.979492,0-7.181641c-13.59375,1.595703-25.563477,1.595703-36.735352,0
		c-11.99707-1.595703-23.967773-5.613281-37.560547-11.199219c-12.768555-4.788086-25.563477-5.585938-38.332031-2.394531
		c-12.767578,3.192383-26.361328,9.576172-40.724609,17.583984c-15.988281,9.576172-37.547363,21.545898-54.319336,30.351563l0,0
		c0,1.595703-0.797852,3.191406-2.407715,3.989258l-4.787598,0.797852c23.168945,1.59668,55.102539,8.77832,84.65625,15.959961
		l26.361328,5.614258c43.146484,9.575195,55.915039-1.59668,57.510742-2.394531l0,0l0,0l0,0l0,0l0,0l0,0l0,0v-0.797852l0,0l0,0l0,0
		l0,0l0,0C378.594727,413.733398,406.551758,386.601563,419.347656,369.816406L419.347656,369.816406z M427.327148,366.624023
		c7.980469,0.798828,20.775391,3.990234,11.969727,15.162109c-7.181641,8.805664-35.9375,50.329102-41.523438,58.308594
		c0.798828,5.614258-5.585938,8.805664-18.380859,10.402344c-11.171875,0.797852-28.755859,0-51.099609,0l-31.149414-0.798828
		c-39.955078-1.595703-83.87207-2.393555-108.637695,0c-7.993652,0-13.57959-0.797852-17.569336-3.191406
		c-4.003906-2.394531-6.397949-5.613281-7.993652-9.603516c0-2.394531,0-5.585938,0-8.77832H98.25
		c-6.397949,0-11.983887-2.393555-16.771973-7.181641c-4.003418-3.990234-7.195313-10.401367-7.195313-16.785156V189.304199
		c0-11.983887,5.599609-23.169434,13.57959-31.149414c6.397461-6.397949,14.377441-11.186035,23.169434-12.781738v-63.89502
		c0-4.003418,1.595703-7.195313,3.989746-9.589355c2.394043-3.192383,6.384277-3.990234,9.589844-3.990234h39.129395
		c3.989746,0,7.195801,0.797852,9.589844,3.990234l0,0c2.394043,2.394043,3.989746,5.585938,3.989746,9.589355v63.89502
		c3.191895,0.797852,7.195801,1.595703,10.387695,3.191895c3.990234,1.596191,7.182129,3.990234,10.387695,7.195801
		l13.565918-43.931152c0.812012-1.596191,2.407715-2.394043,4.003906-2.394043
		c1.596191,0.797852,2.394043,1.596191,2.394043,2.394043l15.973633,51.113281l51.113281,15.973633
		c1.595703,0.797852,2.393555,2.394043,2.393555,4.003418c-0.797852,1.596191-1.595703,2.394043-2.393555,2.394043
		l-51.113281,15.973633l-15.973633,51.112793c-0.797852,1.59668-2.394043,2.394531-3.990234,2.394531v130.210938
		c15.973633-8.007813,35.9375-19.179688,51.126953-27.957031c14.364258-8.805664,28.727539-15.189453,42.321289-18.381836
		c14.364258-3.192383,28.755859-3.192383,42.321289,2.394531c13.59375,5.585938,24.765625,8.777344,35.964844,11.171875
		c11.171875,1.595703,21.545898,1.595703,35.139648-0.798828C432.913086,349.838867,432.913086,357.048828,427.327148,366.624023
		L427.327148,366.624023z M195.687988,394.582031l11.983887-5.585938V238.022949l-11.983887-36.735352l-51.112793-15.973633l0,0l0,0
		l0,0l0,0l0,0l0,0l0,0l0,0l0,0l0,0l0,0l0,0l0,0l0,0l0,0h-0.79834l0,0l0,0l0,0l0,0v-0.797852l0,0l0,0l0,0l0,0l0,0l0,0l0,0l0,0l0,0
		l0,0l0,0l0,0l0,0l0,0l0,0l0,0l0,0l0,0l0,0h-0.797852l0,0l0,0l0,0l0,0l0,0l0,0l0,0v-0.797852l0,0l0,0l0,0l0,0l0,0l0,0l0,0l0,0l0,0
		l0,0l0,0l0,0l0,0l0,0l0,0l0,0l0,0l0,0v-0.79834l0,0l0,0l0,0l0,0l0,0l0,0l0,0h-0.797852l0,0l0,0l0,0l0,0l0,0l0,0l0,0l0,0l0,0l0,0
		l0,0v-0.811523l0,0l0,0l0,0l0,0l0,0l0,0l0,0l0,0l0,0l0,0l0,0l0,0l0,0l0,0l0,0l0,0l0,0l0,0v-0.797852l0,0l0,0l0,0l0,0l0,0l0,0l0,0
		l0,0l0,0l0,0l0,0h0.797852l0,0l0,0l0,0l0,0l0,0l0,0v-0.79834l0,0l0,0l0,0l0,0l0,0l0,0l0,0l0,0l0,0l0,0l0,0l0,0l0,0l0,0l0,0l0,0l0,0
		l0,0v-0.797852l0,0l0,0l0,0l0,0l0,0l0,0l0,0l0,0h0.797852l0,0l0,0l0,0l0,0l0,0l0,0l0,0l0,0l0,0l0,0l0,0l0,0l0,0l0,0l0,0l0,0l0,0
		l0,0l0,0v-0.797852l0,0l0,0l0,0l0,0h0.79834l0,0l0,0l0,0l0,0l0,0l0,0l0,0l0,0l0,0l0,0l0,0l0,0l0,0l0,0l0,0l51.112793-15.973633
		h0.797852c-3.191895-3.990234-7.181641-6.384277-11.969727-7.97998c-4.003906-2.407715-9.589844-3.206055-14.37793-3.206055
		h-0.797852l0,0h-50.328613h-0.79834c-9.575684,0-19.165527,4.003906-25.562988,11.186035
		c-7.182129,6.397461-11.172363,15.973633-11.172363,26.361328v214.854004c0,4.787109,1.596191,8.777344,4.788086,11.99707
		c3.191895,3.192383,7.195801,5.585938,11.983887,5.585938h67.086914l0.797852-3.990234
		C169.340332,409.744141,171.734375,404.158203,195.687988,394.582031L195.687988,394.582031z M259.583008,441.691406
		l69.507813,1.595703c21.545898,0.825195,38.332031,0.825195,49.503906,0c8.805664-0.797852,12.794922-1.595703,12.794922-3.192383
		c-0.797852-2.393555-8.805664-4.787109-22.371094-5.585938c-14.364258-0.797852-36.735352-0.797852-64.692383,1.59668
		C284.348633,436.90332,269.984375,440.094727,259.583008,441.691406L259.583008,441.691406z M286.742188,75.878418
		l8.805664,29.553223l29.553711,8.791992c1.595703,0.797852,2.393555,2.394043,1.595703,3.989746
		c0,1.596191-0.797852,2.394043-1.595703,2.394043l-29.553711,8.791992l-8.805664,29.553223
		c-0.797852,1.596191-2.393555,2.394043-3.990234,2.394043c-1.595703-0.797852-2.393555-1.596191-2.393555-2.394043
		l-9.576172-29.553223l-28.769043-8.791992c-1.596191-0.797852-3.191895-2.394043-2.394043-3.989746
		c0.797852-1.596191,1.596191-2.394043,2.394043-2.394043l28.769043-8.791992l9.576172-29.553223
		c0-1.595703,2.393555-2.394043,3.990234-2.394043C285.146484,74.282715,285.944336,75.080566,286.742188,75.878418
		L286.742188,75.878418z M289.93457,108.624023l-6.384766-19.963867l-6.383789,19.963867
		c0,1.609375-1.595703,2.407715-2.393555,2.407715l-19.977539,6.383789l19.977539,6.397949
		c0.797852,0,1.595703,0.797852,2.393555,2.394043l6.383789,19.963379l6.384766-19.963379
		c0-1.596191,0.797852-2.394043,1.595703-2.394043l20.775391-6.397949l-20.775391-6.383789
		C290.732422,111.031738,289.93457,110.233398,289.93457,108.624023L289.93457,108.624023z M227.635254,166.932617
		l-12.767578-42.321289l-11.983887,38.331543l0,0l-0.797852,3.989746l0,0l0,0l0,0l0,0l0,0l0,0l0,0l0,0l0,0v0.797852l0,0h-0.79834
		l0,0l0,0l0,0l0,0l0,0l0,0l0,0l0,0l0,0l0,0l0,0l0,0l0,0l0,0l0,0v0.812012l0,0l0,0l0,0l0,0l0,0l0,0l0,0l0,0h-0.797852l0,0l0,0l0,0
		l0,0l0,0l0,0l0,0l0,0l0,0l0,0l0,0l0,0l0,0l0,0l0,0v0.797852h-0.797852l0,0l0,0l0,0l0,0l0,0l0,0l0,0l-42.334961,12.768066
		l42.334961,12.781738l0,0l0,0l0,0l0,0l0,0l0,0l0,0h0.797852v0.797852l0,0l0,0l0,0l0,0l0,0l0,0l0,0l0,0l0,0l0,0l0,0l0,0l0,0l0,0l0,0
		h0.797852l0,0l0,0l0,0l0,0l0,0l0,0l0,0l0,0v0.797852l0,0l0,0l0,0l0,0l0,0l0,0l0,0l0,0l0,0l0,0l0,0l0,0l0,0l0,0l0,0h0.79834l0,0
		v0.79834l0,0l0,0l0,0l0,0l0,0l0,0l0,0l0,0l0,0l12.781738,42.334961l12.767578-42.334961
		c0.812012-0.79834,1.609863-1.596191,2.407715-2.394043l42.334961-12.781738l-42.334961-12.768066
		C229.245117,168.54248,228.447266,167.730469,227.635254,166.932617L227.635254,166.932617z M91.852051,214.867676h99.846191
		c1.595703,0,3.191895,0.797852,3.191895,3.191895V294.75c0,2.393555-1.596191,3.989258-3.191895,3.989258H91.852051
		c-1.595703,0-3.191895-1.595703-3.191895-3.989258v-76.69043C88.660156,215.665527,90.256348,214.867676,91.852051,214.867676
		L91.852051,214.867676z M187.708008,221.251465H95.058105v70.278809h92.649902V221.251465z"/>
</g>
</svg>
