<?xml version="1.0" encoding="utf-8"?>
<!-- Generator: Adobe Illustrator 16.0.0, SVG Export Plug-In . SVG Version: 6.00 Build 0)  -->
<!DOCTYPE svg PUBLIC "-//W3C//DTD SVG 1.1//EN" "http://www.w3.org/Graphics/SVG/1.1/DTD/svg11.dtd">
<svg version="1.1" id="Слой_1" xmlns="http://www.w3.org/2000/svg" xmlns:xlink="http://www.w3.org/1999/xlink" x="0px" y="0px"
	 width="500px" height="500px" viewBox="0 0 500 500" enable-background="new 0 0 500 500" xml:space="preserve">
<g>
	<rect fill="#2284AB" width="500" height="500"/>
	<path fill="#FFFFFF" d="M67.898438,137.379395h365.014648c2.394531,0,3.990234,2.407715,3.990234,4.801758v216.463379
		c0,2.393555-1.595703,3.990234-3.990234,3.990234H67.898438c-2.394043,0-3.989746-1.59668-3.989746-3.990234V142.181152
		C63.908691,139.787109,65.504395,137.379395,67.898438,137.379395L67.898438,137.379395z M428.125,146.170898H71.888672v208.456055
		H428.125V146.170898z"/>
	<path fill="#FFFFFF" d="M87.063965,162.144531h249.209473c2.393555,0,3.989258,1.596191,3.989258,3.990234v168.541992
		c0,2.394531-1.595703,3.990234-3.989258,3.990234H87.063965c-2.393555,0-3.989746-1.595703-3.989746-3.990234V166.134766
		C83.074219,163.740723,84.67041,162.144531,87.063965,162.144531L87.063965,162.144531z M331.485352,170.138184H91.852051
		v159.750488h239.633301V170.138184z"/>
	<path fill="#FFFFFF" d="M351.43457,161.34668h61.500977c2.421875,0,4.81543,2.394043,4.81543,4.788086v55.116699
		c0,2.394043-2.393555,4.788086-4.81543,4.788086H351.43457c-2.393555,0-4.787109-2.394043-4.787109-4.788086v-55.116699
		C346.647461,163.740723,349.041016,161.34668,351.43457,161.34668L351.43457,161.34668z M408.945313,170.138184h-53.493164
		v47.123535h53.493164V170.138184z"/>
	<path fill="#FFFFFF" d="M351.43457,234.033203h19.179688c2.394531,0,3.990234,1.596191,3.990234,3.989746v11.186035
		c0,2.393555-1.595703,3.990234-3.990234,3.990234H351.43457c-2.393555,0-4.787109-1.59668-4.787109-3.990234v-11.186035
		C346.647461,235.629395,349.041016,234.033203,351.43457,234.033203L351.43457,234.033203z M365.826172,242.824707h-10.374023
		v2.394043h10.374023V242.824707z"/>
	<path fill="#FFFFFF" d="M396.177734,234.033203h19.179688c2.393555,0,3.990234,1.596191,3.990234,3.989746v11.186035
		c0,2.393555-1.59668,3.990234-3.990234,3.990234h-19.179688c-2.393555,0-4.788086-1.59668-4.788086-3.990234v-11.186035
		C391.389648,235.629395,393.78418,234.033203,396.177734,234.033203L396.177734,234.033203z M410.541992,242.824707h-10.374023
		v2.394043h10.374023V242.824707z"/>
	<path fill="#FFFFFF" d="M351.43457,261.976563h19.179688c2.394531,0,3.990234,2.394531,3.990234,4.81543v11.171875
		c0,2.394531-1.595703,3.990234-3.990234,3.990234H351.43457c-2.393555,0-4.787109-1.595703-4.787109-3.990234v-11.171875
		C346.647461,264.371094,349.041016,261.976563,351.43457,261.976563L351.43457,261.976563z M365.826172,270.782227h-10.374023
		v2.394531h10.374023V270.782227z"/>
	<path fill="#FFFFFF" d="M396.177734,261.976563h19.179688c2.393555,0,3.990234,2.394531,3.990234,4.81543v11.171875
		c0,2.394531-1.59668,3.990234-3.990234,3.990234h-19.179688c-2.393555,0-4.788086-1.595703-4.788086-3.990234v-11.171875
		C391.389648,264.371094,393.78418,261.976563,396.177734,261.976563L396.177734,261.976563z M410.541992,270.782227h-10.374023
		v2.394531h10.374023V270.782227z"/>
	<path fill="#FFFFFF" d="M351.43457,290.732422h19.179688c2.394531,0,3.990234,1.595703,3.990234,4.017578v11.171875
		c0,2.393555-1.595703,4.788086-3.990234,4.788086H351.43457c-2.393555,0-4.787109-2.394531-4.787109-4.788086V294.75
		C346.647461,292.328125,349.041016,290.732422,351.43457,290.732422L351.43457,290.732422z M365.826172,299.538086h-10.374023
		v2.393555h10.374023V299.538086z"/>
	<path fill="#FFFFFF" d="M396.177734,290.732422h19.179688c2.393555,0,3.990234,1.595703,3.990234,4.017578v11.171875
		c0,2.393555-1.59668,4.788086-3.990234,4.788086h-19.179688c-2.393555,0-4.788086-2.394531-4.788086-4.788086V294.75
		C391.389648,292.328125,393.78418,290.732422,396.177734,290.732422L396.177734,290.732422z M410.541992,299.538086h-10.374023
		v2.393555h10.374023V299.538086z"/>
	<path fill="#FFFFFF" d="M351.43457,318.689453h19.179688c2.394531,0,3.990234,2.394531,3.990234,4.788086v11.199219
		c0,2.394531-1.595703,3.990234-3.990234,3.990234H351.43457c-2.393555,0-4.787109-1.595703-4.787109-3.990234v-11.199219
		C346.647461,321.083984,349.041016,318.689453,351.43457,318.689453L351.43457,318.689453z M365.826172,327.495117h-10.374023
		v2.393555h10.374023V327.495117z"/>
	<path fill="#FFFFFF" d="M396.177734,318.689453h19.179688c2.393555,0,3.990234,2.394531,3.990234,4.788086v11.199219
		c0,2.394531-1.59668,3.990234-3.990234,3.990234h-19.179688c-2.393555,0-4.788086-1.595703-4.788086-3.990234v-11.199219
		C391.389648,321.083984,393.78418,318.689453,396.177734,318.689453L396.177734,318.689453z M410.541992,327.495117h-10.374023
		v2.393555h10.374023V327.495117z"/>
	<path fill="#FFFFFF" d="M116.617676,182.108398h190.102051c2.393555,0,3.990234,1.609863,3.990234,4.003906v128.586914
		c0,2.394531-1.59668,3.990234-3.990234,3.990234H116.617676c-2.394043,0-3.990234-1.595703-3.990234-3.990234V186.112305
		C112.627441,183.718262,114.223633,182.108398,116.617676,182.108398L116.617676,182.108398z M301.931641,190.102051H121.405762
		v119.810059h180.525879V190.102051z"/>
</g>
</svg>
